<svg width="25" height="29" viewBox="0 0 25 29" fill="none" xmlns="http://www.w3.org/2000/svg">
<g clip-path="url(#clip0_121_1034)">
<path d="M0.862569 13.9908C0.526429 14.327 0.526429 14.88 0.862569 15.2161L10.4046 24.7581C10.7407 25.0943 11.2937 25.0943 11.6299 24.7581C11.966 24.422 11.966 23.869 11.6299 23.5329L3.56795 15.4709L24.0291 15.4709C24.5062 15.4709 24.8965 15.0806 24.8965 14.6035C24.8965 14.1264 24.5062 13.736 24.0291 13.736L3.56795 13.736L11.6299 5.67409C11.966 5.33795 11.966 4.78495 11.6299 4.44881C11.2937 4.11267 10.7407 4.11267 10.4046 4.44881L0.862569 13.9908Z" fill="white"/>
</g>
<defs>
<clipPath id="clip0_121_1034">
<rect width="24.2888" height="27.7586" fill="white" transform="translate(24.8965 28.4828) rotate(-180)"/>
</clipPath>
</defs>
</svg>
