<svg width="25" height="29" viewBox="0 0 25 29" fill="none" xmlns="http://www.w3.org/2000/svg">
<g clip-path="url(#clip0_121_1038)">
<path d="M24.1375 15.0092C24.4736 14.673 24.4736 14.12 24.1375 13.7839L14.5955 4.24185C14.2593 3.90571 13.7063 3.90571 13.3702 4.24185C13.034 4.57799 13.034 5.13099 13.3702 5.46713L21.4321 13.5291L0.970973 13.5291C0.493871 13.5291 0.103516 13.9194 0.103516 14.3965C0.103516 14.8736 0.493871 15.264 0.970973 15.264L21.4321 15.264L13.3702 23.3259C13.034 23.662 13.034 24.215 13.3702 24.5512C13.7063 24.8873 14.2593 24.8873 14.5955 24.5512L24.1375 15.0092Z" fill="white"/>
</g>
<defs>
<clipPath id="clip0_121_1038">
<rect width="24.2888" height="27.7586" fill="white" transform="translate(0.103516 0.517212)"/>
</clipPath>
</defs>
</svg>
