<svg width="1920" height="1080" viewBox="0 0 1920 1080" fill="none" xmlns="http://www.w3.org/2000/svg">
<g clip-path="url(#clip0_12_1260)">
<path d="M-309.25 -136.22C-113.74 378.14 116.66 1116.45 -67.06 1096.87" stroke="#E6007E" stroke-width="2" stroke-miterlimit="10"/>
<path d="M-261.15 -135.09C-57.0799 378.54 161.6 1119.68 -31.5299 1097.92" stroke="#E6007E" stroke-width="2" stroke-miterlimit="10"/>
<path d="M-213.05 -133.96C-0.420044 378.93 206.53 1122.91 3.99995 1098.97" stroke="#E6007E" stroke-width="2" stroke-miterlimit="10"/>
<path d="M-164.95 -132.82C56.2401 379.33 251.47 1126.14 39.53 1100.02" stroke="#E6007E" stroke-width="2" stroke-miterlimit="10"/>
<path d="M-116.85 -131.69C112.9 379.72 296.41 1129.37 75.0699 1101.07" stroke="#E6007E" stroke-width="2" stroke-miterlimit="10"/>
<path d="M-68.75 -130.55C169.56 380.12 341.35 1132.59 110.6 1102.12" stroke="#E6007E" stroke-width="2" stroke-miterlimit="10"/>
<path d="M-20.6599 -129.42C226.22 380.51 386.28 1135.82 146.13 1103.17" stroke="#E6007E" stroke-width="2" stroke-miterlimit="10"/>
<path d="M27.4399 -128.29C282.88 380.9 431.22 1139.05 181.66 1104.22" stroke="#E6007E" stroke-width="2" stroke-miterlimit="10"/>
<path d="M75.54 -127.15C339.54 381.3 476.16 1142.28 217.2 1105.28" stroke="#E6007E" stroke-width="2" stroke-miterlimit="10"/>
<path d="M123.64 -126.02C396.21 381.7 521.1 1145.51 252.73 1106.32" stroke="#E6007E" stroke-width="2" stroke-miterlimit="10"/>
<path d="M171.74 -124.88C452.87 382.1 566.04 1148.74 288.26 1107.38" stroke="#E6007E" stroke-width="2" stroke-miterlimit="10"/>
<path d="M219.84 -123.75C509.53 382.49 610.98 1151.97 323.8 1108.42" stroke="#E6007E" stroke-width="2" stroke-miterlimit="10"/>
<path d="M267.94 -122.61C566.2 382.89 655.92 1155.2 359.33 1109.48" stroke="#E6007E" stroke-width="2" stroke-miterlimit="10"/>
<path d="M316.03 -121.48C622.85 383.28 700.85 1158.43 394.86 1110.53" stroke="#E6007E" stroke-width="2" stroke-miterlimit="10"/>
<path d="M364.13 -120.35C679.51 383.67 745.79 1161.65 430.39 1111.57" stroke="#E6007E" stroke-width="2" stroke-miterlimit="10"/>
<path d="M412.23 -119.21C736.17 384.07 790.73 1164.89 465.92 1112.63" stroke="#E6007E" stroke-width="2" stroke-miterlimit="10"/>
<path d="M460.33 -118.08C792.84 384.46 835.67 1168.11 501.46 1113.68" stroke="#E6007E" stroke-width="2" stroke-miterlimit="10"/>
<path d="M508.43 -116.94C849.5 384.87 880.61 1171.35 536.99 1114.73" stroke="#E6007E" stroke-width="2" stroke-miterlimit="10"/>
<path d="M556.53 -115.81C906.16 385.26 925.55 1174.57 572.53 1115.78" stroke="#E6007E" stroke-width="2" stroke-miterlimit="10"/>
<path d="M604.62 -114.67C962.82 385.66 970.48 1177.81 608.05 1116.83" stroke="#E6007E" stroke-width="2" stroke-miterlimit="10"/>
<path d="M652.72 -113.54C1019.48 386.05 1015.42 1181.03 643.59 1117.88" stroke="#E6007E" stroke-width="2" stroke-miterlimit="10"/>
<path d="M700.82 -112.41C1076.14 386.44 1060.36 1184.26 679.12 1118.93" stroke="#E6007E" stroke-width="2" stroke-miterlimit="10"/>
<path d="M748.92 -111.27C1132.8 386.84 1105.29 1187.49 714.65 1119.98" stroke="#E6007E" stroke-width="2" stroke-miterlimit="10"/>
<path d="M797.02 -110.14C1189.47 387.23 1150.23 1190.72 750.19 1121.03" stroke="#E6007E" stroke-width="2" stroke-miterlimit="10"/>
<path d="M845.12 -109C1246.13 387.64 1195.17 1193.95 785.72 1122.08" stroke="#E6007E" stroke-width="2" stroke-miterlimit="10"/>
<path d="M893.22 -107.87C1302.79 388.03 1240.11 1197.18 821.26 1123.13" stroke="#E6007E" stroke-width="2" stroke-miterlimit="10"/>
<path d="M941.31 -106.73C1359.45 388.43 1285.04 1200.41 856.78 1124.19" stroke="#E6007E" stroke-width="2" stroke-miterlimit="10"/>
<path d="M989.41 -105.6C1416.11 388.82 1329.98 1203.64 892.31 1125.23" stroke="#E6007E" stroke-width="2" stroke-miterlimit="10"/>
<path d="M1037.51 -104.47C1472.77 389.21 1374.92 1206.86 927.85 1126.28" stroke="#E6007E" stroke-width="2" stroke-miterlimit="10"/>
<path d="M1085.61 -103.33C1529.43 389.61 1419.86 1210.1 963.38 1127.34" stroke="#E6007E" stroke-width="2" stroke-miterlimit="10"/>
<path d="M1133.71 -102.2C1586.1 390 1464.8 1213.32 998.92 1128.38" stroke="#E6007E" stroke-width="2" stroke-miterlimit="10"/>
<path d="M1181.81 -101.06C1642.76 390.4 1509.74 1216.56 1034.45 1129.44" stroke="#E6007E" stroke-width="2" stroke-miterlimit="10"/>
<path d="M1229.9 -99.9302C1699.41 390.8 1554.67 1219.78 1069.98 1130.48" stroke="#E6007E" stroke-width="2" stroke-miterlimit="10"/>
<path d="M1278 -98.79C1756.08 391.2 1599.61 1223.02 1105.51 1131.54" stroke="#E6007E" stroke-width="2" stroke-miterlimit="10"/>
<path d="M1326.1 -97.6602C1812.74 391.59 1644.55 1226.24 1141.04 1132.59" stroke="#E6007E" stroke-width="2" stroke-miterlimit="10"/>
<path d="M1374.2 -96.5298C1869.4 391.98 1689.49 1229.46 1176.58 1133.63" stroke="#E6007E" stroke-width="2" stroke-miterlimit="10"/>
<path d="M1422.3 -95.3901C1926.06 392.38 1734.43 1232.7 1212.11 1134.69" stroke="#E6007E" stroke-width="2" stroke-miterlimit="10"/>
<path d="M1470.4 -94.2598C1982.73 392.77 1779.37 1235.92 1247.65 1135.73" stroke="#E6007E" stroke-width="2" stroke-miterlimit="10"/>
<path d="M1518.5 -93.1201C2039.39 393.17 1824.31 1239.16 1283.18 1136.79" stroke="#E6007E" stroke-width="2" stroke-miterlimit="10"/>
<path d="M1566.59 -91.9902C2096.04 393.56 1869.24 1242.38 1318.7 1137.84" stroke="#E6007E" stroke-width="2" stroke-miterlimit="10"/>
<path d="M1614.69 -90.8501C2152.71 393.97 1914.18 1245.62 1354.24 1138.89" stroke="#E6007E" stroke-width="2" stroke-miterlimit="10"/>
<path d="M1662.79 -89.7202C2209.37 394.36 1959.12 1248.84 1389.77 1139.94" stroke="#E6007E" stroke-width="2" stroke-miterlimit="10"/>
<path d="M1710.89 -88.5898C2266.03 394.75 2004.06 1252.07 1425.31 1140.98" stroke="#E6007E" stroke-width="2" stroke-miterlimit="10"/>
<path d="M1758.99 -87.4502C2322.69 395.15 2048.99 1255.3 1460.84 1142.04" stroke="#E6007E" stroke-width="2" stroke-miterlimit="10"/>
<path d="M1807.09 -86.3198C2379.36 395.54 2093.93 1258.53 1496.38 1143.09" stroke="#E6007E" stroke-width="2" stroke-miterlimit="10"/>
<path d="M1855.18 -85.1802C2436.01 395.94 2138.86 1261.76 1531.9 1144.14" stroke="#E6007E" stroke-width="2" stroke-miterlimit="10"/>
<path d="M1903.28 -84.0498C2492.67 396.33 2183.8 1264.99 1567.43 1145.19" stroke="#E6007E" stroke-width="2" stroke-miterlimit="10"/>
<path d="M1951.38 -82.9102C2549.34 396.73 2228.74 1268.22 1602.97 1146.25" stroke="#E6007E" stroke-width="2" stroke-miterlimit="10"/>
<path d="M1999.48 -81.7798C2606 397.13 2273.68 1271.45 1638.5 1147.29" stroke="#E6007E" stroke-width="2" stroke-miterlimit="10"/>
<path d="M2047.58 -80.6499C2662.66 397.52 2318.62 1274.67 1674.04 1148.34" stroke="#E6007E" stroke-width="2" stroke-miterlimit="10"/>
</g>
<defs>
<clipPath id="clip0_12_1260">
<rect width="1920" height="1080" fill="white"/>
</clipPath>
</defs>
</svg>
