<svg width="1920" height="1080" viewBox="0 0 1920 1080" fill="none" xmlns="http://www.w3.org/2000/svg">
<g clip-path="url(#clip0_12_1312)">
<path d="M31.12 8.41023C38.01 -0.439768 44.96 -9.31977 51.98 -18.0798C43.17 -25.1398 34.32 -32.0598 25.4 -39.0098" stroke="#312783" stroke-width="3.97"/>
<path d="M871.07 7.95008C880.3 2.30008 889.72 -2.94992 900.2 -7.03992C896.12 -17.5499 890.42 -27.9299 884.34 -37.9199" stroke="#312783" stroke-width="3.97"/>
<path d="M1003.62 14.12C993.38 13.79 983.15 13.22 972.94 12.27C962.74 11.32 952.57 9.98998 942.52 7.97998" stroke="#312783" stroke-width="3.97"/>
<path d="M977.94 36.65C986.9 29.33 995.41 21.83 1003.62 14.12C995.93 5.92004 988.53 -2.47996 981.62 -10.96" stroke="#312783" stroke-width="3.97"/>
<path d="M1110.13 11.6802C1089.68 12.9202 1069.2 13.8702 1048.72 14.2902" stroke="#312783" stroke-width="3.97"/>
<path d="M1087.43 36.8401C1095.12 28.5001 1102.67 20.1301 1110.14 11.6901C1101.71 4.24014 1093.37 -3.28986 1085.16 -10.8599" stroke="#312783" stroke-width="3.97"/>
<path d="M1216.37 3.25977C1195.97 5.14977 1175.55 6.93977 1155.13 8.53977" stroke="#312783" stroke-width="3.97"/>
<path d="M1194.68 29.1999C1201.95 20.5699 1209.18 11.9199 1216.37 3.25988C1207.71 -3.93012 1199.08 -11.1401 1190.49 -18.3701" stroke="#312783" stroke-width="3.97"/>
<path d="M1322.43 -7.18018L1261.27 -1.04018" stroke="#312783" stroke-width="3.97"/>
<path d="M1301.07 18.9802L1322.43 -7.17978L1296.28 -28.5298" stroke="#312783" stroke-width="3.97"/>
<path d="M1407.05 8.32004L1428.48 -17.75L1402.38 -39.21" stroke="#312783" stroke-width="3.97"/>
<path d="M93.19 56.8999L62.56 59.4699L31.95 62.2899" stroke="#312783" stroke-width="3.97"/>
<path d="M71.44 82.6901L93.19 56.9001L67.34 35.1001" stroke="#312783" stroke-width="3.97"/>
<path d="M197.73 49.8599L182.38 50.7199L167.04 51.6799L151.71 52.6499L136.37 53.7099" stroke="#312783" stroke-width="3.97"/>
<path d="M175.35 75.0899C182.77 66.6299 190.23 58.2499 197.73 49.8599C189.34 42.3599 180.9 34.8499 172.43 27.4199" stroke="#312783" stroke-width="3.97"/>
<path d="M302.39 45.0298L271.68 46.2298L240.97 47.5998" stroke="#312783" stroke-width="3.97"/>
<path d="M279.5 69.8098L302.39 45.0298L277.57 22.0898" stroke="#312783" stroke-width="3.97"/>
<path d="M407.13 42.25C396.89 42.43 386.64 42.61 376.4 42.87L361.04 43.22L345.68 43.65" stroke="#312783" stroke-width="3.97"/>
<path d="M383.77 66.5901C391.52 58.4301 399.31 50.3701 407.13 42.2601C399.03 34.4601 390.9 26.6001 382.74 18.8501" stroke="#312783" stroke-width="3.97"/>
<path d="M511.91 41.4302L496.54 41.4102L481.17 41.4602C470.92 41.4702 460.68 41.5802 450.43 41.6602" stroke="#312783" stroke-width="3.97"/>
<path d="M488.09 65.3198C495.99 57.3198 503.93 49.3898 511.91 41.4398C503.97 33.4698 495.99 25.4798 487.97 17.5698" stroke="#312783" stroke-width="3.97"/>
<path d="M616.67 43.0002C596.19 42.3902 575.7 41.9702 555.21 41.7402" stroke="#312783" stroke-width="3.97"/>
<path d="M592.26 66.2598C600.34 58.4798 608.48 50.6798 616.67 42.9998C608.95 34.7698 601.17 26.6498 593.34 18.5098" stroke="#312783" stroke-width="3.97"/>
<path d="M721.33 47.8898C700.88 46.5698 680.42 45.4398 659.95 44.5698" stroke="#312783" stroke-width="3.97"/>
<path d="M696.15 70.2498C704.47 62.7898 712.86 55.3398 721.33 47.8898C713.91 39.4598 706.42 31.0198 698.85 22.5698" stroke="#312783" stroke-width="3.97"/>
<path d="M825.65 57.5599C815.47 56.3899 805.31 55.0499 795.11 54.0899L779.82 52.5299L764.51 51.1899" stroke="#312783" stroke-width="3.97"/>
<path d="M799.36 78.52C808 71.45 816.75 64.53 825.65 57.55C818.74 48.73 811.69 39.83 804.51 31.04" stroke="#312783" stroke-width="3.97"/>
<path d="M928.44 77.2301C927.22 76.8501 926.01 76.4201 924.77 76.0801L921.06 75.1001L913.63 73.1301L909.92 72.1501C908.68 71.8201 907.42 71.5801 906.17 71.2901L898.67 69.6301L891.17 67.9801L883.62 66.5601L876.07 65.1401L872.29 64.4301L868.5 63.8101" stroke="#312783" stroke-width="3.97"/>
<path d="M899.94 94.3699C904.59 91.2499 909.13 88.4299 913.89 85.5499C916.26 84.1199 918.66 82.6999 921.1 81.2799C922.31 80.5799 923.55 79.8499 924.77 79.1799L928.45 77.2299L926.45 73.4499C925.77 72.2099 925.06 71.0099 924.36 69.7899C922.95 67.3599 921.5 64.9199 920.02 62.4699C917.07 57.5899 913.96 52.5699 910.8 47.8599" stroke="#312783" stroke-width="3.97"/>
<path d="M1031.36 94.18C1010.89 93.48 990.4 92.01 970.2 88.52" stroke="#312783" stroke-width="3.97"/>
<path d="M1005.77 116.76C1014.66 109.45 1023.14 101.87 1031.36 94.1799C1023.67 85.9599 1016.24 77.6399 1009.26 69.1299" stroke="#312783" stroke-width="3.97"/>
<path d="M1136.08 92.0298C1115.62 93.2298 1095.15 94.1098 1074.66 94.4598" stroke="#312783" stroke-width="3.97"/>
<path d="M1113.31 117.13C1121.03 108.82 1128.61 100.44 1136.08 92.0299C1127.66 84.5499 1119.35 77.0199 1111.16 69.4199" stroke="#312783" stroke-width="3.97"/>
<path d="M1240.51 83.5898C1220.12 85.5898 1199.71 87.4098 1179.28 89.0398" stroke="#312783" stroke-width="3.97"/>
<path d="M1218.91 109.62C1226.17 100.96 1233.36 92.2901 1240.51 83.5901C1231.81 76.4401 1223.16 69.2701 1214.57 62.0601" stroke="#312783" stroke-width="3.97"/>
<path d="M1344.68 72.3398C1324.33 74.6898 1303.96 76.9998 1283.59 79.1698" stroke="#312783" stroke-width="3.97"/>
<path d="M1323.64 98.7801L1344.68 72.3401L1318.28 51.3301" stroke="#312783" stroke-width="3.97"/>
<path d="M1448.72 59.8799L1387.69 67.2699" stroke="#312783" stroke-width="3.97"/>
<path d="M1427.9 86.4701L1448.72 59.8801L1422.14 39.0601" stroke="#312783" stroke-width="3.97"/>
<path d="M1552.74 47.27L1491.71 54.64" stroke="#312783" stroke-width="3.97"/>
<path d="M1531.88 73.8199L1552.74 47.2699L1526.17 26.3999" stroke="#312783" stroke-width="3.97"/>
<path d="M1656.85 35.4902C1636.47 37.5902 1616.11 39.9002 1595.75 42.2402" stroke="#312783" stroke-width="3.97"/>
<path d="M1635.73 61.7498C1642.75 52.9498 1649.73 44.2498 1656.86 35.4798C1648.16 28.3998 1639.3 21.2998 1630.5 14.2798" stroke="#312783" stroke-width="3.97"/>
<path d="M1761.32 27.6299C1740.85 28.5599 1720.4 29.9199 1699.98 31.5599" stroke="#312783" stroke-width="3.97"/>
<path d="M1738.92 52.7598C1746.28 44.2998 1753.74 35.9998 1761.33 27.6398C1753.02 20.0998 1744.58 12.5098 1736.05 5.08984" stroke="#312783" stroke-width="3.97"/>
<path d="M1866.07 26.7301C1845.59 26.0301 1825.09 25.9301 1804.61 26.2801" stroke="#312783" stroke-width="3.97"/>
<path d="M1841.89 50.0598L1847.85 44.1498L1853.86 38.3298C1857.89 34.4598 1861.96 30.5598 1866.08 26.7198C1862.24 22.5998 1858.36 18.5498 1854.43 14.4598L1848.5 8.3398L1842.52 2.2998" stroke="#312783" stroke-width="3.97"/>
<path d="M1970.28 36.8502C1950.09 33.3302 1929.73 30.9002 1909.31 29.2202" stroke="#312783" stroke-width="3.97"/>
<path d="M31.4 144.27C21.18 144.94 10.97 145.82 0.749994 146.58C-9.47001 147.37 -19.67 148.32 -29.88 149.18" stroke="#312783" stroke-width="3.97"/>
<path d="M9.44998 169.86C16.71 161.33 24.02 152.73 31.4 144.27C22.89 136.85 14.34 129.58 5.72998 122.25" stroke="#312783" stroke-width="3.97"/>
<path d="M134.5 138.28C114.03 139.23 93.57 140.3 73.12 141.54" stroke="#312783" stroke-width="3.97"/>
<path d="M111.87 163.28L134.5 138.28L109.42 115.58" stroke="#312783" stroke-width="3.97"/>
<path d="M237.71 134.53L206.99 135.44L176.27 136.51" stroke="#312783" stroke-width="3.97"/>
<path d="M214.58 159.1C222.26 150.91 229.96 142.68 237.71 134.53C229.54 126.77 221.34 119.09 213.1 111.36" stroke="#312783" stroke-width="3.97"/>
<path d="M340.97 132.62L310.24 133.02C300 133.17 289.75 133.34 279.51 133.56" stroke="#312783" stroke-width="3.97"/>
<path d="M317.43 156.79L340.97 132.62L316.76 109.04" stroke="#312783" stroke-width="3.97"/>
<path d="M444.25 132.31C423.76 132.21 403.27 132.23 382.78 132.31" stroke="#312783" stroke-width="3.97"/>
<path d="M420.34 156.13L444.25 132.31L420.39 108.37" stroke="#312783" stroke-width="3.97"/>
<path d="M547.52 133.56C527.03 133.13 506.55 132.85 486.06 132.61" stroke="#312783" stroke-width="3.97"/>
<path d="M523.25 157C531.31 149.17 539.4 141.34 547.51 133.56C539.71 125.43 531.88 117.33 524.02 109.25" stroke="#312783" stroke-width="3.97"/>
<path d="M650.74 136.82L635.39 136.14L620.03 135.56C609.79 135.14 599.55 134.88 589.31 134.56" stroke="#312783" stroke-width="3.97"/>
<path d="M625.97 159.68C634.18 152 642.44 144.4 650.74 136.81C643.15 128.49 635.5 120.18 627.8 111.95" stroke="#312783" stroke-width="3.97"/>
<path d="M753.83 143.02C748.72 142.6 743.61 142.24 738.5 141.89L723.17 140.82L692.49 138.92" stroke="#312783" stroke-width="3.97"/>
<path d="M728.38 165.12C736.8 157.75 745.29 150.3 753.83 143.02C746.5 134.42 739.1 125.99 731.65 117.48" stroke="#312783" stroke-width="3.97"/>
<path d="M856.62 153.01L848.99 152.07L841.35 151.22L826.08 149.53C815.89 148.5 805.69 147.46 795.49 146.52" stroke="#312783" stroke-width="3.97"/>
<path d="M830.31 174.02C838.99 166.98 847.77 159.89 856.62 153.01C849.68 144.09 842.62 135.35 835.49 126.54" stroke="#312783" stroke-width="3.97"/>
<path d="M958.55 169.38L954.8 168.54C953.55 168.27 952.29 168.04 951.03 167.79L943.49 166.31L935.95 164.83L928.38 163.51C923.33 162.65 918.29 161.71 913.23 160.92L898.04 158.57" stroke="#312783" stroke-width="3.97"/>
<path d="M930.82 188.16C935.34 184.97 939.9 181.83 944.53 178.68C949.16 175.54 953.84 172.36 958.56 169.39C955.53 164.59 952.39 159.95 949.21 155.27C946.03 150.59 942.78 145.88 939.48 141.2" stroke="#312783" stroke-width="3.97"/>
<path d="M1060.82 182.13C1040.34 181.54 1019.86 180.25 999.56 177.45" stroke="#312783" stroke-width="3.97"/>
<path d="M1035.5 204.89L1042 199.32C1044.14 197.43 1046.26 195.51 1048.37 193.6C1052.58 189.78 1056.73 185.97 1060.82 182.12C1056.95 178.01 1053.14 173.86 1049.4 169.74C1047.53 167.67 1045.67 165.62 1043.84 163.54L1038.43 157.21" stroke="#312783" stroke-width="3.97"/>
<path d="M1164.04 179.83C1143.59 181.03 1123.11 181.97 1102.62 182.26" stroke="#312783" stroke-width="3.97"/>
<path d="M1141.26 204.94C1148.98 196.59 1156.57 188.3 1164.04 179.83C1155.62 172.41 1147.31 164.8 1139.13 157.23" stroke="#312783" stroke-width="3.97"/>
<path d="M1266.95 171.24C1246.56 173.29 1226.17 175.31 1205.74 176.89" stroke="#312783" stroke-width="3.97"/>
<path d="M1245.46 197.39C1252.69 188.67 1259.85 179.96 1266.95 171.25C1258.21 164.13 1249.53 156.99 1240.92 149.85" stroke="#312783" stroke-width="3.97"/>
<path d="M1369.51 159.1C1359.36 160.47 1349.18 161.69 1339.02 163C1328.85 164.23 1318.68 165.49 1308.5 166.66" stroke="#312783" stroke-width="3.97"/>
<path d="M1348.8 185.83C1355.75 176.92 1362.65 168.05 1369.51 159.1C1360.59 152.27 1351.7 145.34 1342.85 138.44" stroke="#312783" stroke-width="3.97"/>
<path d="M1471.79 144.74C1451.52 147.77 1431.24 150.67 1410.95 153.52" stroke="#312783" stroke-width="3.97"/>
<path d="M1451.59 171.84C1458.35 162.82 1465.08 153.79 1471.78 144.74C1462.74 138.05 1453.72 131.32 1444.72 124.58" stroke="#312783" stroke-width="3.97"/>
<path d="M1573.85 128.92C1553.62 132.18 1533.38 135.35 1513.13 138.48" stroke="#312783" stroke-width="3.97"/>
<path d="M1554 156.27L1573.85 128.92L1546.54 109.09" stroke="#312783" stroke-width="3.97"/>
<path d="M1675.77 112.24L1615.12 122.23" stroke="#312783" stroke-width="3.97"/>
<path d="M1656.12 139.67L1675.77 112.24L1648.3 92.5498" stroke="#312783" stroke-width="3.97"/>
<path d="M1778.1 98.3599C1757.73 100.58 1737.4 103.16 1717.11 106.02" stroke="#312783" stroke-width="3.97"/>
<path d="M1757.28 124.82C1764.12 115.94 1771.06 107.15 1778.1 98.3599C1769.32 91.3299 1760.44 84.3199 1751.48 77.4199" stroke="#312783" stroke-width="3.97"/>
<path d="M1881.05 90.25C1860.58 91.13 1840.13 92.54 1819.72 94.29" stroke="#312783" stroke-width="3.97"/>
<path d="M1858.66 115.36C1865.99 106.9 1873.44 98.5999 1881.05 90.2499C1872.75 82.6899 1864.31 75.0999 1855.75 67.6899" stroke="#312783" stroke-width="3.97"/>
<path d="M87.28 214.01L71.92 214.47L56.56 215.03C46.32 215.37 36.09 215.83 25.85 216.29" stroke="#312783" stroke-width="3.97"/>
<path d="M64.26 238.65C71.89 230.38 79.56 222.2 87.28 214.01C79.09 206.29 70.85 198.56 62.57 190.92" stroke="#312783" stroke-width="3.97"/>
<path d="M193.79 211.96L163.05 212.33L132.32 212.86" stroke="#312783" stroke-width="3.97"/>
<path d="M170.23 236.12L193.79 211.96L169.59 188.37" stroke="#312783" stroke-width="3.97"/>
<path d="M300.31 211.85L269.57 211.72C259.32 211.69 249.08 211.68 238.83 211.72" stroke="#312783" stroke-width="3.97"/>
<path d="M276.35 235.61L300.31 211.85L276.51 187.85" stroke="#312783" stroke-width="3.97"/>
<path d="M406.82 213.27C386.33 212.86 365.85 212.53 345.36 212.27" stroke="#312783" stroke-width="3.97"/>
<path d="M382.54 236.71L406.82 213.27L383.35 188.96" stroke="#312783" stroke-width="3.97"/>
<path d="M513.31 216.08C492.83 215.4 472.35 214.82 451.86 214.29" stroke="#312783" stroke-width="3.97"/>
<path d="M488.73 239.2L513.31 216.08L490.15 191.46" stroke="#312783" stroke-width="3.97"/>
<path d="M619.75 220.32C599.28 219.35 578.81 218.47 558.34 217.68" stroke="#312783" stroke-width="3.97"/>
<path d="M594.84 243.08L619.75 220.32L596.94 195.37" stroke="#312783" stroke-width="3.97"/>
<path d="M726.07 226.8C715.85 226.01 705.63 225.37 695.41 224.65L664.73 222.73" stroke="#312783" stroke-width="3.97"/>
<path d="M700.63 248.95C709.07 241.55 717.55 234.13 726.07 226.8C718.71 218.25 711.31 209.79 703.87 201.3" stroke="#312783" stroke-width="3.97"/>
<path d="M832.21 235.84C811.82 233.82 791.41 232.03 770.99 230.3" stroke="#312783" stroke-width="3.97"/>
<path d="M806.25 257.37C814.86 250.15 823.51 242.98 832.21 235.84C825.06 227.13 817.86 218.45 810.62 209.81" stroke="#312783" stroke-width="3.97"/>
<path d="M938.06 247.69C927.89 246.43 917.73 245.1 907.55 243.94L892.29 242.15L877.01 240.46" stroke="#312783" stroke-width="3.97"/>
<path d="M911.51 268.45C920.3 261.49 929.15 254.6 938.06 247.69C931.18 238.82 924.23 229.9 917.22 221.04" stroke="#312783" stroke-width="3.97"/>
<path d="M1043.65 261.59C1038.55 261.14 1033.43 260.82 1028.35 260.19C1023.26 259.61 1018.16 259.14 1013.09 258.35C1002.94 256.97 992.82 255.33 982.69 253.82" stroke="#312783" stroke-width="3.97"/>
<path d="M1017 282.96C1021.62 279.47 1026.14 275.96 1030.58 272.45C1035.01 268.9 1039.37 265.21 1043.65 261.59C1040 257.28 1036.41 253.04 1032.93 248.69C1029.46 244.3 1026.07 239.92 1022.78 235.56" stroke="#312783" stroke-width="3.97"/>
<path d="M1150.11 263.21C1144.99 263.35 1139.87 263.57 1134.75 263.65L1119.38 263.9C1109.14 263.93 1098.89 263.97 1088.65 263.72" stroke="#312783" stroke-width="3.97"/>
<path d="M1126.59 287.67C1130.59 283.62 1134.55 279.59 1138.47 275.52L1150.11 263.21L1137.88 251.65C1133.84 247.76 1129.84 243.83 1125.88 239.92" stroke="#312783" stroke-width="3.97"/>
<path d="M1256.39 256.24C1235.99 258.19 1215.56 259.72 1195.11 261.05" stroke="#312783" stroke-width="3.97"/>
<path d="M1234.55 282.13C1241.93 273.59 1249.2 264.88 1256.39 256.25C1247.72 249.03 1239.14 241.88 1230.65 234.54" stroke="#312783" stroke-width="3.97"/>
<path d="M1362.2 244.06C1352.05 245.47 1341.88 246.72 1331.72 248.02L1316.46 249.85C1311.37 250.45 1306.29 251.08 1301.19 251.62" stroke="#312783" stroke-width="3.97"/>
<path d="M1341.52 270.84C1348.48 261.94 1355.38 253.03 1362.2 244.05C1353.25 237.26 1344.35 230.36 1335.53 223.46" stroke="#312783" stroke-width="3.97"/>
<path d="M1467.51 228.06C1457.4 229.72 1447.3 231.44 1437.18 233.01L1422 235.41L1406.8 237.7" stroke="#312783" stroke-width="3.97"/>
<path d="M1447.75 255.52C1454.4 246.39 1460.98 237.2 1467.51 228.06C1458.34 221.5 1449.22 214.97 1440.15 208.37" stroke="#312783" stroke-width="3.97"/>
<path d="M1572.29 208.85C1562.25 210.87 1552.18 212.76 1542.12 214.71C1532.04 216.57 1521.98 218.51 1511.9 220.3" stroke="#312783" stroke-width="3.97"/>
<path d="M1553.34 236.87C1559.7 227.52 1566.03 218.24 1572.29 208.85C1562.94 202.63 1553.62 196.26 1544.36 189.96" stroke="#312783" stroke-width="3.97"/>
<path d="M1676.47 186.68L1661.48 190.08L1646.47 193.38C1636.47 195.61 1626.44 197.69 1616.42 199.84" stroke="#312783" stroke-width="3.97"/>
<path d="M1658.33 215.22C1664.44 205.75 1670.48 196.19 1676.48 186.68C1666.95 180.67 1657.48 174.69 1648.03 168.59" stroke="#312783" stroke-width="3.97"/>
<path d="M1780.76 165C1760.6 168.68 1740.5 172.66 1720.46 176.92" stroke="#312783" stroke-width="3.97"/>
<path d="M1761.85 192.88C1768.06 183.54 1774.36 174.28 1780.76 165C1771.5 158.62 1762.15 152.26 1752.74 146" stroke="#312783" stroke-width="3.97"/>
<path d="M1885.99 148.52C1865.67 151.13 1845.39 154.1 1825.16 157.36" stroke="#312783" stroke-width="3.97"/>
<path d="M1865.67 175.36C1869 170.84 1872.36 166.39 1875.75 161.91C1879.14 157.45 1882.54 152.94 1885.99 148.51C1881.53 145.04 1877.06 141.67 1872.56 138.25C1868.06 134.84 1863.53 131.43 1858.98 128.07" stroke="#312783" stroke-width="3.97"/>
<path d="M24.28 287.01L8.91002 287.27L-6.44999 287.63L-21.81 288.03L-37.17 288.55" stroke="#312783" stroke-width="3.97"/>
<path d="M0.949995 311.34C8.66 303.15 16.45 295.13 24.28 287.02C16.19 279.22 8.05999 271.32 -0.130005 263.6" stroke="#312783" stroke-width="3.97"/>
<path d="M129.89 286.66C109.4 286.5 88.91 286.47 68.42 286.56" stroke="#312783" stroke-width="3.97"/>
<path d="M105.93 310.42C113.88 302.49 121.86 294.53 129.88 286.66C121.98 278.61 114.05 270.65 106.07 262.66" stroke="#312783" stroke-width="3.97"/>
<path d="M235.48 288.36C215 287.87 194.51 287.46 174.02 287.16" stroke="#312783" stroke-width="3.97"/>
<path d="M211.11 311.69L235.48 288.36L212.1 263.95" stroke="#312783" stroke-width="3.97"/>
<path d="M341.04 291.61C320.56 290.85 300.08 290.17 279.6 289.55" stroke="#312783" stroke-width="3.97"/>
<path d="M316.35 314.63L341.04 291.61L317.99 266.9" stroke="#312783" stroke-width="3.97"/>
<path d="M446.55 296.12C426.08 295.14 405.61 294.21 385.14 293.35" stroke="#312783" stroke-width="3.97"/>
<path d="M421.6 318.85L446.55 296.12L423.79 271.14" stroke="#312783" stroke-width="3.97"/>
<path d="M552 301.81C531.55 300.6 511.09 299.43 490.63 298.36" stroke="#312783" stroke-width="3.97"/>
<path d="M526.8 324.26L552 301.81L529.53 276.58" stroke="#312783" stroke-width="3.97"/>
<path d="M657.37 308.88C636.94 307.33 616.5 305.92 596.05 304.57" stroke="#312783" stroke-width="3.97"/>
<path d="M631.86 330.95L657.37 308.88L635.25 283.31" stroke="#312783" stroke-width="3.97"/>
<path d="M762.61 317.76C742.2 315.91 721.79 314.11 701.37 312.4" stroke="#312783" stroke-width="3.97"/>
<path d="M736.72 339.42L762.61 317.76L740.93 291.84" stroke="#312783" stroke-width="3.97"/>
<path d="M867.75 327.7L806.55 321.83" stroke="#312783" stroke-width="3.97"/>
<path d="M841.69 349.17L867.75 327.7L846.27 301.63" stroke="#312783" stroke-width="3.97"/>
<path d="M972.84 338.06L911.67 332.01" stroke="#312783" stroke-width="3.97"/>
<path d="M946.73 359.47L972.84 338.06L951.44 311.94" stroke="#312783" stroke-width="3.97"/>
<path d="M1078.04 347.18L1070.36 346.88C1069.08 346.85 1067.8 346.76 1066.53 346.65L1062.7 346.36L1047.38 345.18C1037.16 344.49 1026.97 343.4 1016.77 342.41" stroke="#312783" stroke-width="3.97"/>
<path d="M1052.42 369.52C1056.81 365.86 1061.13 362.2 1065.4 358.54C1067.53 356.74 1069.65 354.83 1071.76 352.91L1078.04 347.18L1072.39 340.99C1070.52 338.94 1068.66 336.87 1066.83 334.71C1063.16 330.44 1059.55 326.17 1056 321.9" stroke="#312783" stroke-width="3.97"/>
<path d="M1183.61 347.26C1178.5 347.57 1173.37 347.61 1168.25 347.74L1152.89 348.09L1145.21 348.26C1142.65 348.31 1140.09 348.41 1137.53 348.36L1122.16 348.27" stroke="#312783" stroke-width="3.97"/>
<path d="M1160.29 371.81L1172.06 359.6L1177.87 353.5C1179.8 351.46 1181.71 349.34 1183.62 347.27C1181.55 345.37 1179.5 343.51 1177.45 341.57L1171.32 335.74L1159.21 324.07" stroke="#312783" stroke-width="3.97"/>
<path d="M1288.94 339.81C1278.74 340.76 1268.55 341.79 1258.34 342.67L1227.68 344.9" stroke="#312783" stroke-width="3.97"/>
<path d="M1267.23 365.86C1274.56 357.17 1281.8 348.48 1288.94 339.81C1280.24 332.64 1271.63 325.47 1263.11 318.28" stroke="#312783" stroke-width="3.97"/>
<path d="M1393.75 326.9C1383.61 328.38 1373.45 329.71 1363.31 331.12L1348.08 333.21C1343 333.85 1337.91 334.41 1332.82 335.01" stroke="#312783" stroke-width="3.97"/>
<path d="M1373.34 353.84C1380.22 344.84 1387.04 335.94 1393.74 326.9C1384.7 320.19 1375.72 313.33 1366.84 306.53" stroke="#312783" stroke-width="3.97"/>
<path d="M1497.81 308.97L1482.74 311.96L1467.61 314.66L1437.35 320.03" stroke="#312783" stroke-width="3.97"/>
<path d="M1478.68 336.94C1485.17 327.77 1491.52 318.31 1497.81 308.97C1488.48 302.69 1479.24 296.49 1470.03 289.97" stroke="#312783" stroke-width="3.97"/>
<path d="M1600.97 286.42C1591 288.8 1581.06 291.26 1571.08 293.57L1541.06 300.14" stroke="#312783" stroke-width="3.97"/>
<path d="M1583.15 315.27C1589.17 305.63 1595.12 296.02 1600.97 286.42C1591.35 280.55 1581.81 274.66 1572.36 268.75" stroke="#312783" stroke-width="3.97"/>
<path d="M1702.94 258.97C1683.23 264.59 1663.62 270.52 1643.75 275.54" stroke="#312783" stroke-width="3.97"/>
<path d="M1686.54 288.54C1692.1 278.66 1697.56 268.8 1702.94 258.97C1693.02 253.55 1683.18 248.1 1673.45 242.62" stroke="#312783" stroke-width="3.97"/>
<path d="M1804.77 231.03C1784.89 235.99 1765.07 241.21 1745.33 246.71" stroke="#312783" stroke-width="3.97"/>
<path d="M1787.65 260.04C1793.26 250.33 1798.98 240.7 1804.77 231.03C1795.13 225.25 1785.4 219.48 1775.62 213.82" stroke="#312783" stroke-width="3.97"/>
<path d="M1907.77 207.75C1887.69 211.83 1867.66 216.17 1847.69 220.75" stroke="#312783" stroke-width="3.97"/>
<path d="M1889.38 235.96C1895.43 226.57 1901.55 217.11 1907.77 207.75C1898.38 201.51 1888.94 195.4 1879.4 189.25" stroke="#312783" stroke-width="3.97"/>
<path d="M67.75 360.49L52.39 360.06L37.02 359.81L6.28998 359.31" stroke="#312783" stroke-width="3.97"/>
<path d="M43.39 383.8C51.46 375.93 59.59 368.22 67.75 360.5C60 352.31 52.22 344.1 44.37 336.06" stroke="#312783" stroke-width="3.97"/>
<path d="M172.71 364.2L111.29 361.76" stroke="#312783" stroke-width="3.97"/>
<path d="M147.88 387.1L172.71 364.2L149.82 339.38" stroke="#312783" stroke-width="3.97"/>
<path d="M277.6 369.59L246.91 367.88L231.56 367.03L216.21 366.29" stroke="#312783" stroke-width="3.97"/>
<path d="M252.45 392.1L277.6 369.59L255.06 344.42" stroke="#312783" stroke-width="3.97"/>
<path d="M382.41 376.19L351.75 374.1L321.07 372.19" stroke="#312783" stroke-width="3.97"/>
<path d="M357.02 398.39L382.41 376.19L360.16 350.74" stroke="#312783" stroke-width="3.97"/>
<path d="M487.16 383.86C466.74 382.19 446.3 380.76 425.86 379.23" stroke="#312783" stroke-width="3.97"/>
<path d="M461.54 405.81L487.16 383.86L465.17 358.19" stroke="#312783" stroke-width="3.97"/>
<path d="M591.81 392.67C571.41 390.76 550.98 389.11 530.57 387.35" stroke="#312783" stroke-width="3.97"/>
<path d="M565.95 414.32L591.81 392.67L570.11 366.75" stroke="#312783" stroke-width="3.97"/>
<path d="M696.32 403.1C675.95 400.86 655.58 398.66 635.18 396.73" stroke="#312783" stroke-width="3.97"/>
<path d="M670.04 424.28C678.74 417.22 687.51 410.1 696.32 403.11C689.32 394.29 682.25 385.58 675.12 376.79" stroke="#312783" stroke-width="3.97"/>
<path d="M800.7 414.71C780.32 412.54 759.96 410.28 739.6 407.99" stroke="#312783" stroke-width="3.97"/>
<path d="M774.36 435.88L800.7 414.71L779.56 388.41" stroke="#312783" stroke-width="3.97"/>
<path d="M905.21 425.11C884.8 423.24 864.41 421.3 844.02 419.23" stroke="#312783" stroke-width="3.97"/>
<path d="M879.17 446.67L905.21 425.11L883.69 399.13" stroke="#312783" stroke-width="3.97"/>
<path d="M1009.9 433.47C989.46 432.06 969.02 430.56 948.6 428.85" stroke="#312783" stroke-width="3.97"/>
<path d="M984.32 455.61L1009.9 433.47L987.83 407.98" stroke="#312783" stroke-width="3.97"/>
<path d="M1114.79 438.49C1104.54 438.49 1094.31 437.96 1084.07 437.6L1068.71 437.02L1053.37 436.17" stroke="#312783" stroke-width="3.97"/>
<path d="M1090.09 461.72L1102.54 450.24C1106.66 446.38 1110.74 442.4 1114.79 438.48C1110.88 434.44 1107 430.46 1103.16 426.37L1091.75 413.99" stroke="#312783" stroke-width="3.97"/>
<path d="M1219.78 436.9L1189.06 438.01L1181.38 438.29C1178.82 438.39 1176.26 438.37 1173.7 438.42L1158.33 438.61" stroke="#312783" stroke-width="3.97"/>
<path d="M1196.72 461.62C1204.52 453.37 1212.21 445.13 1219.78 436.89C1211.45 429.23 1203.22 421.56 1195.11 413.89" stroke="#312783" stroke-width="3.97"/>
<path d="M1324.48 428.72L1309.19 430.33L1301.55 431.12L1293.89 431.75L1263.26 434.26" stroke="#312783" stroke-width="3.97"/>
<path d="M1302.93 454.96C1310.22 446.26 1317.4 437.45 1324.48 428.72C1315.73 421.62 1307.08 414.57 1298.53 407.41" stroke="#312783" stroke-width="3.97"/>
<path d="M1428.57 414.85C1408.3 417.87 1388.09 421.25 1367.73 423.64" stroke="#312783" stroke-width="3.97"/>
<path d="M1408.5 442.06C1415.29 432.98 1421.98 423.9 1428.57 414.85C1419.42 408.19 1410.37 401.52 1401.42 394.83" stroke="#312783" stroke-width="3.97"/>
<path d="M1531.64 394.8C1526.65 395.94 1521.66 397.12 1516.66 398.22L1501.6 401.27L1486.54 404.32L1479.01 405.85C1476.5 406.36 1473.99 406.89 1471.47 407.31" stroke="#312783" stroke-width="3.97"/>
<path d="M1513.23 423.28L1517.91 416.24C1519.46 413.9 1521.01 411.56 1522.54 409.15L1531.64 394.81L1517.47 385.82C1515.13 384.34 1512.77 382.78 1510.42 381.22L1503.4 376.55" stroke="#312783" stroke-width="3.97"/>
<path d="M1633.27 368.42L1603.75 376.97L1574 384.68" stroke="#312783" stroke-width="3.97"/>
<path d="M1616.76 398.07C1622.39 388.15 1627.89 378.26 1633.28 368.41C1623.37 363 1613.59 357.55 1603.93 352.07" stroke="#312783" stroke-width="3.97"/>
<path d="M1732.81 334.98L1703.9 345.43L1689.45 350.65L1674.83 355.41" stroke="#312783" stroke-width="3.97"/>
<path d="M1718.48 365.56C1723.39 355.31 1728.18 345.15 1732.81 334.98C1722.49 330.29 1712.28 325.48 1702.23 320.65" stroke="#312783" stroke-width="3.97"/>
<path d="M1832.08 300.73C1822.29 303.75 1812.58 307.03 1802.85 310.24C1797.99 311.86 1793.11 313.42 1788.27 315.1L1773.76 320.16" stroke="#312783" stroke-width="3.97"/>
<path d="M1816.83 330.77L1824.37 315.7L1832.08 300.73L1817.02 292.98L1801.89 285.4" stroke="#312783" stroke-width="3.97"/>
<path d="M1932.74 270.79L1917.94 274.92L1903.18 279.2L1888.42 283.48C1883.5 284.9 1878.61 286.42 1873.7 287.89" stroke="#312783" stroke-width="3.97"/>
<path d="M1916.34 300.24C1921.72 290.36 1927.21 280.6 1932.73 270.79C1922.92 265.26 1913.06 259.72 1903.17 254.33" stroke="#312783" stroke-width="3.97"/>
<path d="M6.71003 427.58C1.59003 427.34 -3.51997 427.05 -8.63997 426.86L-24 426.34L-54.72 425.32" stroke="#312783" stroke-width="3.97"/>
<path d="M-18.06 450.43C-13.96 446.6 -9.85 442.72 -5.72 438.92L6.71 427.57L-4.71 415.06C-8.53 410.9 -12.38 406.82 -16.24 402.7" stroke="#312783" stroke-width="3.97"/>
<path d="M111.3 433.54C101.08 432.79 90.85 432.22 80.63 431.59L49.95 429.74" stroke="#312783" stroke-width="3.97"/>
<path d="M85.97 455.84L98.61 444.64L111.3 433.54L100.16 420.81L88.96 408.18" stroke="#312783" stroke-width="3.97"/>
<path d="M215.78 441.23L154.49 436.54" stroke="#312783" stroke-width="3.97"/>
<path d="M190.13 463.2L215.78 441.23L193.81 415.59" stroke="#312783" stroke-width="3.97"/>
<path d="M320.16 450.17C299.75 448.35 279.35 446.47 258.92 444.81" stroke="#312783" stroke-width="3.97"/>
<path d="M294.28 471.83L320.16 450.17L298.47 424.26" stroke="#312783" stroke-width="3.97"/>
<path d="M424.45 460.09C404.07 457.99 383.66 456.1 363.27 454.15" stroke="#312783" stroke-width="3.97"/>
<path d="M398.37 481.48L424.45 460.09L403.01 433.95" stroke="#312783" stroke-width="3.97"/>
<path d="M528.65 470.99C518.47 469.83 508.28 468.77 498.09 467.69L467.53 464.45" stroke="#312783" stroke-width="3.97"/>
<path d="M502.35 492.16C511.1 485.07 519.86 478.01 528.64 471C521.6 462.19 514.54 453.42 507.45 444.68" stroke="#312783" stroke-width="3.97"/>
<path d="M632.7 483.16L617.45 481.24L602.19 479.43L571.67 475.81" stroke="#312783" stroke-width="3.97"/>
<path d="M606.14 503.94C614.98 496.95 623.82 490.05 632.71 483.16C625.81 474.26 618.85 465.35 611.88 456.53" stroke="#312783" stroke-width="3.97"/>
<path d="M736.42 497.85C716.2 494.56 695.94 491.45 675.63 488.75" stroke="#312783" stroke-width="3.97"/>
<path d="M709.16 517.72L722.7 507.73C727.25 504.39 731.88 501.16 736.43 497.86C733.12 493.3 729.91 488.7 726.59 484.17L716.53 470.54" stroke="#312783" stroke-width="3.97"/>
<path d="M840.18 512.26C819.83 509.86 799.51 507.23 779.22 504.35" stroke="#312783" stroke-width="3.97"/>
<path d="M813.47 533.05C822.44 526.16 831.35 519.23 840.18 512.26C833.2 503.42 826.31 494.56 819.49 485.67" stroke="#312783" stroke-width="3.97"/>
<path d="M944.45 522.41C924.02 520.83 903.61 519.01 883.22 516.95" stroke="#312783" stroke-width="3.97"/>
<path d="M918.59 544.26C927.28 537 935.9 529.74 944.45 522.41C937.13 513.87 929.88 505.27 922.71 496.68" stroke="#312783" stroke-width="3.97"/>
<path d="M1049.03 528.37C1028.55 527.63 1008.09 526.63 987.63 525.39" stroke="#312783" stroke-width="3.97"/>
<path d="M1024.08 551.25C1032.47 543.66 1040.79 536.04 1049.03 528.37C1041.36 520.13 1033.78 511.85 1026.26 503.54" stroke="#312783" stroke-width="3.97"/>
<path d="M1153.78 529.87C1133.29 530.03 1112.8 529.93 1092.31 529.56" stroke="#312783" stroke-width="3.97"/>
<path d="M1129.84 553.83C1137.9 545.84 1145.88 537.93 1153.77 529.87C1145.75 522.01 1137.8 514.01 1129.95 506.08" stroke="#312783" stroke-width="3.97"/>
<path d="M1258.48 526.48C1238.02 527.64 1217.55 528.51 1197.07 529.09" stroke="#312783" stroke-width="3.97"/>
<path d="M1235.72 551.56C1243.4 543.25 1250.99 534.86 1258.48 526.48C1250.07 518.97 1241.76 511.45 1233.54 503.85" stroke="#312783" stroke-width="3.97"/>
<path d="M1362.85 517.58C1342.5 519.94 1322.09 521.88 1301.67 523.5" stroke="#312783" stroke-width="3.97"/>
<path d="M1341.5 543.88L1352.26 530.78L1362.85 517.58L1349.71 507.04L1336.72 496.37" stroke="#312783" stroke-width="3.97"/>
<path d="M1466.49 502.4C1446.32 506.03 1426.09 509.27 1405.8 512.14" stroke="#312783" stroke-width="3.97"/>
<path d="M1446.84 530.04C1453.51 520.82 1460.08 511.67 1466.49 502.4C1457.25 496.01 1448.1 489.44 1439.08 482.92" stroke="#312783" stroke-width="3.97"/>
<path d="M1568.79 479.92C1548.98 485.14 1529.01 489.8 1508.97 494.04" stroke="#312783" stroke-width="3.97"/>
<path d="M1551.23 508.95C1554.23 504.12 1557.21 499.33 1560.13 494.49L1568.78 479.92L1554.31 471.33C1549.52 468.43 1544.74 465.47 1540.01 462.53" stroke="#312783" stroke-width="3.97"/>
<path d="M1668.84 449C1649.56 455.94 1630.09 462.35 1610.47 468.26" stroke="#312783" stroke-width="3.97"/>
<path d="M1653.91 479.51C1656.5 474.45 1659.02 469.32 1661.51 464.25C1664 459.16 1666.46 454.15 1668.84 449C1663.76 446.66 1658.67 444.16 1653.65 441.71C1648.62 439.23 1643.64 436.79 1638.68 434.25" stroke="#312783" stroke-width="3.97"/>
<path d="M1765.44 408.55L1737.49 421.33C1728.11 425.45 1718.74 429.6 1709.24 433.42" stroke="#312783" stroke-width="3.97"/>
<path d="M1753.65 440.19C1755.69 434.88 1757.75 429.55 1759.64 424.31L1765.43 408.55L1749.49 402.69C1744.14 400.76 1738.97 398.75 1733.77 396.76" stroke="#312783" stroke-width="3.97"/>
<path d="M1862.05 368.08C1842.94 375.48 1823.95 383.18 1805.06 391.12" stroke="#312783" stroke-width="3.97"/>
<path d="M1848.7 398.97C1853.07 388.67 1857.53 378.4 1862.05 368.07C1851.75 363.56 1841.38 359.05 1830.95 354.63" stroke="#312783" stroke-width="3.97"/>
<path d="M1960.26 331.6L1931.34 342.03L1902.5 352.64" stroke="#312783" stroke-width="3.97"/>
<path d="M54.03 536.75L23.37 534.57C13.15 533.84 2.92001 533.27 -7.29999 532.61" stroke="#312783" stroke-width="3.97"/>
<path d="M28.57 558.88L54.03 536.75L31.86 511.24" stroke="#312783" stroke-width="3.97"/>
<path d="M160.97 545.18L130.34 542.61L99.7 540.2" stroke="#312783" stroke-width="3.97"/>
<path d="M135.22 566.98L160.97 545.18L139.13 519.38" stroke="#312783" stroke-width="3.97"/>
<path d="M267.81 554.7C247.41 552.75 227 550.95 206.59 549.13" stroke="#312783" stroke-width="3.97"/>
<path d="M241.85 576.25L267.81 554.7L246.21 528.69" stroke="#312783" stroke-width="3.97"/>
<path d="M374.57 565.08C354.19 562.96 333.79 561.04 313.4 559.02" stroke="#312783" stroke-width="3.97"/>
<path d="M348.44 586.45L374.57 565.08L353.17 538.93" stroke="#312783" stroke-width="3.97"/>
<path d="M481.24 576.34C460.88 574.04 440.49 571.96 420.12 569.77" stroke="#312783" stroke-width="3.97"/>
<path d="M454.94 597.48L481.24 576.34L460.06 550" stroke="#312783" stroke-width="3.97"/>
<path d="M587.78 588.73L557.28 585L526.74 581.45" stroke="#312783" stroke-width="3.97"/>
<path d="M561.22 609.54L587.78 588.73L566.94 562.13" stroke="#312783" stroke-width="3.97"/>
<path d="M694.01 603.58C673.73 600.63 653.47 597.58 633.18 594.7" stroke="#312783" stroke-width="3.97"/>
<path d="M666.9 623.74L694.01 603.58L673.87 576.49" stroke="#312783" stroke-width="3.97"/>
<path d="M800.31 617.89C779.96 615.45 759.64 612.81 739.34 610.03" stroke="#312783" stroke-width="3.97"/>
<path d="M773.6 638.66C782.56 631.77 791.46 624.85 800.31 617.9C793.35 609.05 786.46 600.18 779.62 591.29" stroke="#312783" stroke-width="3.97"/>
<path d="M907.04 628.56C886.61 626.95 866.21 625.08 845.82 622.98" stroke="#312783" stroke-width="3.97"/>
<path d="M881.14 650.35C889.85 643.15 898.49 635.85 907.04 628.56C899.73 619.98 892.5 611.43 885.35 602.78" stroke="#312783" stroke-width="3.97"/>
<path d="M1014.13 634.38C993.65 633.79 973.17 632.9 952.72 631.7" stroke="#312783" stroke-width="3.97"/>
<path d="M989.3 657.41L1001.78 645.94L1014.13 634.38L1002.62 622.08L991.24 609.69" stroke="#312783" stroke-width="3.97"/>
<path d="M1121.38 634.44C1100.9 635.03 1080.41 635.26 1059.92 635.16" stroke="#312783" stroke-width="3.97"/>
<path d="M1097.89 658.84C1105.83 650.8 1113.66 642.57 1121.39 634.44C1113.2 626.66 1105.12 618.97 1097.14 611.09" stroke="#312783" stroke-width="3.97"/>
<path d="M1228.42 627.73C1208.02 629.7 1187.59 631.26 1167.13 632.44" stroke="#312783" stroke-width="3.97"/>
<path d="M1206.57 653.64L1212.11 647.2L1217.59 640.71L1228.42 627.73L1215.46 616.92L1209.05 611.52L1202.69 606.04" stroke="#312783" stroke-width="3.97"/>
<path d="M1334.66 613.18C1314.49 616.82 1294.22 619.84 1273.91 622.51" stroke="#312783" stroke-width="3.97"/>
<path d="M1314.86 640.72C1321.62 631.64 1328.21 622.37 1334.66 613.18C1325.42 606.69 1316.34 600.24 1307.36 593.55" stroke="#312783" stroke-width="3.97"/>
<path d="M1439.28 589.69C1419.52 595.12 1399.61 600.01 1379.58 604.31" stroke="#312783" stroke-width="3.97"/>
<path d="M1422 618.92C1424.97 614.06 1427.9 609.21 1430.79 604.37C1433.67 599.5 1436.5 594.58 1439.29 589.7C1434.4 586.9 1429.55 584.12 1424.74 581.27C1419.91 578.39 1415.13 575.5 1410.38 572.6" stroke="#312783" stroke-width="3.97"/>
<path d="M1541.12 556.17C1522.02 563.58 1502.7 570.42 1483.19 576.71" stroke="#312783" stroke-width="3.97"/>
<path d="M1526.89 587.04C1529.36 581.88 1531.78 576.73 1534.16 571.6C1536.54 566.47 1538.87 561.37 1541.12 556.17C1535.99 553.95 1530.85 551.6 1525.77 549.25C1520.69 546.9 1515.65 544.53 1510.66 542.14" stroke="#312783" stroke-width="3.97"/>
<path d="M1638.89 512.14C1636.57 513.22 1634.21 514.23 1631.92 515.37L1625.02 518.75L1611.24 525.55C1606.67 527.86 1601.99 529.96 1597.36 532.15L1590.4 535.41L1583.38 538.53" stroke="#312783" stroke-width="3.97"/>
<path d="M1628 543.9L1630.8 535.86C1631.77 533.16 1632.5 530.59 1633.37 527.95C1634.22 525.32 1635.09 522.67 1636 520.02C1636.93 517.41 1637.89 514.78 1638.88 512.14C1636.25 511.15 1633.59 510.18 1630.9 509.22C1628.23 508.3 1625.53 507.41 1622.81 506.53C1620.11 505.64 1617.25 504.82 1614.66 503.88L1606.76 501.12" stroke="#312783" stroke-width="3.97"/>
<path d="M1740.89 479.62C1720.88 484.03 1701.04 489.23 1681.57 495.63" stroke="#312783" stroke-width="3.97"/>
<path d="M1723.59 508.26C1726.32 503.47 1729.13 498.68 1732.01 493.88C1734.91 489.14 1737.86 484.33 1740.89 479.61C1736.14 476.56 1731.36 473.62 1726.49 470.65C1721.64 467.73 1716.72 464.84 1711.73 462" stroke="#312783" stroke-width="3.97"/>
<path d="M1846.67 462.02C1826.35 464.66 1806.06 467.53 1785.85 470.95" stroke="#312783" stroke-width="3.97"/>
<path d="M1826.35 488.87C1833.01 479.89 1839.8 470.94 1846.67 462.02C1837.75 455.15 1828.76 448.34 1819.66 441.58" stroke="#312783" stroke-width="3.97"/>
<path d="M1953.1 448.64C1932.8 451.44 1912.46 453.9 1892.12 456.36" stroke="#312783" stroke-width="3.97"/>
<path d="M94.6 648.27L33.35 643.08" stroke="#312783" stroke-width="3.97"/>
<path d="M68.78 670.03L94.6 648.27L72.84 622.45" stroke="#312783" stroke-width="3.97"/>
<path d="M200.08 657.84L138.86 652.2" stroke="#312783" stroke-width="3.97"/>
<path d="M174.1 679.42L200.08 657.84L178.5 631.86" stroke="#312783" stroke-width="3.97"/>
<path d="M305.49 668.03L244.31 662.06" stroke="#312783" stroke-width="3.97"/>
<path d="M279.39 689.46L305.49 668.03L284.06 641.93" stroke="#312783" stroke-width="3.97"/>
<path d="M410.85 678.75L349.7 672.47" stroke="#312783" stroke-width="3.97"/>
<path d="M384.65 700.05L410.85 678.75L389.54 652.54" stroke="#312783" stroke-width="3.97"/>
<path d="M516.15 690.04L455.04 683.41" stroke="#312783" stroke-width="3.97"/>
<path d="M489.83 711.17L516.15 690.04L495 663.69" stroke="#312783" stroke-width="3.97"/>
<path d="M620.98 704.97C600.74 701.79 580.5 698.59 560.22 695.66" stroke="#312783" stroke-width="3.97"/>
<path d="M593.72 724.87L620.98 704.97L601.07 677.68" stroke="#312783" stroke-width="3.97"/>
<path d="M725.72 720.67C705.42 717.89 685.15 714.9 664.89 711.81" stroke="#312783" stroke-width="3.97"/>
<path d="M698.66 740.98C707.73 734.25 716.75 727.47 725.71 720.67C718.9 711.69 712.16 702.72 705.47 693.71" stroke="#312783" stroke-width="3.97"/>
<path d="M830.91 732.86C810.51 730.98 790.13 728.79 769.79 726.35" stroke="#312783" stroke-width="3.97"/>
<path d="M804.68 754.28C809.09 750.75 813.49 747.18 817.86 743.61C822.23 740.04 826.58 736.48 830.91 732.86C827.31 728.55 823.74 724.19 820.19 719.84C816.64 715.5 813.11 711.16 809.61 706.77" stroke="#312783" stroke-width="3.97"/>
<path d="M936.58 739.6C916.1 738.93 895.63 737.85 875.19 736.44" stroke="#312783" stroke-width="3.97"/>
<path d="M911.59 762.47C920.03 754.93 928.37 747.25 936.58 739.6C928.89 731.34 921.31 723.13 913.85 714.77" stroke="#312783" stroke-width="3.97"/>
<path d="M1042.46 739.39C1021.98 740.18 1001.49 740.51 981 740.42" stroke="#312783" stroke-width="3.97"/>
<path d="M1019.11 763.99C1023.07 759.94 1027 755.81 1030.89 751.73C1034.78 747.64 1038.64 743.55 1042.46 739.39C1038.33 735.6 1034.23 731.73 1030.17 727.86C1026.11 723.99 1022.08 720.16 1018.08 716.24" stroke="#312783" stroke-width="3.97"/>
<path d="M1148 730.94C1127.66 733.44 1107.26 735.43 1086.83 736.93" stroke="#312783" stroke-width="3.97"/>
<path d="M1126.72 757.41C1130.35 753.01 1133.93 748.61 1137.48 744.21L1142.77 737.61L1147.99 730.94L1141.37 725.75L1134.8 720.48C1130.44 716.96 1126.11 713.43 1121.83 709.9" stroke="#312783" stroke-width="3.97"/>
<path d="M1252.34 713.08C1232.33 717.5 1212.2 721.36 1191.98 724.68" stroke="#312783" stroke-width="3.97"/>
<path d="M1233.62 741.43C1236.83 736.73 1240 731.98 1243.12 727.27C1246.24 722.56 1249.32 717.86 1252.34 713.07C1247.6 710.09 1242.89 707 1238.21 703.9C1233.54 700.8 1228.92 697.72 1224.33 694.58" stroke="#312783" stroke-width="3.97"/>
<path d="M1354.35 684.82C1334.91 691.31 1315.28 697.21 1295.49 702.52" stroke="#312783" stroke-width="3.97"/>
<path d="M1338.66 714.93L1342.71 707.44L1346.66 699.88C1349.27 694.85 1351.83 689.83 1354.35 684.82C1349.3 682.28 1344.29 679.72 1339.33 677.15L1331.93 673.28L1324.57 669.29" stroke="#312783" stroke-width="3.97"/>
<path d="M1452.61 645.45C1443.36 649.87 1433.96 653.93 1424.58 658.05L1410.4 663.96C1405.68 665.94 1400.88 667.74 1396.12 669.63" stroke="#312783" stroke-width="3.97"/>
<path d="M1440.41 677.18C1442.55 671.88 1444.65 666.61 1446.69 661.35C1448.73 656.08 1450.68 650.72 1452.6 645.45C1447.3 643.52 1442.07 641.62 1436.85 639.6C1431.62 637.56 1426.43 635.5 1421.29 633.42" stroke="#312783" stroke-width="3.97"/>
<path d="M1548.88 601.66L1541.58 604.07C1539.14 604.84 1536.76 605.81 1534.35 606.68C1531.96 607.59 1529.52 608.4 1527.16 609.4L1520.06 612.33C1517.67 613.27 1515.36 614.37 1513.03 615.43C1510.71 616.51 1508.36 617.54 1506.06 618.65C1501.5 620.99 1496.91 623.26 1492.38 625.65" stroke="#312783" stroke-width="3.97"/>
<path d="M1535.25 631.89C1536.2 629.31 1537.23 626.82 1538.3 624.31C1539.36 621.8 1540.46 619.27 1541.59 616.73C1542.71 614.17 1543.9 611.68 1545.12 609.19C1546.34 606.69 1547.59 604.18 1548.87 601.66C1538.86 596.5 1528.44 591.77 1517.54 587.53" stroke="#312783" stroke-width="3.97"/>
<path d="M1652.7 581.9C1632.29 583.7 1611.96 586.51 1591.88 590.57" stroke="#312783" stroke-width="3.97"/>
<path d="M1632.01 608.17C1635.29 603.74 1638.65 599.28 1642.11 594.95C1645.56 590.59 1649.09 586.17 1652.7 581.9C1648.37 578.25 1643.99 574.75 1639.53 571.22C1635.07 567.66 1630.54 564.24 1625.92 560.81" stroke="#312783" stroke-width="3.97"/>
<path d="M1758.5 578.49C1738.01 578.31 1717.51 578.38 1697.04 579.15" stroke="#312783" stroke-width="3.97"/>
<path d="M1734.73 602.3C1742.52 594.3 1750.46 586.36 1758.5 578.49C1750.62 570.44 1742.64 562.46 1734.51 554.54" stroke="#312783" stroke-width="3.97"/>
<path d="M1864.38 580.75C1843.89 580.38 1823.41 579.79 1802.93 579.29" stroke="#312783" stroke-width="3.97"/>
<path d="M1839.93 604.11C1848.11 596.34 1856.28 588.56 1864.38 580.75C1856.57 572.65 1848.82 564.51 1841.08 556.37" stroke="#312783" stroke-width="3.97"/>
<path d="M1970.21 578.38L1962.55 579.02L1954.88 579.52C1949.77 579.89 1944.65 580.05 1939.53 580.32C1929.29 580.69 1919.05 580.97 1908.8 581.03" stroke="#312783" stroke-width="3.97"/>
<path d="M29.5 751.55L-1.11999 748.83L-31.74 746.2" stroke="#312783" stroke-width="3.97"/>
<path d="M3.62 773.22L29.5 751.55L7.8 725.65" stroke="#312783" stroke-width="3.97"/>
<path d="M134.03 761.08L72.82 755.45" stroke="#312783" stroke-width="3.97"/>
<path d="M108.06 782.65L134.03 761.08L112.45 735.1" stroke="#312783" stroke-width="3.97"/>
<path d="M238.54 770.9L177.34 765.12" stroke="#312783" stroke-width="3.97"/>
<path d="M212.52 792.42L238.54 770.9L217.01 744.87" stroke="#312783" stroke-width="3.97"/>
<path d="M343.04 780.78L281.84 775" stroke="#312783" stroke-width="3.97"/>
<path d="M317.03 802.31L343.04 780.78L321.51 754.76" stroke="#312783" stroke-width="3.97"/>
<path d="M447.52 790.9C437.36 789.57 427.17 788.5 416.97 787.58L386.36 784.81" stroke="#312783" stroke-width="3.97"/>
<path d="M421.54 811.99C429.88 804.75 438.61 797.8 447.52 790.9C440.63 782.02 433.56 773.13 426.05 764.45" stroke="#312783" stroke-width="3.97"/>
<path d="M551.12 807.73C530.94 804.17 510.76 800.6 490.54 797.29" stroke="#312783" stroke-width="3.97"/>
<path d="M523.49 827.12L551.12 807.73L531.71 780.07" stroke="#312783" stroke-width="3.97"/>
<path d="M654.63 825.17C634.38 822.06 614.16 818.71 593.97 815.23" stroke="#312783" stroke-width="3.97"/>
<path d="M627.21 845.02C636.4 838.44 645.54 831.84 654.62 825.18C647.96 816.11 641.38 807 634.86 797.88" stroke="#312783" stroke-width="3.97"/>
<path d="M758.72 838.58C738.33 836.54 717.98 834.12 697.67 831.39" stroke="#312783" stroke-width="3.97"/>
<path d="M732.27 859.76L745.57 849.23L758.72 838.58L748.12 825.49L737.69 812.31" stroke="#312783" stroke-width="3.97"/>
<path d="M863.45 845.33C842.97 844.79 822.5 843.76 802.06 842.3" stroke="#312783" stroke-width="3.97"/>
<path d="M838.52 868.35C846.97 860.72 855.28 853.1 863.45 845.32C855.7 837.18 848.1 828.9 840.65 820.64" stroke="#312783" stroke-width="3.97"/>
<path d="M968.37 843.52C947.92 844.81 927.43 845.52 906.95 845.71" stroke="#312783" stroke-width="3.97"/>
<path d="M945.52 868.61C949.42 864.48 953.27 860.33 957.08 856.11C960.89 851.91 964.65 847.73 968.37 843.52C964.15 839.79 959.96 836.02 955.82 832.27C951.68 828.54 947.58 824.73 943.52 820.9" stroke="#312783" stroke-width="3.97"/>
<path d="M1072.61 831.57C1052.4 834.95 1032.09 837.7 1011.71 839.85" stroke="#312783" stroke-width="3.97"/>
<path d="M1052.39 858.88C1055.87 854.42 1059.28 849.79 1062.65 845.26C1066.02 840.7 1069.35 836.21 1072.6 831.57C1068.02 828.36 1063.47 824.98 1058.98 821.67C1054.48 818.32 1050.04 815.05 1045.63 811.61" stroke="#312783" stroke-width="3.97"/>
<path d="M1174.95 808.49C1155.24 814.09 1135.35 819.06 1115.32 823.38" stroke="#312783" stroke-width="3.97"/>
<path d="M1157.87 837.87C1160.84 833.05 1163.73 828.09 1166.58 823.2C1169.42 818.28 1172.23 813.45 1174.96 808.5C1170.05 805.8 1165.15 802.95 1160.32 800.16C1155.48 797.34 1150.71 794.57 1145.95 791.63" stroke="#312783" stroke-width="3.97"/>
<path d="M1273.97 773.83C1255.08 781.78 1235.87 788.93 1216.46 795.51" stroke="#312783" stroke-width="3.97"/>
<path d="M1260.4 804.99C1262.77 799.79 1265.12 794.68 1267.37 789.45C1269.62 784.22 1271.82 779.02 1273.97 773.83C1268.76 771.67 1263.6 769.49 1258.48 767.29C1253.37 765.09 1248.25 762.74 1243.21 760.44" stroke="#312783" stroke-width="3.97"/>
<path d="M1368.34 728C1350.4 737.9 1332.21 747.35 1313.71 756.17" stroke="#312783" stroke-width="3.97"/>
<path d="M1358.44 760.49C1361.97 749.65 1365.22 738.73 1368.34 728C1357.45 724.83 1346.79 721.65 1336.22 718.21" stroke="#312783" stroke-width="3.97"/>
<path d="M1467.14 693.94C1446.99 697.63 1427.09 702.84 1407.87 709.96" stroke="#312783" stroke-width="3.97"/>
<path d="M1449.53 722.13C1454.84 712.62 1460.73 703.19 1467.13 693.94C1457.87 687.53 1448.2 681.47 1438.05 675.77" stroke="#312783" stroke-width="3.97"/>
<path d="M1571.66 686.16C1551.17 685.91 1530.66 686.48 1510.25 688.24" stroke="#312783" stroke-width="3.97"/>
<path d="M1548.29 710.14C1555.79 702.03 1563.6 694.03 1571.65 686.16C1563.79 678.12 1555.67 670.18 1547.26 662.39" stroke="#312783" stroke-width="3.97"/>
<path d="M1676.36 693C1655.98 690.86 1635.57 689.03 1615.11 687.8" stroke="#312783" stroke-width="3.97"/>
<path d="M1650.44 714.45C1658.96 707.23 1667.62 700.08 1676.37 693C1669.29 684.25 1662.1 675.54 1654.77 666.88" stroke="#312783" stroke-width="3.97"/>
<path d="M1780.58 705.53L1719.58 697.94" stroke="#312783" stroke-width="3.97"/>
<path d="M1753.91 726.27L1780.58 705.53L1759.86 678.89" stroke="#312783" stroke-width="3.97"/>
<path d="M1885.02 715.83C1864.56 714.66 1844.15 712.78 1823.78 710.58" stroke="#312783" stroke-width="3.97"/>
<path d="M1859.26 737.98C1868.01 730.71 1876.62 723.34 1885.02 715.84C1877.52 707.44 1870.26 698.95 1863.14 690.38" stroke="#312783" stroke-width="3.97"/>
<path d="M68.95 864.16L7.71997 858.67" stroke="#312783" stroke-width="3.97"/>
<path d="M43.03 885.82L68.95 864.16L47.3 838.25" stroke="#312783" stroke-width="3.97"/>
<path d="M172.81 873.33L111.58 867.96" stroke="#312783" stroke-width="3.97"/>
<path d="M146.94 895.06L172.81 873.33L151.1 847.48" stroke="#312783" stroke-width="3.97"/>
<path d="M276.73 881.9C256.3 880.29 235.88 878.69 215.46 876.95" stroke="#312783" stroke-width="3.97"/>
<path d="M251.02 903.82L276.73 881.9L254.83 856.22" stroke="#312783" stroke-width="3.97"/>
<path d="M380.4 892.62C360.18 889.31 339.86 886.53 319.42 885.04" stroke="#312783" stroke-width="3.97"/>
<path d="M353.54 912.7C362.27 905.89 371.25 899.18 380.39 892.62C373.82 883.47 367.06 874.41 360.03 865.38" stroke="#312783" stroke-width="3.97"/>
<path d="M482.82 912.14C462.73 908.1 442.65 904.03 422.53 900.17" stroke="#312783" stroke-width="3.97"/>
<path d="M454.71 930.85L482.82 912.14L464.1 884.02" stroke="#312783" stroke-width="3.97"/>
<path d="M585.27 931.48C565.06 928.08 544.91 924.36 524.8 920.45" stroke="#312783" stroke-width="3.97"/>
<path d="M557.52 950.88C562.18 947.68 566.82 944.47 571.45 941.23C576.08 938 580.68 934.77 585.27 931.49C582.01 926.92 578.77 922.31 575.56 917.71C572.35 913.12 569.15 908.51 565.98 903.89" stroke="#312783" stroke-width="3.97"/>
<path d="M688.57 945.57C668.18 943.55 647.84 941.03 627.56 938.11" stroke="#312783" stroke-width="3.97"/>
<path d="M662.04 966.72L675.41 956.21C679.83 952.7 684.22 949.12 688.58 945.57C685.01 941.2 681.48 936.87 677.99 932.48L667.63 919.3" stroke="#312783" stroke-width="3.97"/>
<path d="M792.65 951.16C772.16 951.06 751.67 950.33 731.22 949.04" stroke="#312783" stroke-width="3.97"/>
<path d="M768.1 974.65C776.47 966.88 784.65 959.11 792.65 951.16C784.73 943.2 777 935.04 769.45 926.92" stroke="#312783" stroke-width="3.97"/>
<path d="M896.74 945.98C876.37 948.16 855.92 949.63 835.44 950.43" stroke="#312783" stroke-width="3.97"/>
<path d="M874.87 972C876.75 969.85 878.61 967.73 880.46 965.57L885.97 959.05C889.61 954.69 893.21 950.41 896.74 945.99C892.36 942.5 888.02 938.85 883.74 935.28L877.36 929.89L871.05 924.4" stroke="#312783" stroke-width="3.97"/>
<path d="M999.48 928.6C979.52 933.24 959.4 937.16 939.16 940.36" stroke="#312783" stroke-width="3.97"/>
<path d="M980.91 957.12C984.13 952.39 987.27 947.62 990.37 942.89L994.98 935.79L999.48 928.6L992.36 924.15L985.29 919.56C980.6 916.49 975.98 913.44 971.4 910.32" stroke="#312783" stroke-width="3.97"/>
<path d="M1099.31 898.74C1080.07 905.78 1060.59 912.17 1040.9 917.84" stroke="#312783" stroke-width="3.97"/>
<path d="M1084.4 929.3C1087.03 924.28 1089.54 919.09 1092.03 914.02C1094.51 908.9 1096.97 903.9 1099.31 898.74C1094.22 896.43 1089.12 893.92 1084.1 891.5C1079.07 889.02 1074.13 886.64 1069.17 884.04" stroke="#312783" stroke-width="3.97"/>
<path d="M1194.79 856.98C1185.69 861.7 1176.42 866.05 1167.18 870.49L1153.18 876.83L1149.68 878.42L1146.15 879.93L1139.08 882.95" stroke="#312783" stroke-width="3.97"/>
<path d="M1183.62 889.09C1185.59 883.73 1187.52 878.39 1189.4 873.07C1191.26 867.72 1193.04 862.32 1194.79 856.98C1189.43 855.22 1184.14 853.48 1178.86 851.65C1173.56 849.78 1168.31 847.88 1163.11 845.96" stroke="#312783" stroke-width="3.97"/>
<path d="M1288.05 810.65C1278.39 814.05 1268.89 817.93 1259.62 822.3C1257.32 823.42 1255 824.52 1252.71 825.67L1245.9 829.22L1232.49 836.73" stroke="#312783" stroke-width="3.97"/>
<path d="M1275.54 841.29C1279 831.07 1283.17 820.77 1288.04 810.66C1277.87 805.76 1267.27 801.44 1256.17 797.64" stroke="#312783" stroke-width="3.97"/>
<path d="M1390.07 790.74C1369.63 792.12 1349.26 794.76 1329.22 799.07" stroke="#312783" stroke-width="3.97"/>
<path d="M1369.11 816.66C1375.64 807.83 1382.66 799.24 1390.06 790.75C1381.59 783.36 1372.74 776.12 1363.47 769.24" stroke="#312783" stroke-width="3.97"/>
<path d="M1494.2 792.91C1473.8 791.04 1453.33 789.78 1432.84 789.59" stroke="#312783" stroke-width="3.97"/>
<path d="M1468.87 814.87C1477.08 807.41 1485.55 800.12 1494.21 792.92C1487.02 784.27 1479.62 775.67 1471.94 767.21" stroke="#312783" stroke-width="3.97"/>
<path d="M1597.45 807.31C1577.27 803.76 1557.03 800.54 1536.72 797.79" stroke="#312783" stroke-width="3.97"/>
<path d="M1570.08 826.9C1579.1 820.31 1588.23 813.77 1597.44 807.31C1590.97 798.09 1584.41 788.92 1577.71 779.76" stroke="#312783" stroke-width="3.97"/>
<path d="M1699.86 826.89C1679.76 822.92 1659.67 818.9 1639.54 815.05" stroke="#312783" stroke-width="3.97"/>
<path d="M1671.8 845.68L1699.86 826.89L1681.07 798.83" stroke="#312783" stroke-width="3.97"/>
<path d="M1802.42 845.69C1782.18 842.52 1762.01 838.89 1741.88 835.07" stroke="#312783" stroke-width="3.97"/>
<path d="M1774.79 865.34C1784.09 858.88 1793.32 852.32 1802.42 845.7C1795.79 836.6 1789.31 827.47 1782.93 818.28" stroke="#312783" stroke-width="3.97"/>
<path d="M1906.12 855.64C1885.63 855.4 1865.17 853.8 1844.82 851.49" stroke="#312783" stroke-width="3.97"/>
<path d="M1880.86 878.63C1889.6 871.19 1898.07 863.5 1906.12 855.65C1898.25 847.59 1890.81 839.37 1883.66 830.96" stroke="#312783" stroke-width="3.97"/>
<path d="M4.48999 966.9L-56.76 961.73" stroke="#312783" stroke-width="3.97"/>
<path d="M-21.31 988.71L4.49 966.9L-17.3 941.12" stroke="#312783" stroke-width="3.97"/>
<path d="M107.9 975.01C87.46 973.58 67.04 971.9 46.61 970.34" stroke="#312783" stroke-width="3.97"/>
<path d="M82.28 997.06L107.9 975.01L85.9 949.44" stroke="#312783" stroke-width="3.97"/>
<path d="M211.41 981.65L180.72 979.93C170.49 979.33 160.27 978.61 150.05 977.95" stroke="#312783" stroke-width="3.97"/>
<path d="M186.18 1004.16L211.41 981.65L188.96 956.48" stroke="#312783" stroke-width="3.97"/>
<path d="M314.05 995.87C293.98 991.76 273.8 988.1 253.49 985.43" stroke="#312783" stroke-width="3.97"/>
<path d="M286.32 1014.81C290.85 1011.59 295.44 1008.39 300.06 1005.25C304.69 1002.08 309.35 998.96 314.05 995.86C310.95 991.16 307.81 986.47 304.62 981.81C301.44 977.12 298.2 972.47 294.9 967.83" stroke="#312783" stroke-width="3.97"/>
<path d="M415.27 1018.55L355.35 1004.81" stroke="#312783" stroke-width="3.97"/>
<path d="M386.63 1036.47L415.27 1018.55L397.36 989.94" stroke="#312783" stroke-width="3.97"/>
<path d="M516.82 1039.63C496.65 1036.04 476.55 1032.02 456.52 1027.71" stroke="#312783" stroke-width="3.97"/>
<path d="M488.78 1058.7C493.5 1055.58 498.2 1052.41 502.87 1049.23C507.54 1046.06 512.19 1042.87 516.81 1039.64C513.59 1035.04 510.41 1030.4 507.26 1025.76C504.11 1021.13 500.99 1016.49 497.9 1011.82" stroke="#312783" stroke-width="3.97"/>
<path d="M619.58 1053.45C599.16 1051.71 578.8 1049.31 558.53 1046.38" stroke="#312783" stroke-width="3.97"/>
<path d="M593.22 1074.87C597.7 1071.34 602.14 1067.81 606.53 1064.25C610.93 1060.65 615.28 1057.05 619.58 1053.44C615.95 1049.12 612.38 1044.79 608.85 1040.48C605.32 1036.13 601.85 1031.74 598.41 1027.39" stroke="#312783" stroke-width="3.97"/>
<path d="M723.21 1056.17C702.73 1056.91 682.23 1056.84 661.75 1056.06" stroke="#312783" stroke-width="3.97"/>
<path d="M699.49 1080.53C703.56 1076.5 707.57 1072.53 711.53 1068.44C715.48 1064.35 719.38 1060.26 723.21 1056.17C719.09 1052.3 715.03 1048.44 711.02 1044.57C707.02 1040.71 703.07 1036.7 699.18 1032.78" stroke="#312783" stroke-width="3.97"/>
<path d="M826.3 1045.48C806.11 1048.97 785.78 1051.64 765.37 1053.49" stroke="#312783" stroke-width="3.97"/>
<path d="M806.04 1072.86C813.05 1063.75 819.83 1054.75 826.3 1045.48C817.11 1039.06 808.12 1032.29 799.39 1025.57" stroke="#312783" stroke-width="3.97"/>
<path d="M926.98 1020.89C907.45 1027.08 887.69 1032.56 867.72 1037.15" stroke="#312783" stroke-width="3.97"/>
<path d="M910.63 1050.74C913.49 1045.77 916.28 1040.82 919.02 1035.88C921.75 1030.91 924.39 1025.87 926.99 1020.89C921.99 1018.28 917.06 1015.69 912.16 1013.01C907.25 1010.29 902.4 1007.55 897.61 1004.79" stroke="#312783" stroke-width="3.97"/>
<path d="M1023.61 983.36C1004.99 991.91 986.09 999.85 966.92 1007.1" stroke="#312783" stroke-width="3.97"/>
<path d="M1011.2 1015.04C1013.39 1009.76 1015.5 1004.45 1017.58 999.18C1019.65 993.9 1021.69 988.7 1023.61 983.36C1018.36 981.47 1013.08 979.39 1007.88 977.36C1002.67 975.3 997.53 973.26 992.41 971.13" stroke="#312783" stroke-width="3.97"/>
<path d="M1115.25 934.87C1106.34 939.92 1097.55 945.2 1088.6 950.18L1075.14 957.6C1070.63 960.03 1066.07 962.37 1061.54 964.76" stroke="#312783" stroke-width="3.97"/>
<path d="M1106.39 967.57C1109.51 956.58 1112.43 945.63 1115.25 934.87C1104.23 931.99 1093.43 929.1 1082.76 926.07" stroke="#312783" stroke-width="3.97"/>
<path d="M1212.29 899.53C1202.23 901.47 1192.28 903.94 1182.43 906.77C1172.59 909.63 1162.85 912.85 1153.34 916.66" stroke="#312783" stroke-width="3.97"/>
<path d="M1195.2 928C1196.48 925.61 1197.79 923.21 1199.14 920.81C1200.49 918.41 1201.89 916.07 1203.31 913.69C1206.15 908.9 1209.16 904.26 1212.29 899.54C1207.62 896.45 1202.82 893.33 1197.93 890.42C1195.48 888.96 1192.99 887.46 1190.48 886.05C1187.97 884.65 1185.44 883.25 1182.86 881.86" stroke="#312783" stroke-width="3.97"/>
<path d="M1315.5 891.69C1305.26 891.4 1295.01 891.43 1284.77 891.72C1274.53 892.01 1264.29 892.58 1254.1 893.56" stroke="#312783" stroke-width="3.97"/>
<path d="M1292.01 915.44C1295.75 911.41 1299.58 907.38 1303.5 903.45C1307.42 899.47 1311.42 895.57 1315.5 891.69C1311.62 887.61 1307.67 883.55 1303.63 879.57C1299.59 875.54 1295.46 871.62 1291.24 867.69" stroke="#312783" stroke-width="3.97"/>
<path d="M1418.67 901.72C1408.55 900.14 1398.4 898.69 1388.24 897.4C1378.07 896.14 1367.89 895.04 1357.68 894.12" stroke="#312783" stroke-width="3.97"/>
<path d="M1391.89 921.96C1400.63 915.08 1409.57 908.37 1418.67 901.72C1412.04 892.64 1405.23 883.58 1398.19 874.62" stroke="#312783" stroke-width="3.97"/>
<path d="M1520.41 921.81C1500.44 917.24 1480.4 912.93 1460.28 909.04" stroke="#312783" stroke-width="3.97"/>
<path d="M1492.04 939.95C1501.41 933.83 1510.87 927.8 1520.41 921.81C1514.43 912.28 1508.36 902.76 1502.17 893.28" stroke="#312783" stroke-width="3.97"/>
<path d="M1621.16 946.49C1601.3 941.46 1581.43 936.44 1561.53 931.57" stroke="#312783" stroke-width="3.97"/>
<path d="M1592.17 963.8L1621.16 946.49L1603.83 917.49" stroke="#312783" stroke-width="3.97"/>
<path d="M1721.9 971.19C1701.92 966.64 1682.01 961.78 1662.13 956.83" stroke="#312783" stroke-width="3.97"/>
<path d="M1693.1 988.98C1702.76 983.1 1712.37 977.17 1721.9 971.18C1715.91 961.65 1710.02 952.1 1704.19 942.52" stroke="#312783" stroke-width="3.97"/>
<path d="M1823.82 990.25C1803.51 987.56 1783.3 984.07 1763.21 980.05" stroke="#312783" stroke-width="3.97"/>
<path d="M1796.38 1010.34C1805.72 1003.81 1814.9 997.09 1823.82 990.25C1816.96 981.31 1810.39 972.31 1804.02 963.2" stroke="#312783" stroke-width="3.97"/>
<path d="M1927.25 993.12C1906.88 995.4 1886.31 995.49 1865.86 994.32" stroke="#312783" stroke-width="3.97"/>
<path d="M1904.28 1018.7C1912.51 1010.42 1920.24 1001.96 1927.26 993.12C1918.47 986.14 1910.29 978.64 1902.62 970.97" stroke="#312783" stroke-width="3.97"/>
<path d="M43.58 1075.62L28.23 1074.82L12.9 1073.88L-17.78 1071.99" stroke="#312783" stroke-width="3.97"/>
<path d="M18.34 1098.14L30.99 1086.93L43.58 1075.62L32.33 1063.09L21.14 1050.46" stroke="#312783" stroke-width="3.97"/>
<path d="M146.69 1081.34C126.34 1078.79 105.81 1078.53 85.35 1077.63" stroke="#312783" stroke-width="3.97"/>
<path d="M121.48 1103.04C125.44 1099.33 129.54 1095.62 133.75 1092L140.14 1086.63L143.4 1083.95L146.69 1081.34L144.05 1078.01L141.37 1074.75L135.88 1068.21C132.16 1063.89 128.31 1059.63 124.34 1055.36" stroke="#312783" stroke-width="3.97"/>
<path d="M219.33 1118.91C228.74 1112.93 238.31 1107.08 247.97 1101.28C242.18 1091.63 236.29 1081.99 230.19 1072.4" stroke="#312783" stroke-width="3.97"/>
<path d="M946.7 1062.54C928.76 1072.44 910.58 1081.9 892.06 1090.67" stroke="#312783" stroke-width="3.97"/>
<path d="M936.79 1095.05C938.56 1089.63 940.23 1084.16 941.89 1078.76C943.53 1073.33 945.18 1067.99 946.7 1062.55C941.31 1061.04 935.88 1059.37 930.54 1057.76C925.18 1056.12 919.89 1054.49 914.61 1052.77" stroke="#312783" stroke-width="3.97"/>
<path d="M1038.24 1015.09C1028.63 1018.64 1019.15 1022.55 1009.89 1026.94C1000.67 1031.4 991.61 1036.2 982.84 1041.5" stroke="#312783" stroke-width="3.97"/>
<path d="M1025.91 1045.86C1026.34 1044.57 1026.77 1043.26 1027.22 1041.98L1028.62 1038.16C1029.57 1035.6 1030.56 1033.03 1031.57 1030.44C1033.64 1025.33 1035.86 1020.23 1038.23 1015.09C1033.15 1012.75 1027.93 1010.47 1022.6 1008.31C1019.95 1007.26 1017.26 1006.23 1014.55 1005.22L1010.45 1003.71C1009.08 1003.22 1007.71 1002.77 1006.33 1002.3" stroke="#312783" stroke-width="3.97"/>
<path d="M1139.05 994.07C1128.84 994.92 1118.65 996.02 1108.52 997.54C1098.4 999.11 1088.31 1000.95 1078.33 1003.27" stroke="#312783" stroke-width="3.97"/>
<path d="M1118.46 1020.26C1120.05 1018.01 1121.69 1015.82 1123.35 1013.63C1125.01 1011.44 1126.7 1009.24 1128.41 1007.04C1131.85 1002.68 1135.4 998.39 1139.05 994.07C1134.77 990.46 1130.39 986.83 1125.91 983.3L1119.11 978.07C1116.82 976.32 1114.5 974.59 1112.15 972.93" stroke="#312783" stroke-width="3.97"/>
<path d="M1242.19 995.88C1221.8 993.82 1201.32 992.69 1180.83 992.56" stroke="#312783" stroke-width="3.97"/>
<path d="M1216.84 1017.74C1220.93 1014.02 1225.09 1010.31 1229.32 1006.7L1235.71 1001.24L1242.19 995.88L1236.79 989.35L1231.28 982.9C1227.58 978.57 1223.8 974.33 1219.95 970.09" stroke="#312783" stroke-width="3.97"/>
<path d="M1344.16 1012.07C1324.11 1007.86 1303.95 1004.16 1283.68 1001.1" stroke="#312783" stroke-width="3.97"/>
<path d="M1316.31 1030.87C1320.88 1027.67 1325.48 1024.51 1330.12 1021.39C1334.76 1018.24 1339.44 1015.14 1344.15 1012.07C1341.07 1007.35 1337.95 1002.65 1334.79 997.97C1331.63 993.27 1328.42 988.59 1325.16 983.94" stroke="#312783" stroke-width="3.97"/>
<path d="M1444.49 1036.55C1424.72 1031.16 1404.88 1026.04 1384.96 1021.25" stroke="#312783" stroke-width="3.97"/>
<path d="M1415.39 1053.5C1425.02 1047.79 1434.73 1042.14 1444.49 1036.55C1438.9 1026.78 1433.23 1017.03 1427.45 1007.29" stroke="#312783" stroke-width="3.97"/>
<path d="M1543.77 1065.05C1524.12 1059.24 1504.47 1053.44 1484.77 1047.81" stroke="#312783" stroke-width="3.97"/>
<path d="M1514.14 1081.2L1543.77 1065.05L1527.6 1035.38" stroke="#312783" stroke-width="3.97"/>
<path d="M1642.92 1094C1623.19 1088.45 1603.52 1082.72 1583.87 1076.92" stroke="#312783" stroke-width="3.97"/>
<path d="M1613.34 1110.4C1623.24 1104.97 1633.11 1099.5 1642.92 1093.99C1637.41 1084.17 1631.97 1074.35 1626.57 1064.51" stroke="#312783" stroke-width="3.97"/>
<path d="M1043.85 1114.15L1049.43 1108.02C1051.31 1105.98 1053.23 1104.01 1055.16 1102L1061.02 1095.99C1062.99 1094 1064.99 1092.06 1067.01 1090.09C1065.05 1088.08 1063.06 1086.03 1061.06 1084.05L1054.98 1078.12C1052.93 1076.15 1050.86 1074.15 1048.77 1072.21L1042.42 1066.42" stroke="#312783" stroke-width="3.97"/>
<path d="M1142.71 1119.68C1147.06 1116.24 1151.46 1112.85 1155.91 1109.45C1160.37 1106.06 1164.87 1102.76 1169.43 1099.43C1166.12 1094.9 1162.76 1090.33 1159.34 1085.82C1155.91 1081.33 1152.44 1076.8 1148.89 1072.33" stroke="#312783" stroke-width="3.97"/>
</g>
<defs>
<clipPath id="clip0_12_1312">
<rect width="1920" height="1080" fill="white"/>
</clipPath>
</defs>
</svg>
