<svg width="1049" height="329" viewBox="0 0 1049 329" fill="none" xmlns="http://www.w3.org/2000/svg">
<g clip-path="url(#clip0_4_118)">
<path d="M274.849 264.389C262.755 272.008 250.79 279.821 238.956 287.837" stroke="#E6007E" stroke-width="2.77"/>
<path d="M269.872 287.337C271.445 279.693 273.119 272.055 274.849 264.389C267.202 262.655 259.492 260.971 251.755 259.382" stroke="#E6007E" stroke-width="2.77"/>
<path d="M337.817 227.355C325.279 234.21 312.867 241.31 300.588 248.623" stroke="#E6007E" stroke-width="2.77"/>
<path d="M331.467 249.957C333.489 242.42 335.615 234.908 337.817 227.355C330.297 225.169 322.69 223.016 315.068 220.965" stroke="#E6007E" stroke-width="2.77"/>
<path d="M403.072 194.538C390.08 200.489 377.22 206.723 364.492 213.242" stroke="#E6007E" stroke-width="2.77"/>
<path d="M395.192 216.623C396.447 212.935 397.732 209.244 399.051 205.577C400.368 201.901 401.691 198.193 403.071 194.528C399.384 193.141 395.698 191.825 391.979 190.494C388.26 189.162 384.534 187.852 380.794 186.584" stroke="#E6007E" stroke-width="2.77"/>
<path d="M470.683 166.907C457.22 171.693 443.897 176.893 430.722 182.416" stroke="#E6007E" stroke-width="2.77"/>
<path d="M460.986 188.234C462.531 184.666 464.108 181.104 465.726 177.556C467.344 173.998 468.981 170.437 470.672 166.898C467.122 165.199 463.551 163.563 459.961 161.93C456.359 160.289 452.753 158.688 449.108 157.104" stroke="#E6007E" stroke-width="2.77"/>
<path d="M540.741 146.338C526.792 149.446 512.987 153.201 499.325 157.379" stroke="#E6007E" stroke-width="2.77"/>
<path d="M528.715 166.376C530.621 162.998 532.582 159.653 534.586 156.322C536.586 152.961 538.645 149.662 540.741 146.338C537.428 144.251 534.063 142.151 530.679 140.134C527.282 138.089 523.849 136.08 520.393 134.124" stroke="#E6007E" stroke-width="2.77"/>
<path d="M613.095 137.39C598.796 137.377 584.524 138.673 570.39 140.777" stroke="#E6007E" stroke-width="2.77"/>
<path d="M597.541 154.553C602.386 148.649 607.531 142.934 613.095 137.39C607.563 131.835 601.601 126.453 595.363 121.323" stroke="#E6007E" stroke-width="2.77"/>
<path d="M682.741 155.549C681.906 155.225 681.102 154.837 680.284 154.49C679.482 154.111 678.692 153.68 677.896 153.279C676.36 152.37 674.84 151.428 673.311 150.497C670.232 148.699 667.036 147.07 663.713 145.752C657.112 143.008 650.153 141.206 643.125 139.908" stroke="#E6007E" stroke-width="2.77"/>
<path d="M660.837 162.688C663.994 161.11 667.29 159.794 670.835 158.736C671.236 158.577 671.858 158.548 672.381 158.462L673.982 158.21C675.031 158.059 676.063 157.788 677.065 157.522C679.054 157.022 680.969 156.291 682.761 155.546C682.001 153.716 681.331 151.944 680.885 150.119C680.653 149.213 680.436 148.345 680.314 147.433L680.123 146.107C680.058 145.661 680.093 145.273 679.895 144.745C678.75 140.738 677.219 136.645 675.353 132.691" stroke="#E6007E" stroke-width="2.77"/>
<path d="M755.056 156.671C740.937 158.814 726.683 160.44 712.387 160.305" stroke="#E6007E" stroke-width="2.77"/>
<path d="M740.349 175.429C745.561 169.27 750.416 163.01 755.057 156.681C748.728 152.039 742.581 147.26 736.753 142.313" stroke="#E6007E" stroke-width="2.77"/>
<path d="M826.577 141.822C812.687 145.194 798.764 148.41 784.761 151.284" stroke="#E6007E" stroke-width="2.77"/>
<path d="M814.123 161.901C818.35 155.217 822.486 148.536 826.567 141.823C819.864 137.741 813.204 133.611 806.61 129.442" stroke="#E6007E" stroke-width="2.77"/>
<path d="M897.34 123.687C883.518 127.323 869.695 130.949 855.85 134.497" stroke="#E6007E" stroke-width="2.77"/>
<path d="M885.449 144.028L897.34 123.687L877.02 111.803" stroke="#E6007E" stroke-width="2.77"/>
<path d="M968.059 105.317C954.197 108.817 940.368 112.403 926.543 116.019" stroke="#E6007E" stroke-width="2.77"/>
<path d="M956.063 125.562L968.059 105.317L947.77 93.2966" stroke="#E6007E" stroke-width="2.77"/>
<path d="M1039.13 88.4104C1025.18 91.4792 1011.25 94.7163 997.365 98.0777" stroke="#E6007E" stroke-width="2.77"/>
<path d="M1026.6 108.289C1030.72 101.651 1034.89 95.0249 1039.13 88.4005C1032.52 84.1735 1025.86 79.9734 1019.16 75.8186" stroke="#E6007E" stroke-width="2.77"/>
<path d="M253.14 301.033C240.658 307.991 228.313 315.202 216.125 322.663" stroke="#E6007E" stroke-width="2.77"/>
<path d="M246.988 323.677C248.951 316.148 250.978 308.58 253.142 301.043C245.585 298.882 237.984 296.839 230.32 294.845" stroke="#E6007E" stroke-width="2.77"/>
<path d="M318.547 267.517C305.611 273.58 292.797 279.92 280.11 286.514" stroke="#E6007E" stroke-width="2.77"/>
<path d="M310.836 289.658C313.317 282.287 315.874 274.885 318.555 267.505C311.166 264.825 303.731 262.253 296.221 259.722" stroke="#E6007E" stroke-width="2.77"/>
<path d="M386.186 238.75C372.827 243.844 359.594 249.244 346.483 254.929" stroke="#E6007E" stroke-width="2.77"/>
<path d="M376.892 260.282C379.882 253.08 382.989 245.921 386.186 238.75C379.024 235.552 371.77 232.408 364.471 229.381" stroke="#E6007E" stroke-width="2.77"/>
<path d="M455.837 215.3C442.103 219.266 428.486 223.62 414.974 228.282" stroke="#E6007E" stroke-width="2.77"/>
<path d="M444.847 236.006C448.392 229.077 452.053 222.182 455.838 215.31C448.966 211.524 441.983 207.815 434.934 204.207" stroke="#E6007E" stroke-width="2.77"/>
<path d="M527.343 198.391C513.264 200.882 499.3 203.952 485.423 207.343" stroke="#E6007E" stroke-width="2.77"/>
<path d="M514.364 217.849C518.533 211.326 522.857 204.82 527.343 198.391C520.902 193.887 514.32 189.524 507.616 185.229" stroke="#E6007E" stroke-width="2.77"/>
<path d="M600.401 191.029C586.105 191.106 571.829 192.16 557.645 193.848" stroke="#E6007E" stroke-width="2.77"/>
<path d="M584.672 208.167C587.166 205.22 589.717 202.385 592.339 199.49C594.952 196.667 597.647 193.782 600.401 191.029C597.612 188.23 594.752 185.572 591.811 182.844C588.882 180.196 585.885 177.498 582.833 174.908" stroke="#E6007E" stroke-width="2.77"/>
<path d="M671.877 204.72C670.239 204.018 668.623 203.251 667.015 202.473C666.212 202.094 665.416 201.684 664.595 201.318L662.131 200.28C658.815 198.94 655.434 197.782 651.984 196.836C645.106 194.901 638.055 193.587 630.974 192.691" stroke="#E6007E" stroke-width="2.77"/>
<path d="M651.298 214.032C654.366 212.123 657.558 210.368 660.95 208.816C662.646 208.036 664.358 207.364 666.179 206.686C668.172 206.075 670.065 205.467 671.865 204.712C671.107 202.892 670.516 201.037 669.979 199.286C669.286 197.426 668.529 195.474 667.691 193.595C665.995 189.829 664.007 186.075 661.802 182.423" stroke="#E6007E" stroke-width="2.77"/>
<path d="M744.6 206.985C730.458 208.97 716.178 210.419 701.888 210.05" stroke="#E6007E" stroke-width="2.77"/>
<path d="M729.653 225.556C732.32 222.543 734.859 219.418 737.356 216.359C739.833 213.222 742.259 210.153 744.609 206.984C741.474 204.659 738.383 202.216 735.35 199.826C732.325 197.353 729.359 194.943 726.495 192.396" stroke="#E6007E" stroke-width="2.77"/>
<path d="M816.616 192.348C802.726 195.72 788.804 198.946 774.778 201.732" stroke="#E6007E" stroke-width="2.77"/>
<path d="M804.152 212.428C808.388 205.743 812.543 199.049 816.616 192.348C809.903 188.266 803.245 184.147 796.67 179.975" stroke="#E6007E" stroke-width="2.77"/>
<path d="M887.706 173.61C873.93 177.421 860.143 181.163 846.31 184.79" stroke="#E6007E" stroke-width="2.77"/>
<path d="M876.016 194.084L887.706 173.61L867.266 161.945" stroke="#E6007E" stroke-width="2.77"/>
<path d="M958.507 153.853L917.215 165.402" stroke="#E6007E" stroke-width="2.77"/>
<path d="M946.954 174.368L958.507 153.853L937.981 142.292" stroke="#E6007E" stroke-width="2.77"/>
<path d="M1029.45 134.581C1015.62 138.197 1001.82 141.911 988.032 145.683" stroke="#E6007E" stroke-width="2.77"/>
<path d="M1017.65 154.94L1029.45 134.581L1009.06 122.748" stroke="#E6007E" stroke-width="2.77"/>
<path d="M301.088 316.783L296.094 318.717L291.133 320.748L281.212 324.81C277.898 326.138 274.633 327.59 271.351 329.004L261.52 333.265" stroke="#E6007E" stroke-width="2.77"/>
<path d="M291.968 338.4C294.92 331.214 297.914 323.9 301.088 316.783C293.864 313.573 286.647 310.616 279.299 307.597" stroke="#E6007E" stroke-width="2.77"/>
<path d="M371.123 292.145C364.312 294.302 357.517 296.508 350.726 298.732C343.973 301.083 337.194 303.327 330.472 305.754" stroke="#E6007E" stroke-width="2.77"/>
<path d="M360.477 313.064C363.94 306.127 367.482 299.108 371.123 292.145C364.17 288.503 357.162 284.97 350.061 281.419" stroke="#E6007E" stroke-width="2.77"/>
<path d="M442.773 272.67C439.289 273.447 435.831 274.341 432.355 275.177C428.882 276.033 425.401 276.839 421.945 277.743L411.579 280.475L406.401 281.84L401.246 283.293" stroke="#E6007E" stroke-width="2.77"/>
<path d="M430.631 292.745C434.588 286.08 438.624 279.333 442.775 272.68C436.111 268.521 429.385 264.492 422.544 260.439" stroke="#E6007E" stroke-width="2.77"/>
<path d="M515.742 258.955C501.583 260.892 487.509 263.412 473.469 266.099" stroke="#E6007E" stroke-width="2.77"/>
<path d="M501.963 277.913L508.756 268.362L515.742 258.955L506.233 251.894L496.582 245.034" stroke="#E6007E" stroke-width="2.77"/>
<path d="M589.697 252.908C575.401 252.985 561.129 253.928 546.902 255.247" stroke="#E6007E" stroke-width="2.77"/>
<path d="M573.824 270.026C576.377 267.141 578.973 264.199 581.616 261.372C584.26 258.555 586.953 255.73 589.707 252.907C586.908 250.179 584.048 247.451 581.147 244.718C578.239 242.006 575.297 239.41 572.296 236.753" stroke="#E6007E" stroke-width="2.77"/>
<path d="M662.869 262.818L657.813 261.043C656.122 260.459 654.454 259.821 652.709 259.427L647.521 258.066L646.219 257.728L644.899 257.475L642.269 256.966L637.01 255.948L631.699 255.211C629.928 254.982 628.167 254.681 626.385 254.514L621.05 254.023" stroke="#E6007E" stroke-width="2.77"/>
<path d="M643.189 274.151C646.122 272.08 649.284 269.976 652.55 268.038C655.743 266.223 659.196 264.46 662.861 262.829C661.303 259.326 659.495 255.768 657.453 252.123C655.402 248.63 653.161 245.226 650.733 241.707" stroke="#E6007E" stroke-width="2.77"/>
<path d="M736.407 265.409C722.253 267.305 707.956 268.564 693.664 268.115" stroke="#E6007E" stroke-width="2.77"/>
<path d="M721.293 283.863C726.641 277.805 731.645 271.676 736.407 265.409C730.165 260.674 724.125 255.728 718.423 250.672" stroke="#E6007E" stroke-width="2.77"/>
<path d="M809.203 250.922C795.328 254.332 781.374 257.472 767.355 260.237" stroke="#E6007E" stroke-width="2.77"/>
<path d="M796.719 271.005C800.988 264.335 805.133 257.643 809.213 250.92C802.501 246.849 795.853 242.728 789.295 238.533" stroke="#E6007E" stroke-width="2.77"/>
<path d="M880.906 231.6C867.169 235.547 853.41 239.406 839.608 243.109" stroke="#E6007E" stroke-width="2.77"/>
<path d="M869.396 252.2C873.273 245.334 877.111 238.474 880.907 231.61C874.033 227.815 867.195 223.984 860.384 220.139" stroke="#E6007E" stroke-width="2.77"/>
<path d="M952.106 210.482L911.036 222.797" stroke="#E6007E" stroke-width="2.77"/>
<path d="M940.963 231.241L952.106 210.482L931.369 199.346" stroke="#E6007E" stroke-width="2.77"/>
<path d="M1023.19 188.967L982.153 201.378" stroke="#E6007E" stroke-width="2.77"/>
<path d="M1012.06 209.713L1023.19 188.967L1002.42 177.825" stroke="#E6007E" stroke-width="2.77"/>
<path d="M417.393 352.262C421.69 345.71 426.074 339.276 430.546 332.819C424.09 328.347 417.555 323.897 410.969 319.575" stroke="#E6007E" stroke-width="2.77"/>
<path d="M505.035 321.795C497.943 322.638 490.831 323.414 483.761 324.416L473.137 325.852L462.536 327.445" stroke="#E6007E" stroke-width="2.77"/>
<path d="M490.615 340.299C495.322 334.071 500.14 327.979 505.035 321.795C498.907 316.942 492.679 312.022 486.382 307.255" stroke="#E6007E" stroke-width="2.77"/>
<path d="M580.17 316.84C565.871 316.968 551.6 317.779 537.345 318.769" stroke="#E6007E" stroke-width="2.77"/>
<path d="M564.16 333.927C569.359 328.093 574.677 322.525 580.17 316.84C574.557 311.428 568.765 305.89 562.873 300.639" stroke="#E6007E" stroke-width="2.77"/>
<path d="M654.926 323.873C651.464 322.99 648.034 321.98 644.504 321.399L639.245 320.382L633.943 319.633C632.172 319.404 630.409 319.093 628.627 318.926L623.296 318.394C621.515 318.237 619.744 318.008 617.961 317.902L612.607 317.565" stroke="#E6007E" stroke-width="2.77"/>
<path d="M635.982 336.737C638.909 334.414 641.907 332.223 645.081 329.995C646.684 328.854 648.231 327.883 649.872 326.867C651.505 325.863 653.189 324.862 654.916 323.875C653.965 322.193 652.951 320.491 651.906 318.783C650.852 317.086 649.746 315.306 648.607 313.713C646.327 310.456 643.891 307.1 641.342 303.861" stroke="#E6007E" stroke-width="2.77"/>
<path d="M729.697 325.842C715.53 327.648 701.241 328.825 686.946 328.488" stroke="#E6007E" stroke-width="2.77"/>
<path d="M714.519 344.203C719.886 338.204 724.904 332.032 729.706 325.831C723.493 321.02 717.469 316.112 711.769 311.005" stroke="#E6007E" stroke-width="2.77"/>
<path d="M803.586 311.368C789.697 314.75 775.757 317.918 761.717 320.605" stroke="#E6007E" stroke-width="2.77"/>
<path d="M791.071 331.446C795.35 324.774 799.515 318.08 803.586 311.368C796.875 307.296 790.225 303.166 783.687 298.968" stroke="#E6007E" stroke-width="2.77"/>
<path d="M876.209 291.418C862.512 295.501 848.778 299.467 834.993 303.219" stroke="#E6007E" stroke-width="2.77"/>
<path d="M864.853 312.107C868.686 305.217 872.469 298.325 876.207 291.408C869.302 287.678 862.433 283.913 855.597 280.102" stroke="#E6007E" stroke-width="2.77"/>
<path d="M948.086 268.899C934.499 273.319 920.883 277.683 907.242 281.939" stroke="#E6007E" stroke-width="2.77"/>
<path d="M937.327 289.875L948.086 268.899L927.154 258.165" stroke="#E6007E" stroke-width="2.77"/>
<path d="M1019.56 245.115L978.911 258.753" stroke="#E6007E" stroke-width="2.77"/>
<path d="M1009.09 266.23L1019.56 245.115L998.464 234.657" stroke="#E6007E" stroke-width="2.77"/>
<path d="M1090.87 220.839L1050.28 234.681" stroke="#E6007E" stroke-width="2.77"/>
<path d="M893.475 362.954C897.119 355.94 900.714 348.943 904.272 341.962C897.258 338.389 890.294 334.809 883.378 331.212" stroke="#E6007E" stroke-width="2.77"/>
<path d="M972.972 318.296L962.888 321.927L952.772 325.481C946.035 327.87 939.279 330.201 932.519 332.502" stroke="#E6007E" stroke-width="2.77"/>
<path d="M962.826 339.597C966.249 332.525 969.624 325.398 972.972 318.296C965.87 314.948 958.798 311.606 951.737 308.191" stroke="#E6007E" stroke-width="2.77"/>
<path d="M1041.07 292.969L1021.03 300.585L1000.95 308.097" stroke="#E6007E" stroke-width="2.77"/>
<path d="M1031.41 314.473L1041.07 292.969L1019.62 283.32" stroke="#E6007E" stroke-width="2.77"/>
</g>
<defs>
<clipPath id="clip0_4_118">
<rect width="1442.6" height="968.64" fill="white" transform="translate(0 206.47) rotate(-8.22862)"/>
</clipPath>
</defs>
</svg>
