<svg width="1920" height="1080" viewBox="0 0 1920 1080" fill="none" xmlns="http://www.w3.org/2000/svg">
<g clip-path="url(#clip0_12_1764)">
<path d="M1920 0H0V1080H1920V0Z" fill="#6E2382"/>
<path d="M1048.2 1080H308.9C360.1 1030.3 416 984.8 483.8 964.7C503.6 958.8 524.1 955.2 544.5 951.7C576.2 946.3 607.9 940.8 639.6 935.3C668.5 930.3 697.4 925.3 725.6 917.3C790.7 899 837.3 863.3 892 826.3C934.1 797.7 991.7 816 1018.3 858.3C1042.2 896.1 1044.2 943.3 1045.5 988C1046.4 1017.1 1047.2 1046.2 1048.1 1075.3C1048.1 1076.9 1048.1 1078.4 1048.2 1080Z" fill="#772182"/>
<path d="M259.9 686C251.9 697.7 247.8 711.7 244.1 725.4C237.2 751 230.9 777.7 235.3 803.8C240.6 835.1 260.7 862.3 267.1 893.4C273.8 926.1 264.7 960.2 269 993.4C269.6 998 270.6 1002.9 273.8 1006.2C277 1009.5 281.7 1010.7 286.1 1011.7C309.5 1016.9 337.2 1018.4 354.4 1001.6C371.5 984.9 370.7 957.3 366.1 933.8C361.5 910.3 354.1 885.6 362.2 863C363.9 858.3 366.3 853.7 370.3 850.7C375.9 846.4 383.6 846.1 390.7 846C414.2 845.6 437.6 845.2 461.1 844.9C469.6 844.9 478.3 844.7 486.3 847.6C493.8 850.3 500.2 855.6 507.3 859.2C521.5 866.5 537.9 867.4 553.8 868.1C584.1 869.4 614.7 870.5 644.6 865.7C682.5 859.7 722 841 737.1 805.7C743.9 789.6 745 771.8 745.6 754.4C747.2 711.1 746.8 667.8 744.4 624.5C743.9 616.3 743.3 607.8 739.3 600.7C733.1 589.8 720.5 584.4 708.4 581.1C690 576 670.9 573.6 651.9 574.2C645.6 574.4 639.1 574.9 633.1 572.7C627.6 570.8 623.1 566.8 619 562.8C593.2 537.7 573.7 504.1 540.6 489.9C522.3 482 501.9 481.2 482 481.2C462.1 481.2 430.7 485.4 417.8 509.5C407.3 529.1 403.8 550.6 390.1 568.9C375.4 588.4 355.8 606.3 337.6 622.4C313.3 643.9 278.5 658.6 259.9 685.7V686Z" fill="#772182"/>
<path d="M1817.8 739.9C1814.7 757.5 1814.8 776.2 1821.5 792.9C1831.2 817 1853.1 834.3 1863.7 857.9C1873.2 879.1 1872.7 903.3 1872.1 926.5C1871.5 949.2 1869.5 974.9 1851.8 989.2C1835.7 1002.2 1812.6 1000.7 1792 998C1748.6 992.3 1702.1 982.7 1672.6 950.3C1659.8 936.3 1651.3 918.9 1640 903.5C1611.3 864.3 1564 836.6 1551.4 789.7C1541.8 753.9 1555.5 716.1 1571.7 682.7C1581.6 662.3 1592.7 642 1609.3 626.5H1609.2C1639.5 598.2 1681.7 590.5 1717.2 571.2C1742.4 557.5 1770.3 536.9 1759.8 505.3C1754.4 489 1730.2 470.3 1730.6 453.1C1731.9 397.4 1871.2 487.6 1893 490.9C1901.9 492.3 1911 492.2 1920 492.6V625.6C1869.1 641.8 1827.4 687 1817.8 739.9Z" fill="#772182"/>
<path d="M296.7 487.1C293.9 479.7 290.2 472.2 283.7 467.7C277.7 463.7 270.3 462.7 263.1 462.4C202.2 460.2 149.7 501.8 92.6 523.2H92.8C63.2 534.4 31.6 539.9 0 539.9V1080H41.2C52.4 1081.5 63.6 1082 74.3 1080H221.9C221.9 1076.8 221.9 1073.6 221.9 1070.4C220.7 1019.9 210 969.9 191.6 922.9C183.9 903.3 174.8 884.2 169.1 863.9C154.9 813.6 162.9 758.7 184.5 711.1C206.1 663.5 240.5 622.7 279.3 587.6C286.6 581 294.3 574.3 298.7 565.5C301.7 559.5 303 552.8 303.8 546.2C306.1 526.3 303.7 505.9 296.8 487.1H296.7Z" fill="#772182"/>
<path d="M1793.4 1080H1675.5C1674.6 1076.3 1673.6 1072.7 1672.5 1069.1C1668 1054.4 1659.8 1039.3 1645.5 1033.7C1638.8 1031.1 1630.5 1030.4 1626.2 1024.6C1619 1014.8 1629.4 1002.2 1634.4 991.1C1641.3 975.8 1637.4 957.3 1628.4 943.1C1625 937.7 1607.2 923 1610.9 917.7C1617.6 908 1629 925.8 1632.3 930.1C1646.6 948.8 1655.6 973.1 1676.9 985.5C1683.6 989.4 1691.1 991.7 1697.9 995.6C1705.9 1000.1 1712.5 1006.7 1719 1013.3C1742.3 1037 1765.9 1062.3 1793.5 1080H1793.4Z" fill="#772182"/>
<path d="M1107.4 435.8C1083 437.6 1059.6 446.9 1038 458.4C1006 475.4 974.4 500.9 967.4 536.5C962.7 560.2 969 587.5 954.4 606.7C944.2 620.2 926.5 625.6 914 636.9C887.7 660.6 891.3 705.4 912.8 733.6C934.2 761.8 968.2 777.2 1001.3 790.1C1012.6 794.5 1024.3 798.8 1036.4 798.6C1050.8 798.4 1064.3 791.8 1077.7 786.2C1104 775.1 1131.6 767.4 1159 759.6C1180 753.7 1201.2 747.7 1223 746.7C1242.8 745.8 1262.5 749 1282.2 750.9C1328.1 755.4 1374.7 752.9 1419.9 743.7C1430 741.6 1440.2 739.2 1449 733.8C1469.7 721.1 1478.2 694.1 1474.7 670C1471.2 646 1457.9 624.6 1443 605.4C1421.4 577.5 1395.5 551.8 1366 532.2C1341.3 515.8 1310.3 514.4 1283.2 502.2C1227 476.9 1172.8 430.9 1107.7 435.7H1107.4V435.8Z" fill="#772182"/>
<path d="M1035.5 1080H424.8C429.9 1072.9 435.3 1066 440.8 1059.3C461.4 1034.1 484 1009.5 512.9 994.7C559.1 971.1 613.9 975.8 665.4 969.8V969.6C725.2 962.6 782.9 939.9 831.8 904.8C850.9 891.1 871 876.6 889 861.4C906.9 846.2 916.8 823.4 944.7 830.7C958.3 834.3 969.6 843.7 979.1 854.1C1018.9 897.7 1032.1 959.3 1037.5 1018.1C1039.4 1038.8 1040.4 1060.1 1035.5 1080Z" fill="#811F81"/>
<path d="M1224.7 1080H1164.3C1183.7 1073.3 1205.4 1073.2 1224.7 1080Z" fill="#772182"/>
<path d="M1470.1 1080H1311.2C1356.6 1054.5 1402.7 1024.1 1454 1028.3C1459.2 1028.7 1464.9 1029.8 1468.3 1033.7C1470.9 1036.6 1471.7 1040.7 1472.2 1044.6C1473.7 1056.4 1472.9 1068.4 1470.1 1080Z" fill="#772182"/>
<path d="M249.2 499.5C208.2 514.1 169.8 536 136.3 563.9C119.7 577.6 104.4 592.9 86.8 605.3H86.9C60.1 624.2 29.3 635.7 0 649.9V1071.6C13.6 1074.5 27.5 1078.1 41.2 1080C52.4 1081.5 63.6 1082 74.3 1080C79.5 1079 84.7 1077.5 89.7 1075.3C111.4 1065.7 126.1 1044 132.4 1021.1C142.8 983.3 134.8 937 128.4 898.8C122.4 863.3 131 836.8 128.4 801.5C127.4 786.7 133.3 772.1 132.4 757.3C131.7 745.3 126.7 732.2 132.8 721.8C138.6 711.9 153.6 706.2 152.2 694.8C150.8 683.9 135.5 681.7 125.1 685.2C114.6 688.6 103.5 694.9 93.4 690.4C81.3 685.1 80.4 666.7 88.5 656.1C97.9 644 112.6 643.1 124.2 634.9C133 628.8 140.8 618.8 148.6 611.3C174.7 586.1 205.4 566.1 233 542.6C245.9 531.6 259 513.3 249.2 499.5Z" fill="#811F81"/>
<path d="M534.2 522.7C553.6 535.4 559.9 560.6 574 578.9C597.2 608.9 637.9 617.2 673.1 631.3C683.5 635.5 694.2 640.8 700.3 650.2C710.7 666.2 704.4 687.3 697.8 705.2C691.6 722.1 684.2 740.5 668.5 749.2C656.1 756.1 641.2 755.6 627 755.5C590.7 755.3 554.3 759.1 518.8 766.9C510.3 768.8 501.6 771 494.9 776.5C487.5 782.6 483.5 792.1 476.1 798.1C463.1 808.5 444.5 805.4 427.9 804C403.8 802 379.2 804.8 356.2 812.3C338.2 818.1 318.7 830.4 318 849.2C317.7 857.7 321.4 866 321.3 874.5C321.2 883 313.9 892.7 305.8 890C274.2 845.2 276.8 779.2 312 737C322.8 724 336.6 712.7 341.9 696.7C347.8 678.9 342.6 657.2 354.3 642.5C361.3 633.7 372.8 629.8 381.8 623C401.7 607.9 407.3 581 417.7 558.3C435.3 520 497.3 498.2 534.4 522.5L534.2 522.7Z" fill="#811F81"/>
<path d="M1585.3 315.9C1617 326.8 1649.9 343.7 1663.5 374.4C1674.4 399 1670.4 427.4 1665.4 453.8C1664.1 460.4 1662.8 467.3 1659.2 473C1654.9 479.9 1647.8 484.5 1640.5 488C1616.9 499.5 1589.9 501.4 1563.7 501.5C1531.3 501.5 1497.5 498.5 1469.7 481.7C1441.9 465 1422.1 431.2 1430.7 400C1436.2 380 1451.7 364.6 1463.3 347.4C1475.1 329.7 1479 288.9 1503 286C1522.5 283.7 1565.7 309.1 1585.4 315.9H1585.3Z" fill="#772182"/>
<path d="M919.8 710.9C933.1 738 965.8 751.6 995.9 749.3C1026 747.1 1053.6 731.8 1077.8 713.7C1093.8 701.7 1109 688.2 1127.1 679.5C1158.1 664.6 1194.5 665.4 1228 672.9C1248 677.4 1267.8 684.1 1288.2 683.9C1308.7 683.7 1330.8 674.7 1339.3 656.1C1349.8 633 1336 606.6 1321.4 585.9C1304.6 562.1 1282.8 537.6 1253.7 535.6C1234.4 534.3 1214.7 543.3 1196.2 537.8C1167.1 529.1 1157.9 490.5 1131.3 476C1109.6 464.2 1081.2 472.2 1063.1 489C1045 505.8 1035.1 529.6 1027.4 553.1C1021.6 570.7 1016.6 588.8 1006.7 604.4C982.3 642.9 884.3 638.5 919.8 710.9Z" fill="#811F81"/>
<path d="M1399.2 155.7C1382.8 203.1 1354 247.9 1311.5 274.5C1226.1 327.9 1100.3 301.8 1031 374.9C1003.2 404.2 989 446.1 956 469.4C938.3 481.9 916.7 487.7 895.2 490.6C857.9 495.5 818.3 491.7 785.4 473.2C765.3 461.9 748.5 445.7 729.2 433.1C675.5 398.2 607.6 394.5 543.7 398.7C522.5 400.1 499.9 401.9 481.1 392.1C464 383.2 453 366.2 438.8 353.1C422.8 338.3 401.5 327.3 393.3 307.1C385.8 288.6 391.4 267.4 399.6 249.2C419.3 205.3 453.8 168.3 496.2 145.5C512.4 136.8 529.7 130.1 544.1 118.7C579.7 90.6 589.1 41.8 606.5 0H1365.6C1365.9 0.4 1366.3 0.9 1366.6 1.3C1387 27 1405.6 55.9 1409.2 88.4C1411.7 111.1 1406.5 134.1 1399.1 155.7H1399.2Z" fill="#772182"/>
<path d="M1284.1 114.7C1255.4 165 1246.7 229.3 1201.8 265.9C1167.4 294 1119.7 298.6 1080 318.7C1016.1 351.1 973.2 423.7 902.6 435.9C860.3 443.2 817.9 426.6 778.1 410.2C751.6 399.3 725 388.3 700.6 373.2C684.8 363.3 669.6 351.7 651.8 346.2C627.4 338.7 601.1 343.7 575.6 344.5C550.1 345.3 521.3 339.9 506.9 318.8C499.6 308.1 497.2 294.8 495.8 281.8C494.2 266.1 493.8 250.2 494.8 234.4C495.5 222.6 497.4 209.8 505.8 201.5C511.5 195.8 519.4 193 526.8 189.9C578.8 167.8 616.6 122.2 650.4 76.9C669.2 51.7 687.3 26.1 704.8 0H1235.6C1242.5 6.8 1251.9 13.4 1256.3 19.9C1265.5 33.6 1289.4 87 1289.4 87C1289.4 87 1295.6 94.5 1284.1 114.7Z" fill="#811F81"/>
<path d="M1849.9 0H1621.9C1602.5 18.8 1568 18.7 1547.5 37.8C1538 46.6 1532.5 58.8 1527.2 70.6C1505.9 118 1484.5 165.5 1463.1 212.9C1459.5 221 1455.8 229.9 1458.3 238.4C1459.4 242.1 1461.6 245.3 1464.1 248.3C1478.2 265.1 1500.6 272.6 1522.3 275.8C1544 279 1566.2 278.6 1587.6 283.5C1617.2 290.3 1643.5 306.6 1669.2 322.6C1701.3 342.6 1733.5 362.7 1762.9 386.6C1782.3 402.3 1800.7 419.8 1823.4 430.2C1842.9 439.1 1864.6 442.3 1886 444.3C1897.3 445.4 1908.7 446.2 1920.1 446.8V0H1850H1849.9Z" fill="#772182"/>
<path d="M459.6 536.9C454.5 537.9 450.6 542 447.2 546.1C433.6 562.5 422.2 580.7 413.5 600.1C410.1 607.7 406.9 615.7 400.8 621.4C396.2 625.7 390.2 628.4 385.3 632.5C372.5 643.3 369.7 661.7 368.6 678.4C368.1 686.9 367.7 695.6 369.8 703.9C374.8 723.9 394.8 738.8 415.4 738.8C436 738.8 455.6 724.4 462.6 705C463.7 702 464.6 698.6 467.1 696.5C469 694.9 471.5 694.2 474 693.7C484.6 691.4 495.5 690.7 506.2 691.7C516.8 692.6 527.3 695.1 537.9 694.8C548.5 694.5 559.8 690.8 565.8 682C584 655.6 542.1 611.1 529.9 588.4C518.1 566.3 489.3 531.4 459.6 536.9Z" fill="#8A1D81"/>
<path d="M999.5 1054.6C999.2 1057.5 998.5 1060.5 996.4 1062.5C993.8 1064.9 989.9 1064.9 986.4 1064.9C912.6 1063.9 836.6 1061.6 765.8 1080H546.8C561.1 1068 579.7 1059.6 597.6 1053.7C653.4 1035.2 712.1 1028.1 769.6 1016C827.1 1003.9 885 986 930.9 949.3C941.2 941 946.2 913.1 960 919C962 966.8 1005.4 1006.4 999.4 1054.6H999.5Z" fill="#8A1D81"/>
<path d="M83 993.7C80.5 925.2 78.1 856.6 75.7 788C75.2 774 74.6 759.5 68.5 746.9C51.3 711.1 25.2 713.8 0 728.9V1044.6C7.7 1046 15.5 1047.3 23.3 1048.3C41 1050.6 61.7 1050.4 73.5 1037C83.5 1025.6 83.5 1008.8 83 993.7Z" fill="#8A1D81"/>
<path d="M1239.3 134.4C1234.4 172.3 1212.2 205.4 1190.6 236.9C1184.4 246 1177.9 255.4 1168.7 261.5C1155.1 270.6 1137.8 271.3 1121.8 274.6C1060.2 287.3 1015.7 339.6 960.8 370.3C920.1 393.1 872.4 404 826.1 398.1C788.6 393.4 753.4 378 718.7 362.9C699.1 354.3 679.5 345.8 659.9 337.2C633.1 325.5 603.6 311 593.7 283.5C584.3 257.5 596.4 228 614.8 207.2C633.1 186.4 657.2 171.7 678.1 153.4C724.5 112.7 753.5 56.3 788.5 5.4C789.7 3.6 791 1.8 792.3 0H1135.5C1134 4.2 1133.8 9.4 1135.5 15.9C1140.8 36.3 1169 36 1189.2 41.9C1225.8 52.6 1244.2 96.5 1239.3 134.4Z" fill="#8A1D81"/>
<path d="M660.8 648C656 664.9 651.2 681.9 646.4 698.8C645.2 703.2 644.6 709.2 648.7 711.2C651.5 712.6 654.9 711 657.5 709.1C675.1 696.8 683.8 673 678.3 652.3C672.4 649 666.5 645.7 660.6 642.5L660.8 648.1V648Z" fill="#8A1D81"/>
<path d="M1003.3 679.8C1002.6 683.4 1003 687.4 1005.5 690C1006.6 691.2 1008 691.9 1009.5 692.5C1024.6 698.8 1041.4 688.1 1051.9 675.6C1060.5 665.4 1067.3 652.6 1078.2 644.5C1090.4 635.4 1109.8 635.6 1120.3 624.7C1137.6 606.8 1125.6 587.1 1104 583.6C1078 579.4 1059.3 596.7 1048.8 617.6C1041.4 632.4 1039.2 640.9 1026.9 652.7C1018 661.2 1005.7 666.3 1003.3 679.8Z" fill="#8A1D81"/>
<path d="M1184.8 216.8C1160.1 238 1124.6 239.7 1094.3 251.4C1043.4 271.1 1008.4 318.5 960.4 344.4C901 376.4 828.8 371.9 762.4 359.9C739 355.7 714.6 350 697.3 333.8C676.1 313.9 670.3 280.9 678.4 253C686.6 225.1 706.7 201.9 730.1 184.6C751.1 169.2 775.3 157.5 792.3 137.7C814 112.3 821.4 76.2 845.8 53.3C854.7 45 865.7 38.6 872.3 28.3C877.7 19.9 879.4 9.7 882.3 0H1038.6C1048.7 10.8 1055.8 23.6 1067.7 32.3C1083.3 43.9 1109.5 43.8 1127.7 51.2C1150.2 60.4 1171.1 73.6 1186.7 92.4C1216 127.8 1219.7 186.8 1184.8 216.8Z" fill="#931A81"/>
<path d="M882.7 47.4001C855.1 76.9001 847.9 122.8 815.9 147.4C803.2 157.1 787.8 162.5 774.1 170.7C758.3 180.2 744.8 193.5 735.2 209.2C727.1 222.5 721.6 238 723.1 253.5C724.6 269 734.1 284.3 748.7 289.6C758.2 293.1 768.7 292.2 778.8 291.2C813.8 287.9 850.2 284.1 879.9 265.5C896.4 255.1 909.5 240.6 925 229.1C944.1 215 963.3 213.3 983.9 203.4C1009.8 191 1041.1 147.6 1044.7 118C1055.1 31.5001 938.7 -12.3999 882.8 47.4001H882.7Z" fill="#9D1880"/>
<path d="M950.2 72.4001C937.5 67.9001 923.2 67.5001 910.9 73.0001C898.7 78.5001 889.1 90.5001 888.2 103.9C887 122.9 902 138.7 916.6 151C919.4 153.4 922.4 155.8 925.9 157.1C931.1 159 936.7 158.2 942.2 157.3C960 154.5 980.6 149.6 987.9 133.1C991.5 125 990.8 115.7 989.6 106.9C987.5 91.6001 980.8 73.3001 965.4 71.2001L950.1 72.4001H950.2Z" fill="#A61680"/>
<path d="M1533.6 331.7C1528 329.7 1522.2 327.7 1516.3 328.5C1500.5 330.4 1493.3 349.1 1491.5 364.9C1489.7 381.2 1490 397.7 1492.7 413.9C1495.2 429.1 1500.2 444.9 1512.1 454.7C1521.8 462.7 1535 465.5 1547.5 464.8C1567.7 463.8 1588.2 453.1 1596.7 434.8C1616.3 392.6 1568.4 344.3 1533.6 331.7Z" fill="#811F81"/>
<path d="M1206.8 973.9C1184.6 974.2 1162.3 972.3 1140.3 975.3C1118.3 978.3 1096 986.9 1082.2 1004.3C1079.6 1007.5 1077.3 1011.3 1077.1 1015.4C1076.5 1027.3 1091.8 1032.5 1103.6 1033.6C1133.9 1036.6 1164.5 1038 1195 1037.7C1206.9 1037.7 1218.9 1037.2 1230.5 1034.3C1241.6 1031.5 1252 1026.5 1262.6 1022.1C1305.8 1004 1352.6 995.6 1396 978.1C1432.2 963.6 1468.6 940.8 1489 906.4C1495.8 894.9 1511.9 866.8 1492.6 859.9C1479 855 1455.3 880.5 1445.4 887.4C1375.2 936.1 1293.4 972.3 1206.8 973.7V973.9Z" fill="#772182"/>
<path d="M805.1 210.7C790.8 220.4 781.9 237.8 782.5 255.1C791.4 259.5 802.6 254.9 808.9 247.2C815.2 239.5 817.7 229.5 820 219.9C820.9 216.3 821.7 212.5 820 209.2C818.4 205.9 813.2 204.3 811.1 207.3L805 210.7H805.1Z" fill="#A61680"/>
<path d="M28.7 984.9H28.6C23.9 992.1 18.8 999.4 11.8 1004.4C8.2 1007 4.2 1008.8 0 1009.9V809.1C2 811 4 813.1 6.1 815.4C55.1 869.2 70.1 921.4 28.7 984.8V984.9Z" fill="#9D1880"/>
<path d="M1920 678.2V817.9C1901.6 793.3 1879 770.8 1878.1 740.9C1877.5 718.1 1891 696.2 1910.1 683.7C1913.3 681.6 1916.6 679.8 1920 678.2Z" fill="#6E2382"/>
<path d="M1326.6 0C1322.2 1.7 1317.1 1.8 1312.7 0H1326.6Z" fill="#6E2382"/>
<path d="M217 263.8C206 271.3 194.8 278.8 186.2 289C177.6 299.2 171.9 312.5 173.7 325.7C197.9 312.8 218 292.5 230.6 268.1C229.9 264.9 226.6 262.4 223.3 262.8L217 263.8Z" fill="#811F81"/>
<path d="M1523.3 0C1515.6 8.7 1509.1 18.4 1504.3 28.9C1492.4 54.6 1490.1 83.4 1482.7 110.8C1475.4 138.1 1460.8 166.2 1434.7 177.1C1435.5 125.6 1455.6 71.2 1433.7 24.6C1429.7 16.1 1424.4 8.3 1419.9 0L1523.3 0Z" fill="#772182"/>
<path d="M1273.3 341.6C1244.6 348.6 1214.6 347 1185.5 351.9C1156.4 356.8 1126.1 370.8 1113.9 397.7C1173.2 394.5 1233.5 414.8 1278.8 453.3C1289.9 462.7 1300.2 473.3 1312.8 480.6C1325.4 487.9 1341 491.7 1354.6 486.3C1374.1 478.5 1382.4 455 1383 434C1383.9 403.9 1374.3 372.1 1386.5 344.5C1392.7 330.5 1403.9 319.4 1411.9 306.3C1418.5 295.4 1435.3 259.5 1421 249.6C1407.4 240.1 1388.4 262.7 1380.9 270.5C1350.7 301.9 1316.6 330.9 1273.3 341.6Z" fill="#772182"/>
<path d="M1782.3 609.2C1762.9 628.3 1736.2 637.8 1714.2 653.8C1676.1 681.6 1654.2 730.2 1658.7 777.2C1663.1 824.2 1693.7 867.8 1736.4 888C1741.1 890.2 1746.4 892.3 1751.5 891C1754.7 890.2 1757.5 888.2 1759.9 885.9C1773.8 873.2 1779.3 853.4 1780 834.5C1780.7 815.6 1777.2 796.9 1776.4 778C1774.7 737.4 1785.2 697.3 1796.7 658.3C1799.5 648.7 1802.6 638.7 1809.2 631.2C1821 617.7 1840.8 615.1 1855.7 605.1C1872.9 593.6 1882.3 571.5 1878.7 551.1C1874.4 526.6 1843.6 494 1823.2 522.6C1804.1 549.3 1808 583.9 1782.2 609.2H1782.3Z" fill="#811F81"/>
<path d="M541.7 0C492.9 47.8 441.1 92.6 387.3 134.6C356.9 158.4 323.5 184.9 316.5 222.9C313.7 238.1 315.6 253.9 314.4 269.3C311.7 304.1 293.8 335.6 276.4 365.8C254 404.5 228.9 445.7 187.7 462.8C129.8 486.8 59.5 455.6 0 464V0H541.7Z" fill="#772182"/>
<path d="M870.5 1017.3C867.3 1019.2 863.8 1021.7 863.7 1025.3C863.5 1030 868.8 1032.8 873.3 1034.1C891.7 1039.7 911.3 1041.4 930.4 1039.1C938.7 1038.1 947.2 1036.2 954 1031.4C971.7 1018.8 971.3 982.2 946.9 976.9C927 972.6 887.2 1007.4 870.5 1017.3Z" fill="#9D1880"/>
<path d="M1664.3 1080H1505.1C1502.9 1066.7 1501.4 1053.4 1504.7 1040.5C1510.4 1018.2 1529.7 1000.9 1533.9 978.2C1536.1 966.5 1533.9 954.4 1532.1 942.7C1530.3 931 1528.4 918.9 1531.2 907.3L1531.4 907.1C1538.8 875.8 1572.1 875 1578.9 904.4C1582.7 920.6 1582.3 928.8 1595.6 941.4C1605.9 951.2 1622.9 958.4 1622.6 975.2C1622.4 987.6 1610.8 998.8 1614 1010.7C1615.5 1016.3 1620 1020.5 1624.3 1024.4C1633.3 1032.5 1642.4 1040.7 1651.4 1048.8C1655.7 1052.8 1660.3 1056.9 1662.6 1062.3C1665 1067.9 1664.8 1073.9 1664.3 1080Z" fill="#772182"/>
<path d="M1752.7 1080H1723.6C1709.4 1063.7 1691.9 1047.5 1691.7 1027C1713.6 1038.9 1733.1 1060.9 1752.7 1080Z" fill="#811F81"/>
<path d="M1502.5 609.9C1504.8 613.8 1507.2 617.8 1510.8 620.6C1515.5 624.1 1521.7 625.1 1527.6 624.9C1540 624.5 1552.2 619.5 1561.4 611.1C1576.1 597.7 1581.9 577.4 1586.1 558C1588 549.1 1589.3 538.5 1582.8 532.1C1579.2 528.5 1573.9 527.2 1568.9 526.2C1545.4 521.5 1521.2 520.6 1497.4 523.5C1435.4 531.2 1485.5 580.7 1502.5 609.9Z" fill="#6E2382"/>
<path d="M495.7 0C491.7 8.5 487.4 16.8 481.4 23.9C461.1 48 427 54.2 399.6 69.8C367.7 87.9 345.1 118.5 316.1 140.9C276.6 171.4 226.2 185.8 188.6 218.6C143.6 257.9 123.3 317.6 105.9 374.7C102.2 386.8 98.3 399.4 89.6 408.5C69.6 429.6 35.1 423.5 7.1 415.8C4.7 415.2 2.4 414.5 0 413.8V0H495.7Z" fill="#811F81"/>
<path d="M443.9 0C439.3 3.2 434.5 6 429.7 8.8C391.9 30.6 351.4 47.5 309.4 59.2C263.6 71.9 216 78.4 171.8 95.9C146.7 105.9 121.1 121.3 111.9 146.7C106.9 160.5 107.4 175.7 105.3 190.3C97.8 243.6 56.4 290.3 60.3 343.9C46.8 354.6 25.7 341.5 21.3 324.9C17 308.3 23.2 291 27.6 274.4C39.7 228.9 37.8 181 36.3 134C34.8 89.1 33.9 43.2 45.8 0L443.9 0Z" fill="#8A1D81"/>
<path d="M324.3 0C308.2 9.4 292.3 19.3 275.8 27.8C245.4 43.4 211.1 54.7 177.4 49C168.2 47.4 158.9 44.4 152.3 37.8C142.9 28.6 139 14.7 139.3 0H324.4H324.3Z" fill="#9D1880"/>
<path d="M462.2 569.4C458.3 574.9 449.5 576.2 447.1 582.5C444.8 588.5 450.4 595.2 456.7 596.4C463 597.6 469.4 595.2 475.4 592.8C478.9 591.3 482.7 589.7 484.5 586.3C487.4 581 483.5 574.1 478.1 571.5C472.7 568.9 466.3 569.3 460.3 569.9L462.2 569.4Z" fill="#9D1880"/>
<path d="M1814.9 0H1664.8C1654.1 10.3 1642.6 19.6 1629.8 27.2C1594.2 48.2 1546.7 58.1 1529.7 95.7C1516.9 124.1 1526.9 159.4 1512.3 186.9C1505.8 199.2 1494.2 211.2 1497.8 224.7C1499.1 229.6 1502.3 233.7 1505.9 237.3C1526.6 258.4 1561.1 264.4 1587.7 251.4C1600.5 245.2 1611.1 235.3 1620.3 224.6C1637.3 204.8 1650.3 181.7 1658.3 156.9C1662.6 143.7 1665.6 129.7 1673.6 118.3C1682.1 106.2 1695.6 98.3 1709.4 93.1C1713.8 91.4 1718.5 90 1723.1 90.4C1740.4 92 1745 116.9 1736.5 132C1727.9 147.1 1712.2 156.8 1702.4 171.1C1683.7 198.5 1691.5 237.5 1711.8 263.8C1732.1 290.1 1762.2 306.5 1791.5 322.2C1832.8 344.3 1874.9 366.6 1920.1 378V0H1815H1814.9Z" fill="#811F81"/>
<path d="M1849.9 0H1801.4C1800.1 9.3 1799.5 18.8 1799 28.1C1796.2 76.9 1793.3 125.7 1790.5 174.5C1789.5 191.7 1788.6 209.5 1794.2 225.8C1802.1 248.5 1821.5 265.1 1841.9 277.9C1866 293 1892.4 304.3 1920 311.4V0H1849.9Z" fill="#8A1D81"/>
<path d="M1908.6 0H1849.9C1841.9 9.1 1836.8 20.3 1837.3 30.3C1837.7 37.7 1840.5 44.8 1842.1 52.1C1850.2 89.2 1826.7 125.8 1825.2 163.7C1824.7 176.1 1827 189.4 1835.7 198.3C1844.4 207.2 1860.8 208.9 1868.6 199.3C1867.5 185.6 1883.2 177.6 1891.4 166.7C1902.1 152.4 1899.8 132.6 1897.1 115C1893.9 94.4 1890.7 73.8 1887.4 53.3C1886.8 49.5 1886.2 45.5 1886.7 41.7C1888.4 28.7 1906.6 12.9 1908.6 0Z" fill="#A61680"/>
</g>
<defs>
<clipPath id="clip0_12_1764">
<rect width="1920" height="1080" fill="white"/>
</clipPath>
</defs>
</svg>
