<svg width="761" height="456" viewBox="0 0 761 456" fill="none" xmlns="http://www.w3.org/2000/svg">
<g clip-path="url(#clip0_4_996)">
<path d="M815.75 73.44C803.78 73.44 788.51 72.47 776.21 65.07C761.46 56.2 756.7 40.81 759.61 30.2C761.28 24.09 765.19 18.95 768.96 13.98C770.45 12.02 771.98 9.99998 773.36 7.94998C774.95 5.57998 776.19 2.17997 777.51 -1.41003C780.22 -8.81003 783.29 -17.19 790.39 -18.03C796.15 -18.71 806.21 -14.01 815.1 -9.86003C818.97 -8.06003 822.62 -6.35003 825.2 -5.47003C842.77 0.55997 853.61 8.67995 858.32 19.36C862.98 29.91 861.2 42.26 859.16 53.01C858.68 55.53 858.09 58.67 856.47 61.24C854.87 63.78 852.31 65.85 848.41 67.74C838.1 72.75 826.21 73.43 815.94 73.44H815.76H815.75ZM791.56 -17.11C791.19 -17.11 790.84 -17.09 790.5 -17.05C784.02 -16.28 781.19 -8.55001 778.45 -1.08002C777.11 2.56998 775.85 6.02997 774.19 8.49997C772.8 10.57 771.25 12.61 769.76 14.58C766.04 19.48 762.2 24.54 760.58 30.46C757.77 40.71 762.41 55.59 776.73 64.21C788.82 71.48 803.91 72.44 815.75 72.44H815.93C826.09 72.44 837.84 71.76 847.97 66.84C851.7 65.03 854.13 63.08 855.62 60.7C857.14 58.29 857.71 55.25 858.17 52.81C860.18 42.21 861.94 30.03 857.4 19.75C852.8 9.33997 842.16 1.39997 824.87 -4.53003C822.24 -5.43003 818.57 -7.15002 814.68 -8.96002C806.86 -12.61 797.24 -17.1 791.57 -17.1L791.56 -17.11Z" fill="#E6007E"/>
<path d="M333.68 173.06C324.64 173.06 316.22 166.6 314.08 158.03C313.19 154.47 313.34 150.73 313.57 147.19C314.03 140.08 315.25 132.2 320.74 127.58C321.7 126.77 322.77 126.09 323.8 125.44C324.99 124.69 326.21 123.91 327.24 122.95C329.47 120.86 330.77 117.93 332.03 115.09L332.45 114.16C336.14 105.95 340.93 98.2801 346.69 91.3501C348.11 89.6401 349.83 87.7801 352.18 87.3301C365.39 84.8701 377.62 100.56 382.25 109.2C383.44 111.43 385.38 114.24 387.44 117.22C394.14 126.95 403.32 140.27 397.3 149.02C394.97 152.41 390.54 154.44 385.17 154.59C382.27 154.67 379.36 154.26 376.56 153.86C375 153.64 373.39 153.41 371.81 153.27C367.33 152.87 362.82 153.15 358.42 154.11C357.46 154.32 356.47 154.57 355.76 155.19C354.95 155.89 354.56 157 354.18 158.08L354.01 158.55C350.97 166.95 342.43 173.06 333.71 173.07H333.69L333.68 173.06ZM352.37 88.3101C350.34 88.6901 348.77 90.4101 347.46 91.9801C341.76 98.8301 337.02 106.43 333.37 114.56L332.96 115.49C331.66 118.42 330.32 121.45 327.94 123.67C326.85 124.69 325.58 125.5 324.36 126.28C323.36 126.92 322.32 127.58 321.4 128.34C316.19 132.71 315.03 140.35 314.58 147.25C314.36 150.71 314.21 154.37 315.06 157.78C317.06 165.79 325.24 172.06 333.69 172.06H333.71C342.02 172.06 350.16 166.22 353.07 158.2L353.23 157.74C353.65 156.54 354.09 155.29 355.1 154.42C355.99 153.65 357.17 153.35 358.2 153.12C362.7 152.15 367.31 151.86 371.89 152.27C373.5 152.41 375.13 152.64 376.7 152.87C379.47 153.26 382.32 153.67 385.15 153.59C390.2 153.45 394.33 151.58 396.48 148.45C402.12 140.26 393.16 127.27 386.63 117.78C384.56 114.78 382.6 111.94 381.38 109.66C378.43 104.15 374 98.5401 369.54 94.6501C365.42 91.0601 359.1 87.0501 352.38 88.3101H352.37Z" fill="#E6007E"/>
<path d="M657.87 298.67C646.15 298.67 634.33 298.08 622.69 296.92C616.93 296.34 610.86 293.89 611.1 288.74C611.19 286.71 612.43 284.94 613.35 283.78C619.97 275.43 630.44 272.45 638.07 271.41C644.42 270.55 650.92 270.66 657.21 270.76C660.11 270.81 663.11 270.86 666.05 270.81C698.48 270.3 732.09 258.14 765.96 234.67C766.94 233.99 768.25 232.87 769.76 231.57C774.76 227.28 781.61 221.41 786.23 223.06C788.13 223.74 789.39 224.93 790 226.6C791.63 231.12 788.17 237.9 784.98 243.31C777.52 255.94 764.3 266.13 745.7 273.61C736.84 277.17 727.52 279.89 718.5 282.51C708.92 285.3 699.01 288.19 689.67 292.09C688.76 292.47 687.85 292.86 686.95 293.25C683.47 294.75 679.88 296.29 676.13 297.22C671.17 298.45 665.99 298.6 661.12 298.65C660.04 298.65 658.96 298.67 657.88 298.67H657.87ZM650.93 271.69C646.68 271.69 642.4 271.83 638.2 272.4C630.76 273.41 620.54 276.31 614.13 284.4C613.23 285.54 612.18 287.07 612.1 288.79C611.89 293.25 617.73 295.43 622.79 295.93C635.47 297.2 648.36 297.78 661.1 297.66C665.92 297.62 671.02 297.47 675.88 296.26C679.55 295.35 683.1 293.82 686.54 292.34C687.45 291.95 688.36 291.56 689.27 291.17C698.66 287.25 708.6 284.35 718.21 281.55C727.2 278.93 736.5 276.22 745.31 272.68C763.7 265.29 776.75 255.24 784.1 242.8C785.91 239.73 790.72 231.59 789.04 226.94C788.54 225.54 787.5 224.58 785.88 224C781.79 222.54 774.94 228.43 770.4 232.32C768.86 233.64 767.54 234.78 766.52 235.48C732.49 259.06 698.69 271.28 666.06 271.8C663.1 271.85 660.09 271.8 657.18 271.75C655.11 271.72 653.02 271.68 650.92 271.68L650.93 271.69Z" fill="#E6007E"/>
<path d="M154.82 287.53C148.39 287.53 141.78 284.34 137.73 279.65C132.16 273.2 129.41 263.61 129.78 251.91C130.24 237.42 134.26 220.63 140.8 205.86C143.37 200.07 146.04 197.13 149.22 196.62C152.71 196.06 156.69 198.47 162.15 204.46C184.87 229.41 187.82 251.53 171.71 276.2C169.73 279.23 167.54 282.37 164.53 284.53C161.63 286.61 158.25 287.52 154.82 287.52V287.53ZM150.22 197.54C149.93 197.54 149.65 197.56 149.38 197.61C146.61 198.06 144.1 200.89 141.72 206.27C135.22 220.93 131.24 237.57 130.78 251.94C130.53 259.92 131.66 271.09 138.49 278.99C144.41 285.84 156.05 289.38 163.95 283.72C166.82 281.66 168.95 278.61 170.87 275.65C186.69 251.43 183.77 229.68 161.41 205.13C156.67 199.92 153.17 197.53 150.22 197.53V197.54Z" fill="#E6007E"/>
<path d="M640.94 422.31C637.69 422.31 634.48 421.86 631.58 421.13C626.73 419.91 622.03 417.98 617.49 416.11C613.12 414.31 608.61 412.46 603.99 411.25C587.34 406.9 569.89 410.86 553.01 414.7C548.42 415.74 543.67 416.82 539.02 417.71C514.9 422.33 489.42 422.26 465.33 417.5C458.48 416.15 450.19 413.72 446.88 406.85C445.31 403.61 445.21 399.89 446.58 396.12C448.41 391.08 452.69 386.52 457.75 384.21C464.88 380.97 472.93 380.93 480.7 380.89C482.05 380.89 483.4 380.88 484.74 380.85C502.91 380.54 521.09 376.85 538.66 373.29C544.31 372.14 550.16 370.96 555.92 369.9C577.79 365.89 603.42 362.78 627.66 370.14C653.32 377.93 672.22 397.34 675.81 419.6L675.94 420.39L659 415.16C654.46 420.39 647.62 422.29 640.94 422.29V422.31ZM588.28 408.35C593.64 408.35 598.97 408.91 604.24 410.29C608.93 411.52 613.47 413.38 617.87 415.19C622.38 417.04 627.04 418.96 631.83 420.17C640.5 422.35 652.05 421.96 658.45 414.29L658.66 414.04L674.69 418.99C670.33 394.53 647.88 377.35 627.37 371.13C603.34 363.83 577.86 366.93 556.1 370.92C550.35 371.97 544.51 373.16 538.86 374.31C521.24 377.88 503.01 381.58 484.75 381.89C483.41 381.91 482.05 381.92 480.7 381.93C473.03 381.97 465.1 382 458.16 385.16C453.33 387.35 449.25 391.7 447.52 396.5C446.25 400.02 446.34 403.46 447.78 406.46C450.9 412.92 458.9 415.25 465.53 416.56C489.5 421.29 514.85 421.36 538.84 416.76C543.47 415.87 548.21 414.8 552.79 413.75C564.48 411.09 576.45 408.37 588.28 408.37V408.35Z" fill="#E6007E"/>
<path d="M432.66 161.72C432.24 161.72 431.84 161.63 431.48 161.46C429.86 160.68 429.42 158.63 430.26 155.68L436.28 134.42L436.18 131.28L444.56 135.94L444.61 136.15C446.97 145.03 443.21 155.3 435.67 160.56C434.55 161.34 433.55 161.73 432.66 161.73V161.72ZM437.23 133.01L437.28 134.54L437.26 134.61L431.22 155.94C430.9 157.07 430.32 159.79 431.91 160.55C432.7 160.93 433.77 160.65 435.1 159.73C442.25 154.74 445.84 145.05 443.69 136.61L437.23 133.01Z" fill="#E6007E"/>
<path d="M594.13 198.21C589.22 198.21 584.61 196.57 579.54 194.6C566.32 189.45 551.44 182.93 542.18 170.73C537.63 164.74 534.95 156.97 534.82 149.42C534.68 141.28 537.5 134.18 542.77 129.44C545 127.43 547.63 125.85 550.18 124.32C553.81 122.13 557.24 120.07 559.68 116.85C563.6 111.67 563.84 105.14 564.09 98.2399C564.22 94.6899 564.35 91.0199 565.04 87.5599C567.56 74.7899 577.62 63.6399 594.95 54.4299C605.97 48.5699 615.29 45.5399 624.3 44.8799C644.2 43.4199 661.76 53.2 678.72 62.67C685.11 66.24 691.72 69.9199 698.25 72.8599C702.95 74.9699 708 76.3299 712.9 77.6499C719.81 79.5099 726.96 81.4299 733.1 85.4999C744.78 93.2399 755.71 103.61 765.56 116.33C770.96 123.3 777.37 132.71 778.96 143.7C780.32 153.07 777.44 165.14 767.95 170.97C764.12 173.32 759.56 174.39 755.59 175.2C736.51 179.11 717.02 180.13 697.64 178.24C695.68 178.05 693.72 177.83 691.76 177.61C685.56 176.91 679.14 176.19 672.83 176.48C663.69 176.9 654.73 179.43 646.07 181.87C634.73 185.07 623.01 188.37 611.97 193.01C611.32 193.28 610.68 193.56 610.03 193.83C605.06 195.96 599.92 198.15 594.46 198.24C594.35 198.24 594.24 198.24 594.13 198.24V198.21ZM624.33 45.3499L624.37 45.8499C615.51 46.4999 606.31 49.4999 595.42 55.2899C578.37 64.3499 568.48 75.2699 566.02 87.7299C565.35 91.11 565.22 94.7399 565.09 98.2499C564.84 105.01 564.59 112 560.48 117.43C557.93 120.81 554.25 123.02 550.7 125.16C548.2 126.67 545.61 128.22 543.45 130.17C532.51 140.02 534.38 158.78 542.99 170.12C552.09 182.11 566.82 188.56 579.91 193.66C584.99 195.64 589.63 197.28 594.45 197.2C599.72 197.12 604.77 194.96 609.65 192.87C610.3 192.59 610.95 192.31 611.6 192.04C622.7 187.38 634.45 184.06 645.82 180.86C654.54 178.4 663.55 175.86 672.8 175.43C679.19 175.14 685.65 175.86 691.89 176.57C693.84 176.79 695.8 177.01 697.75 177.2C717.02 179.08 736.42 178.07 755.4 174.18C759.46 173.35 763.74 172.34 767.44 170.07C776.54 164.48 779.3 152.85 777.99 143.8C776.43 133.05 770.12 123.78 764.79 116.9C755 104.27 744.16 93.9699 732.57 86.2899C726.57 82.3099 719.5 80.4099 712.67 78.5699C707.74 77.2399 702.64 75.8699 697.87 73.7299C691.3 70.7699 684.67 67.0799 678.26 63.4999C661.43 54.1099 644.01 44.3999 624.4 45.8399L624.36 45.3399L624.33 45.3499Z" fill="#E6007E"/>
<path d="M291.52 289.16C287.85 289.16 283.78 288.66 279.32 287.67C277.34 287.23 275.3 286.68 273.89 285.2C272.45 283.69 272.01 281.58 271.75 279.53C270.93 273.11 271.29 266.53 271.65 260.16C272.06 252.69 272.49 244.97 270.98 237.59C269.7 231.34 267.04 225.36 264.46 219.57C261.67 213.3 258.79 206.83 257.62 199.95C255.75 188.89 258.43 177.51 261.33 166.8C263.03 160.55 264.7 154.98 268.04 150.11C272.98 142.9 280.66 137.75 288.09 132.76C292.46 129.83 296.97 126.8 300.76 123.43C308.54 116.53 316.64 109.11 322.72 101.03C326.12 96.51 328.05 91.39 329.91 86.43C331.19 83.03 332.51 79.51 334.31 76.16C340.08 65.4 351.99 64.01 361.72 64H361.97C369.73 64 378.64 64.31 386.54 67.71C396.21 71.86 403.24 80.04 410.04 87.94C413.09 91.49 416.24 95.15 419.59 98.41C421.54 100.31 423.27 101.72 425.34 102.45C427.5 103.21 429.91 103.13 432.24 103.06L433.03 103.03C441.11 102.8 449.14 103.78 456.92 105.95C461.26 107.16 467.35 109.35 470.21 114.43C471.88 117.4 472.19 120.81 472.4 124.64C473.4 142.74 473.56 161.1 472.9 179.22C472.62 186.85 472.13 194.26 469.27 200.96C461.34 219.56 439.2 224.97 430.05 226.43C417.82 228.38 405.5 228.04 391.81 227.43C385.47 227.15 378.28 226.83 372.06 223.64C370.88 223.03 369.74 222.32 368.64 221.64C366.93 220.58 365.17 219.47 363.27 218.79C359.95 217.58 356.18 217.63 352.85 217.68C343 217.82 333.14 217.97 323.29 218.14C320.05 218.2 317.2 218.37 315.04 220.01C313.7 221.03 312.64 222.64 311.82 224.93C308.93 232.98 310.81 241.8 312.62 250.34C312.91 251.69 313.19 253.04 313.46 254.38C316.12 267.72 314.42 277.46 308.42 283.32C304.43 287.21 298.76 289.16 291.49 289.16H291.52ZM361.95 65H361.7C351.66 65 340.66 66.4 335.17 76.63C333.4 79.92 332.09 83.41 330.82 86.78C328.93 91.8 326.98 96.99 323.49 101.63C317.36 109.78 309.22 117.24 301.4 124.18C297.56 127.59 293.02 130.64 288.62 133.59C281.27 138.53 273.67 143.63 268.84 150.68C265.59 155.42 263.94 160.9 262.27 167.06C259.39 177.66 256.74 188.92 258.58 199.78C259.72 206.53 262.58 212.95 265.35 219.16C267.95 225 270.63 231.03 271.93 237.38C273.47 244.89 273.04 252.68 272.62 260.21C272.27 266.53 271.91 273.07 272.72 279.4C272.96 281.29 273.35 283.21 274.59 284.51C275.8 285.78 277.69 286.28 279.51 286.69C292.5 289.58 301.99 288.2 307.73 282.6C313.47 276.99 315.07 267.56 312.49 254.57C312.22 253.24 311.94 251.89 311.65 250.54C309.81 241.87 307.9 232.91 310.89 224.59C311.78 222.11 312.94 220.35 314.45 219.21C317.05 217.24 320.66 217.18 323.29 217.13C333.14 216.96 343 216.81 352.85 216.67C356.26 216.62 360.13 216.57 363.62 217.84C365.61 218.56 367.42 219.69 369.17 220.78C370.25 221.46 371.37 222.15 372.51 222.74C378.53 225.84 385.6 226.15 391.84 226.43C405.47 227.03 417.74 227.37 429.87 225.44C456.85 221.13 465.75 206.61 468.33 200.56C471.12 194.01 471.6 186.71 471.88 179.17C472.55 161.08 472.38 142.75 471.39 124.68C471.19 120.98 470.89 117.69 469.32 114.9C466.64 110.14 460.8 108.05 456.63 106.89C448.94 104.75 440.99 103.78 433.03 104.01L432.24 104.03C429.81 104.11 427.31 104.19 424.97 103.37C422.6 102.53 420.63 100.82 418.86 99.1C415.48 95.81 412.31 92.13 409.25 88.57C402.52 80.75 395.57 72.67 386.11 68.6C378.38 65.28 369.6 64.98 361.93 64.98L361.95 65Z" fill="#E6007E"/>
<path d="M522.8 69.68C512.28 69.68 500.1 67.8 488.88 61.49C484.03 58.76 479.58 55.3 475.26 51.96C472.04 49.46 468.71 46.88 465.25 44.63C440.92 28.8 409.33 28.85 387.67 30.26L386.76 30.32C377.98 30.9 368.91 31.5 361.14 27.45C356.28 24.92 352.53 20.8 348.9 16.83C347.1 14.86 345.23 12.81 343.26 11C341.34 9.23 339.19 7.54999 337.11 5.92999C331.91 1.86999 326.54 -2.32999 324.02 -8.48999C321.31 -15.13 322.17 -23.21 326.65 -33.2C334.99 -51.78 349.47 -67.33 367.42 -76.98C369.42 -78.05 371.49 -79.07 373.49 -80.06C378.28 -82.41 383.23 -84.85 387.45 -88.18C398.73 -97.09 403.78 -111.27 408.68 -124.97C410.22 -129.29 411.81 -133.75 413.57 -137.97C419.77 -152.83 429.5 -167.66 443.31 -183.28C459.02 -201.05 480.51 -225.38 509.24 -221.72C520.29 -220.31 531.69 -219.59 542.71 -218.9C561.66 -217.71 581.26 -216.47 599.92 -211.69C606.89 -209.9 613.89 -207.61 620.67 -205.4C635.38 -200.59 650.58 -195.62 666.17 -195.6H666.25C671.71 -195.6 677.26 -196.21 682.64 -196.8C691.08 -197.72 699.81 -198.68 708.34 -197.3C717.12 -195.88 725.82 -190.58 730.5 -183.8C733.81 -179 735.01 -173.74 733.96 -168.6C733.37 -165.73 732.1 -162.98 730.88 -160.31C728.96 -156.14 727.14 -152.19 727.79 -147.93C728.38 -144.06 730.96 -140.8 733.46 -137.64L733.64 -137.41C741.18 -127.88 750.03 -115.08 751.61 -100.6C752.52 -92.28 751.16 -83.23 747.34 -72.11C739.72 -49.93 726.57 -32.12 710.33 -21.95C694.38 -11.97 674.92 -8.52999 656.1 -5.20999C631.76 -0.909991 608.77 3.14 592.65 20.12C587.85 25.18 583.95 31.24 580.18 37.1C574.82 45.44 569.28 54.06 561.06 59.86C554.51 64.48 546.09 67.42 535.3 68.86C531.58 69.36 527.34 69.71 522.79 69.71L522.8 69.68ZM403.58 28.71C438.21 28.71 455.5 37.08 465.8 43.78C469.29 46.05 472.64 48.65 475.88 51.16C480.16 54.48 484.59 57.92 489.37 60.61C505.2 69.52 523.03 69.46 535.18 67.83C545.8 66.41 554.08 63.52 560.5 59C568.55 53.32 574.04 44.78 579.35 36.52C583.14 30.62 587.07 24.52 591.93 19.39C608.27 2.17002 632.5 -2.09999 655.93 -6.23999C674.65 -9.54999 694.01 -12.96 709.8 -22.84C725.86 -32.89 738.85 -50.52 746.4 -72.48C750.17 -83.45 751.51 -92.37 750.62 -100.54C749.07 -114.77 740.31 -127.42 732.86 -136.84L732.68 -137.07C730.1 -140.33 727.44 -143.7 726.81 -147.83C726.12 -152.39 728.08 -156.65 729.98 -160.78C731.18 -163.39 732.43 -166.09 732.99 -168.85C733.99 -173.72 732.85 -178.71 729.69 -183.28C725.15 -189.85 716.72 -194.98 708.19 -196.36C699.8 -197.72 691.14 -196.77 682.76 -195.85C677.33 -195.26 671.68 -194.62 666.18 -194.65C650.43 -194.67 635.15 -199.66 620.37 -204.5C613.61 -206.71 606.63 -208.99 599.69 -210.77C581.12 -215.53 561.57 -216.76 542.66 -217.95C531.62 -218.65 520.21 -219.36 509.12 -220.78C480.94 -224.37 459.62 -200.27 444.07 -182.67C430.34 -167.13 420.67 -152.4 414.51 -137.64C412.76 -133.44 411.17 -128.99 409.63 -124.69C404.69 -110.85 399.58 -96.54 388.08 -87.45C383.77 -84.05 378.78 -81.59 373.94 -79.21C371.94 -78.23 369.88 -77.21 367.9 -76.15C350.15 -66.61 335.83 -51.23 327.57 -32.85C323.2 -23.12 322.34 -15.29 324.95 -8.92001C327.37 -3.01001 332.64 1.11001 337.73 5.10001C339.82 6.73001 341.98 8.43001 343.94 10.23C345.94 12.08 347.82 14.13 349.64 16.12C353.21 20.03 356.9 24.08 361.6 26.53C369.12 30.45 378.05 29.86 386.69 29.29L387.61 29.23C393.31 28.86 398.62 28.69 403.58 28.69V28.71Z" fill="#E6007E"/>
<path d="M529.47 46.61C513.93 46.61 498.57 40.29 485.82 35.05C474.84 30.53 463.49 25.86 453.19 19.49C451.68 18.55 450.19 17.58 448.69 16.61C443.7 13.35 438.53 9.99001 432.81 8.23001C425.23 5.90001 417.06 6.48999 409.16 7.04999C406.48 7.23999 403.71 7.43999 400.99 7.51999C393.04 7.74999 378.63 6.65 371.71 -3.5C368.48 -8.24 367.49 -14.14 366.95 -19.29C366.25 -25.91 366.11 -32.63 366.52 -39.28C366.83 -44.22 367.63 -49.75 371.29 -53.4C373.46 -55.56 376.33 -56.75 379.1 -57.9C379.5 -58.07 379.89 -58.23 380.29 -58.4C402.56 -67.84 418.66 -87.75 432 -105.67C446.34 -124.94 460.01 -145.07 472.64 -165.5L473.07 -166.2C476.73 -172.13 480.52 -178.26 485.74 -183.03C492.98 -189.64 503.01 -193.8 516.42 -195.77C531.02 -197.91 546.68 -197.4 567.18 -194.13C575.9 -192.74 584.64 -191.09 593.09 -189.49C614.3 -185.48 636.23 -181.33 658.63 -181.23H659.35C670.51 -181.2 685.72 -180.53 688.94 -175.11C689.81 -173.64 689.74 -171.94 688.72 -170.05C687.36 -167.54 685.51 -163.89 683.55 -160.02C680.75 -154.5 677.85 -148.8 675.78 -145.16C673.91 -141.88 677.94 -138.4 681.85 -135.04C684.02 -133.17 686.07 -131.41 687.28 -129.6C691.08 -123.94 700.55 -102.87 701.21 -101.4C701.58 -100.88 703.64 -97.4 699 -89.26C694.78 -81.86 691.54 -73.61 688.41 -65.63C682.63 -50.9 676.66 -35.68 664.32 -25.62C655.49 -18.43 644.45 -14.82 633.77 -11.34C626.81 -9.07 619.61 -6.71999 613.07 -3.39999C602.16 2.14001 592.56 10.61 583.28 18.8C569.91 30.6 556.08 42.8 538.42 45.86C535.45 46.37 532.47 46.61 529.5 46.61H529.47ZM419.81 5.53C424.31 5.53 428.78 5.94001 433.1 7.26001C438.96 9.06001 444.18 12.47 449.24 15.76C450.73 16.73 452.22 17.7 453.72 18.63C463.94 24.96 475.26 29.61 486.2 34.12C501.27 40.32 520.02 48.03 538.22 44.88C555.6 41.87 568.71 30.3 582.59 18.05C591.92 9.81999 601.56 1.30999 612.59 -4.29001C619.21 -7.65001 626.44 -10.01 633.44 -12.29C644.03 -15.75 654.99 -19.32 663.67 -26.39C675.8 -36.28 681.73 -51.38 687.46 -65.99C690.6 -74 693.86 -82.29 698.11 -89.75C702.67 -97.74 700.39 -100.8 700.37 -100.83L700.3 -100.94C700.2 -101.16 690.24 -123.37 686.43 -129.04C685.29 -130.74 683.29 -132.46 681.18 -134.28C676.97 -137.91 672.62 -141.66 674.9 -145.66C676.96 -149.28 679.86 -154.97 682.65 -160.48C684.61 -164.35 686.47 -168.01 687.84 -170.53C688.69 -172.11 688.77 -173.44 688.08 -174.6C684.77 -180.16 665.64 -180.21 659.35 -180.23H658.63C636.14 -180.33 614.16 -184.49 592.91 -188.51C584.46 -190.11 575.73 -191.76 567.03 -193.15C546.64 -196.41 531.08 -196.91 516.58 -194.79C503.37 -192.86 493.51 -188.77 486.43 -182.3C481.31 -177.63 477.56 -171.55 473.94 -165.68L473.51 -164.98C460.87 -144.52 447.18 -124.36 432.83 -105.08C419.41 -87.05 403.2 -67.01 380.71 -57.48C380.31 -57.31 379.91 -57.15 379.51 -56.98C376.83 -55.87 374.05 -54.72 372.03 -52.7C368.61 -49.29 367.85 -43.98 367.55 -39.23C367.14 -32.64 367.29 -25.97 367.98 -19.41C368.51 -14.38 369.47 -8.62999 372.57 -4.07999C379.22 5.67001 393.23 6.73 401 6.5C403.69 6.42 406.45 6.22 409.12 6.03C412.66 5.78 416.26 5.51999 419.85 5.51999L419.81 5.53Z" fill="#E6007E"/>
<path d="M722.32 68.09C718.48 68.09 714.34 66.89 710.33 64.56C706.35 62.25 702.87 59.14 699.5 56.14C698.34 55.1 697.17 54.07 695.99 53.06C677.04 36.95 651.93 28.49 627.1 29.83L626.28 29.87L626.62 29.12C631.06 19.25 642.14 12.15 657.04 9.62001C662.33 8.72001 667.77 8.34001 673.04 7.96001C679.94 7.47001 687.08 6.97002 693.88 5.29002C712.75 0.650024 727.18 -12.33 738.82 -24.42C739.1 -24.71 739.42 -25.05 739.76 -25.42C743.59 -29.52 750.72 -37.14 756.29 -33.27C762.87 -28.7 755.07 -12.8 752.62 -8.78999C751.28 -6.59999 749.71 -4.50997 748.19 -2.48997C745.9 0.550025 743.54 3.68001 741.98 7.18001C738.56 14.88 739.28 23.62 739.97 32.06C740.31 36.18 740.66 40.44 740.54 44.57C740.29 53.15 736.95 63.55 728.32 66.97C726.47 67.7 724.45 68.06 722.34 68.06L722.32 68.09ZM632.25 28.7C655.61 28.7 678.82 37.16 696.64 52.3C697.83 53.31 699 54.35 700.17 55.4C703.5 58.37 706.94 61.44 710.83 63.7C716.77 67.16 723 68.02 727.92 66.07C736.1 62.82 739.27 52.83 739.51 44.57C739.63 40.49 739.28 36.26 738.95 32.17C738.25 23.6 737.52 14.73 741.04 6.8C742.64 3.2 745.04 0.0100079 747.36 -3.06999C748.87 -5.06999 750.42 -7.12998 751.74 -9.28998C752.9 -11.19 755.47 -16.13 756.89 -21.21C758 -25.18 758.69 -30.34 755.7 -32.42C750.84 -35.8 743.84 -28.31 740.47 -24.71C740.12 -24.33 739.8 -23.99 739.52 -23.7C727.79 -11.51 713.22 1.59002 694.1 6.29002C687.22 7.98002 680.04 8.49003 673.1 8.98003C667.86 9.35003 662.44 9.74002 657.2 10.63C650.44 11.78 634.25 15.83 627.88 28.81C629.34 28.74 630.8 28.71 632.26 28.71L632.25 28.7Z" fill="#E6007E"/>
<path d="M141.69 64.06L141.41 63.71C118.51 34.65 114.24 -4.54003 113.03 -31.5C110.68 -83.4 117.28 -134.89 132.63 -184.52C138.35 -203.01 146.39 -223.59 162.72 -236.05C174 -244.66 187.96 -248.53 201.3 -251.76C240.71 -261.29 275.56 -265.6 307.88 -264.93C326.52 -264.54 353.45 -262.12 371.9 -245.58C373.8 -243.88 375.61 -242.03 377.36 -240.24C380.58 -236.94 383.92 -233.52 387.85 -231.04C399.26 -223.81 414.36 -225.1 426.49 -226.13C430.94 -226.51 437.03 -227.03 441.82 -224.33C444.52 -222.81 446.6 -219.84 447.12 -216.76C447.38 -215.21 447.23 -213.74 446.7 -212.46L457.73 -219.13L456.29 -217.14C421.41 -168.85 376.31 -122.95 322.25 -80.71C309.77 -70.96 295.63 -59.91 292.71 -43.95C292.01 -40.13 292.02 -36.15 292.02 -32.3C292.02 -29.74 292.02 -27.1 291.83 -24.5C290.67 -9.51003 282.77 4.15997 275.8 16.22C267.66 30.3 256.51 49.59 238.29 57.15C223.98 63.09 207.76 61.05 192.07 59.07C173.83 56.77 156.61 54.6 142.06 63.83L141.68 64.07L141.69 64.06ZM301.36 -264C270.96 -264 238.23 -259.66 201.53 -250.79C188.3 -247.59 174.45 -243.75 163.33 -235.26C147.23 -222.97 139.26 -202.57 133.59 -184.23C118.27 -134.7 111.69 -83.33 114.03 -31.55C115.24 -4.84003 119.45 33.93 141.92 62.73C156.7 53.59 174.75 55.87 192.21 58.07C207.77 60.03 223.86 62.06 237.92 56.22C255.82 48.79 266.87 29.67 274.94 15.71C281.86 3.74996 289.7 -9.81003 290.84 -24.58C291.04 -27.14 291.03 -29.76 291.03 -32.3C291.03 -36.19 291.02 -40.22 291.73 -44.13C294.72 -60.46 309.02 -71.64 321.64 -81.5C374.87 -123.1 419.41 -168.25 454.03 -215.73L442.66 -208.86L444.8 -211.29C446 -212.66 446.47 -214.54 446.13 -216.59C445.66 -219.38 443.77 -222.08 441.33 -223.45C437.15 -225.81 432.17 -225.61 426.58 -225.13C414.3 -224.08 399.02 -222.79 387.32 -230.19C383.29 -232.74 379.92 -236.2 376.65 -239.54C374.91 -241.32 373.11 -243.16 371.24 -244.84C353.03 -261.16 326.35 -263.55 307.86 -263.93C305.71 -263.97 303.54 -264 301.36 -264Z" fill="#E6007E"/>
<path d="M359.27 375.57C356.59 375.57 353.91 375.5 351.21 375.37C345.4 375.08 339.37 374.35 334.63 371.02C331.45 368.79 328.85 365.34 327.11 361.03C323.67 352.51 324.02 342.14 328.11 331.81C331.77 322.57 337.93 314.35 344.04 306.85C352.53 296.44 362.09 285.93 374.46 279.61C388.61 272.38 404.87 271.43 420.61 270.5C426.57 270.15 432.72 269.79 438.67 269.09C463.57 266.17 487.65 256.78 508.31 241.95C515.55 236.75 524.56 230.28 532.29 223.75C534.13 222.19 535.79 220.42 537.39 218.71C542.36 213.41 547.05 208.39 556.14 210.77C561.09 212.06 565.89 215.32 570.82 220.73C589.08 240.76 593.64 269.8 595.48 289.9C596.37 299.67 596.99 310.94 592.99 321.07C592.28 322.87 591.09 325.49 589.02 327.41C586.79 329.46 583.64 330.69 579.37 331.17C571.69 332.03 564 330.42 556.56 328.85C552.58 328.01 548.46 327.15 544.4 326.67C520.06 323.83 496.62 334.39 473.96 344.6L469.84 346.45C437.45 360.97 399.3 375.53 359.28 375.54L359.27 375.57ZM438.72 269.6L438.78 270.1C432.81 270.8 426.63 271.16 420.67 271.52C405.04 272.44 388.88 273.39 374.92 280.52C362.71 286.76 353.24 297.17 344.82 307.5C338.76 314.94 332.65 323.08 329.04 332.19C325.04 342.27 324.69 352.39 328.04 360.66C329.71 364.78 332.18 368.08 335.2 370.2C339.74 373.39 345.6 374.09 351.26 374.37C393.99 376.52 434.98 361.01 469.43 345.57L473.55 343.72C496.34 333.45 519.91 322.84 544.52 325.71C548.63 326.19 552.77 327.06 556.77 327.9C564.13 329.45 571.74 331.05 579.26 330.2C583.31 329.75 586.28 328.6 588.34 326.7C589.8 325.35 590.99 323.45 592.06 320.73C595.98 310.8 595.37 299.67 594.48 290.01C590.67 248.34 578.73 230.91 570.08 221.42C565.28 216.16 560.64 213 555.89 211.76C547.37 209.53 543.09 214.11 538.12 219.42C536.5 221.15 534.82 222.94 532.93 224.54C525.17 231.1 516.14 237.58 508.89 242.79C488.1 257.72 463.85 267.16 438.78 270.11L438.72 269.61V269.6Z" fill="#E6007E"/>
<path d="M397.92 343.16C394.03 343.16 390.15 342.91 386.31 342.4C384.69 342.19 382.98 341.9 381.57 340.98C378 338.65 377.9 333.56 378.9 329.91C381.94 318.84 392.45 310.25 410.14 304.38C426.44 298.97 443.62 295.83 460.24 292.79C467.52 291.46 475.05 290.08 482.41 288.54C503 284.2 529.28 277.11 549.93 260.61C551.45 259.4 552.74 257 553.98 254.68C556.24 250.47 558.58 246.12 562.65 247.87L562.94 247.99V248.3C563.33 257.4 567.41 265.95 571.36 274.22C576.05 284.04 580.9 294.2 579.51 305.3C579.35 306.55 579.06 307.96 578.04 308.91C576.85 310.02 575.14 310.1 573.5 310.07L568.26 309.99C532.5 309.46 495.52 308.92 462.47 322.53C457.53 324.57 452.62 326.95 447.88 329.25C440.91 332.63 433.7 336.13 426.21 338.62C417.13 341.63 407.52 343.16 397.93 343.16H397.92ZM560.92 248.49C558.43 248.49 556.69 251.74 554.85 255.15C553.56 257.56 552.22 260.05 550.54 261.39C529.72 278.02 503.3 285.16 482.61 289.51C475.24 291.06 467.71 292.44 460.42 293.77C443.84 296.8 426.69 299.93 410.46 305.32C393.1 311.08 382.81 319.44 379.87 330.17C378.96 333.5 379 338.1 382.12 340.14C383.36 340.95 384.94 341.21 386.45 341.41C399.63 343.14 413.28 341.85 425.9 337.67C433.33 335.21 440.51 331.72 447.45 328.35C452.2 326.04 457.12 323.65 462.09 321.61C495.33 307.92 532.41 308.47 568.27 309L573.51 309.08C574.95 309.1 576.43 309.05 577.35 308.19C578.13 307.46 578.38 306.26 578.51 305.19C579.86 294.38 575.08 284.35 570.45 274.66C566.51 266.4 562.43 257.86 561.96 248.67C561.6 248.55 561.25 248.49 560.92 248.49Z" fill="#E6007E"/>
<path d="M543.05 299.6C537.23 299.6 531.39 298.75 525.85 297.07C524.17 296.56 521.37 295.34 521.47 292.87C521.54 291.13 523.09 289.98 524.59 289.09C526.31 288.07 528.62 286.4 531.3 284.48C539.42 278.65 550.54 270.67 557.02 272.07C561.3 272.99 564.31 276.24 565.28 280.98C566.45 286.68 564.31 292.94 560.19 295.86C557.03 298.1 553.11 298.81 550.05 299.18C547.74 299.46 545.4 299.6 543.05 299.6ZM555.37 272.9C549.14 272.9 539.25 280 531.88 285.29C529.18 287.23 526.85 288.9 525.09 289.95C523.76 290.74 522.51 291.65 522.46 292.91C522.38 294.78 525 295.77 526.13 296.12C533.77 298.43 541.99 299.15 549.92 298.2C552.86 297.85 556.63 297.17 559.6 295.06C563.41 292.36 565.38 286.52 564.29 281.19C563.4 276.86 560.67 273.89 556.8 273.05C556.35 272.95 555.86 272.91 555.36 272.91L555.37 272.9Z" fill="#E6007E"/>
<path d="M196.14 367.76C190.64 367.76 185.23 367.17 180.22 366.63C154.27 363.82 129 360.61 105.22 352.27C87.18 345.95 54.93 330.69 41.73 299.49C37.44 289.35 35.16 277.76 34.33 261.91C33.21 240.38 34.94 218.78 39.47 197.71C41.64 187.62 44.19 178.93 47.27 171.14C51.52 160.38 57.27 150.15 62.83 140.26L64.22 137.78C75.4 117.8 90.71 90.43 114.35 86.32C123.33 84.76 131.21 85.83 139.55 86.97C143.2 87.47 146.98 87.98 150.92 88.27C166.92 89.45 183.19 87.14 198 81.6C205.63 78.75 213.19 74.96 220.51 71.3C236.12 63.49 252.27 55.41 269.79 56.05C272.5 56.15 275.96 56.5 278.69 58.36C281.71 60.42 283.29 63.93 284.33 66.75C287.27 74.72 288.29 83.38 287.29 91.82C286.87 95.33 286.2 97.87 285.09 100.08C283.28 103.69 280.23 106.44 277.28 109.11L276.82 109.53C258.27 126.31 245.29 143.22 237.12 161.22C227.41 182.61 225.12 205.29 230.66 225.06C232.35 231.08 234.8 236.98 237.17 242.68C238.14 245.01 239.14 247.41 240.08 249.8C248.02 270.01 252.32 290.9 252.86 311.9C253.11 321.66 252.53 335.8 244.62 345.97C240.06 351.84 233.6 355.76 227.88 358.83C222.67 361.62 214.75 365.51 206.16 366.99C202.85 367.56 199.49 367.78 196.15 367.78L196.14 367.76ZM123.67 86.54C120.71 86.54 117.68 86.76 114.52 87.3C91.35 91.32 76.17 118.45 65.09 138.26L63.7 140.74C58.16 150.61 52.43 160.81 48.2 171.5C45.14 179.24 42.6 187.88 40.45 197.91C35.94 218.9 34.21 240.41 35.33 261.85C36.15 277.58 38.41 289.07 42.65 299.09C55.7 329.93 87.66 345.05 105.55 351.32C129.24 359.62 154.44 362.82 180.33 365.62C188.3 366.48 197.33 367.46 205.97 365.97C214.42 364.51 222.24 360.67 227.39 357.91C233.01 354.89 239.36 351.04 243.81 345.32C251.53 335.4 252.09 321.49 251.84 311.89C251.3 291.01 247.03 270.23 239.13 250.13C238.2 247.75 237.2 245.35 236.23 243.03C233.85 237.3 231.38 231.38 229.68 225.3C224.07 205.3 226.39 182.39 236.19 160.78C244.41 142.65 257.48 125.63 276.13 108.76L276.59 108.34C279.47 105.74 282.45 103.05 284.17 99.61C285.22 97.51 285.87 95.07 286.27 91.68C287.25 83.4 286.25 74.9 283.36 67.08C282.37 64.4 280.88 61.07 278.09 59.17C275.57 57.45 272.29 57.12 269.72 57.03C252.43 56.41 236.42 64.43 220.92 72.18C213.58 75.85 205.99 79.65 198.32 82.52C183.38 88.11 166.96 90.44 150.82 89.25C146.85 88.96 143.06 88.44 139.39 87.94C134.09 87.22 128.97 86.52 123.65 86.52L123.67 86.54Z" fill="#E6007E"/>
<path d="M726.13 408.91C712.63 408.91 699.12 404.62 688.24 396.62C681.93 391.98 676.5 386.16 671.25 380.54C668.95 378.08 666.58 375.54 664.17 373.13C659.8 368.77 653.04 362.55 644.93 359.01C642.54 357.97 639.11 357.52 635.47 357.06C629.67 356.31 623.67 355.54 620.83 352.19C619.31 350.4 618.8 348.09 619.31 345.31C621.16 335.27 636.42 321.18 642.37 317.92C652.4 312.42 665.19 311.75 675.73 316.19C677.25 316.83 678.77 317.58 680.23 318.31C684.01 320.18 687.92 322.12 692.09 322.2C696.59 322.28 700.91 320.2 704.9 318.06C708.55 316.1 712.27 313.97 715.88 311.91C732.92 302.17 750.55 292.11 769.9 293.69C772.01 293.86 774.65 294.3 776.24 296.14C777.4 297.48 777.76 299.25 777.98 300.97C779.72 314.64 774.1 329.29 763.65 338.27C763.14 338.71 762.62 339.13 762.1 339.56C759.82 341.44 757.46 343.38 756.29 346.02C754.48 350.11 755.91 354.71 757.29 359.16C757.78 360.75 758.29 362.39 758.65 364C761.51 376.76 755.09 389.45 748.84 400.35C747.91 401.97 746.86 403.8 745.23 405.1C743.51 406.46 741.33 407.07 739.23 407.52C734.93 408.45 730.52 408.91 726.12 408.91H726.13ZM642.61 318.35L642.85 318.79C637.03 321.98 622.09 335.74 620.29 345.49C619.83 347.96 620.27 349.99 621.58 351.54C624.18 354.6 629.98 355.34 635.59 356.07C639.3 356.55 642.8 357 645.32 358.1C653.59 361.72 660.44 368.01 664.87 372.43C667.29 374.85 669.67 377.4 671.98 379.86C677.2 385.45 682.6 391.24 688.83 395.82C703.03 406.27 721.79 410.28 739.02 406.55C741 406.12 743.05 405.55 744.6 404.32C746.08 403.14 747.08 401.4 747.97 399.86C754.12 389.13 760.45 376.64 757.67 364.22C757.32 362.65 756.82 361.03 756.33 359.46C754.9 354.83 753.41 350.05 755.37 345.62C756.63 342.76 759.09 340.74 761.46 338.79C761.98 338.37 762.49 337.94 762.99 337.51C773.19 328.73 778.69 314.44 776.99 301.09C776.79 299.53 776.47 297.93 775.49 296.79C774.14 295.23 771.87 294.85 769.83 294.69C750.78 293.13 733.3 303.12 716.39 312.78C712.78 314.84 709.05 316.97 705.39 318.94C701.28 321.15 696.86 323.3 692.08 323.2C687.68 323.11 683.67 321.13 679.8 319.21C678.35 318.49 676.84 317.75 675.35 317.12C665.08 312.8 652.62 313.45 642.85 318.81L642.61 318.37V318.35Z" fill="#E6007E"/>
<path d="M719.87 391.31C698.89 391.31 678.33 377.15 670.89 357.53C670.67 356.96 670.46 356.37 670.24 355.78C668.52 351.08 666.74 346.22 662.44 344.4C660.55 343.6 658.43 343.54 656.38 343.48L632.1 342.8L631.97 342.52C630.64 339.72 630.63 337.35 631.95 335.49C636.35 329.29 654.43 331.05 656.48 331.27C668.58 332.57 680.2 337.58 689.21 345.36L689.7 345.78C690.99 346.91 692.33 348.07 693.9 348.68C698.87 350.6 704.12 346.59 707.64 343.41C711.85 339.61 716.8 335.66 722.13 336.94C728.08 338.37 730.49 345.2 731.92 350.99C734.84 362.79 737.38 376.21 730.64 386.2C729.44 387.98 728.19 389.21 726.81 389.98C724.78 391.11 722.44 391.28 720.22 391.3C720.1 391.3 719.99 391.3 719.88 391.3L719.87 391.31ZM632.74 341.82L656.41 342.48C658.45 342.54 660.77 342.6 662.84 343.48C667.54 345.47 669.48 350.76 671.19 355.43C671.4 356.02 671.62 356.6 671.83 357.17C679.13 376.42 699.3 390.3 719.87 390.3C719.98 390.3 720.09 390.3 720.21 390.3C722.3 390.28 724.49 390.13 726.32 389.11C727.56 388.42 728.7 387.29 729.81 385.64C736.32 375.99 733.94 363.35 730.94 351.23C729.58 345.71 727.31 339.22 721.89 337.92C717.01 336.75 712.51 340.36 708.3 344.16C704.58 347.51 699.01 351.73 693.53 349.62C691.8 348.95 690.39 347.73 689.04 346.54L688.56 346.12C679.7 338.47 668.27 333.54 656.37 332.26C649.16 331.48 636.07 331.41 632.77 336.07C631.72 337.56 631.71 339.49 632.75 341.81L632.74 341.82Z" fill="#E6007E"/>
<path d="M709.84 377.83C707.18 377.83 704.16 377.28 701.57 375.43C699.39 373.87 697.92 371.6 697.54 369.2C697.16 366.81 697.64 364.85 698.96 363.39C701.57 360.51 706.92 360.19 710.94 360.44C713.33 360.59 715.6 361.84 717.35 363.99C720.07 367.33 719.12 371.22 717.83 374.6C717.63 375.12 717.39 375.76 716.89 376.26C716.27 376.89 715.42 377.12 714.67 377.29C713.43 377.57 711.72 377.84 709.84 377.84V377.83ZM708.89 361.38C705.77 361.38 701.71 361.86 699.7 364.07C698.59 365.29 698.2 366.97 698.53 369.05C698.87 371.18 700.19 373.22 702.15 374.62C706.26 377.57 711.62 376.94 714.45 376.31C715.06 376.17 715.75 375.99 716.19 375.55C716.51 375.23 716.69 374.79 716.9 374.24C718.09 371.13 718.98 367.56 716.58 364.62C715.01 362.7 712.99 361.57 710.89 361.44C710.3 361.4 709.62 361.38 708.9 361.38H708.89Z" fill="#E6007E"/>
<path d="M574.74 177.6C561.9 177.6 549.96 171.05 545.07 161.07C541.77 154.33 540.98 148.77 542.66 144.08C545.39 136.45 554.32 132.37 562.97 128.42C570.37 125.04 578.03 121.54 581.6 115.88C585.13 110.3 587.21 103.84 589.22 97.59C589.56 96.54 589.9 95.48 590.24 94.44C593.31 85.12 597.52 74.61 605.38 67.32C615.39 58.03 627.55 57.94 634.61 61.79C639.82 64.63 643.48 69.62 647.02 74.45C651.29 80.27 655.31 85.77 661.79 87.71C666.21 89.03 670.73 88.33 675.53 87.6C678.91 87.08 682.39 86.54 685.83 86.78C698.63 87.67 707.94 98.66 714.61 108.13C723.29 120.44 725.76 130.25 722.17 138.12C718.19 146.85 707.88 150.02 700.27 150.09C693.73 150.16 687.29 148.52 681.05 146.95C679.02 146.44 676.92 145.91 674.85 145.45C658.37 141.77 644.22 142.68 632.79 148.17C627.03 150.94 621.86 154.96 616.86 158.86C615.3 160.07 613.75 161.29 612.17 162.46C599.7 171.78 588.37 176.71 577.51 177.51C576.58 177.58 575.65 177.61 574.72 177.61L574.74 177.6ZM545.97 160.64C551.03 170.98 563.96 177.5 577.45 176.51C588.11 175.72 599.27 170.86 611.58 161.66C613.15 160.49 614.7 159.28 616.25 158.07C621.29 154.15 626.5 150.09 632.36 147.27C644 141.68 658.37 140.74 675.07 144.47C677.15 144.93 679.25 145.47 681.29 145.98C687.46 147.54 693.8 149.15 700.25 149.09C707.57 149.03 717.46 146.01 721.24 137.71C724.67 130.19 722.23 120.71 713.77 108.71C707.22 99.42 698.12 88.65 685.73 87.79C682.41 87.56 678.98 88.09 675.66 88.6C670.97 89.32 666.12 90.07 661.48 88.68C654.69 86.65 650.37 80.75 646.19 75.05C642.72 70.31 639.12 65.4 634.11 62.67C627.35 58.99 615.69 59.11 606.04 68.06C598.35 75.2 594.21 85.57 591.17 94.77C590.83 95.82 590.49 96.87 590.15 97.92C588.12 104.23 586.02 110.74 582.42 116.43C578.68 122.34 570.89 125.9 563.36 129.34C554.91 133.2 546.17 137.2 543.58 144.43C542 148.86 542.77 154.16 545.95 160.65L545.97 160.64Z" fill="#E6007E"/>
<path d="M587.13 154.46C585.76 154.46 584.39 154.21 583.04 153.65C582.23 153.31 581.64 152.94 581.19 152.47C580.15 151.4 579.76 149.67 580.12 147.74C580.91 143.43 583.98 141.06 586.95 138.76C588.05 137.91 589.18 137.04 590.19 136.07C594.19 132.24 595.58 129.27 597.51 125.15C598.04 124.02 598.61 122.81 599.28 121.47C604.71 110.69 613.35 105.39 622.99 106.93C628.07 107.74 632.03 110.65 633.31 114.51C634.46 117.98 633.33 121.71 630.13 125.02C627.62 127.61 623.98 128.76 620.45 129.87C617.6 130.77 614.65 131.7 612.38 133.39C609.36 135.63 607.05 138.83 604.81 141.92C603.72 143.42 602.6 144.97 601.42 146.39C598 150.46 592.6 154.45 587.14 154.45L587.13 154.46ZM581.1 147.91C580.96 148.67 580.76 150.58 581.91 151.77C582.26 152.14 582.74 152.44 583.43 152.72C589.65 155.31 596.6 150.59 600.65 145.75C601.81 144.36 602.92 142.83 604 141.34C606.28 138.19 608.64 134.93 611.78 132.59C614.18 130.8 617.21 129.85 620.15 128.92C623.71 127.8 627.08 126.73 629.41 124.32C632.34 121.29 633.39 117.92 632.36 114.82C631.19 111.31 627.54 108.66 622.83 107.91C609.81 105.82 602.64 117 600.17 121.91C599.5 123.24 598.94 124.44 598.41 125.56C596.43 129.77 595 132.81 590.87 136.77C589.83 137.77 588.67 138.66 587.55 139.53C584.6 141.81 581.81 143.96 581.09 147.9L581.1 147.91Z" fill="#E6007E"/>
<path d="M516.5 17.79C503.42 17.79 490.65 15.99 479.33 13.95C469.89 12.25 459.2 9.85001 451.75 2.87001C443.26 -5.08999 440.02 -18.92 443.69 -31.55C447.62 -45.09 457.75 -54.79 465.56 -60.54C468.34 -62.59 471.3 -64.51 474.16 -66.37C480.35 -70.38 486.74 -74.53 491.57 -80.17C495.69 -84.98 498.62 -90.82 501.46 -96.47C504.89 -103.29 508.43 -110.34 514.09 -115.64C515.33 -116.8 516.67 -117.88 517.98 -118.92C520.61 -121.03 523.32 -123.21 525.13 -126.04C526.82 -128.68 527.67 -131.83 528.49 -134.87C529.34 -138 530.21 -141.24 532 -144.02C538.64 -154.34 554.02 -153.58 562.6 -152.2C573.22 -150.49 582.37 -147.38 589.78 -142.95C594.32 -140.24 597.29 -136.43 600.16 -132.75C602.55 -129.68 604.81 -126.79 607.89 -124.51C611.76 -121.65 617.32 -120.5 622.7 -119.39C626.25 -118.66 629.91 -117.9 632.99 -116.65C643.52 -112.37 651.92 -106.5 657.96 -99.22C669.91 -84.79 672.5 -59.5 657.11 -46.27C650.16 -40.3 641.09 -37.94 632.32 -35.66C627.86 -34.5 623.26 -33.3 618.98 -31.65C607.13 -27.07 597.13 -18.69 587.46 -10.6C579.74 -4.13999 571.76 2.54 562.81 7.36C548.28 15.19 532.17 17.77 516.5 17.77V17.79ZM553.15 -151.98C545.61 -151.98 537.2 -150.23 532.85 -143.47C531.14 -140.82 530.29 -137.66 529.47 -134.6C528.63 -131.49 527.76 -128.27 525.99 -125.49C524.09 -122.52 521.31 -120.28 518.62 -118.13C517.33 -117.1 516 -116.03 514.79 -114.9C509.26 -109.73 505.76 -102.76 502.37 -96.02C499.5 -90.32 496.54 -84.42 492.34 -79.52C487.42 -73.77 480.96 -69.58 474.71 -65.53C471.86 -63.68 468.91 -61.77 466.16 -59.74C458.47 -54.08 448.51 -44.54 444.65 -31.27C441.09 -18.99 444.22 -5.56997 452.44 2.14003C459.68 8.93003 470.21 11.28 479.51 12.96C504.21 17.42 535.94 20.71 562.33 6.49001C571.19 1.72001 579.13 -4.92999 586.81 -11.36C596.54 -19.51 606.61 -27.93 618.61 -32.58C622.94 -34.26 627.58 -35.46 632.06 -36.63C640.72 -38.88 649.68 -41.21 656.45 -47.03C668.45 -57.34 671.7 -81.05 657.18 -98.58C651.25 -105.74 642.98 -111.51 632.61 -115.73C629.62 -116.94 626.16 -117.66 622.5 -118.42C617.02 -119.55 611.35 -120.73 607.3 -123.72C604.11 -126.08 601.7 -129.17 599.37 -132.15C596.56 -135.76 593.64 -139.49 589.27 -142.11C581.97 -146.47 572.94 -149.54 562.44 -151.23C559.83 -151.65 556.57 -152.01 553.14 -152.01L553.15 -151.98Z" fill="#E6007E"/>
<path d="M516.7 30.67C513.14 30.67 509.6 30.45 506.1 30.01C490.15 27.98 475.25 21.47 460.85 15.17L436.17 4.38002C424.26 -0.82998 412.28 -6.87998 408.11 -18.45C403.88 -30.22 409.97 -42.99 417.08 -51.01C422.01 -56.57 427.99 -61.18 433.78 -65.63C437.1 -68.19 440.53 -70.83 443.73 -73.62C458.14 -86.22 468.7 -102.75 478.92 -118.73C482.5 -124.33 486.21 -130.13 490.02 -135.67C497.77 -146.92 508.56 -160.78 523.38 -168.23C538.52 -175.84 556.06 -176.13 571.23 -175.41C587.46 -174.64 603.15 -171.05 618.33 -167.58C629.91 -164.93 641.88 -162.2 654.01 -160.73C654.99 -160.61 656.05 -160.53 657.12 -160.44C661.15 -160.12 665.33 -159.8 666.51 -157.46C667.16 -156.19 666.84 -154.54 665.54 -152.42C663.3 -148.77 657.74 -147.37 651.85 -145.89C645.83 -144.38 639.6 -142.81 637.17 -138.72C635.96 -136.68 635.76 -134.17 636.57 -131.04C638.18 -124.82 645.35 -123.38 652.29 -121.99C654.48 -121.55 656.74 -121.1 658.77 -120.5C674.76 -115.8 682.21 -96.78 680.18 -81.1C678.05 -64.73 668.27 -50.45 659.64 -37.84C657.14 -34.19 654.3 -30.05 650.31 -27.38C645.88 -24.42 640.5 -23.54 635.31 -22.68C633.7 -22.42 632.04 -22.14 630.44 -21.81C613.97 -18.41 600.11 -7.99 586.7 2.08C579.12 7.78 571.28 13.67 562.98 18.32C548.48 26.43 532.38 30.7 516.7 30.7V30.67ZM561.25 -174.68C548.82 -174.68 535.57 -173.24 523.83 -167.35C509.21 -160 498.52 -146.26 490.84 -135.11C487.03 -129.58 483.33 -123.79 479.75 -118.2C469.5 -102.16 458.89 -85.57 444.38 -72.87C441.16 -70.06 437.72 -67.4 434.39 -64.84C428.64 -60.41 422.7 -55.84 417.83 -50.35C410.91 -42.54 404.97 -30.14 409.05 -18.79C413.08 -7.58998 424.85 -1.64998 436.57 3.47002L461.25 14.26C475.59 20.53 490.42 27.01 506.23 29.02C524.91 31.4 544.89 27.28 562.5 17.42C570.74 12.81 578.55 6.94002 586.11 1.26003C599.61 -8.87998 613.56 -19.37 630.24 -22.81C631.86 -23.14 633.53 -23.42 635.15 -23.69C640.24 -24.53 645.5 -25.39 649.76 -28.23C653.59 -30.79 656.37 -34.85 658.82 -38.42C667.39 -50.93 677.1 -65.11 679.19 -81.24C681.17 -96.5 673.97 -115 658.49 -119.55C656.5 -120.14 654.26 -120.59 652.09 -121.02C644.85 -122.47 637.36 -123.98 635.6 -130.8C634.72 -134.2 634.95 -136.96 636.31 -139.25C638.95 -143.7 645.39 -145.32 651.61 -146.88C657.29 -148.31 662.66 -149.66 664.69 -152.96C665.78 -154.73 666.09 -156.1 665.62 -157.02C664.69 -158.85 660.62 -159.17 657.04 -159.45C655.98 -159.53 654.88 -159.62 653.88 -159.74C641.7 -161.22 629.7 -163.96 618.1 -166.61C602.96 -170.07 587.31 -173.65 571.17 -174.41C567.95 -174.56 564.62 -174.67 561.24 -174.67L561.25 -174.68Z" fill="#E6007E"/>
<path d="M180.46 40.42C174.37 40.42 167.92 39 162.14 37.41L145.31 32.79C142.85 32.12 140.07 31.35 137.86 29.65C134.18 26.81 132.78 21.93 131.9 17.53C127.58 -3.99 129.31 -26.33 130.98 -47.93C131.61 -56.03 132.25 -64.4 132.57 -72.61C132.92 -81.67 132.88 -90.92 132.85 -99.85C132.79 -115.28 132.72 -131.23 134.66 -146.79C137.17 -166.91 144.51 -194.73 165.25 -213C180.58 -226.5 201.08 -232.85 219.16 -238.44C235.71 -243.56 252.82 -248.86 270.48 -250.46C284.26 -251.71 304.34 -251.02 321.7 -240.68C326.02 -238.11 330.05 -235 333.96 -231.99C336.26 -230.22 338.64 -228.39 341.04 -226.69C350 -220.37 359.9 -214.87 369.7 -210.78C373.69 -210.77 377.68 -210.16 381.54 -209.57C385.58 -208.95 389.76 -208.3 393.88 -208.38C395.26 -208.4 396.65 -208.46 398.04 -208.53C401.45 -208.68 404.97 -208.84 408.42 -208.35C414.08 -207.55 418.63 -204.9 420.9 -201.09C428.35 -188.6 402.73 -172.5 401.63 -171.82C399.63 -170.58 397.53 -169.37 395.51 -168.2C388.38 -164.08 381.01 -159.82 376.07 -153.25C373.29 -149.55 371.36 -145.19 369.49 -140.97C367.38 -136.22 365.2 -131.3 361.79 -127.26C356.07 -120.48 347.69 -116.97 339.58 -113.59C335.45 -111.86 331.18 -110.08 327.31 -107.88C319.36 -103.37 312.65 -96.86 306.16 -90.55C301.76 -86.28 297.22 -81.86 292.29 -78.07C284.56 -72.11 275.71 -67.54 267.16 -63.12C257.34 -58.05 247.18 -52.8 238.77 -45.46C220.31 -29.34 211.88 -5.37 204.19 19.84C202.7 24.72 201.02 30.24 197.25 34.21C192.85 38.84 186.84 40.42 180.43 40.42H180.46ZM280.57 -249.92C276.99 -249.92 273.63 -249.74 270.58 -249.46C253.03 -247.87 235.96 -242.59 219.46 -237.48C201.47 -231.91 181.09 -225.61 165.91 -212.24C145.4 -194.18 138.13 -166.61 135.65 -146.65C133.72 -131.15 133.79 -115.23 133.85 -99.83C133.89 -90.88 133.93 -81.63 133.57 -72.54C133.25 -64.31 132.6 -55.93 131.97 -47.82C130.3 -26.29 128.58 -4.02 132.87 17.37C133.76 21.8 135.05 26.26 138.46 28.89C140.51 30.47 143.19 31.21 145.56 31.86L162.39 36.48C173.98 39.66 188.32 42.2 196.53 33.56C200.14 29.76 201.79 24.35 203.24 19.58C210.97 -5.78001 219.45 -29.89 238.12 -46.19C246.62 -53.61 256.83 -58.89 266.71 -63.99C275.22 -68.39 284.03 -72.93 291.69 -78.84C296.57 -82.6 301.09 -86.99 305.47 -91.25C312 -97.6 318.76 -104.16 326.82 -108.73C330.75 -110.96 335.05 -112.76 339.2 -114.49C347.19 -117.83 355.46 -121.29 361.03 -127.89C364.35 -131.83 366.5 -136.67 368.58 -141.36C370.47 -145.63 372.43 -150.04 375.28 -153.83C380.34 -160.56 387.8 -164.87 395.01 -169.05C397.03 -170.22 399.11 -171.42 401.1 -172.66C410.08 -178.24 425.6 -191.24 420.03 -200.57C417.91 -204.12 413.63 -206.59 408.27 -207.35C404.91 -207.83 401.43 -207.67 398.07 -207.52C396.67 -207.46 395.28 -207.39 393.88 -207.37C389.65 -207.31 385.45 -207.95 381.38 -208.58C377.52 -209.17 373.53 -209.78 369.59 -209.78L369.4 -209.82C359.51 -213.94 349.5 -219.49 340.46 -225.87C338.04 -227.58 335.65 -229.42 333.34 -231.19C329.46 -234.18 325.44 -237.27 321.18 -239.81C307.88 -247.73 292.95 -249.91 280.55 -249.91L280.57 -249.92Z" fill="#E6007E"/>
<path d="M179.93 8.87997C178.89 8.87997 177.81 8.69996 176.71 8.32996C172.48 6.90996 168.89 3.11998 167.79 -1.11002C166.18 -7.25002 167.93 -13.55 169.63 -19.65C169.9 -20.62 170.17 -21.59 170.42 -22.55C175.33 -41.15 174.7 -60.9 174.08 -80L174.04 -81.35C173.48 -98.84 172.79 -120.6 178.78 -140.32C194.51 -192.04 237.38 -186.72 278.83 -181.57C304.6 -178.37 331.05 -181.56 355.33 -190.78C357.52 -191.61 359.75 -192.49 362 -193.38C379.03 -200.12 396.63 -207.09 412.11 -198.87C413.21 -198.28 414.46 -197.53 415.34 -196.38C417.62 -193.41 416.48 -189.13 414.25 -186.61C411.99 -184.05 408.78 -182.69 405.69 -181.38C389.69 -174.59 371.75 -165.72 359.51 -151.29C358.57 -150.18 357.64 -149.02 356.75 -147.89C354.77 -145.4 352.72 -142.82 350.33 -140.61C347.12 -137.64 343.34 -135.37 340.05 -133.48C324.14 -124.33 307.1 -117.2 289.41 -112.28C282.45 -110.35 275.29 -108.73 268.35 -107.16C256.13 -104.4 243.49 -101.55 231.67 -96.88C218.32 -91.6 209.95 -84.53 206.8 -75.86C205.37 -71.94 205.01 -67.65 204.66 -63.51C204.5 -61.58 204.33 -59.59 204.05 -57.65C202.68 -47.91 198.59 -38.61 194.63 -29.61C189.28 -17.43 184.22 -5.93004 185.14 6.73996L185.16 6.99997L184.95 7.15997C183.5 8.29997 181.78 8.87997 179.93 8.87997ZM241.5 -183.7C233.53 -183.7 225.85 -183.01 218.74 -181.16C199.12 -176.07 186.72 -163 179.73 -140.02C173.78 -120.46 174.47 -98.79 175.03 -81.37L175.07 -80.02C175.69 -60.85 176.32 -41.02 171.37 -22.28C171.11 -21.31 170.84 -20.34 170.57 -19.36C168.91 -13.39 167.19 -7.22003 168.73 -1.34003C169.74 2.50997 173.14 6.10996 177.01 7.39996C179.64 8.27996 182.16 7.97996 184.11 6.54996C183.27 -6.27004 188.57 -18.33 193.7 -30.01C197.63 -38.95 201.69 -48.19 203.04 -57.79C203.31 -59.71 203.48 -61.68 203.64 -63.59C204 -67.8 204.37 -72.15 205.84 -76.2C209.1 -85.15 217.66 -92.42 231.29 -97.8C243.18 -102.5 255.86 -105.36 268.12 -108.13C275.04 -109.69 282.2 -111.31 289.13 -113.23C306.74 -118.12 323.7 -125.22 339.54 -134.33C342.78 -136.19 346.5 -138.42 349.64 -141.33C351.97 -143.49 354 -146.04 355.96 -148.5C356.86 -149.63 357.79 -150.8 358.74 -151.92C371.12 -166.51 389.19 -175.44 405.23 -182.26C408.28 -183.56 411.38 -184.87 413.5 -187.26C415.49 -189.51 416.42 -193.3 414.54 -195.75C413.78 -196.74 412.64 -197.43 411.63 -197.96C396.55 -205.96 379.17 -199.08 362.35 -192.42C360.1 -191.53 357.87 -190.65 355.67 -189.81C331.24 -180.53 304.62 -177.33 278.69 -180.55C266.24 -182.09 253.53 -183.67 241.49 -183.67L241.5 -183.7Z" fill="#E6007E"/>
<path d="M184.05 316.94C177.27 316.94 170.28 315.36 163.43 313.81C161.21 313.31 158.92 312.79 156.7 312.34C152.94 311.58 148.98 310.95 145.14 310.34C129.83 307.9 113.99 305.38 103.81 294C86.9 275.1 88.22 230.93 96.52 210.01C106.2 185.59 125.35 155.03 146.29 141.81C153.53 137.24 161.44 133.64 169.08 130.17C178.03 126.1 187.28 121.9 195.46 116.11C200.28 112.7 204.79 108.71 209.15 104.85C211.44 102.82 213.81 100.73 216.2 98.73C230.38 86.91 246.39 77.79 263.78 71.61L264.14 71.48L264.36 71.79C268.59 77.72 263.29 85.61 257.46 90.56C252.77 94.55 247.81 98.35 243 102.03C235.9 107.47 228.56 113.1 222.02 119.39C220.94 120.43 219.87 121.57 218.74 122.78C216.52 125.15 214.22 127.6 211.73 129.34C209.79 130.7 207.65 131.59 205.58 132.45C202.29 133.82 199.17 135.12 196.85 138.15C194.97 140.59 194.26 144.12 195.03 147.14C195.59 149.35 196.91 151.01 198.73 151.81C201.95 153.23 205.59 151.86 209.1 150.54C209.97 150.21 210.83 149.89 211.68 149.6C214.95 148.51 218.87 148.79 221.23 150.27C222.65 151.17 223.51 152.48 223.71 154.05C224.11 157.28 221.64 159.49 219.25 161.63C217.85 162.89 216.39 164.19 215.51 165.69C213.74 168.69 214.29 172.23 214.87 175.98C215.09 177.41 215.32 178.88 215.4 180.31C215.59 183.43 215.06 186.56 214.55 189.58C214.04 192.63 213.51 195.78 213.73 198.86C214.2 205.38 213.77 211.23 213.36 216.88C212.81 224.32 212.3 231.34 213.69 239.67L213.81 240.39C216.43 256.03 219.7 275.49 215.35 291.25C212.39 301.98 205.58 310.61 197.14 314.34C192.93 316.2 188.53 316.9 184.03 316.9L184.05 316.94ZM196.04 116.93C187.78 122.77 178.48 126.99 169.49 131.08C161.88 134.54 154 138.12 146.82 142.66C126.07 155.76 107.07 186.11 97.45 210.38C89.24 231.07 87.89 274.71 104.56 293.34C114.5 304.45 130.16 306.95 145.3 309.36C149.14 309.97 153.11 310.6 156.9 311.37C159.13 311.82 161.43 312.34 163.66 312.85C174.89 315.39 186.5 318.02 196.76 313.49C204.93 309.88 211.53 301.48 214.41 291.05C218.7 275.5 215.46 256.16 212.85 240.62L212.73 239.9C211.31 231.45 211.83 224.36 212.38 216.87C212.79 211.25 213.22 205.44 212.75 199C212.52 195.79 213.06 192.58 213.58 189.48C214.08 186.51 214.59 183.44 214.41 180.44C214.33 179.06 214.1 177.61 213.89 176.2C213.31 172.44 212.71 168.55 214.65 165.24C215.61 163.61 217.12 162.25 218.58 160.95C220.88 158.89 223.05 156.95 222.71 154.24C222.55 152.95 221.87 151.92 220.69 151.18C218.57 149.84 214.99 149.61 211.99 150.61C211.15 150.89 210.31 151.21 209.45 151.53C205.75 152.93 201.92 154.38 198.32 152.78C196.21 151.85 194.69 149.95 194.05 147.44C193.21 144.13 193.99 140.27 196.05 137.59C198.54 134.35 201.92 132.94 205.19 131.58C207.21 130.74 209.3 129.87 211.15 128.57C213.56 126.88 215.82 124.47 218 122.14C219.14 120.92 220.21 119.78 221.32 118.71C227.9 112.38 235.26 106.73 242.39 101.27C247.18 97.6 252.14 93.8 256.81 89.83C262.21 85.24 267.18 78.06 263.75 72.71C246.61 78.84 230.82 87.86 216.84 99.52C214.46 101.5 212.1 103.59 209.81 105.62C205.43 109.5 200.9 113.51 196.03 116.95L196.04 116.93Z" fill="#E6007E"/>
<path d="M175.52 303.5C173.5 303.5 171.32 303.35 168.97 303.04C162.14 302.16 155.29 300.75 148.67 299.38C133.25 296.2 116.18 291.66 108.81 277.86C102.87 266.74 105.49 253.05 108.43 242.36C114.77 219.34 123.71 201.76 135.78 188.64C140.3 183.73 145.7 178.06 151.55 173.3C161.08 165.54 169.26 162.35 175.83 163.82C180.99 164.97 185.25 168.99 188.49 175.75C191.12 181.24 191.35 187.6 191.54 193.21L194.59 279.6C194.83 286.34 194.71 293.32 190.47 298.12C187.3 301.72 182.36 303.5 175.49 303.5H175.52ZM152.19 174.09C146.4 178.81 141.02 184.44 136.53 189.33C124.57 202.34 115.7 219.78 109.4 242.64C106.51 253.15 103.93 266.59 109.7 277.4C116.86 290.81 133.68 295.28 148.88 298.41C155.48 299.77 162.31 301.18 169.1 302.06C179.12 303.36 185.88 301.86 189.75 297.47C193.74 292.95 193.85 286.18 193.62 279.65L190.57 193.26C190.38 187.75 190.16 181.5 187.61 176.2C184.51 169.73 180.48 165.9 175.63 164.82C169.36 163.42 161.48 166.54 152.19 174.1V174.09Z" fill="#E6007E"/>
<path d="M288.8 236.87C288.36 236.87 287.92 236.8 287.49 236.66L287.33 236.61L287.23 236.47C273.79 217.42 274.91 189.54 289.85 171.63C291.03 170.22 292.31 168.83 293.54 167.49C297.05 163.68 300.68 159.74 302.31 154.86C303.28 151.96 303.53 148.73 303.77 145.61C304.15 140.79 304.53 135.81 307.58 131.97C309.51 129.54 312.22 127.98 314.84 126.46C316.32 125.6 317.86 124.72 319.22 123.69C325.34 119.07 328.23 111.55 331.03 104.28C332 101.76 333 99.1601 334.13 96.7001C337.85 88.5901 346.66 81.6801 357.12 78.6601C367.04 75.8001 376.79 76.81 383.87 81.44C389.12 84.87 392.16 90.5001 395.09 95.9501C396.79 99.1001 398.54 102.35 400.71 105.16C408.21 114.88 420.37 119.17 432.13 123.32C435.44 124.49 438.85 125.7 442.1 127C446.37 128.72 451.1 131.03 453.78 135.14C458.09 141.76 455.86 150.38 452.8 158.7C449.94 166.5 446.82 173.8 440.25 177.46C435.22 180.27 429.27 180.22 423.53 180.18H422.57C407.34 180.08 392.09 181.69 377.23 184.95C373.75 185.71 370.12 186.65 367.42 188.89C365.95 190.11 364.77 191.72 363.63 193.27C362.41 194.93 361.15 196.64 359.51 197.96C354.47 201.99 347.68 201.35 341.12 200.73C340.38 200.66 339.64 200.59 338.91 200.53C328.89 199.68 318.54 200.88 308.99 203.99C305.4 205.16 293.66 209.7 293.31 219.05C293.24 220.81 293.62 222.61 293.98 224.34C294.34 226.07 294.72 227.86 294.68 229.67C294.63 232.07 293.32 234.66 291.48 235.96C290.63 236.57 289.72 236.88 288.8 236.88V236.87ZM287.95 235.75C289.19 236.09 290.23 235.61 290.9 235.14C292.49 234.01 293.63 231.75 293.68 229.64C293.71 227.94 293.35 226.21 293 224.53C292.62 222.74 292.24 220.88 292.31 219C292.68 209.01 304.93 204.25 308.68 203.03C318.37 199.87 328.85 198.66 339 199.52C339.73 199.58 340.47 199.65 341.22 199.72C347.59 200.32 354.17 200.94 358.89 197.16C360.43 195.92 361.65 194.27 362.83 192.66C364.01 191.06 365.22 189.41 366.79 188.11C369.66 185.73 373.42 184.76 377.02 183.97C391.96 180.7 407.3 179.08 422.58 179.17H423.54C429.16 179.22 434.96 179.26 439.77 176.58C446.04 173.08 449.07 165.96 451.87 158.35C454.84 150.27 457.02 141.93 452.95 135.68C450.43 131.81 446.07 129.67 441.74 127.92C438.51 126.62 435.1 125.42 431.81 124.25C419.92 120.05 407.62 115.7 399.94 105.76C397.73 102.89 395.95 99.6001 394.23 96.4201C391.22 90.8401 388.38 85.57 383.34 82.27C376.5 77.8 367.05 76.83 357.41 79.62C347.22 82.56 338.65 89.27 335.05 97.12C333.94 99.54 332.94 102.13 331.98 104.64C329.13 112.04 326.18 119.69 319.84 124.49C318.43 125.56 316.87 126.46 315.36 127.33C312.7 128.86 310.19 130.31 308.39 132.59C305.53 136.19 305.17 140.8 304.79 145.68C304.54 148.86 304.29 152.15 303.28 155.17C301.59 160.25 297.88 164.27 294.3 168.16C293.07 169.49 291.8 170.87 290.64 172.26C276.03 189.79 274.89 217.05 287.97 235.74L287.95 235.75Z" fill="#E6007E"/>
<path d="M352.54 113.44C352.02 113.44 351.49 113.39 350.97 113.29C349.31 112.96 347.71 111.78 346.89 110.29C346.25 109.13 346.14 107.88 346.56 106.77C347.19 105.14 348.67 104.26 350.11 103.41C351.05 102.86 351.94 102.33 352.6 101.62L352.56 101.15C354.9 100.94 357.81 100.68 360.28 101.87C361.73 102.57 362.93 103.94 363.42 105.45C363.8 106.64 363.72 107.79 363.18 108.79C362.36 110.3 360.78 111.05 359.09 111.74C357.28 112.48 354.93 113.44 352.54 113.44ZM353.54 102.07C352.75 103.01 351.67 103.65 350.62 104.27C349.27 105.07 348 105.82 347.49 107.13C347.08 108.2 347.41 109.18 347.76 109.81C348.44 111.05 349.78 112.03 351.16 112.31C353.57 112.8 356.01 111.92 358.71 110.82C360.22 110.2 361.64 109.54 362.3 108.32C362.81 107.38 362.67 106.41 362.46 105.77C362.05 104.51 361.05 103.37 359.84 102.78C357.91 101.85 355.57 101.91 353.53 102.08L353.54 102.07Z" fill="#E6007E"/>
<path d="M340.28 409C320.08 409 299.86 402.89 283.31 391.19C274.47 384.94 268.38 378.34 264.67 371.01C260.14 362.04 259.6 351.95 263.23 344.03C265.68 338.7 269.93 334.34 273.68 330.5C300.69 302.85 327.78 277.18 362.28 266.96C370.66 264.48 379.4 262.97 387.85 261.51L427.79 254.61C439.71 252.55 452.04 250.42 463.86 247.08C487.77 240.33 505.98 227.82 525.27 214.58C528 212.7 530.77 210.8 533.58 208.9C541.38 203.62 550.99 201.81 560.63 203.84C571.58 206.14 581.31 212.94 587.34 222.5C597.71 238.95 598.34 260.18 598.84 277.23L599.92 313.9C600.05 318.42 600.2 323.55 597.97 327.96C594.03 335.73 584.38 338.17 576.65 337.88C572.66 337.73 568.67 337.01 564.81 336.32C560.81 335.61 556.68 334.87 552.59 334.76C542.08 334.47 531.91 338.27 522.05 341.93C520.55 342.49 519.05 343.05 517.55 343.59C506.4 347.63 494.79 350.96 483.56 354.18C465.19 359.45 446.2 364.9 428.86 373.55C421.57 377.19 414.43 381.47 407.53 385.6C396.29 392.34 384.67 399.3 372.09 403.69C361.86 407.26 351.06 409.01 340.27 409.01L340.28 409ZM464 247.54L464.14 248.02C452.26 251.38 439.91 253.51 427.97 255.58L388.03 262.48C379.61 263.94 370.9 265.44 362.58 267.91C328.31 278.06 301.32 303.64 274.41 331.19C270.71 334.97 266.53 339.26 264.15 344.44C260.64 352.09 261.17 361.85 265.57 370.55C269.2 377.73 275.19 384.21 283.89 390.36C309.03 408.13 342.71 412.87 371.78 402.73C384.26 398.38 395.84 391.44 407.03 384.73C413.95 380.58 421.11 376.29 428.43 372.64C445.85 363.95 464.89 358.48 483.3 353.2C494.51 349.98 506.11 346.66 517.23 342.63C518.73 342.09 520.22 341.53 521.72 340.97C531.66 337.28 541.94 333.47 552.63 333.74C556.8 333.85 560.97 334.59 565 335.31C568.83 335.99 572.78 336.7 576.7 336.85C584.14 337.14 593.37 334.83 597.09 327.48C599.21 323.3 599.06 318.31 598.93 313.91L597.85 277.24C597.35 260.31 596.73 239.24 586.5 223.02C580.62 213.68 571.11 207.04 560.43 204.8C551.06 202.83 541.72 204.58 534.14 209.71C531.33 211.62 528.56 213.51 525.83 215.39C506.47 228.68 488.19 241.23 464.13 248.03L463.99 247.55L464 247.54Z" fill="#E6007E"/>
</g>
<defs>
<clipPath id="clip0_4_996">
<rect width="1092" height="456" fill="white"/>
</clipPath>
</defs>
</svg>
