<svg width="735" height="727" viewBox="0 0 735 727" fill="none" xmlns="http://www.w3.org/2000/svg">
<g clip-path="url(#clip0_5_1111)">
<path d="M551.1 215.28C550.03 215.28 548.95 215.15 547.92 214.78C546.42 214.24 545.2 213.26 543.86 212.13C537.94 207.12 531.22 200.3 531.76 191.93C532.12 186.4 536.07 181.01 541.58 178.53C546.47 176.33 552.58 176.22 558.35 178.24L564.71 177.74H564.76C572.56 178.78 574.75 188.86 575.33 193.15C575.84 196.94 576.1 200.93 574.56 204.44C571.5 211.42 562.95 213.64 555 214.89C553.82 215.08 552.47 215.29 551.1 215.29V215.28ZM550.03 177.79C547.17 177.79 544.42 178.34 541.99 179.43C536.8 181.77 533.09 186.81 532.76 191.98C532.25 199.91 538.77 206.5 544.51 211.35C545.77 212.42 546.93 213.34 548.27 213.83C550.37 214.59 552.75 214.22 554.85 213.89C562.54 212.68 570.78 210.56 573.65 204.03C575.09 200.75 574.83 196.92 574.34 193.28C573.79 189.23 571.76 179.73 564.68 178.74L558.22 179.24L558.12 179.2C555.44 178.25 552.69 177.78 550.04 177.78L550.03 177.79Z" fill="white"/>
<path d="M333.68 459.06C324.64 459.06 316.22 452.6 314.08 444.03C313.19 440.47 313.34 436.73 313.57 433.19C314.03 426.08 315.25 418.2 320.74 413.58C321.7 412.77 322.77 412.09 323.8 411.44C324.99 410.69 326.21 409.91 327.24 408.95C329.47 406.86 330.77 403.93 332.03 401.09L332.45 400.16C336.14 391.95 340.93 384.28 346.69 377.35C348.11 375.64 349.83 373.78 352.18 373.33C365.39 370.87 377.62 386.56 382.25 395.2C383.44 397.43 385.38 400.24 387.44 403.22C394.14 412.95 403.32 426.27 397.3 435.02C394.97 438.41 390.54 440.44 385.17 440.59C382.27 440.67 379.36 440.26 376.56 439.86C375 439.64 373.39 439.41 371.81 439.27C367.33 438.87 362.82 439.15 358.42 440.11C357.46 440.32 356.47 440.57 355.76 441.19C354.95 441.89 354.56 443 354.18 444.08L354.01 444.55C350.97 452.95 342.43 459.06 333.71 459.07H333.69L333.68 459.06ZM352.37 374.31C350.34 374.69 348.77 376.41 347.46 377.98C341.76 384.83 337.02 392.43 333.37 400.56L332.96 401.49C331.66 404.42 330.32 407.45 327.94 409.67C326.85 410.69 325.58 411.5 324.36 412.28C323.36 412.92 322.32 413.58 321.4 414.34C316.19 418.71 315.03 426.35 314.58 433.25C314.36 436.71 314.21 440.37 315.06 443.78C317.06 451.79 325.24 458.06 333.69 458.06H333.71C342.02 458.06 350.16 452.22 353.07 444.2L353.23 443.74C353.65 442.54 354.09 441.29 355.1 440.42C355.99 439.65 357.17 439.35 358.2 439.12C362.7 438.15 367.31 437.86 371.89 438.27C373.5 438.41 375.13 438.64 376.7 438.87C379.47 439.26 382.32 439.67 385.15 439.59C390.2 439.45 394.33 437.58 396.48 434.45C402.12 426.26 393.16 413.27 386.63 403.78C384.56 400.78 382.6 397.94 381.38 395.66C378.43 390.15 374 384.54 369.54 380.65C365.42 377.06 359.1 373.05 352.38 374.31H352.37Z" fill="white"/>
<path d="M657.87 584.67C646.15 584.67 634.33 584.08 622.69 582.92C616.93 582.34 610.86 579.89 611.1 574.74C611.19 572.71 612.43 570.94 613.35 569.78C619.97 561.43 630.44 558.45 638.07 557.41C644.42 556.55 650.92 556.66 657.21 556.76C660.11 556.81 663.11 556.86 666.05 556.81C698.48 556.3 732.09 544.14 765.96 520.67C766.94 519.99 768.25 518.87 769.76 517.57C774.76 513.28 781.61 507.41 786.23 509.06C788.13 509.74 789.39 510.93 790 512.6C791.63 517.12 788.17 523.9 784.98 529.31C777.52 541.94 764.3 552.13 745.7 559.61C736.84 563.17 727.52 565.89 718.5 568.51C708.92 571.3 699.01 574.19 689.67 578.09C688.76 578.47 687.85 578.86 686.95 579.25C683.47 580.75 679.88 582.29 676.13 583.22C671.17 584.45 665.99 584.6 661.12 584.65C660.04 584.65 658.96 584.67 657.88 584.67H657.87ZM650.93 557.69C646.68 557.69 642.4 557.83 638.2 558.4C630.76 559.41 620.54 562.31 614.13 570.4C613.23 571.54 612.18 573.07 612.1 574.79C611.89 579.25 617.73 581.43 622.79 581.93C635.47 583.2 648.36 583.78 661.1 583.66C665.92 583.62 671.02 583.47 675.88 582.26C679.55 581.35 683.1 579.82 686.54 578.34C687.45 577.95 688.36 577.56 689.27 577.17C698.66 573.25 708.6 570.35 718.21 567.55C727.2 564.93 736.5 562.22 745.31 558.68C763.7 551.29 776.75 541.24 784.1 528.8C785.91 525.73 790.72 517.59 789.04 512.94C788.54 511.54 787.5 510.58 785.88 510C781.79 508.54 774.94 514.43 770.4 518.32C768.86 519.64 767.54 520.78 766.52 521.48C732.49 545.06 698.69 557.28 666.06 557.8C663.1 557.85 660.09 557.8 657.18 557.75C655.11 557.72 653.02 557.68 650.92 557.68L650.93 557.69Z" fill="white"/>
<path d="M491.05 256.7C489.91 256.7 488.77 256.46 487.69 255.93L487.42 255.8V255.5C487.15 248.08 490.96 240.59 497.1 236.42L497.14 236.4L499.61 235.02C500.06 234.47 500.77 234.19 501.56 234.27C502.64 234.37 503.68 235.06 504.13 236C504.85 237.48 504.54 239.14 504.13 240.84C503.19 244.73 502.13 249.13 499.37 252.5C497.45 254.85 494.24 256.7 491.05 256.7ZM488.41 255.16C492 256.73 496.31 254.68 498.61 251.86C501.22 248.67 502.26 244.38 503.17 240.6C503.54 239.08 503.82 237.61 503.25 236.43C502.95 235.81 502.22 235.32 501.49 235.26C501.15 235.23 500.67 235.28 500.37 235.7L500.21 235.84L497.67 237.26C491.9 241.19 488.29 248.19 488.43 255.17L488.41 255.16Z" fill="white"/>
<path d="M275.2 96.8099C275.13 96.8099 275.06 96.8099 275 96.8099C265.29 96.6699 254.51 88.8399 250.47 78.9799C247.58 71.9399 248.75 65.2599 253.77 60.1599C260.55 53.2699 271.95 50.0699 282.8 51.9999C292.22 53.6799 299.58 58.9499 302.97 66.4699C304.08 68.9299 304.61 71.2999 304.55 73.5399C304.32 81.7999 296.58 87.3899 289.03 91.7799C285.16 94.0299 280.36 96.8199 275.21 96.8199L275.2 96.8099ZM275.01 95.8099C275.07 95.8099 275.14 95.8099 275.2 95.8099C280.08 95.8099 284.75 93.0999 288.52 90.9099C295.83 86.6699 303.33 81.2799 303.54 73.5099C303.6 71.4299 303.09 69.1999 302.05 66.8799C298.79 59.6699 291.71 54.6099 282.62 52.9899C272.08 51.1099 261.04 54.1999 254.48 60.8599C249.76 65.6499 248.67 71.9499 251.4 78.5999C255.24 87.9599 265.84 95.6699 275.02 95.8099H275.01Z" fill="white"/>
<path d="M154.82 573.53C148.39 573.53 141.78 570.34 137.73 565.65C132.16 559.2 129.41 549.61 129.78 537.91C130.24 523.42 134.26 506.63 140.8 491.86C143.37 486.07 146.04 483.13 149.22 482.62C152.71 482.06 156.69 484.47 162.15 490.46C184.87 515.41 187.82 537.53 171.71 562.2C169.73 565.23 167.54 568.37 164.53 570.53C161.63 572.61 158.25 573.52 154.82 573.52V573.53ZM150.22 483.54C149.93 483.54 149.65 483.56 149.38 483.61C146.61 484.06 144.1 486.89 141.72 492.27C135.22 506.93 131.24 523.57 130.78 537.94C130.53 545.92 131.66 557.09 138.49 564.99C144.41 571.84 156.05 575.38 163.95 569.72C166.82 567.66 168.95 564.61 170.87 561.65C186.69 537.43 183.77 515.68 161.41 491.13C156.67 485.92 153.17 483.53 150.22 483.53V483.54Z" fill="white"/>
<path d="M640.94 708.31C637.69 708.31 634.48 707.86 631.58 707.13C626.73 705.91 622.03 703.98 617.49 702.11C613.12 700.31 608.61 698.46 603.99 697.25C587.34 692.9 569.89 696.86 553.01 700.7C548.42 701.74 543.67 702.82 539.02 703.71C514.9 708.33 489.42 708.26 465.33 703.5C458.48 702.15 450.19 699.72 446.88 692.85C445.31 689.61 445.21 685.89 446.58 682.12C448.41 677.08 452.69 672.52 457.75 670.21C464.88 666.97 472.93 666.93 480.7 666.89C482.05 666.89 483.4 666.88 484.74 666.85C502.91 666.54 521.09 662.85 538.66 659.29C544.31 658.14 550.16 656.96 555.92 655.9C577.79 651.89 603.42 648.78 627.66 656.14C653.32 663.93 672.22 683.34 675.81 705.6L675.94 706.39L659 701.16C654.46 706.39 647.62 708.29 640.94 708.29V708.31ZM588.28 694.35C593.64 694.35 598.97 694.91 604.24 696.29C608.93 697.52 613.47 699.38 617.87 701.19C622.38 703.04 627.04 704.96 631.83 706.17C640.5 708.35 652.05 707.96 658.45 700.29L658.66 700.04L674.69 704.99C670.33 680.53 647.88 663.35 627.37 657.13C603.34 649.83 577.86 652.93 556.1 656.92C550.35 657.97 544.51 659.16 538.86 660.31C521.24 663.88 503.01 667.58 484.75 667.89C483.41 667.91 482.05 667.92 480.7 667.93C473.03 667.97 465.1 668 458.16 671.16C453.33 673.35 449.25 677.7 447.52 682.5C446.25 686.02 446.34 689.46 447.78 692.46C450.9 698.92 458.9 701.25 465.53 702.56C489.5 707.29 514.85 707.36 538.84 702.76C543.47 701.87 548.21 700.8 552.79 699.75C564.48 697.09 576.45 694.37 588.28 694.37V694.35Z" fill="white"/>
<path d="M713.41 149.39C712.29 149.39 711.17 149.17 710.14 148.71C709.53 148.44 708.96 148.09 708.41 147.76C707.79 147.39 707.21 147.03 706.58 146.78C705.19 146.21 703.68 146.15 702.08 146.09C700.63 146.03 699.13 145.97 697.71 145.51C694.49 144.46 692.13 141.23 692.09 137.85C692.07 135.73 692.95 133.6 694.53 132L694.86 131.66L696.07 132.73C696.96 133.05 697.84 133.43 698.69 133.81C699.1 133.99 699.51 134.17 699.92 134.34C706.31 137.01 713.32 137.92 720.18 136.97L720.52 136.92L720.69 137.22C722.35 140.22 721.87 144.24 719.55 146.77C717.99 148.47 715.69 149.39 713.4 149.39H713.41ZM694.92 133.05C693.74 134.41 693.08 136.13 693.09 137.84C693.12 140.81 695.19 143.64 698.02 144.56C699.31 144.98 700.67 145.04 702.11 145.09C703.73 145.15 705.4 145.22 706.95 145.85C707.65 146.14 708.3 146.53 708.92 146.91C709.47 147.24 709.99 147.56 710.54 147.8C713.29 149.03 716.77 148.32 718.81 146.1C720.78 143.96 721.24 140.62 719.97 138.01C713.04 138.9 705.98 137.95 699.53 135.26C699.11 135.09 698.7 134.9 698.28 134.72C697.41 134.34 696.52 133.95 695.63 133.64L695.46 133.54L694.9 133.04L694.92 133.05Z" fill="white"/>
<path d="M432.66 447.72C432.24 447.72 431.84 447.63 431.48 447.46C429.86 446.68 429.42 444.63 430.26 441.68L436.28 420.42L436.18 417.28L444.56 421.94L444.61 422.15C446.97 431.03 443.21 441.3 435.67 446.56C434.55 447.34 433.55 447.73 432.66 447.73V447.72ZM437.23 419.01L437.28 420.54L437.26 420.61L431.22 441.94C430.9 443.07 430.32 445.79 431.91 446.55C432.7 446.93 433.77 446.65 435.1 445.73C442.25 440.74 445.84 431.05 443.69 422.61L437.23 419.01Z" fill="white"/>
<path d="M231.84 285.91L231.74 285.2C231.05 280.05 233.01 274.29 237.12 269.4C240.79 265.03 245.55 261.82 250.15 258.71L250.35 258.63L252.99 258.22C254.64 258.06 256.27 259.24 256.61 260.86L256.65 261.03L256.57 261.19C251.26 271.48 242.71 280.15 232.48 285.59L231.85 285.93L231.84 285.91ZM250.62 259.6C246.11 262.65 241.45 265.81 237.89 270.05C234.15 274.5 232.27 279.67 232.66 284.35C242.36 279.02 250.48 270.72 255.59 260.9C255.28 259.87 254.19 259.11 253.12 259.22L250.62 259.61V259.6Z" fill="white"/>
<path d="M594.13 484.21C589.22 484.21 584.61 482.57 579.54 480.6C566.32 475.45 551.44 468.93 542.18 456.73C537.63 450.74 534.95 442.97 534.82 435.42C534.68 427.28 537.5 420.18 542.77 415.44C545 413.43 547.63 411.85 550.18 410.32C553.81 408.13 557.24 406.07 559.68 402.85C563.6 397.67 563.84 391.14 564.09 384.24C564.22 380.69 564.35 377.02 565.04 373.56C567.56 360.79 577.62 349.64 594.95 340.43C605.97 334.57 615.29 331.54 624.3 330.88C644.2 329.42 661.76 339.2 678.72 348.67C685.11 352.24 691.72 355.92 698.25 358.86C702.95 360.97 708 362.33 712.9 363.65C719.81 365.51 726.96 367.43 733.1 371.5C744.78 379.24 755.71 389.61 765.56 402.33C770.96 409.3 777.37 418.71 778.96 429.7C780.32 439.07 777.44 451.14 767.95 456.97C764.12 459.32 759.56 460.39 755.59 461.2C736.51 465.11 717.02 466.13 697.64 464.24C695.68 464.05 693.72 463.83 691.76 463.61C685.56 462.91 679.14 462.19 672.83 462.48C663.69 462.9 654.73 465.43 646.07 467.87C634.73 471.07 623.01 474.37 611.97 479.01C611.32 479.28 610.68 479.56 610.03 479.83C605.06 481.96 599.92 484.15 594.46 484.24C594.35 484.24 594.24 484.24 594.13 484.24V484.21ZM624.33 331.35L624.37 331.85C615.51 332.5 606.31 335.5 595.42 341.29C578.37 350.35 568.48 361.27 566.02 373.73C565.35 377.11 565.22 380.74 565.09 384.25C564.84 391.01 564.59 398 560.48 403.43C557.93 406.81 554.25 409.02 550.7 411.16C548.2 412.67 545.61 414.22 543.45 416.17C532.51 426.02 534.38 444.78 542.99 456.12C552.09 468.11 566.82 474.56 579.91 479.66C584.99 481.64 589.63 483.28 594.45 483.2C599.72 483.12 604.77 480.96 609.65 478.87C610.3 478.59 610.95 478.31 611.6 478.04C622.7 473.38 634.45 470.06 645.82 466.86C654.54 464.4 663.55 461.86 672.8 461.43C679.19 461.14 685.65 461.86 691.89 462.57C693.84 462.79 695.8 463.01 697.75 463.2C717.02 465.08 736.42 464.07 755.4 460.18C759.46 459.35 763.74 458.34 767.44 456.07C776.54 450.48 779.3 438.85 777.99 429.8C776.43 419.05 770.12 409.78 764.79 402.9C755 390.27 744.16 379.97 732.57 372.29C726.57 368.31 719.5 366.41 712.67 364.57C707.74 363.24 702.64 361.87 697.87 359.73C691.3 356.77 684.67 353.08 678.26 349.5C661.43 340.11 644.01 330.4 624.4 331.84L624.36 331.34L624.33 331.35Z" fill="white"/>
<path d="M291.52 575.16C287.85 575.16 283.78 574.66 279.32 573.67C277.34 573.23 275.3 572.68 273.89 571.2C272.45 569.69 272.01 567.58 271.75 565.53C270.93 559.11 271.29 552.53 271.65 546.16C272.06 538.69 272.49 530.97 270.98 523.59C269.7 517.34 267.04 511.36 264.46 505.57C261.67 499.3 258.79 492.83 257.62 485.95C255.75 474.89 258.43 463.51 261.33 452.8C263.03 446.55 264.7 440.98 268.04 436.11C272.98 428.9 280.66 423.75 288.09 418.76C292.46 415.83 296.97 412.8 300.76 409.43C308.54 402.53 316.64 395.11 322.72 387.03C326.12 382.51 328.05 377.39 329.91 372.43C331.19 369.03 332.51 365.51 334.31 362.16C340.08 351.4 351.99 350.01 361.72 350H361.97C369.73 350 378.64 350.31 386.54 353.71C396.21 357.86 403.24 366.04 410.04 373.94C413.09 377.49 416.24 381.15 419.59 384.41C421.54 386.31 423.27 387.72 425.34 388.45C427.5 389.21 429.91 389.13 432.24 389.06L433.03 389.03C441.11 388.8 449.14 389.78 456.92 391.95C461.26 393.16 467.35 395.35 470.21 400.43C471.88 403.4 472.19 406.81 472.4 410.64C473.4 428.74 473.56 447.1 472.9 465.22C472.62 472.85 472.13 480.26 469.27 486.96C461.34 505.56 439.2 510.97 430.05 512.43C417.82 514.38 405.5 514.04 391.81 513.43C385.47 513.15 378.28 512.83 372.06 509.64C370.88 509.03 369.74 508.32 368.64 507.64C366.93 506.58 365.17 505.47 363.27 504.79C359.95 503.58 356.18 503.63 352.85 503.68C343 503.82 333.14 503.97 323.29 504.14C320.05 504.2 317.2 504.37 315.04 506.01C313.7 507.03 312.64 508.64 311.82 510.93C308.93 518.98 310.81 527.8 312.62 536.34C312.91 537.69 313.19 539.04 313.46 540.38C316.12 553.72 314.42 563.46 308.42 569.32C304.43 573.21 298.76 575.16 291.49 575.16H291.52ZM361.95 351H361.7C351.66 351 340.66 352.4 335.17 362.63C333.4 365.92 332.09 369.41 330.82 372.78C328.93 377.8 326.98 382.99 323.49 387.63C317.36 395.78 309.22 403.24 301.4 410.18C297.56 413.59 293.02 416.64 288.62 419.59C281.27 424.53 273.67 429.63 268.84 436.68C265.59 441.42 263.94 446.9 262.27 453.06C259.39 463.66 256.74 474.92 258.58 485.78C259.72 492.53 262.58 498.95 265.35 505.16C267.95 511 270.63 517.03 271.93 523.38C273.47 530.89 273.04 538.68 272.62 546.21C272.27 552.53 271.91 559.07 272.72 565.4C272.96 567.29 273.35 569.21 274.59 570.51C275.8 571.78 277.69 572.28 279.51 572.69C292.5 575.58 301.99 574.2 307.73 568.6C313.47 562.99 315.07 553.56 312.49 540.57C312.22 539.24 311.94 537.89 311.65 536.54C309.81 527.87 307.9 518.91 310.89 510.59C311.78 508.11 312.94 506.35 314.45 505.21C317.05 503.24 320.66 503.18 323.29 503.13C333.14 502.96 343 502.81 352.85 502.67C356.26 502.62 360.13 502.57 363.62 503.84C365.61 504.56 367.42 505.69 369.17 506.78C370.25 507.46 371.37 508.15 372.51 508.74C378.53 511.84 385.6 512.15 391.84 512.43C405.47 513.03 417.74 513.37 429.87 511.44C456.85 507.13 465.75 492.61 468.33 486.56C471.12 480.01 471.6 472.71 471.88 465.17C472.55 447.08 472.38 428.75 471.39 410.68C471.19 406.98 470.89 403.69 469.32 400.9C466.64 396.14 460.8 394.05 456.63 392.89C448.94 390.75 440.99 389.78 433.03 390.01L432.24 390.03C429.81 390.11 427.31 390.19 424.97 389.37C422.6 388.53 420.63 386.82 418.86 385.1C415.48 381.81 412.31 378.13 409.25 374.57C402.52 366.75 395.57 358.67 386.11 354.6C378.38 351.28 369.6 350.98 361.93 350.98L361.95 351Z" fill="white"/>
<path d="M522.8 355.68C512.28 355.68 500.1 353.8 488.88 347.49C484.03 344.76 479.58 341.3 475.26 337.96C472.04 335.46 468.71 332.88 465.25 330.63C440.92 314.8 409.33 314.85 387.67 316.26L386.76 316.32C377.98 316.9 368.91 317.5 361.14 313.45C356.28 310.92 352.53 306.8 348.9 302.83C347.1 300.86 345.23 298.81 343.26 297C341.34 295.23 339.19 293.55 337.11 291.93C331.91 287.87 326.54 283.67 324.02 277.51C321.31 270.87 322.17 262.79 326.65 252.8C334.99 234.22 349.47 218.67 367.42 209.02C369.42 207.95 371.49 206.93 373.49 205.94C378.28 203.59 383.23 201.15 387.45 197.82C398.73 188.91 403.78 174.73 408.68 161.03C410.22 156.71 411.81 152.25 413.57 148.03C419.77 133.17 429.5 118.34 443.31 102.72C459.02 84.9499 480.51 60.6199 509.24 64.2799C520.29 65.6899 531.69 66.4099 542.71 67.0999C561.66 68.2899 581.26 69.5299 599.92 74.3099C606.89 76.0999 613.89 78.3899 620.67 80.5999C635.38 85.4099 650.58 90.3799 666.17 90.3999H666.25C671.71 90.3999 677.26 89.7899 682.64 89.1999C691.08 88.2799 699.81 87.3199 708.34 88.6999C717.12 90.1199 725.82 95.4199 730.5 102.2C733.81 107 735.01 112.26 733.96 117.4C733.37 120.27 732.1 123.02 730.88 125.69C728.96 129.86 727.14 133.81 727.79 138.07C728.38 141.94 730.96 145.2 733.46 148.36L733.64 148.59C741.18 158.12 750.03 170.92 751.61 185.4C752.52 193.72 751.16 202.77 747.34 213.89C739.72 236.07 726.57 253.88 710.33 264.05C694.38 274.03 674.92 277.47 656.1 280.79C631.76 285.09 608.77 289.14 592.65 306.12C587.85 311.18 583.95 317.24 580.18 323.1C574.82 331.44 569.28 340.06 561.06 345.86C554.51 350.48 546.09 353.42 535.3 354.86C531.58 355.36 527.34 355.71 522.79 355.71L522.8 355.68ZM403.58 314.71C438.21 314.71 455.5 323.08 465.8 329.78C469.29 332.05 472.64 334.65 475.88 337.16C480.16 340.48 484.59 343.92 489.37 346.61C505.2 355.52 523.03 355.46 535.18 353.83C545.8 352.41 554.08 349.52 560.5 345C568.55 339.32 574.04 330.78 579.35 322.52C583.14 316.62 587.07 310.52 591.93 305.39C608.27 288.17 632.5 283.9 655.93 279.76C674.65 276.45 694.01 273.04 709.8 263.16C725.86 253.11 738.85 235.48 746.4 213.52C750.17 202.55 751.51 193.63 750.62 185.46C749.07 171.23 740.31 158.58 732.86 149.16L732.68 148.93C730.1 145.67 727.44 142.3 726.81 138.17C726.12 133.61 728.08 129.35 729.98 125.22C731.18 122.61 732.43 119.91 732.99 117.15C733.99 112.28 732.85 107.29 729.69 102.72C725.15 96.1499 716.72 91.0199 708.19 89.6399C699.8 88.2799 691.14 89.2299 682.76 90.1499C677.33 90.7399 671.68 91.3799 666.18 91.3499C650.43 91.3299 635.15 86.3399 620.37 81.4999C613.61 79.2899 606.63 77.0099 599.69 75.2299C581.12 70.4699 561.57 69.2399 542.66 68.0499C531.62 67.3499 520.21 66.6399 509.12 65.2199C480.94 61.6299 459.62 85.7299 444.07 103.33C430.34 118.87 420.67 133.6 414.51 148.36C412.76 152.56 411.17 157.01 409.63 161.31C404.69 175.15 399.58 189.46 388.08 198.55C383.77 201.95 378.78 204.41 373.94 206.79C371.94 207.77 369.88 208.79 367.9 209.85C350.15 219.39 335.83 234.77 327.57 253.15C323.2 262.88 322.34 270.71 324.95 277.08C327.37 282.99 332.64 287.11 337.73 291.1C339.82 292.73 341.98 294.43 343.94 296.23C345.94 298.08 347.82 300.13 349.64 302.12C353.21 306.03 356.9 310.08 361.6 312.53C369.12 316.45 378.05 315.86 386.69 315.29L387.61 315.23C393.31 314.86 398.62 314.69 403.58 314.69V314.71Z" fill="white"/>
<path d="M480.47 271.49C478.13 271.49 475.76 271.24 473.51 270.42C467.56 268.25 463.11 261.99 462.42 254.84C461.7 247.36 464.83 240.43 467.58 235.95C471.67 229.28 477.38 223.62 484.1 219.6C486.38 218.24 488.8 217.04 491.14 215.89C494.72 214.12 498.42 212.3 501.62 209.85C508.98 204.2 513.3 195.61 517.47 187.31C520.88 180.52 524.41 173.49 529.62 167.92C542.81 153.8 562.65 153.97 576.45 160.4C591.95 167.61 600.39 182.01 598.47 197.98C596.96 210.55 583.94 228.85 572.67 234.23C569.35 235.81 566.11 236.9 562.97 237.96C557.81 239.69 552.93 241.33 548.03 244.97C545.31 246.99 542.73 249.26 540.23 251.46C536.73 254.54 533.11 257.72 529.04 260.28C516.19 268.35 500.34 269.84 486.36 271.16C484.48 271.34 482.49 271.52 480.47 271.52V271.49ZM530.34 168.6C525.23 174.07 521.74 181.03 518.36 187.76C514.14 196.17 509.77 204.86 502.23 210.65C498.96 213.16 495.21 215.01 491.58 216.79C489.26 217.94 486.86 219.12 484.62 220.46C478.04 224.4 472.45 229.94 468.44 236.47C465.77 240.83 462.73 247.54 463.42 254.75C464.07 261.52 468.26 267.44 473.86 269.49C477.82 270.94 482.31 270.52 486.27 270.14C500.14 268.83 515.86 267.35 528.51 259.41C532.51 256.9 536.09 253.74 539.57 250.69C542.09 248.48 544.69 246.19 547.44 244.15C552.47 240.42 557.42 238.76 562.66 237C565.77 235.96 568.98 234.88 572.24 233.32C583.06 228.16 596.03 209.93 597.48 197.86C599.71 179.31 587.86 166.82 576.03 161.31C562.55 155.04 543.2 154.86 530.35 168.61L530.34 168.6Z" fill="white"/>
<path d="M529.47 332.61C513.93 332.61 498.57 326.29 485.82 321.05C474.84 316.53 463.49 311.86 453.19 305.49C451.68 304.55 450.19 303.58 448.69 302.61C443.7 299.35 438.53 295.99 432.81 294.23C425.23 291.9 417.06 292.49 409.16 293.05C406.48 293.24 403.71 293.44 400.99 293.52C393.04 293.75 378.63 292.65 371.71 282.5C368.48 277.76 367.49 271.86 366.95 266.71C366.25 260.09 366.11 253.37 366.52 246.72C366.83 241.78 367.63 236.25 371.29 232.6C373.46 230.44 376.33 229.25 379.1 228.1C379.5 227.93 379.89 227.77 380.29 227.6C402.56 218.16 418.66 198.25 432 180.33C446.34 161.06 460.01 140.93 472.64 120.5L473.07 119.8C476.73 113.87 480.52 107.74 485.74 102.97C492.98 96.3599 503.01 92.1999 516.42 90.2299C531.02 88.0899 546.68 88.5999 567.18 91.8699C575.9 93.2599 584.64 94.9099 593.09 96.5099C614.3 100.52 636.23 104.67 658.63 104.77H659.35C670.51 104.8 685.72 105.47 688.94 110.89C689.81 112.36 689.74 114.06 688.72 115.95C687.36 118.46 685.51 122.11 683.55 125.98C680.75 131.5 677.85 137.2 675.78 140.84C673.91 144.12 677.94 147.6 681.85 150.96C684.02 152.83 686.07 154.59 687.28 156.4C691.08 162.06 700.55 183.13 701.21 184.6C701.58 185.12 703.64 188.6 699 196.74C694.78 204.14 691.54 212.39 688.41 220.37C682.63 235.1 676.66 250.32 664.32 260.38C655.49 267.57 644.45 271.18 633.77 274.66C626.81 276.93 619.61 279.28 613.07 282.6C602.16 288.14 592.56 296.61 583.28 304.8C569.91 316.6 556.08 328.8 538.42 331.86C535.45 332.37 532.47 332.61 529.5 332.61H529.47ZM419.81 291.53C424.31 291.53 428.78 291.94 433.1 293.26C438.96 295.06 444.18 298.47 449.24 301.76C450.73 302.73 452.22 303.7 453.72 304.63C463.94 310.96 475.26 315.61 486.2 320.12C501.27 326.32 520.02 334.03 538.22 330.88C555.6 327.87 568.71 316.3 582.59 304.05C591.92 295.82 601.56 287.31 612.59 281.71C619.21 278.35 626.44 275.99 633.44 273.71C644.03 270.25 654.99 266.68 663.67 259.61C675.8 249.72 681.73 234.62 687.46 220.01C690.6 212 693.86 203.71 698.11 196.25C702.67 188.26 700.39 185.2 700.37 185.17L700.3 185.06C700.2 184.84 690.24 162.63 686.43 156.96C685.29 155.26 683.29 153.54 681.18 151.72C676.97 148.09 672.62 144.34 674.9 140.34C676.96 136.72 679.86 131.03 682.65 125.52C684.61 121.65 686.47 117.99 687.84 115.47C688.69 113.89 688.77 112.56 688.08 111.4C684.77 105.84 665.64 105.79 659.35 105.77H658.63C636.14 105.67 614.16 101.51 592.91 97.4899C584.46 95.8899 575.73 94.2399 567.03 92.8499C546.64 89.5899 531.08 89.0899 516.58 91.2099C503.37 93.1399 493.51 97.2299 486.43 103.7C481.31 108.37 477.56 114.45 473.94 120.32L473.51 121.02C460.87 141.48 447.18 161.64 432.83 180.92C419.41 198.95 403.2 218.99 380.71 228.52C380.31 228.69 379.91 228.85 379.51 229.02C376.83 230.13 374.05 231.28 372.03 233.3C368.61 236.71 367.85 242.02 367.55 246.77C367.14 253.36 367.29 260.03 367.98 266.59C368.51 271.62 369.47 277.37 372.57 281.92C379.22 291.67 393.23 292.73 401 292.5C403.69 292.42 406.45 292.22 409.12 292.03C412.66 291.78 416.26 291.52 419.85 291.52L419.81 291.53Z" fill="white"/>
<path d="M761.22 223.47V222.71C761.34 215.87 762.27 208.81 763.17 201.99C765.1 187.32 767.09 172.15 760.85 158.87C759.8 156.63 758.5 154.46 757.25 152.36C755.93 150.14 754.56 147.84 753.46 145.44C750.12 138.16 749.23 130.04 748.38 122.19C747.58 114.83 746.74 107.21 743.89 100.36C742.26 96.45 740.15 93.31 737.64 91.03C729.61 83.76 717.27 84.48 706.39 85.12L705.4 85.18C689.32 86.11 679.11 82.69 674.18 74.72C672.06 71.28 671.37 68.07 670.64 64.66C670.28 63 669.92 61.29 669.37 59.45C668.91 57.92 668.39 56.19 668.72 54.44C669.38 50.9 673.06 49 675.78 47.88C685.7 43.78 696.26 41.8 706.2 40.27C748.29 33.79 791.53 33.83 833.33 33.87C841.14 33.87 849.99 33.89 857.72 37.27C864.06 40.04 868.39 44.08 869.58 48.35C870.34 51.08 869.83 53.79 868.06 56.42C873.72 70.63 863.82 86.12 855.85 96.55C847.48 107.51 838.55 118.26 829.32 128.5C827.48 130.54 825.18 133.09 822.35 134.75C820.46 135.86 818.37 136.56 816.34 137.24C815.23 137.61 814.09 138 813 138.44C809.31 139.95 805.67 142.39 802.18 145.71C797.72 149.95 793.99 155.14 791.4 160.72C788.13 167.76 786.56 175.55 785.04 183.09C784.25 187.02 783.43 191.09 782.37 195.02C779.67 205.1 773.93 218.18 761.93 223.2L761.22 223.49V223.47ZM716.13 83.73C724.28 83.73 732.35 84.91 738.29 90.28C740.92 92.66 743.11 95.92 744.8 99.97C747.71 106.95 748.55 114.64 749.36 122.07C750.21 129.85 751.09 137.89 754.36 145.02C755.44 147.37 756.79 149.65 758.1 151.85C759.36 153.97 760.67 156.17 761.74 158.45C768.11 171.99 766.1 187.31 764.15 202.12C763.29 208.65 762.4 215.4 762.24 221.95C773.38 216.87 778.8 204.41 781.39 194.75C782.43 190.85 783.25 186.8 784.04 182.89C785.57 175.3 787.16 167.45 790.47 160.3C793.11 154.61 796.91 149.31 801.47 144.99C805.05 141.59 808.8 139.08 812.6 137.52C813.72 137.06 814.88 136.67 816 136.29C817.98 135.63 820.02 134.94 821.82 133.88C824.52 132.3 826.76 129.82 828.56 127.82C837.78 117.6 846.69 106.88 855.04 95.94C862.91 85.64 872.7 70.35 867.02 56.54L866.92 56.29L867.08 56.07C868.8 53.62 869.31 51.12 868.61 48.61C867.51 44.69 863.29 40.79 857.31 38.17C849.77 34.87 841.03 34.86 833.32 34.86C791.53 34.82 748.35 34.78 706.34 41.25C696.47 42.77 685.97 44.74 676.15 48.8C673.65 49.83 670.26 51.56 669.69 54.62C669.41 56.13 669.89 57.74 670.32 59.16C670.88 61.03 671.25 62.77 671.61 64.45C672.32 67.77 672.99 70.9 675.02 74.19C679.73 81.82 689.65 85.09 705.33 84.18L706.32 84.12C709.51 83.93 712.83 83.74 716.14 83.74L716.13 83.73Z" fill="white"/>
<path d="M722.32 354.09C718.48 354.09 714.34 352.89 710.33 350.56C706.35 348.25 702.87 345.14 699.5 342.14C698.34 341.1 697.17 340.07 695.99 339.06C677.04 322.95 651.93 314.49 627.1 315.83L626.28 315.87L626.62 315.12C631.06 305.25 642.14 298.15 657.04 295.62C662.33 294.72 667.77 294.34 673.04 293.96C679.94 293.47 687.08 292.97 693.88 291.29C712.75 286.65 727.18 273.67 738.82 261.58C739.1 261.29 739.42 260.95 739.76 260.58C743.59 256.48 750.72 248.86 756.29 252.73C762.87 257.3 755.07 273.2 752.62 277.21C751.28 279.4 749.71 281.49 748.19 283.51C745.9 286.55 743.54 289.68 741.98 293.18C738.56 300.88 739.28 309.62 739.97 318.06C740.31 322.18 740.66 326.44 740.54 330.57C740.29 339.15 736.95 349.55 728.32 352.97C726.47 353.7 724.45 354.06 722.34 354.06L722.32 354.09ZM632.25 314.7C655.61 314.7 678.82 323.16 696.64 338.3C697.83 339.31 699 340.35 700.17 341.4C703.5 344.37 706.94 347.44 710.83 349.7C716.77 353.16 723 354.02 727.92 352.07C736.1 348.82 739.27 338.83 739.51 330.57C739.63 326.49 739.28 322.26 738.95 318.17C738.25 309.6 737.52 300.73 741.04 292.8C742.64 289.2 745.04 286.01 747.36 282.93C748.87 280.93 750.42 278.87 751.74 276.71C752.9 274.81 755.47 269.87 756.89 264.79C758 260.82 758.69 255.66 755.7 253.58C750.84 250.2 743.84 257.69 740.47 261.29C740.12 261.67 739.8 262.01 739.52 262.3C727.79 274.49 713.22 287.59 694.1 292.29C687.22 293.98 680.04 294.49 673.1 294.98C667.86 295.35 662.44 295.74 657.2 296.63C650.44 297.78 634.25 301.83 627.88 314.81C629.34 314.74 630.8 314.71 632.26 314.71L632.25 314.7Z" fill="white"/>
<path d="M141.69 350.06L141.41 349.71C118.51 320.65 114.24 281.46 113.03 254.5C110.68 202.6 117.28 151.11 132.63 101.48C138.35 82.99 146.39 62.41 162.72 49.95C174 41.34 187.96 37.47 201.3 34.24C240.71 24.71 275.56 20.4 307.88 21.07C326.52 21.46 353.45 23.88 371.9 40.42C373.8 42.12 375.61 43.97 377.36 45.76C380.58 49.06 383.92 52.48 387.85 54.96C399.26 62.19 414.36 60.9 426.49 59.87C430.94 59.49 437.03 58.97 441.82 61.67C444.52 63.19 446.6 66.16 447.12 69.24C447.38 70.79 447.23 72.26 446.7 73.54L457.73 66.87L456.29 68.86C421.41 117.15 376.31 163.05 322.25 205.29C309.77 215.04 295.63 226.09 292.71 242.05C292.01 245.87 292.02 249.85 292.02 253.7C292.02 256.26 292.02 258.9 291.83 261.5C290.67 276.49 282.77 290.16 275.8 302.22C267.66 316.3 256.51 335.59 238.29 343.15C223.98 349.09 207.76 347.05 192.07 345.07C173.83 342.77 156.61 340.6 142.06 349.83L141.68 350.07L141.69 350.06ZM301.36 22C270.96 22 238.23 26.34 201.53 35.21C188.3 38.41 174.45 42.25 163.33 50.74C147.23 63.03 139.26 83.43 133.59 101.77C118.27 151.3 111.69 202.67 114.03 254.45C115.24 281.16 119.45 319.93 141.92 348.73C156.7 339.59 174.75 341.87 192.21 344.07C207.77 346.03 223.86 348.06 237.92 342.22C255.82 334.79 266.87 315.67 274.94 301.71C281.86 289.75 289.7 276.19 290.84 261.42C291.04 258.86 291.03 256.24 291.03 253.7C291.03 249.81 291.02 245.78 291.73 241.87C294.72 225.54 309.02 214.36 321.64 204.5C374.87 162.9 419.41 117.75 454.03 70.27L442.66 77.14L444.8 74.71C446 73.34 446.47 71.46 446.13 69.41C445.66 66.62 443.77 63.92 441.33 62.55C437.15 60.19 432.17 60.39 426.58 60.87C414.3 61.92 399.02 63.21 387.32 55.81C383.29 53.26 379.92 49.8 376.65 46.46C374.91 44.68 373.11 42.84 371.24 41.16C353.03 24.84 326.35 22.45 307.86 22.07C305.71 22.03 303.54 22 301.36 22Z" fill="white"/>
<path d="M359.27 661.57C356.59 661.57 353.91 661.5 351.21 661.37C345.4 661.08 339.37 660.35 334.63 657.02C331.45 654.79 328.85 651.34 327.11 647.03C323.67 638.51 324.02 628.14 328.11 617.81C331.77 608.57 337.93 600.35 344.04 592.85C352.53 582.44 362.09 571.93 374.46 565.61C388.61 558.38 404.87 557.43 420.61 556.5C426.57 556.15 432.72 555.79 438.67 555.09C463.57 552.17 487.65 542.78 508.31 527.95C515.55 522.75 524.56 516.28 532.29 509.75C534.13 508.19 535.79 506.42 537.39 504.71C542.36 499.41 547.05 494.39 556.14 496.77C561.09 498.06 565.89 501.32 570.82 506.73C589.08 526.76 593.64 555.8 595.48 575.9C596.37 585.67 596.99 596.94 592.99 607.07C592.28 608.87 591.09 611.49 589.02 613.41C586.79 615.46 583.64 616.69 579.37 617.17C571.69 618.03 564 616.42 556.56 614.85C552.58 614.01 548.46 613.15 544.4 612.67C520.06 609.83 496.62 620.39 473.96 630.6L469.84 632.45C437.45 646.97 399.3 661.53 359.28 661.54L359.27 661.57ZM438.72 555.6L438.78 556.1C432.81 556.8 426.63 557.16 420.67 557.52C405.04 558.44 388.88 559.39 374.92 566.52C362.71 572.76 353.24 583.17 344.82 593.5C338.76 600.94 332.65 609.08 329.04 618.19C325.04 628.27 324.69 638.39 328.04 646.66C329.71 650.78 332.18 654.08 335.2 656.2C339.74 659.39 345.6 660.09 351.26 660.37C393.99 662.52 434.98 647.01 469.43 631.57L473.55 629.72C496.34 619.45 519.91 608.84 544.52 611.71C548.63 612.19 552.77 613.06 556.77 613.9C564.13 615.45 571.74 617.05 579.26 616.2C583.31 615.75 586.28 614.6 588.34 612.7C589.8 611.35 590.99 609.45 592.06 606.73C595.98 596.8 595.37 585.67 594.48 576.01C590.67 534.34 578.73 516.91 570.08 507.42C565.28 502.16 560.64 499 555.89 497.76C547.37 495.53 543.09 500.11 538.12 505.42C536.5 507.15 534.82 508.94 532.93 510.54C525.17 517.1 516.14 523.58 508.89 528.79C488.1 543.72 463.85 553.16 438.78 556.11L438.72 555.61V555.6Z" fill="white"/>
<path d="M397.92 629.16C394.03 629.16 390.15 628.91 386.31 628.4C384.69 628.19 382.98 627.9 381.57 626.98C378 624.65 377.9 619.56 378.9 615.91C381.94 604.84 392.45 596.25 410.14 590.38C426.44 584.97 443.62 581.83 460.24 578.79C467.52 577.46 475.05 576.08 482.41 574.54C503 570.2 529.28 563.11 549.93 546.61C551.45 545.4 552.74 543 553.98 540.68C556.24 536.47 558.58 532.12 562.65 533.87L562.94 533.99V534.3C563.33 543.4 567.41 551.95 571.36 560.22C576.05 570.04 580.9 580.2 579.51 591.3C579.35 592.55 579.06 593.96 578.04 594.91C576.85 596.02 575.14 596.1 573.5 596.07L568.26 595.99C532.5 595.46 495.52 594.92 462.47 608.53C457.53 610.57 452.62 612.95 447.88 615.25C440.91 618.63 433.7 622.13 426.21 624.62C417.13 627.63 407.52 629.16 397.93 629.16H397.92ZM560.92 534.49C558.43 534.49 556.69 537.74 554.85 541.15C553.56 543.56 552.22 546.05 550.54 547.39C529.72 564.02 503.3 571.16 482.61 575.51C475.24 577.06 467.71 578.44 460.42 579.77C443.84 582.8 426.69 585.93 410.46 591.32C393.1 597.08 382.81 605.44 379.87 616.17C378.96 619.5 379 624.1 382.12 626.14C383.36 626.95 384.94 627.21 386.45 627.41C399.63 629.14 413.28 627.85 425.9 623.67C433.33 621.21 440.51 617.72 447.45 614.35C452.2 612.04 457.12 609.65 462.09 607.61C495.33 593.92 532.41 594.47 568.27 595L573.51 595.08C574.95 595.1 576.43 595.05 577.35 594.19C578.13 593.46 578.38 592.26 578.51 591.19C579.86 580.38 575.08 570.35 570.45 560.66C566.51 552.4 562.43 543.86 561.96 534.67C561.6 534.55 561.25 534.49 560.92 534.49Z" fill="white"/>
<path d="M543.05 585.6C537.23 585.6 531.39 584.75 525.85 583.07C524.17 582.56 521.37 581.34 521.47 578.87C521.54 577.13 523.09 575.98 524.59 575.09C526.31 574.07 528.62 572.4 531.3 570.48C539.42 564.65 550.54 556.67 557.02 558.07C561.3 558.99 564.31 562.24 565.28 566.98C566.45 572.68 564.31 578.94 560.19 581.86C557.03 584.1 553.11 584.81 550.05 585.18C547.74 585.46 545.4 585.6 543.05 585.6ZM555.37 558.9C549.14 558.9 539.25 566 531.88 571.29C529.18 573.23 526.85 574.9 525.09 575.95C523.76 576.74 522.51 577.65 522.46 578.91C522.38 580.78 525 581.77 526.13 582.12C533.77 584.43 541.99 585.15 549.92 584.2C552.86 583.85 556.63 583.17 559.6 581.06C563.41 578.36 565.38 572.52 564.29 567.19C563.4 562.86 560.67 559.89 556.8 559.05C556.35 558.95 555.86 558.91 555.36 558.91L555.37 558.9Z" fill="white"/>
<path d="M196.14 653.76C190.64 653.76 185.23 653.17 180.22 652.63C154.27 649.82 129 646.61 105.22 638.27C87.18 631.95 54.93 616.69 41.73 585.49C37.44 575.35 35.16 563.76 34.33 547.91C33.21 526.38 34.94 504.78 39.47 483.71C41.64 473.62 44.19 464.93 47.27 457.14C51.52 446.38 57.27 436.15 62.83 426.26L64.22 423.78C75.4 403.8 90.71 376.43 114.35 372.32C123.33 370.76 131.21 371.83 139.55 372.97C143.2 373.47 146.98 373.98 150.92 374.27C166.92 375.45 183.19 373.14 198 367.6C205.63 364.75 213.19 360.96 220.51 357.3C236.12 349.49 252.27 341.41 269.79 342.05C272.5 342.15 275.96 342.5 278.69 344.36C281.71 346.42 283.29 349.93 284.33 352.75C287.27 360.72 288.29 369.38 287.29 377.82C286.87 381.33 286.2 383.87 285.09 386.08C283.28 389.69 280.23 392.44 277.28 395.11L276.82 395.53C258.27 412.31 245.29 429.22 237.12 447.22C227.41 468.61 225.12 491.29 230.66 511.06C232.35 517.08 234.8 522.98 237.17 528.68C238.14 531.01 239.14 533.41 240.08 535.8C248.02 556.01 252.32 576.9 252.86 597.9C253.11 607.66 252.53 621.8 244.62 631.97C240.06 637.84 233.6 641.76 227.88 644.83C222.67 647.62 214.75 651.51 206.16 652.99C202.85 653.56 199.49 653.78 196.15 653.78L196.14 653.76ZM123.67 372.54C120.71 372.54 117.68 372.76 114.52 373.3C91.35 377.32 76.17 404.45 65.09 424.26L63.7 426.74C58.16 436.61 52.43 446.81 48.2 457.5C45.14 465.24 42.6 473.88 40.45 483.91C35.94 504.9 34.21 526.41 35.33 547.85C36.15 563.58 38.41 575.07 42.65 585.09C55.7 615.93 87.66 631.05 105.55 637.32C129.24 645.62 154.44 648.82 180.33 651.62C188.3 652.48 197.33 653.46 205.97 651.97C214.42 650.51 222.24 646.67 227.39 643.91C233.01 640.89 239.36 637.04 243.81 631.32C251.53 621.4 252.09 607.49 251.84 597.89C251.3 577.01 247.03 556.23 239.13 536.13C238.2 533.75 237.2 531.35 236.23 529.03C233.85 523.3 231.38 517.38 229.68 511.3C224.07 491.3 226.39 468.39 236.19 446.78C244.41 428.65 257.48 411.63 276.13 394.76L276.59 394.34C279.47 391.74 282.45 389.05 284.17 385.61C285.22 383.51 285.87 381.07 286.27 377.68C287.25 369.4 286.25 360.9 283.36 353.08C282.37 350.4 280.88 347.07 278.09 345.17C275.57 343.45 272.29 343.12 269.72 343.03C252.43 342.41 236.42 350.43 220.92 358.18C213.58 361.85 205.99 365.65 198.32 368.52C183.38 374.11 166.96 376.44 150.82 375.25C146.85 374.96 143.06 374.44 139.39 373.94C134.09 373.22 128.97 372.52 123.65 372.52L123.67 372.54Z" fill="white"/>
<path d="M726.13 694.91C712.63 694.91 699.12 690.62 688.24 682.62C681.93 677.98 676.5 672.16 671.25 666.54C668.95 664.08 666.58 661.54 664.17 659.13C659.8 654.77 653.04 648.55 644.93 645.01C642.54 643.97 639.11 643.52 635.47 643.06C629.67 642.31 623.67 641.54 620.83 638.19C619.31 636.4 618.8 634.09 619.31 631.31C621.16 621.27 636.42 607.18 642.37 603.92C652.4 598.42 665.19 597.75 675.73 602.19C677.25 602.83 678.77 603.58 680.23 604.31C684.01 606.18 687.92 608.12 692.09 608.2C696.59 608.28 700.91 606.2 704.9 604.06C708.55 602.1 712.27 599.97 715.88 597.91C732.92 588.17 750.55 578.11 769.9 579.69C772.01 579.86 774.65 580.3 776.24 582.14C777.4 583.48 777.76 585.25 777.98 586.97C779.72 600.64 774.1 615.29 763.65 624.27C763.14 624.71 762.62 625.13 762.1 625.56C759.82 627.44 757.46 629.38 756.29 632.02C754.48 636.11 755.91 640.71 757.29 645.16C757.78 646.75 758.29 648.39 758.65 650C761.51 662.76 755.09 675.45 748.84 686.35C747.91 687.97 746.86 689.8 745.23 691.1C743.51 692.46 741.33 693.07 739.23 693.52C734.93 694.45 730.52 694.91 726.12 694.91H726.13ZM642.61 604.35L642.85 604.79C637.03 607.98 622.09 621.74 620.29 631.49C619.83 633.96 620.27 635.99 621.58 637.54C624.18 640.6 629.98 641.34 635.59 642.07C639.3 642.55 642.8 643 645.32 644.1C653.59 647.72 660.44 654.01 664.87 658.43C667.29 660.85 669.67 663.4 671.98 665.86C677.2 671.45 682.6 677.24 688.83 681.82C703.03 692.27 721.79 696.28 739.02 692.55C741 692.12 743.05 691.55 744.6 690.32C746.08 689.14 747.08 687.4 747.97 685.86C754.12 675.13 760.45 662.64 757.67 650.22C757.32 648.65 756.82 647.03 756.33 645.46C754.9 640.83 753.41 636.05 755.37 631.62C756.63 628.76 759.09 626.74 761.46 624.79C761.98 624.37 762.49 623.94 762.99 623.51C773.19 614.73 778.69 600.44 776.99 587.09C776.79 585.53 776.47 583.93 775.49 582.79C774.14 581.23 771.87 580.85 769.83 580.69C750.78 579.13 733.3 589.12 716.39 598.78C712.78 600.84 709.05 602.97 705.39 604.94C701.28 607.15 696.86 609.3 692.08 609.2C687.68 609.11 683.67 607.13 679.8 605.21C678.35 604.49 676.84 603.75 675.35 603.12C665.08 598.8 652.62 599.45 642.85 604.81L642.61 604.37V604.35Z" fill="white"/>
<path d="M719.87 677.31C698.89 677.31 678.33 663.15 670.89 643.53C670.67 642.96 670.46 642.37 670.24 641.78C668.52 637.08 666.74 632.22 662.44 630.4C660.55 629.6 658.43 629.54 656.38 629.48L632.1 628.8L631.97 628.52C630.64 625.72 630.63 623.35 631.95 621.49C636.35 615.29 654.43 617.05 656.48 617.27C668.58 618.57 680.2 623.58 689.21 631.36L689.7 631.78C690.99 632.91 692.33 634.07 693.9 634.68C698.87 636.6 704.12 632.59 707.64 629.41C711.85 625.61 716.8 621.66 722.13 622.94C728.08 624.37 730.49 631.2 731.92 636.99C734.84 648.79 737.38 662.21 730.64 672.2C729.44 673.98 728.19 675.21 726.81 675.98C724.78 677.11 722.44 677.28 720.22 677.3C720.1 677.3 719.99 677.3 719.88 677.3L719.87 677.31ZM632.74 627.82L656.41 628.48C658.45 628.54 660.77 628.6 662.84 629.48C667.54 631.47 669.48 636.76 671.19 641.43C671.4 642.02 671.62 642.6 671.83 643.17C679.13 662.42 699.3 676.3 719.87 676.3C719.98 676.3 720.09 676.3 720.21 676.3C722.3 676.28 724.49 676.13 726.32 675.11C727.56 674.42 728.7 673.29 729.81 671.64C736.32 661.99 733.94 649.35 730.94 637.23C729.58 631.71 727.31 625.22 721.89 623.92C717.01 622.75 712.51 626.36 708.3 630.16C704.58 633.51 699.01 637.73 693.53 635.62C691.8 634.95 690.39 633.73 689.04 632.54L688.56 632.12C679.7 624.47 668.27 619.54 656.37 618.26C649.16 617.48 636.07 617.41 632.77 622.07C631.72 623.56 631.71 625.49 632.75 627.81L632.74 627.82Z" fill="white"/>
<path d="M709.84 663.83C707.18 663.83 704.16 663.28 701.57 661.43C699.39 659.87 697.92 657.6 697.54 655.2C697.16 652.81 697.64 650.85 698.96 649.39C701.57 646.51 706.92 646.19 710.94 646.44C713.33 646.59 715.6 647.84 717.35 649.99C720.07 653.33 719.12 657.22 717.83 660.6C717.63 661.12 717.39 661.76 716.89 662.26C716.27 662.89 715.42 663.12 714.67 663.29C713.43 663.57 711.72 663.84 709.84 663.84V663.83ZM708.89 647.38C705.77 647.38 701.71 647.86 699.7 650.07C698.59 651.29 698.2 652.97 698.53 655.05C698.87 657.18 700.19 659.22 702.15 660.62C706.26 663.57 711.62 662.94 714.45 662.31C715.06 662.17 715.75 661.99 716.19 661.55C716.51 661.23 716.69 660.79 716.9 660.24C718.09 657.13 718.98 653.56 716.58 650.62C715.01 648.7 712.99 647.57 710.89 647.44C710.3 647.4 709.62 647.38 708.9 647.38H708.89Z" fill="white"/>
<path d="M574.74 463.6C561.9 463.6 549.96 457.05 545.07 447.07C541.77 440.33 540.98 434.77 542.66 430.08C545.39 422.45 554.32 418.37 562.97 414.42C570.37 411.04 578.03 407.54 581.6 401.88C585.13 396.3 587.21 389.84 589.22 383.59C589.56 382.54 589.9 381.48 590.24 380.44C593.31 371.12 597.52 360.61 605.38 353.32C615.39 344.03 627.55 343.94 634.61 347.79C639.82 350.63 643.48 355.62 647.02 360.45C651.29 366.27 655.31 371.77 661.79 373.71C666.21 375.03 670.73 374.33 675.53 373.6C678.91 373.08 682.39 372.54 685.83 372.78C698.63 373.67 707.94 384.66 714.61 394.13C723.29 406.44 725.76 416.25 722.17 424.12C718.19 432.85 707.88 436.02 700.27 436.09C693.73 436.16 687.29 434.52 681.05 432.95C679.02 432.44 676.92 431.91 674.85 431.45C658.37 427.77 644.22 428.68 632.79 434.17C627.03 436.94 621.86 440.96 616.86 444.86C615.3 446.07 613.75 447.29 612.17 448.46C599.7 457.78 588.37 462.71 577.51 463.51C576.58 463.58 575.65 463.61 574.72 463.61L574.74 463.6ZM545.97 446.64C551.03 456.98 563.96 463.5 577.45 462.51C588.11 461.72 599.27 456.86 611.58 447.66C613.15 446.49 614.7 445.28 616.25 444.07C621.29 440.15 626.5 436.09 632.36 433.27C644 427.68 658.37 426.74 675.07 430.47C677.15 430.93 679.25 431.47 681.29 431.98C687.46 433.54 693.8 435.15 700.25 435.09C707.57 435.03 717.46 432.01 721.24 423.71C724.67 416.19 722.23 406.71 713.77 394.71C707.22 385.42 698.12 374.65 685.73 373.79C682.41 373.56 678.98 374.09 675.66 374.6C670.97 375.32 666.12 376.07 661.48 374.68C654.69 372.65 650.37 366.75 646.19 361.05C642.72 356.31 639.12 351.4 634.11 348.67C627.35 344.99 615.69 345.11 606.04 354.06C598.35 361.2 594.21 371.57 591.17 380.77C590.83 381.82 590.49 382.87 590.15 383.92C588.12 390.23 586.02 396.74 582.42 402.43C578.68 408.34 570.89 411.9 563.36 415.34C554.91 419.2 546.17 423.2 543.58 430.43C542 434.86 542.77 440.16 545.95 446.65L545.97 446.64Z" fill="white"/>
<path d="M587.13 440.46C585.76 440.46 584.39 440.21 583.04 439.65C582.23 439.31 581.64 438.94 581.19 438.47C580.15 437.4 579.76 435.67 580.12 433.74C580.91 429.43 583.98 427.06 586.95 424.76C588.05 423.91 589.18 423.04 590.19 422.07C594.19 418.24 595.58 415.27 597.51 411.15C598.04 410.02 598.61 408.81 599.28 407.47C604.71 396.69 613.35 391.39 622.99 392.93C628.07 393.74 632.03 396.65 633.31 400.51C634.46 403.98 633.33 407.71 630.13 411.02C627.62 413.61 623.98 414.76 620.45 415.87C617.6 416.77 614.65 417.7 612.38 419.39C609.36 421.63 607.05 424.83 604.81 427.92C603.72 429.42 602.6 430.97 601.42 432.39C598 436.46 592.6 440.45 587.14 440.45L587.13 440.46ZM581.1 433.91C580.96 434.67 580.76 436.58 581.91 437.77C582.26 438.14 582.74 438.44 583.43 438.72C589.65 441.31 596.6 436.59 600.65 431.75C601.81 430.36 602.92 428.83 604 427.34C606.28 424.19 608.64 420.93 611.78 418.59C614.18 416.8 617.21 415.85 620.15 414.92C623.71 413.8 627.08 412.73 629.41 410.32C632.34 407.29 633.39 403.92 632.36 400.82C631.19 397.31 627.54 394.66 622.83 393.91C609.81 391.82 602.64 403 600.17 407.91C599.5 409.24 598.94 410.44 598.41 411.56C596.43 415.77 595 418.81 590.87 422.77C589.83 423.77 588.67 424.66 587.55 425.53C584.6 427.81 581.81 429.96 581.09 433.9L581.1 433.91Z" fill="white"/>
<path d="M516.5 303.79C503.42 303.79 490.65 301.99 479.33 299.95C469.89 298.25 459.2 295.85 451.75 288.87C443.26 280.91 440.02 267.08 443.69 254.45C447.62 240.91 457.75 231.21 465.56 225.46C468.34 223.41 471.3 221.49 474.16 219.63C480.35 215.62 486.74 211.47 491.57 205.83C495.69 201.02 498.62 195.18 501.46 189.53C504.89 182.71 508.43 175.66 514.09 170.36C515.33 169.2 516.67 168.12 517.98 167.08C520.61 164.97 523.32 162.79 525.13 159.96C526.82 157.32 527.67 154.17 528.49 151.13C529.34 148 530.21 144.76 532 141.98C538.64 131.66 554.02 132.42 562.6 133.8C573.22 135.51 582.37 138.62 589.78 143.05C594.32 145.76 597.29 149.57 600.16 153.25C602.55 156.32 604.81 159.21 607.89 161.49C611.76 164.35 617.32 165.5 622.7 166.61C626.25 167.34 629.91 168.1 632.99 169.35C643.52 173.63 651.92 179.5 657.96 186.78C669.91 201.21 672.5 226.5 657.11 239.73C650.16 245.7 641.09 248.06 632.32 250.34C627.86 251.5 623.26 252.7 618.98 254.35C607.13 258.93 597.13 267.31 587.46 275.4C579.74 281.86 571.76 288.54 562.81 293.36C548.28 301.19 532.17 303.77 516.5 303.77V303.79ZM553.15 134.02C545.61 134.02 537.2 135.77 532.85 142.53C531.14 145.18 530.29 148.34 529.47 151.4C528.63 154.51 527.76 157.73 525.99 160.51C524.09 163.48 521.31 165.72 518.62 167.87C517.33 168.9 516 169.97 514.79 171.1C509.26 176.27 505.76 183.24 502.37 189.98C499.5 195.68 496.54 201.58 492.34 206.48C487.42 212.23 480.96 216.42 474.71 220.47C471.86 222.32 468.91 224.23 466.16 226.26C458.47 231.92 448.51 241.46 444.65 254.73C441.09 267.01 444.22 280.43 452.44 288.14C459.68 294.93 470.21 297.28 479.51 298.96C504.21 303.42 535.94 306.71 562.33 292.49C571.19 287.72 579.13 281.07 586.81 274.64C596.54 266.49 606.61 258.07 618.61 253.42C622.94 251.74 627.58 250.54 632.06 249.37C640.72 247.12 649.68 244.79 656.45 238.97C668.45 228.66 671.7 204.95 657.18 187.42C651.25 180.26 642.98 174.49 632.61 170.27C629.62 169.06 626.16 168.34 622.5 167.58C617.02 166.45 611.35 165.27 607.3 162.28C604.11 159.92 601.7 156.83 599.37 153.85C596.56 150.24 593.64 146.51 589.27 143.89C581.97 139.53 572.94 136.46 562.44 134.77C559.83 134.35 556.57 133.99 553.14 133.99L553.15 134.02Z" fill="white"/>
<path d="M516.7 316.67C513.14 316.67 509.6 316.45 506.1 316.01C490.15 313.98 475.25 307.47 460.85 301.17L436.17 290.38C424.26 285.17 412.28 279.12 408.11 267.55C403.88 255.78 409.97 243.01 417.08 234.99C422.01 229.43 427.99 224.82 433.78 220.37C437.1 217.81 440.53 215.17 443.73 212.38C458.14 199.78 468.7 183.25 478.92 167.27C482.5 161.67 486.21 155.87 490.02 150.33C497.77 139.08 508.56 125.22 523.38 117.77C538.52 110.16 556.06 109.87 571.23 110.59C587.46 111.36 603.15 114.95 618.33 118.42C629.91 121.07 641.88 123.8 654.01 125.27C654.99 125.39 656.05 125.47 657.12 125.56C661.15 125.88 665.33 126.2 666.51 128.54C667.16 129.81 666.84 131.46 665.54 133.58C663.3 137.23 657.74 138.63 651.85 140.11C645.83 141.62 639.6 143.19 637.17 147.28C635.96 149.32 635.76 151.83 636.57 154.96C638.18 161.18 645.35 162.62 652.29 164.01C654.48 164.45 656.74 164.9 658.77 165.5C674.76 170.2 682.21 189.22 680.18 204.9C678.05 221.27 668.27 235.55 659.64 248.16C657.14 251.81 654.3 255.95 650.31 258.62C645.88 261.58 640.5 262.46 635.31 263.32C633.7 263.58 632.04 263.86 630.44 264.19C613.97 267.59 600.11 278.01 586.7 288.08C579.12 293.78 571.28 299.67 562.98 304.32C548.48 312.43 532.38 316.7 516.7 316.7V316.67ZM561.25 111.32C548.82 111.32 535.57 112.76 523.83 118.65C509.21 126 498.52 139.74 490.84 150.89C487.03 156.42 483.33 162.21 479.75 167.8C469.5 183.84 458.89 200.43 444.38 213.13C441.16 215.94 437.72 218.6 434.39 221.16C428.64 225.59 422.7 230.16 417.83 235.65C410.91 243.46 404.97 255.86 409.05 267.21C413.08 278.41 424.85 284.35 436.57 289.47L461.25 300.26C475.59 306.53 490.42 313.01 506.23 315.02C524.91 317.4 544.89 313.28 562.5 303.42C570.74 298.81 578.55 292.94 586.11 287.26C599.61 277.12 613.56 266.63 630.24 263.19C631.86 262.86 633.53 262.58 635.15 262.31C640.24 261.47 645.5 260.61 649.76 257.77C653.59 255.21 656.37 251.15 658.82 247.58C667.39 235.07 677.1 220.89 679.19 204.76C681.17 189.5 673.97 171 658.49 166.45C656.5 165.86 654.26 165.41 652.09 164.98C644.85 163.53 637.36 162.02 635.6 155.2C634.72 151.8 634.95 149.04 636.31 146.75C638.95 142.3 645.39 140.68 651.61 139.12C657.29 137.69 662.66 136.34 664.69 133.04C665.78 131.27 666.09 129.9 665.62 128.98C664.69 127.15 660.62 126.83 657.04 126.55C655.98 126.47 654.88 126.38 653.88 126.26C641.7 124.78 629.7 122.04 618.1 119.39C602.96 115.93 587.31 112.35 571.17 111.59C567.95 111.44 564.62 111.33 561.24 111.33L561.25 111.32Z" fill="white"/>
<path d="M180.46 326.42C174.37 326.42 167.92 325 162.14 323.41L145.31 318.79C142.85 318.12 140.07 317.35 137.86 315.65C134.18 312.81 132.78 307.93 131.9 303.53C127.58 282.01 129.31 259.67 130.98 238.07C131.61 229.97 132.25 221.6 132.57 213.39C132.92 204.33 132.88 195.08 132.85 186.15C132.79 170.72 132.72 154.77 134.66 139.21C137.17 119.09 144.51 91.2699 165.25 72.9999C180.58 59.4999 201.08 53.1499 219.16 47.5599C235.71 42.4399 252.82 37.1399 270.48 35.5399C284.26 34.2899 304.34 34.9799 321.7 45.3199C326.02 47.8899 330.05 50.9999 333.96 54.0099C336.26 55.7799 338.64 57.6099 341.04 59.3099C350 65.6299 359.9 71.1299 369.7 75.2199C373.69 75.2299 377.68 75.8399 381.54 76.4299C385.58 77.0499 389.76 77.6999 393.88 77.6199C395.26 77.5999 396.65 77.5399 398.04 77.4699C401.45 77.3199 404.97 77.1599 408.42 77.6499C414.08 78.4499 418.63 81.0999 420.9 84.9099C428.35 97.3999 402.73 113.5 401.63 114.18C399.63 115.42 397.53 116.63 395.51 117.8C388.38 121.92 381.01 126.18 376.07 132.75C373.29 136.45 371.36 140.81 369.49 145.03C367.38 149.78 365.2 154.7 361.79 158.74C356.07 165.52 347.69 169.03 339.58 172.41C335.45 174.14 331.18 175.92 327.31 178.12C319.36 182.63 312.65 189.14 306.16 195.45C301.76 199.72 297.22 204.14 292.29 207.93C284.56 213.89 275.71 218.46 267.16 222.88C257.34 227.95 247.18 233.2 238.77 240.54C220.31 256.66 211.88 280.63 204.19 305.84C202.7 310.72 201.02 316.24 197.25 320.21C192.85 324.84 186.84 326.42 180.43 326.42H180.46ZM280.57 36.0799C276.99 36.0799 273.63 36.2599 270.58 36.5399C253.03 38.1299 235.96 43.4099 219.46 48.5199C201.47 54.0899 181.09 60.3899 165.91 73.7599C145.4 91.8199 138.13 119.39 135.65 139.35C133.72 154.85 133.79 170.77 133.85 186.17C133.89 195.12 133.93 204.37 133.57 213.46C133.25 221.69 132.6 230.07 131.97 238.18C130.3 259.71 128.58 281.98 132.87 303.37C133.76 307.8 135.05 312.26 138.46 314.89C140.51 316.47 143.19 317.21 145.56 317.86L162.39 322.48C173.98 325.66 188.32 328.2 196.53 319.56C200.14 315.76 201.79 310.35 203.24 305.58C210.97 280.22 219.45 256.11 238.12 239.81C246.62 232.39 256.83 227.11 266.71 222.01C275.22 217.61 284.03 213.07 291.69 207.16C296.57 203.4 301.09 199.01 305.47 194.75C312 188.4 318.76 181.84 326.82 177.27C330.75 175.04 335.05 173.24 339.2 171.51C347.19 168.17 355.46 164.71 361.03 158.11C364.35 154.17 366.5 149.33 368.58 144.64C370.47 140.37 372.43 135.96 375.28 132.17C380.34 125.44 387.8 121.13 395.01 116.95C397.03 115.78 399.11 114.58 401.1 113.34C410.08 107.76 425.6 94.7599 420.03 85.4299C417.91 81.8799 413.63 79.4099 408.27 78.6499C404.91 78.1699 401.43 78.3299 398.07 78.4799C396.67 78.5399 395.28 78.6099 393.88 78.6299C389.65 78.6899 385.45 78.0499 381.38 77.4199C377.52 76.8299 373.53 76.2199 369.59 76.2199L369.4 76.1799C359.51 72.0599 349.5 66.5099 340.46 60.1299C338.04 58.4199 335.65 56.5799 333.34 54.8099C329.46 51.8199 325.44 48.7299 321.18 46.1899C307.88 38.2699 292.95 36.0899 280.55 36.0899L280.57 36.0799Z" fill="white"/>
<path d="M179.93 294.88C178.89 294.88 177.81 294.7 176.71 294.33C172.48 292.91 168.89 289.12 167.79 284.89C166.18 278.75 167.93 272.45 169.63 266.35C169.9 265.38 170.17 264.41 170.42 263.45C175.33 244.85 174.7 225.1 174.08 206L174.04 204.65C173.48 187.16 172.79 165.4 178.78 145.68C194.51 93.96 237.38 99.28 278.83 104.43C304.6 107.63 331.05 104.44 355.33 95.22C357.52 94.39 359.75 93.51 362 92.62C379.03 85.88 396.63 78.91 412.11 87.13C413.21 87.72 414.46 88.47 415.34 89.62C417.62 92.59 416.48 96.87 414.25 99.39C411.99 101.95 408.78 103.31 405.69 104.62C389.69 111.41 371.75 120.28 359.51 134.71C358.57 135.82 357.64 136.98 356.75 138.11C354.77 140.6 352.72 143.18 350.33 145.39C347.12 148.36 343.34 150.63 340.05 152.52C324.14 161.67 307.1 168.8 289.41 173.72C282.45 175.65 275.29 177.27 268.35 178.84C256.13 181.6 243.49 184.45 231.67 189.12C218.32 194.4 209.95 201.47 206.8 210.14C205.37 214.06 205.01 218.35 204.66 222.49C204.5 224.42 204.33 226.41 204.05 228.35C202.68 238.09 198.59 247.39 194.63 256.39C189.28 268.57 184.22 280.07 185.14 292.74L185.16 293L184.95 293.16C183.5 294.3 181.78 294.88 179.93 294.88ZM241.5 102.3C233.53 102.3 225.85 102.99 218.74 104.84C199.12 109.93 186.72 123 179.73 145.98C173.78 165.54 174.47 187.21 175.03 204.63L175.07 205.98C175.69 225.15 176.32 244.98 171.37 263.72C171.11 264.69 170.84 265.66 170.57 266.64C168.91 272.61 167.19 278.78 168.73 284.66C169.74 288.51 173.14 292.11 177.01 293.4C179.64 294.28 182.16 293.98 184.11 292.55C183.27 279.73 188.57 267.67 193.7 255.99C197.63 247.05 201.69 237.81 203.04 228.21C203.31 226.29 203.48 224.32 203.64 222.41C204 218.2 204.37 213.85 205.84 209.8C209.1 200.85 217.66 193.58 231.29 188.2C243.18 183.5 255.86 180.64 268.12 177.87C275.04 176.31 282.2 174.69 289.13 172.77C306.74 167.88 323.7 160.78 339.54 151.67C342.78 149.81 346.5 147.58 349.64 144.67C351.97 142.51 354 139.96 355.96 137.5C356.86 136.37 357.79 135.2 358.74 134.08C371.12 119.49 389.19 110.56 405.23 103.74C408.28 102.44 411.38 101.13 413.5 98.74C415.49 96.49 416.42 92.7 414.54 90.25C413.78 89.26 412.64 88.57 411.63 88.04C396.55 80.04 379.17 86.92 362.35 93.58C360.1 94.47 357.87 95.35 355.67 96.19C331.24 105.47 304.62 108.67 278.69 105.45C266.24 103.91 253.53 102.33 241.49 102.33L241.5 102.3Z" fill="white"/>
<path d="M241.49 170.02C238.83 170.02 236.24 169.8 233.7 169.37C228.86 168.55 225.32 166.97 222.89 164.55C216.97 158.65 215.58 147.76 219.37 136.82C223.04 126.21 230.32 119.02 238.36 118.07C243.73 117.43 249.62 118.95 255.32 120.43C258.08 121.14 260.7 121.82 263.18 122.23C277.2 124.57 289.44 125.26 300.59 124.34C317.87 122.92 335.49 117.2 351.52 107.8C352.52 107.21 353.53 106.61 354.55 106C364.95 99.8099 376.74 92.7799 388.28 96.6699L389.69 97.1399L388.28 97.6099C378.73 100.82 370.67 107.32 362.87 113.61C357.63 117.83 352.21 122.2 346.34 125.6C339.84 129.36 332.69 132 325.77 134.55C321.52 136.12 317.12 137.74 312.93 139.6C305.34 142.97 298.06 147.3 291.03 151.49C285.94 154.52 280.68 157.64 275.33 160.4C262.83 166.83 251.68 170 241.49 170V170.02ZM240.99 118.92C240.14 118.92 239.31 118.96 238.49 119.06C229.33 120.14 223.1 129.11 220.33 137.14C216.67 147.72 217.96 158.2 223.62 163.83C225.9 166.1 229.26 167.59 233.89 168.37C245.92 170.41 259.34 167.51 274.89 159.51C280.22 156.77 285.46 153.65 290.54 150.63C297.6 146.43 304.9 142.09 312.55 138.69C316.77 136.81 321.19 135.19 325.45 133.61C332.33 131.07 339.44 128.45 345.86 124.73C351.67 121.37 357.06 117.02 362.27 112.82C369.74 106.8 377.45 100.58 386.53 97.1699C375.88 94.4599 364.86 101.02 355.08 106.84C354.06 107.45 353.04 108.05 352.04 108.64C335.88 118.11 318.12 123.88 300.69 125.31C289.45 126.24 277.13 125.54 263.03 123.19C260.5 122.77 257.87 122.09 255.08 121.37C250.36 120.15 245.5 118.9 240.99 118.9V118.92Z" fill="white"/>
<path d="M184.05 602.94C177.27 602.94 170.28 601.36 163.43 599.81C161.21 599.31 158.92 598.79 156.7 598.34C152.94 597.58 148.98 596.95 145.14 596.34C129.83 593.9 113.99 591.38 103.81 580C86.9 561.1 88.22 516.93 96.52 496.01C106.2 471.59 125.35 441.03 146.29 427.81C153.53 423.24 161.44 419.64 169.08 416.17C178.03 412.1 187.28 407.9 195.46 402.11C200.28 398.7 204.79 394.71 209.15 390.85C211.44 388.82 213.81 386.73 216.2 384.73C230.38 372.91 246.39 363.79 263.78 357.61L264.14 357.48L264.36 357.79C268.59 363.72 263.29 371.61 257.46 376.56C252.77 380.55 247.81 384.35 243 388.03C235.9 393.47 228.56 399.1 222.02 405.39C220.94 406.43 219.87 407.57 218.74 408.78C216.52 411.15 214.22 413.6 211.73 415.34C209.79 416.7 207.65 417.59 205.58 418.45C202.29 419.82 199.17 421.12 196.85 424.15C194.97 426.59 194.26 430.12 195.03 433.14C195.59 435.35 196.91 437.01 198.73 437.81C201.95 439.23 205.59 437.86 209.1 436.54C209.97 436.21 210.83 435.89 211.68 435.6C214.95 434.51 218.87 434.79 221.23 436.27C222.65 437.17 223.51 438.48 223.71 440.05C224.11 443.28 221.64 445.49 219.25 447.63C217.85 448.89 216.39 450.19 215.51 451.69C213.74 454.69 214.29 458.23 214.87 461.98C215.09 463.41 215.32 464.88 215.4 466.31C215.59 469.43 215.06 472.56 214.55 475.58C214.04 478.63 213.51 481.78 213.73 484.86C214.2 491.38 213.77 497.23 213.36 502.88C212.81 510.32 212.3 517.34 213.69 525.67L213.81 526.39C216.43 542.03 219.7 561.49 215.35 577.25C212.39 587.98 205.58 596.61 197.14 600.34C192.93 602.2 188.53 602.9 184.03 602.9L184.05 602.94ZM196.04 402.93C187.78 408.77 178.48 412.99 169.49 417.08C161.88 420.54 154 424.12 146.82 428.66C126.07 441.76 107.07 472.11 97.45 496.38C89.24 517.07 87.89 560.71 104.56 579.34C114.5 590.45 130.16 592.95 145.3 595.36C149.14 595.97 153.11 596.6 156.9 597.37C159.13 597.82 161.43 598.34 163.66 598.85C174.89 601.39 186.5 604.02 196.76 599.49C204.93 595.88 211.53 587.48 214.41 577.05C218.7 561.5 215.46 542.16 212.85 526.62L212.73 525.9C211.31 517.45 211.83 510.36 212.38 502.87C212.79 497.25 213.22 491.44 212.75 485C212.52 481.79 213.06 478.58 213.58 475.48C214.08 472.51 214.59 469.44 214.41 466.44C214.33 465.06 214.1 463.61 213.89 462.2C213.31 458.44 212.71 454.55 214.65 451.24C215.61 449.61 217.12 448.25 218.58 446.95C220.88 444.89 223.05 442.95 222.71 440.24C222.55 438.95 221.87 437.92 220.69 437.18C218.57 435.84 214.99 435.61 211.99 436.61C211.15 436.89 210.31 437.21 209.45 437.53C205.75 438.93 201.92 440.38 198.32 438.78C196.21 437.85 194.69 435.95 194.05 433.44C193.21 430.13 193.99 426.27 196.05 423.59C198.54 420.35 201.92 418.94 205.19 417.58C207.21 416.74 209.3 415.87 211.15 414.57C213.56 412.88 215.82 410.47 218 408.14C219.14 406.92 220.21 405.78 221.32 404.71C227.9 398.38 235.26 392.73 242.39 387.27C247.18 383.6 252.14 379.8 256.81 375.83C262.21 371.24 267.18 364.06 263.75 358.71C246.61 364.84 230.82 373.86 216.84 385.52C214.46 387.5 212.1 389.59 209.81 391.62C205.43 395.5 200.9 399.51 196.03 402.95L196.04 402.93Z" fill="white"/>
<path d="M175.52 589.5C173.5 589.5 171.32 589.35 168.97 589.04C162.14 588.16 155.29 586.75 148.67 585.38C133.25 582.2 116.18 577.66 108.81 563.86C102.87 552.74 105.49 539.05 108.43 528.36C114.77 505.34 123.71 487.76 135.78 474.64C140.3 469.73 145.7 464.06 151.55 459.3C161.08 451.54 169.26 448.35 175.83 449.82C180.99 450.97 185.25 454.99 188.49 461.75C191.12 467.24 191.35 473.6 191.54 479.21L194.59 565.6C194.83 572.34 194.71 579.32 190.47 584.12C187.3 587.72 182.36 589.5 175.49 589.5H175.52ZM152.19 460.09C146.4 464.81 141.02 470.44 136.53 475.33C124.57 488.34 115.7 505.78 109.4 528.64C106.51 539.15 103.93 552.59 109.7 563.4C116.86 576.81 133.68 581.28 148.88 584.41C155.48 585.77 162.31 587.18 169.1 588.06C179.12 589.36 185.88 587.86 189.75 583.47C193.74 578.95 193.85 572.18 193.62 565.65L190.57 479.26C190.38 473.75 190.16 467.5 187.61 462.2C184.51 455.73 180.48 451.9 175.63 450.82C169.36 449.42 161.48 452.54 152.19 460.1V460.09Z" fill="white"/>
<path d="M288.8 522.87C288.36 522.87 287.92 522.8 287.49 522.66L287.33 522.61L287.23 522.47C273.79 503.42 274.91 475.54 289.85 457.63C291.03 456.22 292.31 454.83 293.54 453.49C297.05 449.68 300.68 445.74 302.31 440.86C303.28 437.96 303.53 434.73 303.77 431.61C304.15 426.79 304.53 421.81 307.58 417.97C309.51 415.54 312.22 413.98 314.84 412.46C316.32 411.6 317.86 410.72 319.22 409.69C325.34 405.07 328.23 397.55 331.03 390.28C332 387.76 333 385.16 334.13 382.7C337.85 374.59 346.66 367.68 357.12 364.66C367.04 361.8 376.79 362.81 383.87 367.44C389.12 370.87 392.16 376.5 395.09 381.95C396.79 385.1 398.54 388.35 400.71 391.16C408.21 400.88 420.37 405.17 432.13 409.32C435.44 410.49 438.85 411.7 442.1 413C446.37 414.72 451.1 417.03 453.78 421.14C458.09 427.76 455.86 436.38 452.8 444.7C449.94 452.5 446.82 459.8 440.25 463.46C435.22 466.27 429.27 466.22 423.53 466.18H422.57C407.34 466.08 392.09 467.69 377.23 470.95C373.75 471.71 370.12 472.65 367.42 474.89C365.95 476.11 364.77 477.72 363.63 479.27C362.41 480.93 361.15 482.64 359.51 483.96C354.47 487.99 347.68 487.35 341.12 486.73C340.38 486.66 339.64 486.59 338.91 486.53C328.89 485.68 318.54 486.88 308.99 489.99C305.4 491.16 293.66 495.7 293.31 505.05C293.24 506.81 293.62 508.61 293.98 510.34C294.34 512.07 294.72 513.86 294.68 515.67C294.63 518.07 293.32 520.66 291.48 521.96C290.63 522.57 289.72 522.88 288.8 522.88V522.87ZM287.95 521.75C289.19 522.09 290.23 521.61 290.9 521.14C292.49 520.01 293.63 517.75 293.68 515.64C293.71 513.94 293.35 512.21 293 510.53C292.62 508.74 292.24 506.88 292.31 505C292.68 495.01 304.93 490.25 308.68 489.03C318.37 485.87 328.85 484.66 339 485.52C339.73 485.58 340.47 485.65 341.22 485.72C347.59 486.32 354.17 486.94 358.89 483.16C360.43 481.92 361.65 480.27 362.83 478.66C364.01 477.06 365.22 475.41 366.79 474.11C369.66 471.73 373.42 470.76 377.02 469.97C391.96 466.7 407.3 465.08 422.58 465.17H423.54C429.16 465.22 434.96 465.26 439.77 462.58C446.04 459.08 449.07 451.96 451.87 444.35C454.84 436.27 457.02 427.93 452.95 421.68C450.43 417.81 446.07 415.67 441.74 413.92C438.51 412.62 435.1 411.42 431.81 410.25C419.92 406.05 407.62 401.7 399.94 391.76C397.73 388.89 395.95 385.6 394.23 382.42C391.22 376.84 388.38 371.57 383.34 368.27C376.5 363.8 367.05 362.83 357.41 365.62C347.22 368.56 338.65 375.27 335.05 383.12C333.94 385.54 332.94 388.13 331.98 390.64C329.13 398.04 326.18 405.69 319.84 410.49C318.43 411.56 316.87 412.46 315.36 413.33C312.7 414.86 310.19 416.31 308.39 418.59C305.53 422.19 305.17 426.8 304.79 431.68C304.54 434.86 304.29 438.15 303.28 441.17C301.59 446.25 297.88 450.27 294.3 454.16C293.07 455.49 291.8 456.87 290.64 458.26C276.03 475.79 274.89 503.05 287.97 521.74L287.95 521.75Z" fill="white"/>
<path d="M352.54 399.44C352.02 399.44 351.49 399.39 350.97 399.29C349.31 398.96 347.71 397.78 346.89 396.29C346.25 395.13 346.14 393.88 346.56 392.77C347.19 391.14 348.67 390.26 350.11 389.41C351.05 388.86 351.94 388.33 352.6 387.62L352.56 387.15C354.9 386.94 357.81 386.68 360.28 387.87C361.73 388.57 362.93 389.94 363.42 391.45C363.8 392.64 363.72 393.79 363.18 394.79C362.36 396.3 360.78 397.05 359.09 397.74C357.28 398.48 354.93 399.44 352.54 399.44ZM353.54 388.07C352.75 389.01 351.67 389.65 350.62 390.27C349.27 391.07 348 391.82 347.49 393.13C347.08 394.2 347.41 395.18 347.76 395.81C348.44 397.05 349.78 398.03 351.16 398.31C353.57 398.8 356.01 397.92 358.71 396.82C360.22 396.2 361.64 395.54 362.3 394.32C362.81 393.38 362.67 392.41 362.46 391.77C362.05 390.51 361.05 389.37 359.84 388.78C357.91 387.85 355.57 387.91 353.53 388.08L353.54 388.07Z" fill="white"/>
<path d="M340.28 695C320.08 695 299.86 688.89 283.31 677.19C274.47 670.94 268.38 664.34 264.67 657.01C260.14 648.04 259.6 637.95 263.23 630.03C265.68 624.7 269.93 620.34 273.68 616.5C300.69 588.85 327.78 563.18 362.28 552.96C370.66 550.48 379.4 548.97 387.85 547.51L427.79 540.61C439.71 538.55 452.04 536.42 463.86 533.08C487.77 526.33 505.98 513.82 525.27 500.58C528 498.7 530.77 496.8 533.58 494.9C541.38 489.62 550.99 487.81 560.63 489.84C571.58 492.14 581.31 498.94 587.34 508.5C597.71 524.95 598.34 546.18 598.84 563.23L599.92 599.9C600.05 604.42 600.2 609.55 597.97 613.96C594.03 621.73 584.38 624.17 576.65 623.88C572.66 623.73 568.67 623.01 564.81 622.32C560.81 621.61 556.68 620.87 552.59 620.76C542.08 620.47 531.91 624.27 522.05 627.93C520.55 628.49 519.05 629.05 517.55 629.59C506.4 633.63 494.79 636.96 483.56 640.18C465.19 645.45 446.2 650.9 428.86 659.55C421.57 663.19 414.43 667.47 407.53 671.6C396.29 678.34 384.67 685.3 372.09 689.69C361.86 693.26 351.06 695.01 340.27 695.01L340.28 695ZM464 533.54L464.14 534.02C452.26 537.38 439.91 539.51 427.97 541.58L388.03 548.48C379.61 549.94 370.9 551.44 362.58 553.91C328.31 564.06 301.32 589.64 274.41 617.19C270.71 620.97 266.53 625.26 264.15 630.44C260.64 638.09 261.17 647.85 265.57 656.55C269.2 663.73 275.19 670.21 283.89 676.36C309.03 694.13 342.71 698.87 371.78 688.73C384.26 684.38 395.84 677.44 407.03 670.73C413.95 666.58 421.11 662.29 428.43 658.64C445.85 649.95 464.89 644.48 483.3 639.2C494.51 635.98 506.11 632.66 517.23 628.63C518.73 628.09 520.22 627.53 521.72 626.97C531.66 623.28 541.94 619.47 552.63 619.74C556.8 619.85 560.97 620.59 565 621.31C568.83 621.99 572.78 622.7 576.7 622.85C584.14 623.14 593.37 620.83 597.09 613.48C599.21 609.3 599.06 604.31 598.93 599.91L597.85 563.24C597.35 546.31 596.73 525.24 586.5 509.02C580.62 499.68 571.11 493.04 560.43 490.8C551.06 488.83 541.72 490.58 534.14 495.71C531.33 497.62 528.56 499.51 525.83 501.39C506.47 514.68 488.19 527.23 464.13 534.03L463.99 533.55L464 533.54Z" fill="white"/>
</g>
<defs>
<clipPath id="clip0_5_1111">
<rect width="735" height="727" fill="white"/>
</clipPath>
</defs>
</svg>
