<svg width="1263" height="1031" viewBox="0 0 1263 1031" fill="none" xmlns="http://www.w3.org/2000/svg">
<g clip-path="url(#clip0_27_2736)">
<path d="M246.372 980.743L227.398 992.391L208.518 1004.19" stroke="#E6007E" stroke-width="3.97"/>
<path d="M240.711 1004.51L246.372 980.743L222.545 975.071" stroke="#E6007E" stroke-width="3.97"/>
<path d="M311.695 942.107L302.047 947.668L292.438 953.29L282.839 958.915L273.262 964.602" stroke="#E6007E" stroke-width="3.97"/>
<path d="M305.445 965.721C307.486 957.83 309.579 949.978 311.695 942.107C303.824 939.991 295.916 937.886 288.016 935.842" stroke="#E6007E" stroke-width="3.97"/>
<path d="M377.817 904.861L358.344 915.65L338.927 926.548" stroke="#E6007E" stroke-width="3.97"/>
<path d="M371.089 928.351L377.817 904.861L354.284 898.117" stroke="#E6007E" stroke-width="3.97"/>
<path d="M444.658 868.916C438.093 872.371 431.522 875.829 424.984 879.335L415.163 884.569L405.368 889.855" stroke="#E6007E" stroke-width="3.97"/>
<path d="M437.483 892.274C439.836 884.47 442.247 876.717 444.661 868.922C436.879 866.518 429.058 864.085 421.254 861.733" stroke="#E6007E" stroke-width="3.97"/>
<path d="M512.164 834.224L502.216 839.223L492.291 844.266C485.664 847.614 479.077 851.024 472.473 854.417" stroke="#E6007E" stroke-width="3.97"/>
<path d="M504.545 857.442C507.047 849.692 509.598 841.974 512.168 834.231C504.434 831.665 496.667 829.099 488.901 826.598" stroke="#E6007E" stroke-width="3.97"/>
<path d="M580.437 801.086C566.991 807.368 553.601 813.777 540.272 820.308" stroke="#E6007E" stroke-width="3.97"/>
<path d="M572.23 824.088C574.921 816.422 577.643 808.723 580.437 801.086C572.76 798.28 565.081 795.564 557.363 792.853" stroke="#E6007E" stroke-width="3.97"/>
<path d="M649.727 770.127C636.069 775.94 622.467 781.88 608.943 787.991" stroke="#E6007E" stroke-width="3.97"/>
<path d="M640.729 792.798C643.679 785.26 646.677 777.707 649.727 770.127C642.179 767.094 634.583 764.077 626.932 761.08" stroke="#E6007E" stroke-width="3.97"/>
<path d="M720.355 742.37C713.389 744.932 706.38 747.378 699.47 750.083L689.072 754.059L678.732 758.183" stroke="#E6007E" stroke-width="3.97"/>
<path d="M710.183 764.497C713.467 757.108 716.87 749.78 720.352 742.364C713.007 738.912 705.545 735.454 698.036 732.11" stroke="#E6007E" stroke-width="3.97"/>
<path d="M793.254 721.58C792.341 721.732 791.418 721.848 790.505 722.033L787.786 722.608L782.338 723.757L779.618 724.332C778.709 724.523 777.816 724.779 776.912 724.999L771.52 726.37L766.131 727.748L760.785 729.291L755.438 730.834L752.762 731.608L750.108 732.442" stroke="#E6007E" stroke-width="3.97"/>
<path d="M780.407 741.957C782.397 738.423 784.415 735.119 786.555 731.705C787.621 730.007 788.711 728.306 789.826 726.592C790.381 725.745 790.945 724.869 791.515 724.038L793.26 721.577L790.734 719.784C789.89 719.204 789.04 718.659 788.189 718.098C786.485 716.986 784.752 715.881 782.996 714.779C779.497 712.584 775.849 710.352 772.269 708.336" stroke="#E6007E" stroke-width="3.97"/>
<path d="M865.35 698.988C851.881 705.209 838.149 710.939 823.945 715.267" stroke="#E6007E" stroke-width="3.97"/>
<path d="M856.159 721.935C859.526 714.309 862.54 706.642 865.35 698.988C857.696 696.179 850.178 693.22 842.889 689.992" stroke="#E6007E" stroke-width="3.97"/>
<path d="M932.383 663.456C919.541 670.903 906.587 678.146 893.448 685.052" stroke="#E6007E" stroke-width="3.97"/>
<path d="M925.838 687.114C928.122 679.222 930.293 671.331 932.383 663.456C924.499 661.364 916.669 659.203 908.894 656.958" stroke="#E6007E" stroke-width="3.97"/>
<path d="M997.179 623.951C984.642 631.892 972.034 639.724 959.351 647.438" stroke="#E6007E" stroke-width="3.97"/>
<path d="M991.693 647.828C993.566 639.861 995.39 631.909 997.179 623.951C989.221 622.163 981.288 620.346 973.382 618.483" stroke="#E6007E" stroke-width="3.97"/>
<path d="M1060.89 582.713C1048.49 590.868 1036.07 599.003 1023.6 607.047" stroke="#E6007E" stroke-width="3.97"/>
<path d="M1055.9 606.673L1060.89 582.713L1036.97 577.732" stroke="#E6007E" stroke-width="3.97"/>
<path d="M1124.12 540.735L1087.06 565.412" stroke="#E6007E" stroke-width="3.97"/>
<path d="M1119.32 564.72L1124.12 540.735L1100.14 535.935" stroke="#E6007E" stroke-width="3.97"/>
<path d="M1187.29 498.666L1150.22 523.33" stroke="#E6007E" stroke-width="3.97"/>
<path d="M1182.46 522.639L1187.29 498.666L1163.3 493.831" stroke="#E6007E" stroke-width="3.97"/>
<path d="M1250.79 457.105C1238.3 465.108 1225.88 473.24 1213.47 481.391" stroke="#E6007E" stroke-width="3.97"/>
<path d="M1245.69 480.975C1247.37 472.995 1249.04 465.092 1250.8 457.095C1242.86 455.353 1234.82 453.649 1226.84 451.978" stroke="#E6007E" stroke-width="3.97"/>
<path d="M299.622 1019.91C286.691 1027.2 273.806 1034.56 260.983 1042.03" stroke="#E6007E" stroke-width="3.97"/>
<path d="M293.134 1043.46L299.622 1019.91L276 1013.4" stroke="#E6007E" stroke-width="3.97"/>
<path d="M365.157 983.834L345.584 994.438L326.062 1005.15" stroke="#E6007E" stroke-width="3.97"/>
<path d="M358.206 1007.27C360.504 999.465 362.801 991.632 365.157 983.834C357.343 981.479 349.536 979.185 341.686 976.872" stroke="#E6007E" stroke-width="3.97"/>
<path d="M431.325 948.933L411.579 959.211C405.004 962.646 398.43 966.098 391.878 969.579" stroke="#E6007E" stroke-width="3.97"/>
<path d="M423.978 972.24L431.325 948.933L407.979 941.576" stroke="#E6007E" stroke-width="3.97"/>
<path d="M498.027 915.061C484.741 921.677 471.495 928.37 458.267 935.102" stroke="#E6007E" stroke-width="3.97"/>
<path d="M490.327 938.262L498.027 915.061L474.79 907.356" stroke="#E6007E" stroke-width="3.97"/>
<path d="M565.232 882.201C551.838 888.603 538.5 895.099 525.168 901.624" stroke="#E6007E" stroke-width="3.97"/>
<path d="M557.175 905.274C559.835 897.582 562.516 889.88 565.225 882.204C557.529 879.489 549.824 876.803 542.106 874.14" stroke="#E6007E" stroke-width="3.97"/>
<path d="M633.059 850.657L622.908 855.222L612.784 859.855C606.024 862.922 599.316 866.092 592.588 869.223" stroke="#E6007E" stroke-width="3.97"/>
<path d="M624.489 873.518C627.296 865.874 630.161 858.266 633.055 850.651C625.434 847.744 617.777 844.864 610.113 842.051" stroke="#E6007E" stroke-width="3.97"/>
<path d="M701.76 821.057C698.318 822.452 694.895 823.885 691.476 825.325L681.212 829.631L660.748 838.404" stroke="#E6007E" stroke-width="3.97"/>
<path d="M692.503 843.648C695.547 836.137 698.61 828.55 701.76 821.058C694.215 817.885 686.681 814.846 679.088 811.77" stroke="#E6007E" stroke-width="3.97"/>
<path d="M771.503 794.007L766.262 795.886L761.043 797.827L750.615 801.713C743.688 804.369 736.752 807.022 729.848 809.739" stroke="#E6007E" stroke-width="3.97"/>
<path d="M761.335 816.173C764.654 808.79 768.022 801.342 771.503 794.007C764.106 790.5 756.691 787.149 749.207 783.776" stroke="#E6007E" stroke-width="3.97"/>
<path d="M842.77 771.363L840.07 772.042C839.174 772.275 838.284 772.537 837.387 772.786L832.028 774.287L826.668 775.788L821.342 777.402C817.795 778.492 814.229 779.528 810.698 780.666L800.107 784.099" stroke="#E6007E" stroke-width="3.97"/>
<path d="M830.956 792.549C832.84 789.013 834.765 785.495 836.733 781.948C838.704 778.408 840.695 774.826 842.78 771.366C839.255 769.249 835.711 767.272 832.129 765.282C828.546 763.292 824.909 761.305 821.248 759.354" stroke="#E6007E" stroke-width="3.97"/>
<path d="M913.076 746.266C899.637 752.562 885.97 758.404 871.927 763.212" stroke="#E6007E" stroke-width="3.97"/>
<path d="M904.119 769.242L906.507 763.52C907.275 761.6 908.02 759.667 908.763 757.744C910.24 753.901 911.683 750.083 913.073 746.26C909.23 744.863 905.413 743.421 901.651 741.976C899.766 741.247 897.895 740.528 896.033 739.779L890.47 737.449" stroke="#E6007E" stroke-width="3.97"/>
<path d="M979.091 711.127C966.255 718.57 953.314 725.855 940.156 732.723" stroke="#E6007E" stroke-width="3.97"/>
<path d="M972.542 734.794C974.814 726.876 977.02 719.04 979.091 711.127C971.226 709.073 963.37 706.86 955.611 704.631" stroke="#E6007E" stroke-width="3.97"/>
<path d="M1042.85 672.02C1030.33 679.993 1017.8 687.947 1005.1 695.63" stroke="#E6007E" stroke-width="3.97"/>
<path d="M1037.48 695.939C1039.31 687.942 1041.1 679.974 1042.86 672.026C1034.88 670.271 1026.94 668.483 1019.04 666.672" stroke="#E6007E" stroke-width="3.97"/>
<path d="M1105.23 630.731C1099.12 634.926 1092.93 639.034 1086.78 643.194C1080.61 647.305 1074.44 651.436 1068.24 655.511" stroke="#E6007E" stroke-width="3.97"/>
<path d="M1100.55 654.771C1102.14 646.743 1103.71 638.756 1105.23 630.731C1097.24 629.222 1089.23 627.638 1081.26 626.061" stroke="#E6007E" stroke-width="3.97"/>
<path d="M1166.71 588.098C1154.59 596.666 1142.41 605.154 1130.22 613.612" stroke="#E6007E" stroke-width="3.97"/>
<path d="M1162.48 612.211C1163.91 604.173 1165.32 596.139 1166.7 588.101C1158.67 586.722 1150.65 585.31 1142.63 583.885" stroke="#E6007E" stroke-width="3.97"/>
<path d="M1227.57 544.592C1215.54 553.296 1203.49 561.945 1191.41 570.571" stroke="#E6007E" stroke-width="3.97"/>
<path d="M1223.64 568.753L1227.57 544.592L1203.44 540.671" stroke="#E6007E" stroke-width="3.97"/>
<path d="M1288.05 500.576L1252.08 526.81" stroke="#E6007E" stroke-width="3.97"/>
<path d="M1284.28 524.723L1288.05 500.576L1263.87 496.797" stroke="#E6007E" stroke-width="3.97"/>
<path d="M354.628 1071.54L361.991 1048.23L338.648 1040.86" stroke="#E6007E" stroke-width="3.97"/>
<path d="M430.854 1013.43L410.929 1023.37C404.289 1026.69 397.662 1030.02 391.046 1033.39" stroke="#E6007E" stroke-width="3.97"/>
<path d="M423.102 1036.61L430.854 1013.43L407.636 1005.67" stroke="#E6007E" stroke-width="3.97"/>
<path d="M500.21 979.626C486.823 986.041 473.468 992.505 460.13 999.017" stroke="#E6007E" stroke-width="3.97"/>
<path d="M492.146 1002.7L500.21 979.626L477.104 971.555" stroke="#E6007E" stroke-width="3.97"/>
<path d="M570.005 946.725C556.537 952.962 543.101 959.264 529.675 965.602" stroke="#E6007E" stroke-width="3.97"/>
<path d="M561.643 969.692L570.005 946.725L546.999 938.353" stroke="#E6007E" stroke-width="3.97"/>
<path d="M640.235 914.766C626.678 920.812 613.151 926.916 599.653 933.079" stroke="#E6007E" stroke-width="3.97"/>
<path d="M631.542 937.607L640.235 914.766L617.347 906.065" stroke="#E6007E" stroke-width="3.97"/>
<path d="M711.117 884.294C704.249 887.115 697.429 890.033 690.584 892.899L670.114 901.66" stroke="#E6007E" stroke-width="3.97"/>
<path d="M701.882 906.914C704.929 899.376 707.995 891.812 711.117 884.294C703.569 881.163 696.024 878.104 688.444 875.039" stroke="#E6007E" stroke-width="3.97"/>
<path d="M782.717 855.536C768.87 860.878 755.085 866.374 741.313 871.912" stroke="#E6007E" stroke-width="3.97"/>
<path d="M772.944 877.925C776.159 870.448 779.417 862.991 782.717 855.536C775.253 852.234 767.766 848.968 760.266 845.74" stroke="#E6007E" stroke-width="3.97"/>
<path d="M855.045 828.691C848.057 831.192 841.051 833.644 834.089 836.212L823.635 840.03L813.2 843.918" stroke="#E6007E" stroke-width="3.97"/>
<path d="M844.64 850.774C848.057 843.406 851.535 836.065 855.045 828.691C847.704 825.197 840.3 821.694 832.878 818.249" stroke="#E6007E" stroke-width="3.97"/>
<path d="M927.874 803.256C924.429 804.628 921.013 806.09 917.521 807.339C914.04 808.623 910.588 809.982 907.051 811.124C900.036 813.54 892.956 815.779 885.911 818.105" stroke="#E6007E" stroke-width="3.97"/>
<path d="M917.603 825.766C919.454 822.002 921.233 818.259 922.96 814.541C924.669 810.801 926.286 806.993 927.874 803.256C924.108 801.658 920.404 800.087 916.735 798.408C913.059 796.7 909.439 794.972 905.889 793.225" stroke="#E6007E" stroke-width="3.97"/>
<path d="M997.262 769.595C993.996 771.355 990.756 773.167 987.471 774.888L977.611 780.06C970.997 783.418 964.38 786.786 957.675 789.963" stroke="#E6007E" stroke-width="3.97"/>
<path d="M990.023 793.083C991.29 789.16 992.538 785.262 993.746 781.352L997.262 769.595L985.583 766.106C981.702 764.907 977.834 763.67 973.997 762.432" stroke="#E6007E" stroke-width="3.97"/>
<path d="M1063.73 730.438C1051.17 738.35 1038.46 746 1025.66 753.527" stroke="#E6007E" stroke-width="3.97"/>
<path d="M1058.05 754.303C1060.04 746.373 1061.9 738.37 1063.74 730.444C1055.78 728.601 1047.89 726.774 1040.01 724.795" stroke="#E6007E" stroke-width="3.97"/>
<path d="M1128.2 688.063C1122.1 692.284 1115.93 696.409 1109.78 700.562L1100.51 706.72C1097.41 708.768 1094.33 710.832 1091.21 712.844" stroke="#E6007E" stroke-width="3.97"/>
<path d="M1123.56 712.126C1125.16 704.1 1126.72 696.088 1128.2 688.057C1120.2 686.583 1112.19 685.022 1104.24 683.435" stroke="#E6007E" stroke-width="3.97"/>
<path d="M1191.1 643.382C1185.11 647.751 1179.13 652.157 1173.1 656.471L1164.06 662.973L1154.98 669.409" stroke="#E6007E" stroke-width="3.97"/>
<path d="M1187.27 667.584C1188.6 659.511 1189.86 651.422 1191.1 643.382C1183.03 642.128 1175.01 640.878 1166.99 639.567" stroke="#E6007E" stroke-width="3.97"/>
<path d="M1252.61 596.797C1246.78 601.376 1240.88 605.882 1235.01 610.423C1229.1 614.912 1223.22 619.447 1217.29 623.891" stroke="#E6007E" stroke-width="3.97"/>
<path d="M1249.49 621.097C1250.56 612.976 1251.63 604.911 1252.61 596.797C1244.54 595.822 1236.43 594.741 1228.39 593.685" stroke="#E6007E" stroke-width="3.97"/>
<path d="M552.916 1020.26C539.357 1026.3 525.813 1032.37 512.292 1038.49" stroke="#E6007E" stroke-width="3.97"/>
<path d="M544.188 1043.09L552.916 1020.26L530.051 1011.52" stroke="#E6007E" stroke-width="3.97"/>
<path d="M622.978 989.558C609.356 995.443 595.741 1001.36 582.158 1007.34" stroke="#E6007E" stroke-width="3.97"/>
<path d="M613.997 1012.29L622.978 989.558L600.219 980.566" stroke="#E6007E" stroke-width="3.97"/>
<path d="M693.438 959.778C679.718 965.436 666.038 971.188 652.37 976.982" stroke="#E6007E" stroke-width="3.97"/>
<path d="M684.133 982.369L693.438 959.778L670.795 950.452" stroke="#E6007E" stroke-width="3.97"/>
<path d="M764.404 931.21C750.599 936.668 736.811 942.158 723.046 947.709" stroke="#E6007E" stroke-width="3.97"/>
<path d="M754.719 953.66L764.404 931.21L741.931 921.515" stroke="#E6007E" stroke-width="3.97"/>
<path d="M835.651 903.361L794.152 919.517" stroke="#E6007E" stroke-width="3.97"/>
<path d="M825.794 925.743L835.651 903.361L813.258 893.503" stroke="#E6007E" stroke-width="3.97"/>
<path d="M907.002 875.8L865.464 891.83" stroke="#E6007E" stroke-width="3.97"/>
<path d="M897.093 898.159L907.002 875.8L884.645 865.883" stroke="#E6007E" stroke-width="3.97"/>
<path d="M978.02 847.4L972.955 849.71C972.117 850.108 971.26 850.467 970.403 850.81L967.831 851.871L957.537 856.103C950.701 858.989 943.755 861.606 936.835 864.291" stroke="#E6007E" stroke-width="3.97"/>
<path d="M968.731 870.202C970.378 866.404 971.979 862.628 973.548 858.869C974.339 857.01 975.087 855.084 975.826 853.154L978.02 847.401L972.348 845.239C970.47 844.523 968.592 843.791 966.704 842.99C962.938 841.425 959.211 839.84 955.523 838.236" stroke="#E6007E" stroke-width="3.97"/>
<path d="M1046.33 813.034C1043.13 814.9 1039.82 816.599 1036.55 818.352L1026.73 823.586L1021.82 826.2C1020.18 827.067 1018.56 827.966 1016.88 828.768L1006.91 833.721" stroke="#E6007E" stroke-width="3.97"/>
<path d="M1039.25 836.515L1042.88 824.781L1044.65 818.941C1045.24 816.992 1045.78 814.999 1046.34 813.037C1044.38 812.483 1042.45 811.949 1040.49 811.362L1034.63 809.59L1022.99 805.99" stroke="#E6007E" stroke-width="3.97"/>
<path d="M1112.03 773.875C1105.74 777.815 1099.49 781.804 1093.17 785.702L1074.07 797.14" stroke="#E6007E" stroke-width="3.97"/>
<path d="M1106.48 797.802C1108.39 789.791 1110.24 781.811 1112.03 773.875C1104.07 772.075 1096.16 770.244 1088.31 768.372" stroke="#E6007E" stroke-width="3.97"/>
<path d="M1175.62 731.355C1169.54 735.618 1163.4 739.791 1157.3 744.009L1148.13 750.326C1145.06 752.396 1141.95 754.418 1138.85 756.465" stroke="#E6007E" stroke-width="3.97"/>
<path d="M1171.2 755.433C1172.71 747.369 1174.22 739.39 1175.61 731.358C1167.57 729.966 1159.53 728.457 1151.57 726.954" stroke="#E6007E" stroke-width="3.97"/>
<path d="M1237.08 685.833L1228.31 692.68L1219.4 699.359L1201.58 712.697" stroke="#E6007E" stroke-width="3.97"/>
<path d="M1233.82 710.159C1235.03 702.113 1236.05 693.924 1237.08 685.833C1229 684.813 1221 683.815 1212.92 682.601" stroke="#E6007E" stroke-width="3.97"/>
<path d="M1296.45 637.616C1290.78 642.405 1285.15 647.237 1279.45 651.985L1262.17 666.021" stroke="#E6007E" stroke-width="3.97"/>
<path d="M678.348 1035.34C664.53 1040.76 650.778 1046.35 637.003 1051.87" stroke="#E6007E" stroke-width="3.97"/>
<path d="M668.679 1057.78L678.348 1035.34L655.862 1025.65" stroke="#E6007E" stroke-width="3.97"/>
<path d="M749.347 1008.02C735.441 1013.21 721.548 1018.43 707.724 1023.83" stroke="#E6007E" stroke-width="3.97"/>
<path d="M739.253 1030.28C742.579 1022.88 745.931 1015.42 749.35 1008.02C741.947 1004.6 734.535 1001.27 727.058 997.913" stroke="#E6007E" stroke-width="3.97"/>
<path d="M820.647 981.496C806.757 986.737 792.851 991.913 778.935 997.07" stroke="#E6007E" stroke-width="3.97"/>
<path d="M810.511 1003.78L820.647 981.496L798.399 971.378" stroke="#E6007E" stroke-width="3.97"/>
<path d="M891.636 954.149C877.825 959.594 864.004 964.987 850.14 970.296" stroke="#E6007E" stroke-width="3.97"/>
<path d="M881.821 976.583L891.636 954.149L869.247 944.363" stroke="#E6007E" stroke-width="3.97"/>
<path d="M962.076 925.425C948.396 931.177 934.686 936.871 920.92 942.422" stroke="#E6007E" stroke-width="3.97"/>
<path d="M952.748 948.084L962.076 925.425L939.491 916.134" stroke="#E6007E" stroke-width="3.97"/>
<path d="M1031.56 894.475C1024.93 897.817 1018.14 900.809 1011.4 903.915L1001.27 908.548L991.074 912.999" stroke="#E6007E" stroke-width="3.97"/>
<path d="M1023.15 917.552L1027.46 906.068C1028.87 902.229 1030.21 898.324 1031.55 894.469C1027.71 893.13 1023.9 891.821 1020.08 890.428L1008.67 886.141" stroke="#E6007E" stroke-width="3.97"/>
<path d="M1098.95 859.218L1079.44 869.951L1074.56 872.636C1072.94 873.535 1071.28 874.357 1069.64 875.224L1059.76 880.358" stroke="#E6007E" stroke-width="3.97"/>
<path d="M1092.09 882.724C1094.45 874.845 1096.74 867.008 1098.95 859.211C1091.06 856.973 1083.24 854.695 1075.49 852.379" stroke="#E6007E" stroke-width="3.97"/>
<path d="M1164 819.792L1154.64 825.818L1149.95 828.82L1145.21 831.725L1126.21 843.335" stroke="#E6007E" stroke-width="3.97"/>
<path d="M1158.62 843.789C1160.5 835.786 1162.27 827.747 1164 819.792C1156.03 818.053 1148.14 816.313 1140.27 814.47" stroke="#E6007E" stroke-width="3.97"/>
<path d="M1226.81 776.886C1214.68 785.448 1202.71 794.223 1190.32 802.406" stroke="#E6007E" stroke-width="3.97"/>
<path d="M1222.7 801.028C1224.13 792.941 1225.5 784.888 1226.81 776.886C1218.72 775.562 1210.69 774.198 1202.72 772.789" stroke="#E6007E" stroke-width="3.97"/>
<path d="M1286.94 730.315C1284.08 732.679 1281.24 735.069 1278.37 737.411L1269.62 744.293L1260.87 751.176L1256.5 754.62C1255.04 755.769 1253.59 756.93 1252.1 758.023" stroke="#E6007E" stroke-width="3.97"/>
<path d="M1284.32 754.737L1285.05 748.658C1285.29 746.639 1285.53 744.62 1285.73 742.563L1286.94 730.321L1274.85 729.127C1272.85 728.932 1270.82 728.693 1268.79 728.45L1262.72 727.718" stroke="#E6007E" stroke-width="3.97"/>
<path d="M877.984 1031.72C864.039 1036.8 850.038 1041.72 835.975 1046.47" stroke="#E6007E" stroke-width="3.97"/>
<path d="M867.485 1053.87C871.041 1046.49 874.545 1039.1 877.984 1031.72C870.587 1028.27 863.242 1024.79 855.933 1021.26" stroke="#E6007E" stroke-width="3.97"/>
<path d="M948.736 1004.29C935.007 1009.93 921.212 1015.4 907.352 1020.72" stroke="#E6007E" stroke-width="3.97"/>
<path d="M939.133 1026.85C942.387 1019.32 945.596 1011.81 948.736 1004.29C941.218 1001.15 933.725 997.951 926.287 994.733" stroke="#E6007E" stroke-width="3.97"/>
<path d="M1018.32 974.045C1004.84 980.244 991.275 986.268 977.637 992.136" stroke="#E6007E" stroke-width="3.97"/>
<path d="M1009.64 996.978C1012.6 989.334 1015.49 981.693 1018.32 974.046C1010.68 971.217 1003.07 968.333 995.501 965.41" stroke="#E6007E" stroke-width="3.97"/>
<path d="M1086.57 940.865C1073.37 947.648 1060.08 954.264 1046.71 960.705" stroke="#E6007E" stroke-width="3.97"/>
<path d="M1078.89 964.166C1081.5 956.371 1084.08 948.653 1086.56 940.868C1078.81 938.399 1071.06 935.817 1063.4 933.247" stroke="#E6007E" stroke-width="3.97"/>
<path d="M1153.18 904.537C1140.33 911.958 1127.37 919.194 1114.31 926.247" stroke="#E6007E" stroke-width="3.97"/>
<path d="M1146.64 928.179C1148.9 920.3 1151.07 912.399 1153.18 904.537C1145.3 902.422 1137.47 900.268 1129.67 898.032" stroke="#E6007E" stroke-width="3.97"/>
<path d="M1217.79 864.754C1205.4 872.915 1192.83 880.824 1180.15 888.529" stroke="#E6007E" stroke-width="3.97"/>
<path d="M1212.55 888.725L1215.24 876.744L1217.79 864.754L1205.85 862.221L1193.97 859.555" stroke="#E6007E" stroke-width="3.97"/>
<path d="M1279.88 821.147C1268.01 830.071 1255.99 838.762 1243.8 847.233" stroke="#E6007E" stroke-width="3.97"/>
<path d="M1276.18 845.43C1277.49 837.292 1278.75 829.232 1279.88 821.147C1271.82 820.027 1263.76 818.761 1255.8 817.484" stroke="#E6007E" stroke-width="3.97"/>
<path d="M1099.7 1019.06C1086.64 1026.12 1073.47 1032.95 1060.18 1039.56" stroke="#E6007E" stroke-width="3.97"/>
<path d="M1092.46 1042.5C1094.97 1034.71 1097.36 1026.83 1099.71 1019.06C1091.87 1016.69 1084.14 1014.36 1076.41 1011.86" stroke="#E6007E" stroke-width="3.97"/>
<path d="M1166.75 979.822C1154.19 987.747 1141.49 995.417 1128.64 1002.85" stroke="#E6007E" stroke-width="3.97"/>
<path d="M1161.06 1003.7L1162.54 997.732L1163.97 991.748L1166.75 979.822L1154.84 977.056L1148.93 975.653L1143.03 974.183" stroke="#E6007E" stroke-width="3.97"/>
<path d="M1230.72 935.775C1218.86 944.705 1206.74 953.267 1194.47 961.615" stroke="#E6007E" stroke-width="3.97"/>
<path d="M1226.89 960.042C1228.3 951.966 1229.55 943.822 1230.72 935.775C1222.63 934.59 1214.65 933.379 1206.66 931.98" stroke="#E6007E" stroke-width="3.97"/>
<path d="M1290.73 886.474C1279.72 896.428 1268.44 906.082 1256.88 915.394" stroke="#E6007E" stroke-width="3.97"/>
<path d="M1210.04 1027.23C1198.54 1036.61 1186.78 1045.67 1174.78 1054.41" stroke="#E6007E" stroke-width="3.97"/>
<path d="M1207.18 1051.66C1207.72 1047.58 1208.22 1043.47 1208.7 1039.41C1209.19 1035.35 1209.65 1031.3 1210.04 1027.22C1206 1026.84 1201.95 1026.37 1197.91 1025.89C1193.88 1025.41 1189.89 1024.93 1185.89 1024.39" stroke="#E6007E" stroke-width="3.97"/>
<path d="M1266.81 975.69C1256.35 986.225 1245.58 996.441 1234.51 1006.33" stroke="#E6007E" stroke-width="3.97"/>
<path d="M1266.48 1000.28L1266.66 994.115L1266.75 987.937C1266.8 983.833 1266.81 979.752 1266.81 975.69C1262.72 975.694 1258.64 975.671 1254.6 975.626L1248.55 975.536L1242.49 975.355" stroke="#E6007E" stroke-width="3.97"/>
<path d="M1289.94 999.056C1281.56 1011.31 1272.88 1023.35 1263.78 1035.09" stroke="#E6007E" stroke-width="3.97"/>
</g>
<defs>
<clipPath id="clip0_27_2736">
<rect width="1426.17" height="1154.46" fill="white" transform="translate(0 641.92) rotate(-26.7501)"/>
</clipPath>
</defs>
</svg>
