<svg width="967" height="758" viewBox="0 0 967 758" fill="none" xmlns="http://www.w3.org/2000/svg">
<g clip-path="url(#clip0_27_2736)">
<path d="M9.10452 -11.9972L-32.3943 4.15894" stroke="#E6007E" stroke-width="3.97"/>
<path d="M-0.752479 10.385L9.10442 -11.9972L-13.2879 -21.8553" stroke="#E6007E" stroke-width="3.97"/>
<path d="M-16.0354 88.417L-5.89962 66.1375L-28.147 56.0198" stroke="#E6007E" stroke-width="3.97"/>
<path d="M65.0896 38.7911C51.2784 44.2358 37.4574 49.6287 23.594 54.9376" stroke="#E6007E" stroke-width="3.97"/>
<path d="M55.2749 61.225L65.0896 38.7911L42.7007 29.0043" stroke="#E6007E" stroke-width="3.97"/>
<path d="M135.53 10.0667C121.85 15.8187 108.14 21.5125 94.3741 27.0639" stroke="#E6007E" stroke-width="3.97"/>
<path d="M126.202 32.7257L135.53 10.0666L112.945 0.776002" stroke="#E6007E" stroke-width="3.97"/>
<path d="M205.011 -20.8832C198.381 -17.5415 191.592 -14.549 184.851 -11.4434L174.727 -6.81077L164.527 -2.35931" stroke="#E6007E" stroke-width="3.97"/>
<path d="M196.608 2.19386L200.918 -9.29C202.325 -13.1297 203.666 -17.034 205.008 -20.8897C201.162 -22.2279 197.355 -23.537 193.538 -24.9304L182.122 -29.2174" stroke="#E6007E" stroke-width="3.97"/>
<path d="M51.4377 116.358C37.4926 121.44 23.4919 126.364 9.42908 131.116" stroke="#E6007E" stroke-width="3.97"/>
<path d="M40.9386 138.512C44.4944 131.132 47.9984 123.745 51.4376 116.358C44.041 112.916 36.6961 109.432 29.3867 105.906" stroke="#E6007E" stroke-width="3.97"/>
<path d="M122.19 88.928C108.461 94.5668 94.6658 100.044 80.8056 105.359" stroke="#E6007E" stroke-width="3.97"/>
<path d="M112.586 111.491C115.841 103.962 119.049 96.4563 122.19 88.928C114.671 85.7911 107.178 82.5926 99.7404 79.3745" stroke="#E6007E" stroke-width="3.97"/>
<path d="M191.777 58.6872C178.289 64.8855 164.729 70.9092 151.091 76.7777" stroke="#E6007E" stroke-width="3.97"/>
<path d="M183.098 81.6195C186.05 73.9752 188.948 66.3343 191.777 58.6872C184.13 55.8585 176.528 52.9745 168.955 50.0516" stroke="#E6007E" stroke-width="3.97"/>
<path d="M260.02 25.5063C246.819 32.29 233.533 38.9056 220.159 45.3465" stroke="#E6007E" stroke-width="3.97"/>
<path d="M252.346 48.8078C254.955 41.0124 257.538 33.2948 260.014 25.5095C252.264 23.0407 244.514 20.4585 236.851 17.8889" stroke="#E6007E" stroke-width="3.97"/>
<path d="M326.637 -10.8209C313.781 -3.40025 300.824 3.83619 287.767 10.8883" stroke="#E6007E" stroke-width="3.97"/>
<path d="M320.091 12.8202C322.35 4.94178 324.524 -2.9591 326.637 -10.8209C318.749 -12.9362 310.922 -15.0906 303.128 -17.3261" stroke="#E6007E" stroke-width="3.97"/>
<path d="M60.0841 197.674C46.126 202.731 32.122 207.648 18.0854 212.468" stroke="#E6007E" stroke-width="3.97"/>
<path d="M49.5786 219.815C53.1279 212.438 56.6287 205.061 60.0874 197.68C52.7005 194.226 45.3523 190.735 38.03 187.216" stroke="#E6007E" stroke-width="3.97"/>
<path d="M132.597 169.778C118.858 175.398 105.053 180.839 91.1801 186.129" stroke="#E6007E" stroke-width="3.97"/>
<path d="M122.948 192.315C126.235 184.819 129.443 177.281 132.597 169.779C125.072 166.613 117.608 163.44 110.164 160.176" stroke="#E6007E" stroke-width="3.97"/>
<path d="M203.762 138.629C190.323 144.924 176.786 151.025 163.167 156.917" stroke="#E6007E" stroke-width="3.97"/>
<path d="M195.209 161.619L199.543 150.132L203.762 138.629L192.308 134.426L180.908 130.123" stroke="#E6007E" stroke-width="3.97"/>
<path d="M273.153 103.702C260.098 110.76 246.92 117.589 233.634 124.205" stroke="#E6007E" stroke-width="3.97"/>
<path d="M265.913 127.141C268.428 119.352 270.81 111.477 273.159 103.698C265.326 101.337 257.592 98.9972 249.862 96.5024" stroke="#E6007E" stroke-width="3.97"/>
<path d="M340.201 64.4641C327.648 72.3891 314.942 80.0588 302.093 87.4924" stroke="#E6007E" stroke-width="3.97"/>
<path d="M334.514 88.3454L335.998 82.3741L337.427 76.39L340.201 64.4641L328.294 61.6979L322.387 60.2952L316.487 58.8244" stroke="#E6007E" stroke-width="3.97"/>
<path d="M404.175 20.4169C392.316 29.347 380.189 37.9087 367.923 46.2572" stroke="#E6007E" stroke-width="3.97"/>
<path d="M400.346 44.6841C401.759 36.6076 402.999 28.4636 404.175 20.417C396.083 19.2319 388.107 18.0206 380.118 16.6215" stroke="#E6007E" stroke-width="3.97"/>
<path d="M464.188 -28.8841C453.177 -18.93 441.893 -9.27614 430.339 0.0352029" stroke="#E6007E" stroke-width="3.97"/>
<path d="M462.539 -4.34558C462.876 -8.45714 463.19 -12.5492 463.482 -16.6217C463.757 -20.7104 463.984 -24.8151 464.197 -28.8809C460.122 -29.0976 456.078 -29.3144 452.038 -29.5895C447.975 -29.8775 443.941 -30.1883 439.923 -30.5153" stroke="#E6007E" stroke-width="3.97"/>
<path d="M45.344 288.466C31.3073 293.287 17.2216 297.961 3.1098 302.568" stroke="#E6007E" stroke-width="3.97"/>
<path d="M34.4621 310.424C38.1348 303.115 41.7588 295.789 45.3375 288.47C38.0053 284.882 30.7215 281.278 23.4571 277.632" stroke="#E6007E" stroke-width="3.97"/>
<path d="M117.356 262.056C103.549 267.491 89.6525 272.719 75.7008 277.772" stroke="#E6007E" stroke-width="3.97"/>
<path d="M107.373 284.461C109.075 280.741 110.757 276.997 112.42 273.263C114.083 269.53 115.736 265.809 117.356 262.056C113.623 260.442 109.892 258.786 106.178 257.13C102.467 255.481 98.769 253.825 95.0741 252.126" stroke="#E6007E" stroke-width="3.97"/>
<path d="M187.903 231.964C174.438 238.208 160.845 244.183 147.165 249.935" stroke="#E6007E" stroke-width="3.97"/>
<path d="M179.194 254.903C182.196 247.275 185.086 239.589 187.903 231.964C180.236 229.129 172.657 226.291 165.106 223.316" stroke="#E6007E" stroke-width="3.97"/>
<path d="M256.319 197.309C243.33 204.497 230.184 211.391 216.902 218.013" stroke="#E6007E" stroke-width="3.97"/>
<path d="M249.236 220.832C250.477 216.922 251.673 212.969 252.859 209.062C254.041 205.149 255.205 201.245 256.319 197.309C252.413 196.204 248.499 195.038 244.611 193.859C240.724 192.679 236.868 191.516 233.003 190.285" stroke="#E6007E" stroke-width="3.97"/>
<path d="M321.83 157.435C309.488 165.684 296.942 173.622 284.217 181.252" stroke="#E6007E" stroke-width="3.97"/>
<path d="M316.695 181.493C317.608 177.464 318.489 173.451 319.351 169.448L320.621 163.454L321.823 157.439L315.849 156.24L309.882 154.974C305.914 154.119 301.963 153.247 298.044 152.36" stroke="#E6007E" stroke-width="3.97"/>
<path d="M383.496 111.867C371.994 121.249 360.232 130.309 348.236 139.048" stroke="#E6007E" stroke-width="3.97"/>
<path d="M380.63 136.306C381.174 132.219 381.676 128.114 382.159 124.05C382.641 119.987 383.101 115.943 383.493 111.86C379.456 111.478 375.402 111.015 371.364 110.536C367.333 110.054 363.341 109.568 359.348 109.034" stroke="#E6007E" stroke-width="3.97"/>
<path d="M440.265 60.3317C429.807 70.8671 419.033 81.0828 407.964 90.9692" stroke="#E6007E" stroke-width="3.97"/>
<path d="M439.933 84.921L440.111 78.7564L440.201 72.579C440.249 68.4749 440.269 64.3935 440.265 60.3317C436.171 60.3353 432.096 60.313 428.05 60.2679L422.002 60.1775L415.94 59.9964" stroke="#E6007E" stroke-width="3.97"/>
<path d="M490.987 2.83347C486.445 8.70788 481.688 14.3984 476.964 20.1211L469.719 28.5665C467.312 31.3859 464.794 34.115 462.331 36.8893" stroke="#E6007E" stroke-width="3.97"/>
<path d="M493.44 27.3328C493.096 23.2072 492.737 19.1142 492.341 15.0471C491.943 10.9736 491.457 6.87118 490.981 2.83677C486.923 3.31645 482.921 3.79268 478.886 4.18806C474.838 4.57377 470.81 4.93348 466.807 5.26398" stroke="#E6007E" stroke-width="3.97"/>
<path d="M33.4284 379.23C19.3165 383.821 5.14573 388.246 -9.04797 392.578" stroke="#E6007E" stroke-width="3.97"/>
<path d="M22.1638 401.008C25.9629 393.756 29.7232 386.508 33.4252 379.24C26.1606 375.545 18.9347 371.798 11.7444 368.026" stroke="#E6007E" stroke-width="3.97"/>
<path d="M105.127 353.968C91.2736 359.296 77.3219 364.365 63.2951 369.221" stroke="#E6007E" stroke-width="3.97"/>
<path d="M94.9235 376.289L100.093 365.143L105.127 353.968L94.0036 348.957L82.9607 343.833" stroke="#E6007E" stroke-width="3.97"/>
<path d="M175.069 324.189C161.646 330.516 148.07 336.524 134.373 342.244" stroke="#E6007E" stroke-width="3.97"/>
<path d="M166.448 347.205C169.426 339.515 172.317 331.878 175.066 324.182C167.399 321.444 159.784 318.567 152.273 315.653" stroke="#E6007E" stroke-width="3.97"/>
<path d="M242.343 288.812C229.536 296.313 216.514 303.453 203.329 310.252" stroke="#E6007E" stroke-width="3.97"/>
<path d="M235.742 312.489C236.919 308.546 238.056 304.607 239.145 300.635C240.24 296.677 241.309 292.747 242.343 288.812C238.397 287.775 234.458 286.703 230.558 285.627C226.664 284.564 222.77 283.437 218.895 282.284" stroke="#E6007E" stroke-width="3.97"/>
<path d="M305.871 247.098C293.901 255.873 281.661 264.273 269.179 272.308" stroke="#E6007E" stroke-width="3.97"/>
<path d="M301.696 271.353C302.493 267.334 303.189 263.228 303.892 259.2C304.585 255.152 305.275 251.162 305.865 247.101C301.856 246.518 297.811 245.816 293.828 245.139C289.825 244.439 285.887 243.772 281.913 242.985" stroke="#E6007E" stroke-width="3.97"/>
<path d="M364.543 198.806C353.619 208.853 342.374 218.552 330.827 227.877" stroke="#E6007E" stroke-width="3.97"/>
<path d="M363.073 223.376C363.422 219.29 363.675 215.14 363.924 211.048C364.157 206.94 364.4 202.9 364.552 198.809C360.496 198.663 356.398 198.417 352.364 198.188C348.314 197.942 344.326 197.705 340.288 197.356" stroke="#E6007E" stroke-width="3.97"/>
<path d="M417.291 144.106C407.665 155.406 397.57 166.293 387.16 176.877" stroke="#E6007E" stroke-width="3.97"/>
<path d="M418.672 168.683C418.51 164.547 418.364 160.476 418.114 156.36C417.865 152.244 417.593 148.164 417.291 144.106C413.217 144.407 409.169 144.68 405.14 144.926C401.118 145.169 397.04 145.319 393.03 145.474" stroke="#E6007E" stroke-width="3.97"/>
<path d="M463.391 83.6978C455.014 95.9496 446.33 107.992 437.239 119.728" stroke="#E6007E" stroke-width="3.97"/>
<path d="M467.579 107.939C466.329 99.777 464.871 91.6548 463.391 83.6978C455.314 85.198 447.382 86.6167 439.424 87.8379" stroke="#E6007E" stroke-width="3.97"/>
<path d="M516.193 29.4579C504.363 38.4138 493.189 48.2714 483.079 59.1425" stroke="#E6007E" stroke-width="3.97"/>
<path d="M513.992 53.4314C514.327 45.5495 515.062 37.5303 516.187 29.4612C508.107 28.3344 499.877 27.5677 491.454 27.1902" stroke="#E6007E" stroke-width="3.97"/>
<path d="M581.262 -9.64988C567.927 -3.13135 554.847 3.92408 542.219 11.7165" stroke="#E6007E" stroke-width="3.97"/>
<path d="M573.963 13.4787C576.171 5.78828 578.614 -1.9321 581.256 -9.64661C573.551 -12.284 565.71 -14.772 557.731 -17.0684" stroke="#E6007E" stroke-width="3.97"/>
<path d="M23.2219 470.601C9.04133 474.991 -5.20474 479.154 -19.4869 483.182" stroke="#E6007E" stroke-width="3.97"/>
<path d="M11.597 492.195C13.568 488.606 15.5228 485.017 17.4613 481.412C19.4031 477.814 21.3255 474.225 23.2251 470.607C19.6267 468.714 16.0281 466.789 12.4523 464.86C8.87967 462.938 5.307 461 1.75049 459.045" stroke="#E6007E" stroke-width="3.97"/>
<path d="M94.6314 446.035C80.7843 451.376 66.8065 456.378 52.7372 461.101" stroke="#E6007E" stroke-width="3.97"/>
<path d="M84.3661 468.364L89.5878 457.207C91.3025 453.496 92.975 449.749 94.6378 446.032C90.9041 444.37 87.2092 442.72 83.5207 441.018L72.5231 435.872" stroke="#E6007E" stroke-width="3.97"/>
<path d="M163.774 415.718C150.489 422.334 136.997 428.542 123.349 434.375" stroke="#E6007E" stroke-width="3.97"/>
<path d="M155.553 438.914C158.434 431.16 161.192 423.468 163.774 415.718C156.057 413.152 148.397 410.395 140.866 407.604" stroke="#E6007E" stroke-width="3.97"/>
<path d="M229.413 378.432C216.948 386.483 204.2 394.101 191.214 401.295" stroke="#E6007E" stroke-width="3.97"/>
<path d="M223.749 402.391C224.265 400.388 224.777 398.41 225.269 396.41L226.707 390.397C227.641 386.39 228.574 382.448 229.416 378.439C225.445 377.609 221.448 376.664 217.516 375.75L211.632 374.344L205.761 372.85" stroke="#E6007E" stroke-width="3.97"/>
<path d="M290.201 333.696C278.803 343.204 267.067 352.299 255.019 360.967" stroke="#E6007E" stroke-width="3.97"/>
<path d="M287.487 358.196C288.028 354.087 288.504 349.978 288.967 345.908L289.634 339.813L290.201 333.696L284.145 333.139L278.076 332.475C274.041 332.019 270.059 331.552 266.079 331.028" stroke="#E6007E" stroke-width="3.97"/>
<path d="M345.039 281.836C334.889 292.662 324.372 303.146 313.485 313.233" stroke="#E6007E" stroke-width="3.97"/>
<path d="M345.357 306.462C345.422 302.358 345.353 298.183 345.311 294.092C345.246 289.972 345.207 285.937 345.039 281.836C340.993 282.002 336.876 282.041 332.84 282.113C328.778 282.149 324.807 282.22 320.751 282.155" stroke="#E6007E" stroke-width="3.97"/>
<path d="M393.183 223.699C388.836 229.718 384.258 235.554 379.729 241.438L372.74 250.103L370.994 252.272L369.203 254.4L365.615 258.658" stroke="#E6007E" stroke-width="3.97"/>
<path d="M396.426 248.108C395.953 243.999 395.46 239.916 394.942 235.862C394.401 231.796 393.792 227.723 393.183 223.699C389.142 224.308 385.153 224.907 381.142 225.445C377.104 225.964 373.089 226.446 369.099 226.9" stroke="#E6007E" stroke-width="3.97"/>
<path d="M438.402 163.329C433.262 168.678 428.382 174.284 423.811 180.133C422.688 181.607 421.546 183.075 420.44 184.565L417.192 189.082L410.967 198.311" stroke="#E6007E" stroke-width="3.97"/>
<path d="M440.299 187.225C439.205 179.487 438.544 171.465 438.398 163.339C430.223 163.486 421.958 164.147 413.54 165.309" stroke="#E6007E" stroke-width="3.97"/>
<path d="M497.899 117.191C485.128 124.748 472.813 133.096 461.256 142.417" stroke="#E6007E" stroke-width="3.97"/>
<path d="M492.792 140.789C494.137 132.949 495.877 125.105 497.896 117.201C490.009 115.183 481.924 113.386 473.685 111.958" stroke="#E6007E" stroke-width="3.97"/>
<path d="M565.96 84.6459C552.155 90.0873 538.504 95.9461 525.189 102.503" stroke="#E6007E" stroke-width="3.97"/>
<path d="M556.735 107.107C559.613 99.6055 562.715 92.1292 565.969 84.6491C558.499 81.3987 550.909 78.2492 543.183 75.2814" stroke="#E6007E" stroke-width="3.97"/>
<path d="M637.438 60.2973C623.228 64.5805 609.087 69.0966 595.053 73.9395" stroke="#E6007E" stroke-width="3.97"/>
<path d="M626.121 81.8907C629.807 74.6878 633.58 67.4814 637.431 60.3006C630.241 56.4468 623.008 52.6547 615.689 48.9147" stroke="#E6007E" stroke-width="3.97"/>
<path d="M710.062 39.5728C695.766 43.5583 681.461 47.5081 667.186 51.5809" stroke="#E6007E" stroke-width="3.97"/>
<path d="M698.037 60.8737L710.062 39.5728L688.76 27.5507" stroke="#E6007E" stroke-width="3.97"/>
<path d="M782.528 18.295C768.403 22.8435 754.173 27.0717 739.907 31.1639" stroke="#E6007E" stroke-width="3.97"/>
<path d="M771.062 40.012C774.972 32.8019 778.803 25.5499 782.531 18.3015C775.276 14.5775 768.108 10.7852 760.986 6.92148" stroke="#E6007E" stroke-width="3.97"/>
<path d="M852.846 -9.07835C839.515 -2.55335 825.759 3.08228 811.844 8.22284" stroke="#E6007E" stroke-width="3.97"/>
<path d="M844.002 14.026C847.23 6.36464 850.202 -1.37038 852.85 -9.07196C845.132 -11.7191 837.64 -14.6099 830.273 -17.7181" stroke="#E6007E" stroke-width="3.97"/>
<path d="M14.2038 562.864C-0.0127806 567.118 -14.3243 571.071 -28.6851 574.814" stroke="#E6007E" stroke-width="3.97"/>
<path d="M2.28387 584.34C4.31973 580.783 6.32637 577.201 8.31033 573.621C10.2976 570.049 12.2653 566.469 14.2007 562.874C10.6183 560.949 7.04883 558.985 3.49874 557.011C-0.048101 555.043 -3.57881 553.059 -7.09987 551.046" stroke="#E6007E" stroke-width="3.97"/>
<path d="M85.176 538.3C71.4008 543.832 57.4492 548.918 43.3831 553.632" stroke="#E6007E" stroke-width="3.97"/>
<path d="M75.1087 560.748C76.8557 557.004 78.5769 553.274 80.2558 549.54C81.9282 545.777 83.5683 542.031 85.1727 538.294C81.4165 536.683 77.6958 535.047 74.0075 533.41C70.3061 531.748 66.6305 530.04 62.9874 528.348" stroke="#E6007E" stroke-width="3.97"/>
<path d="M153.092 506.274C140.087 513.429 126.804 520.068 113.303 526.24" stroke="#E6007E" stroke-width="3.97"/>
<path d="M145.691 529.762C147.01 525.829 148.309 521.954 149.538 518.017C150.759 514.084 151.948 510.168 153.092 506.274C149.166 505.114 145.281 503.941 141.426 502.746C137.581 501.553 133.718 500.247 129.924 498.98" stroke="#E6007E" stroke-width="3.97"/>
<path d="M216.288 465.75C204.366 474.59 192.087 482.945 179.488 490.795" stroke="#E6007E" stroke-width="3.97"/>
<path d="M212.109 490.064C213.673 481.886 215.125 473.855 216.288 465.75C208.251 464.594 200.229 463.146 192.391 461.646" stroke="#E6007E" stroke-width="3.97"/>
<path d="M273.393 417.022C262.779 427.393 251.784 437.379 240.363 446.859" stroke="#E6007E" stroke-width="3.97"/>
<path d="M272.549 441.659C272.778 437.512 272.969 433.401 273.131 429.312C273.277 425.208 273.341 421.087 273.4 417.019C269.315 416.961 265.281 416.893 261.238 416.757C257.176 416.599 253.145 416.408 249.147 416.185" stroke="#E6007E" stroke-width="3.97"/>
<path d="M323.66 361.245C314.404 372.846 304.767 384.143 294.731 395.082" stroke="#E6007E" stroke-width="3.97"/>
<path d="M325.961 385.781C325.656 381.652 325.29 377.53 324.917 373.443C324.535 369.353 324.159 365.325 323.66 361.245C319.648 361.735 315.555 362.111 311.53 362.493C307.488 362.859 303.499 363.216 299.493 363.507" stroke="#E6007E" stroke-width="3.97"/>
<path d="M367.127 300.007C363.01 306.178 359.046 312.459 354.88 318.598L348.593 327.785C346.468 330.827 344.282 333.827 342.131 336.85" stroke="#E6007E" stroke-width="3.97"/>
<path d="M372.056 324.045C370.492 315.92 368.811 307.886 367.127 300.007C359.06 301.737 351.132 303.389 343.243 304.908" stroke="#E6007E" stroke-width="3.97"/>
<path d="M418.373 245.513C412.499 250.048 406.868 254.889 401.42 259.931C395.987 264.989 390.737 270.247 385.828 275.811" stroke="#E6007E" stroke-width="3.97"/>
<path d="M416.6 269.498C416.649 267.535 416.714 265.556 416.805 263.563C416.896 261.571 417.038 259.601 417.181 257.599C417.457 253.575 417.891 249.593 418.377 245.52C414.349 245.044 410.227 244.591 406.115 244.303C404.055 244.157 401.955 243.999 399.872 243.905C397.792 243.818 395.699 243.738 393.577 243.68" stroke="#E6007E" stroke-width="3.97"/>
<path d="M482.576 206.794C475.858 209.945 469.238 213.306 462.709 216.832C456.18 220.358 449.742 224.065 443.471 228.021" stroke="#E6007E" stroke-width="3.97"/>
<path d="M475.124 229.812C476.23 225.987 477.393 222.132 478.647 218.312C479.886 214.46 481.201 210.633 482.576 206.794C478.736 205.42 474.857 204.082 470.947 202.825C467.02 201.535 463.071 200.347 459.06 199.181" stroke="#E6007E" stroke-width="3.97"/>
<path d="M552.577 179.645C545.517 181.922 538.479 184.294 531.486 186.772C524.498 189.272 517.554 191.88 510.651 194.614" stroke="#E6007E" stroke-width="3.97"/>
<path d="M541.854 201.466C545.264 194.167 548.859 186.913 552.577 179.645C545.329 175.934 537.971 172.294 530.496 168.794" stroke="#E6007E" stroke-width="3.97"/>
<path d="M624.934 159.469C610.527 163.024 596.16 166.77 581.878 170.813" stroke="#E6007E" stroke-width="3.97"/>
<path d="M612.497 180.45C616.563 173.437 620.716 166.453 624.934 159.469C617.959 155.254 610.929 151.076 603.835 146.963" stroke="#E6007E" stroke-width="3.97"/>
<path d="M698.146 142.584C683.661 145.805 669.172 149.037 654.713 152.375" stroke="#E6007E" stroke-width="3.97"/>
<path d="M685.038 163.231L698.146 142.584L677.483 129.478" stroke="#E6007E" stroke-width="3.97"/>
<path d="M771.359 125.715C756.952 129.286 742.49 132.634 728.017 135.914" stroke="#E6007E" stroke-width="3.97"/>
<path d="M758.53 146.611C762.861 139.658 767.144 132.69 771.355 125.709C764.374 121.498 757.451 117.242 750.557 112.946" stroke="#E6007E" stroke-width="3.97"/>
<path d="M843.496 104.814C829.482 109.696 815.272 114.028 800.967 117.977" stroke="#E6007E" stroke-width="3.97"/>
<path d="M832.296 126.754C836.209 119.485 839.956 112.146 843.496 104.814C836.144 101.269 828.961 97.5897 821.871 93.7745" stroke="#E6007E" stroke-width="3.97"/>
<path d="M911.332 72.9498C898.899 81.0655 885.623 87.83 872.015 93.7405" stroke="#E6007E" stroke-width="3.97"/>
<path d="M904.813 96.9827C907.437 88.9443 909.679 80.9526 911.338 72.9465C903.377 71.2978 895.641 69.114 888.18 66.6539" stroke="#E6007E" stroke-width="3.97"/>
<path d="M343.467 376.998C338.408 382.427 333.551 388.046 328.993 393.904C324.483 399.795 320.188 405.853 316.243 412.14" stroke="#E6007E" stroke-width="3.97"/>
<path d="M345.523 400.918C345.38 399.944 345.231 398.956 345.105 397.982L344.766 395.055C344.545 393.089 344.348 391.104 344.157 389.1C343.83 385.12 343.603 381.098 343.461 377.001C339.412 377.144 335.292 377.371 331.141 377.711C329.084 377.896 327.009 378.107 324.926 378.337L321.782 378.698C320.736 378.827 319.704 378.983 318.658 379.129" stroke="#E6007E" stroke-width="3.97"/>
<path d="M401.82 330.536C395.493 334.414 389.261 338.448 383.204 342.734C377.17 347.049 371.244 351.528 365.545 356.282" stroke="#E6007E" stroke-width="3.97"/>
<path d="M397.04 354.188C397.335 352.214 397.682 350.263 398.042 348.305C398.401 346.348 398.777 344.374 399.166 342.393C399.97 338.452 400.868 334.52 401.82 330.536C397.875 329.597 393.859 328.677 389.81 327.854L383.707 326.689C381.655 326.304 379.591 325.941 377.529 325.634" stroke="#E6007E" stroke-width="3.97"/>
<path d="M469.123 298.081C455.263 303.396 441.648 309.342 428.352 315.938" stroke="#E6007E" stroke-width="3.97"/>
<path d="M459.852 320.484C461.285 316.744 462.767 312.988 464.326 309.275L466.679 303.66L469.123 298.081L463.501 295.618L457.835 293.243C454.03 291.648 450.203 290.138 446.33 288.651" stroke="#E6007E" stroke-width="3.97"/>
<path d="M540.357 275.307C526.016 279.121 511.77 283.301 497.661 287.93" stroke="#E6007E" stroke-width="3.97"/>
<path d="M528.472 296.546C530.385 292.986 532.33 289.443 534.314 285.912C536.288 282.362 538.305 278.831 540.35 275.31C536.82 273.262 533.269 271.239 529.7 269.243C526.124 267.233 522.522 265.253 518.897 263.308" stroke="#E6007E" stroke-width="3.97"/>
<path d="M613.232 258.43C598.688 261.389 584.186 264.546 569.74 267.943" stroke="#E6007E" stroke-width="3.97"/>
<path d="M599.936 278.88C604.303 272.047 608.742 265.227 613.232 258.43C606.432 253.933 599.586 249.476 592.672 245.061" stroke="#E6007E" stroke-width="3.97"/>
<path d="M687.093 240.649C672.489 243.298 657.888 245.953 643.311 248.734" stroke="#E6007E" stroke-width="3.97"/>
<path d="M673.193 260.754L687.093 240.649L666.962 226.731" stroke="#E6007E" stroke-width="3.97"/>
</g>
<defs>
<clipPath id="clip0_27_2736">
<rect width="1426.17" height="782.219" fill="white" transform="translate(-659 58.9657) rotate(-26.7501)"/>
</clipPath>
</defs>
</svg>
