<svg id="Layer_1" viewBox="0 0 64 64" xmlns="http://www.w3.org/2000/svg" data-name="Layer 1"><path d="m57.6 5.43h-51.2c-2.43 0-4.4 1.97-4.4 4.4v12.54c0 2.43 1.97 4.4 4.4 4.4h6.97v27.08c0 2.6 2.12 4.72 4.73 4.72h27.81c2.6 0 4.72-2.12 4.72-4.72v-27.08h6.97c2.43 0 4.4-1.97 4.4-4.4v-12.54c0-2.43-1.97-4.4-4.4-4.4zm-44.23 11.92h-2.41v-2.5h2.41zm9.21 39.22h-4.48c-1.51 0-2.73-1.22-2.73-2.72v-39h7.21zm26.05-2.72c0 1.5-1.22 2.72-2.72 2.72h-14.63v-41.72h17.35zm11.37-31.48c0 1.32-1.08 2.4-2.4 2.4h-6.97v-5.42h3.42c.55 0 1-.45 1-1v-4.5c0-.55-.45-1-1-1h-44.09c-.55 0-1 .45-1 1v4.5c0 .55.45 1 1 1h3.41v5.42h-6.97c-1.32 0-2.4-1.08-2.4-2.4v-12.54c0-1.32 1.08-2.4 2.4-2.4h51.2c1.32 0 2.4 1.08 2.4 2.4zm-9.37-5.02v-2.5h2.42v2.5z"/><path d="m39.79 54.08h5.74c.56 0 1-.45 1-1v-13.23c0-.55-.44-1-1-1h-5.74c-.55 0-1 .45-1 1v13.23c0 .55.45 1 1 1z"/></svg>
