<svg xmlns="http://www.w3.org/2000/svg" viewBox="0 0 100 100">
  <!-- Ticket de caisse : rectangle avec bas en zigzag et lignes de texte -->
  <path fill="white" fill-rule="evenodd" d="
    M22 4 Q20 4 20 6 L20 82
    L23 90 L26 82 L29 90 L32 82 L35 90 L38 82 L41 90 L44 82
    L47 90 L50 82 L53 90 L56 82 L59 90 L62 82 L65 90 L68 82
    L71 90 L74 82 L77 90 L80 82
    L80 6 Q80 4 78 4 Z

    M26 16 L74 16 L74 20 L26 20 Z
    M26 26 L58 26 L58 30 L26 30 Z
    M26 36 L74 36 L74 40 L26 40 Z
    M26 46 L48 46 L48 50 L26 50 Z
    M26 56 L68 56 L68 60 L26 60 Z
    M26 66 L42 66 L42 70 L26 70 Z
  "/>
</svg>
