<svg width="143" height="163" viewBox="0 0 143 163" fill="none" xmlns="http://www.w3.org/2000/svg">
<g clip-path="url(#clip0_119_2)">
<path d="M35.75 0C38.5589 0 40.8571 2.29219 40.8571 5.09375V20.375H102.143V5.09375C102.143 2.29219 104.441 0 107.25 0C110.059 0 112.357 2.29219 112.357 5.09375V20.375H122.571C133.839 20.375 143 29.5119 143 40.75V50.9375V61.125V142.625C143 153.863 133.839 163 122.571 163H20.4286C9.16094 163 0 153.863 0 142.625V61.125V50.9375V40.75C0 29.5119 9.16094 20.375 20.4286 20.375H30.6429V5.09375C30.6429 2.29219 32.9411 0 35.75 0ZM132.786 61.125H99.5893V84.0469H132.786V61.125ZM132.786 94.2344H99.5893V119.703H132.786V94.2344ZM132.786 129.891H99.5893V152.812H122.571C128.221 152.812 132.786 148.26 132.786 142.625V129.891ZM89.375 119.703V94.2344H53.625V119.703H89.375ZM53.625 129.891V152.812H89.375V129.891H53.625ZM43.4107 119.703V94.2344H10.2143V119.703H43.4107ZM10.2143 129.891V142.625C10.2143 148.26 14.7788 152.812 20.4286 152.812H43.4107V129.891H10.2143ZM10.2143 84.0469H43.4107V61.125H10.2143V84.0469ZM53.625 84.0469H89.375V61.125H53.625V84.0469ZM122.571 30.5625H20.4286C14.7788 30.5625 10.2143 35.115 10.2143 40.75V50.9375H132.786V40.75C132.786 35.115 128.221 30.5625 122.571 30.5625Z" fill="white"/>
</g>
<defs>
<clipPath id="clip0_119_2">
<rect width="143" height="163" fill="white"/>
</clipPath>
</defs>
</svg>
