<?xml version="1.0" encoding="UTF-8" standalone="no"?>
<!-- Created with Inkscape (http://www.inkscape.org/) -->

<svg
   width="1440"
   height="600"
   viewBox="0 0 381.00001 158.75"
   version="1.1"
   id="svg1"
   inkscape:version="1.4.3 (0d15f75, 2025-12-25)"
   sodipodi:docname="dessin-1.svg"
   xmlns:inkscape="http://www.inkscape.org/namespaces/inkscape"
   xmlns:sodipodi="http://sodipodi.sourceforge.net/DTD/sodipodi-0.dtd"
   xmlns="http://www.w3.org/2000/svg"
   xmlns:svg="http://www.w3.org/2000/svg">
  <sodipodi:namedview
     id="namedview1"
     pagecolor="#ffffff"
     bordercolor="#000000"
     borderopacity="0.25"
     inkscape:showpageshadow="2"
     inkscape:pageopacity="0.0"
     inkscape:pagecheckerboard="0"
     inkscape:deskcolor="#d1d1d1"
     inkscape:document-units="mm"
     inkscape:zoom="1"
     inkscape:cx="801"
     inkscape:cy="361.5"
     inkscape:window-width="1920"
     inkscape:window-height="991"
     inkscape:window-x="-9"
     inkscape:window-y="-9"
     inkscape:window-maximized="1"
     inkscape:current-layer="layer5" />
  <defs
     id="defs1" />
  <g
     inkscape:groupmode="layer"
     id="layer5"
     inkscape:label="grandes"
     style="opacity:0.301">
    <path
       style="fill:#ffffff;stroke-width:0.264583"
       d="m 0,158.22083 0.52916666,-47.88958 12.96458334,6.35 11.90625,-5.29167 8.995833,-8.46666 14.022916,-3.704171 14.552084,5.291671 10.583333,12.96458 16.404166,-2.64583 6.35,-9.26042 12.964588,-6.614585 14.81666,-5.027083 21.69583,11.112498 9.525,9.525 14.2875,2.64584 13.75834,-7.40834 7.9375,-9.78958 14.2875,0.26458 10.58333,-8.731248 10.84792,-1.852083 8.99583,5.820833 7.67292,11.641668 12.43541,10.84792 15.08125,-6.08542 8.20209,-11.1125 12.7,-5.291668 17.99166,5.291668 9.26042,10.84792 16.93333,4.23333 13.75834,-11.1125 9.78958,0.52917 11.90625,-7.143755 6.61458,2.381255 3.70417,-5.291671 -0.52917,63.235411 z"
       id="path3" />
  </g>
  <g
     inkscape:groupmode="layer"
     id="layer6"
     inkscape:label="moyenne"
     style="opacity:0.5">
    <path
       style="fill:#ffffff;stroke-width:0.264583"
       d="M 0.79374999,158.48541 0.52916666,125.94167 12.170833,130.175 l 8.202083,-5.55625 4.233334,-7.67292 8.202083,-3.175 4.7625,6.61459 7.408333,1.85208 3.175,5.02708 9.525,-4.49791 7.14375,-5.55625 5.027083,3.96875 3.704167,6.08541 10.054166,-2.11666 10.583333,-7.40834 7.672915,-2.91041 3.96875,-7.40834 6.87917,1.85209 3.96875,5.29166 3.70417,5.55625 2.11666,5.82084 6.08542,-2.64584 5.02708,-5.29166 6.87917,-5.55625 6.61458,1.5875 7.67292,8.20208 5.55625,3.175 1.32291,3.43958 17.99167,-3.70416 6.35,-6.61459 9.26042,-5.55625 6.87916,-7.67291 6.08542,1.05833 3.70417,5.29167 6.61458,1.85208 3.70417,6.08542 6.35,4.49791 5.82083,5.02709 10.31875,-8.73125 8.46667,-2.64584 5.82083,6.35 5.02708,3.43959 2.64584,3.96875 5.29166,-4.7625 7.40834,-2.64584 5.82083,-5.02708 11.1125,-5.02708 9.26042,4.23333 5.82083,5.29167 2.91042,7.40833 8.73125,-1.32292 5.55625,-5.29166 9.525,-3.43959 6.61458,1.32292 0.79375,6.35 8.73125,3.70416 10.05417,-6.87916 5.29166,-8.99583 5.29167,1.85208 2.64583,6.61458 4.7625,-5.55625 -0.52916,38.89375 z"
       id="path4" />
  </g>
  <g
     inkscape:groupmode="layer"
     id="layer7"
     inkscape:label="petites">
    <path
       style="fill:#ffffff;stroke-width:0.264583"
       d="m 0.52916666,158.75 v -20.90209 l 8.99583324,-0.26458 5.0270831,3.175 8.202083,-6.87917 6.35,1.5875 11.377083,-4.76249 9.260417,-8.73125 5.291667,3.43958 2.38125,5.55625 11.377083,3.70416 16.404166,-12.43541 4.7625,3.43958 8.202083,2.91042 0.79375,3.70416 7.937505,3.96875 11.1125,-5.02708 4.7625,3.43958 7.67291,-7.40833 7.67292,-1.5875 5.82083,3.96875 8.73125,2.64583 7.67292,-2.91041 11.90625,-8.46667 6.87916,1.85209 3.70417,4.23333 6.08542,6.87916 6.61458,-2.38124 8.73125,-7.40834 7.67292,0.26459 6.87916,-3.43959 8.99584,-2.11666 7.40833,2.91041 11.1125,-4.23333 5.55625,8.73125 6.87917,1.5875 11.90625,-5.29167 9.78958,5.29167 6.35,5.82083 h 8.73125 l 6.35,-4.23333 7.14375,-7.9375 6.61458,-2.11667 5.29167,5.29167 9.26042,6.35 2.11666,4.23333 2.11667,6.61458 5.29167,1.85209 5.82083,-2.91042 6.35,-6.61458 6.08542,0.79375 2.91041,4.49791 6.87917,-4.7625 5.82083,1.5875 3.70417,-2.64583 4.23333,4.23333 0.26459,20.90209 z"
       id="path5" />
  </g>
</svg>
