<svg width="512" height="512" viewBox="0 0 512 512" fill="none" xmlns="http://www.w3.org/2000/svg">
<g clip-path="url(#clip0_27_1830)">
<path d="M256 32C315.408 32 372.384 55.5999 414.392 97.6081C456.4 139.616 480 196.592 480 256C480 315.408 456.4 372.384 414.392 414.392C372.384 456.4 315.408 480 256 480C196.592 480 139.616 456.4 97.6081 414.392C55.5999 372.384 32 315.408 32 256C32 196.592 55.5999 139.616 97.6081 97.6081C139.616 55.5999 196.592 32 256 32ZM256 512C323.895 512 389.01 485.029 437.019 437.019C485.029 389.01 512 323.895 512 256C512 188.105 485.029 122.99 437.019 74.9807C389.01 26.9714 323.895 0 256 0C188.105 0 122.99 26.9714 74.9807 74.9807C26.9714 122.99 0 188.105 0 256C0 323.895 26.9714 389.01 74.9807 437.019C122.99 485.029 188.105 512 256 512ZM208 352C199.2 352 192 359.2 192 368C192 376.8 199.2 384 208 384H304C312.8 384 320 376.8 320 368C320 359.2 312.8 352 304 352H272V240C272 231.2 264.8 224 256 224H216C207.2 224 200 231.2 200 240C200 248.8 207.2 256 216 256H240V352H208ZM256 184C262.365 184 268.47 181.471 272.971 176.971C277.471 172.47 280 166.365 280 160C280 153.635 277.471 147.53 272.971 143.029C268.47 138.529 262.365 136 256 136C249.635 136 243.53 138.529 239.029 143.029C234.529 147.53 232 153.635 232 160C232 166.365 234.529 172.47 239.029 176.971C243.53 181.471 249.635 184 256 184Z" fill="#E6007E"/>
</g>
<defs>
<clipPath id="clip0_27_1830">
<rect width="512" height="512" fill="white"/>
</clipPath>
</defs>
</svg>
