<svg width="31" height="30" viewBox="0 0 31 30" fill="none" xmlns="http://www.w3.org/2000/svg">
<path d="M15.1893 7.30838C10.9317 7.30838 7.49763 10.7425 7.49763 15C7.49763 19.2575 10.9317 22.6916 15.1893 22.6916C19.4468 22.6916 22.8809 19.2575 22.8809 15C22.8809 10.7425 19.4468 7.30838 15.1893 7.30838ZM15.1893 20.0006C12.4379 20.0006 10.1887 17.758 10.1887 15C10.1887 12.242 12.4312 9.99944 15.1893 9.99944C17.9473 9.99944 20.1898 12.242 20.1898 15C20.1898 17.758 17.9406 20.0006 15.1893 20.0006ZM24.9895 6.99375C24.9895 7.99119 24.1862 8.7878 23.1955 8.7878C22.1981 8.7878 21.4015 7.98449 21.4015 6.99375C21.4015 6.00301 22.2048 5.19971 23.1955 5.19971C24.1862 5.19971 24.9895 6.00301 24.9895 6.99375ZM30.0838 8.81457C29.97 6.41136 29.4211 4.28261 27.6605 2.52873C25.9066 0.774852 23.7779 0.225929 21.3747 0.105433C18.8978 -0.0351445 11.474 -0.0351445 8.99713 0.105433C6.60061 0.219235 4.47186 0.768158 2.71129 2.52203C0.950714 4.27591 0.408485 6.40466 0.28799 8.80788C0.147412 11.2847 0.147412 18.7086 0.28799 21.1854C0.401791 23.5886 0.950714 25.7174 2.71129 27.4713C4.47186 29.2251 6.59391 29.7741 8.99713 29.8946C11.474 30.0351 18.8978 30.0351 21.3747 29.8946C23.7779 29.7808 25.9066 29.2318 27.6605 27.4713C29.4144 25.7174 29.9633 23.5886 30.0838 21.1854C30.2244 18.7086 30.2244 11.2914 30.0838 8.81457ZM26.884 23.843C26.3618 25.1551 25.351 26.1659 24.0323 26.6947C22.0575 27.478 17.3716 27.2972 15.1893 27.2972C13.0069 27.2972 8.31432 27.4713 6.34623 26.6947C5.03417 26.1726 4.02335 25.1618 3.49451 23.843C2.71129 21.8682 2.89203 17.1823 2.89203 15C2.89203 12.8177 2.71798 8.12507 3.49451 6.15698C4.01665 4.84492 5.02747 3.8341 6.34623 3.30525C8.32101 2.52203 13.0069 2.70278 15.1893 2.70278C17.3716 2.70278 22.0642 2.52873 24.0323 3.30525C25.3443 3.8274 26.3552 4.83822 26.884 6.15698C27.6672 8.13176 27.4865 12.8177 27.4865 15C27.4865 17.1823 27.6672 21.8749 26.884 23.843Z" fill="white"/>
</svg>
