<svg width="567" height="210" viewBox="0 0 567 210" fill="none" xmlns="http://www.w3.org/2000/svg">
<path d="M285.61 6.98999C275.25 6.98999 267.13 14.65 267.13 25.02C267.13 35.39 275.24 42.82 285.61 42.82C295.98 42.82 304.09 35.16 304.09 25.02C304.09 14.88 295.98 6.98999 285.61 6.98999Z" fill="#312783"/>
<path d="M301.62 55.21H269.62V171.04H301.62V55.21Z" fill="#312783"/>
<path d="M403.25 56.86C395.81 47.39 384.32 41.09 368.32 41.09C337.45 41.09 314.69 64.3 314.69 100.12C314.69 135.94 337.45 159.61 368.54 159.61C385.22 159.61 396.49 152.17 404.15 142.26L407.3 158.26H435.02V0.530029H403.25V56.87V56.86ZM375.53 133.7C358.18 133.7 347.14 120.18 347.14 100.35C347.14 80.52 358.18 67 375.53 67C392.88 67 403.7 80.74 403.7 100.57C403.7 120.4 392.88 133.7 375.53 133.7Z" fill="#312783"/>
<path d="M565.99 94.7901C566.66 91.1901 566.89 87.3501 566.89 83.9701C566.44 49.9501 543.01 28.3201 508.3 28.3201C473.59 28.3201 448.81 51.7501 448.81 87.8101C448.81 123.87 472.02 146.85 510.55 146.85C541.42 146.85 561.47 128.82 565.08 106.29H533.75C531.05 117.11 522.03 122.74 509.19 122.74C493.19 122.74 482.6 112.82 481.93 96.3701V94.7901H565.98H565.99ZM508.53 51.9701C522.95 51.9701 532.64 59.8601 534.89 74.0501H482.61C484.41 60.3001 494.78 51.9701 508.53 51.9701Z" fill="#312783"/>
<path d="M19.68 84.97V93.53H0.530029V120.35H19.68V209.36H51.45V120.35H80.52V93.53H50.78V88.13C50.78 81.59 53.93 78.66 60.24 78.66H80.52V51.62H54.61C31.18 51.62 19.68 63.56 19.68 84.97Z" fill="#312783"/>
<path d="M127.7 38.85H95.93V196.59H127.7V38.85Z" fill="#312783"/>
<path d="M222.44 125.9C222.44 147.31 213.2 158.8 197.43 158.8C181.66 158.8 174.9 148.66 174.9 127.92V67.98H143.13V132.21C143.13 173.22 165.21 185.16 189.1 185.16C205.55 185.16 215.69 178.85 223.12 169.84L226.05 183.81H254.22V67.98H222.45V125.9H222.44Z" fill="#312783"/>
</svg>
