<svg width="129" height="47" viewBox="0 0 129 47" fill="none" xmlns="http://www.w3.org/2000/svg">
<g clip-path="url(#clip0_1_43)">
<mask id="mask0_1_43" style="mask-type:luminance" maskUnits="userSpaceOnUse" x="0" y="0" width="129" height="47">
<path d="M129 0H0V47H129V0Z" fill="white"/>
</mask>
<g mask="url(#mask0_1_43)">
<path d="M0 20.9303H4.27391V19.0042C4.27391 14.1843 6.83298 11.4948 12.0654 11.4948H17.8431V17.584H13.323C11.9159 17.584 11.2124 18.2408 11.2124 19.7143V20.9303H17.8431V26.9662H11.3619V47H4.27391V26.9662H0V20.9303Z" fill="#E6007E"/>
</g>
<path d="M27.2616 8.62775H20.1736V44.1241H27.2616V8.62775Z" fill="#E6007E"/>
<mask id="mask1_1_43" style="mask-type:luminance" maskUnits="userSpaceOnUse" x="0" y="0" width="129" height="47">
<path d="M129 0H0V47H129V0Z" fill="white"/>
</mask>
<g mask="url(#mask1_1_43)">
<path d="M49.4842 15.1785H56.5722V41.2482H50.2932L49.6425 38.1059C47.9804 40.1297 45.7203 41.5588 42.0532 41.5588C36.724 41.5588 31.7993 38.8693 31.7993 29.638V15.1873H38.8873V28.6793C38.8873 33.3483 40.3911 35.6295 43.9087 35.6295C47.4264 35.6295 49.4842 33.0376 49.4842 28.2266V15.1873V15.1785Z" fill="#E6007E"/>
<path d="M61.4529 12.3114H68.5849V38.3811H61.4529V12.3114ZM60.9077 5.51216C60.9077 3.17769 62.7192 1.45569 65.0233 1.45569C67.3273 1.45569 69.1477 3.17769 69.1477 5.51216C69.1477 7.84662 67.3361 9.51537 65.0233 9.51537C62.7104 9.51537 60.9077 7.79337 60.9077 5.51216Z" fill="#E6007E"/>
<path d="M91.9858 22.5192C91.9858 18.0544 89.5762 14.9654 85.7069 14.9654C81.8375 14.9654 79.3751 18.01 79.3751 22.4748C79.3751 26.9396 81.8375 29.9841 85.7069 29.9841C89.5762 29.9841 91.9858 26.9396 91.9858 22.528M91.8803 0H98.9683V35.4963H92.7861L92.0826 31.8925C90.3765 34.1205 87.8614 35.7981 84.1415 35.7981C77.2118 35.7981 72.1376 30.6765 72.1376 22.4127C72.1376 14.1488 77.2118 9.12483 84.0975 9.12483C87.6679 9.12483 90.227 10.545 91.8891 12.6754V0H91.8803Z" fill="#E6007E"/>
<path d="M121.868 16.5454C121.367 13.35 119.203 11.5747 115.994 11.5747C112.784 11.5747 110.62 13.4476 110.216 16.5454H121.868ZM102.671 19.6433C102.671 11.5303 107.947 6.25781 115.932 6.25781C123.917 6.25781 128.894 11.122 128.991 18.7823C128.991 19.5456 128.938 20.4066 128.789 21.2144H110.049V21.5694C110.198 25.2708 112.564 27.5077 116.126 27.5077C118.992 27.5077 120.997 26.2384 121.604 23.8063H128.587C127.786 28.8746 123.31 32.9311 116.425 32.9311C107.833 32.9311 102.662 27.7029 102.662 19.6433" fill="#E6007E"/>
</g>
</g>
<defs>
<clipPath id="clip0_1_43">
<rect width="129" height="47" fill="white"/>
</clipPath>
</defs>
</svg>
