<svg width="804" height="662" viewBox="0 0 804 662" fill="none" xmlns="http://www.w3.org/2000/svg">
<path d="M403.61 124.99C393.25 124.99 385.13 132.65 385.13 143.02C385.13 153.39 393.24 160.82 403.61 160.82C413.98 160.82 422.09 153.16 422.09 143.02C422.09 132.88 413.98 124.99 403.61 124.99Z" fill="white"/>
<path d="M419.62 173.21H387.62V289.04H419.62V173.21Z" fill="white"/>
<path d="M521.25 174.86C513.81 165.39 502.32 159.09 486.32 159.09C455.45 159.09 432.69 182.3 432.69 218.12C432.69 253.94 455.45 277.61 486.54 277.61C503.22 277.61 514.49 270.17 522.15 260.26L525.3 276.26H553.02V118.53H521.25V174.87V174.86ZM493.53 251.7C476.18 251.7 465.14 238.18 465.14 218.35C465.14 198.52 476.18 185 493.53 185C510.88 185 521.7 198.74 521.7 218.57C521.7 238.4 510.88 251.7 493.53 251.7Z" fill="white"/>
<path d="M683.99 212.79C684.66 209.19 684.89 205.35 684.89 201.97C684.44 167.95 661.01 146.32 626.3 146.32C591.59 146.32 566.81 169.75 566.81 205.81C566.81 241.87 590.02 264.85 628.55 264.85C659.42 264.85 679.47 246.82 683.08 224.29H651.75C649.05 235.11 640.03 240.74 627.19 240.74C611.19 240.74 600.6 230.82 599.93 214.37V212.79H683.98H683.99ZM626.53 169.97C640.95 169.97 650.64 177.86 652.89 192.05H600.61C602.41 178.3 612.78 169.97 626.53 169.97Z" fill="white"/>
<path d="M137.68 202.97V211.53H118.53V238.35H137.68V327.36H169.45V238.35H198.52V211.53H168.78V206.13C168.78 199.59 171.93 196.66 178.24 196.66H198.52V169.62H172.61C149.18 169.62 137.68 181.56 137.68 202.97Z" fill="white"/>
<path d="M245.7 156.85H213.93V314.59H245.7V156.85Z" fill="white"/>
<path d="M340.44 243.9C340.44 265.31 331.2 276.8 315.43 276.8C299.66 276.8 292.9 266.66 292.9 245.92V185.98H261.13V250.21C261.13 291.22 283.21 303.16 307.1 303.16C323.55 303.16 333.69 296.85 341.12 287.84L344.05 301.81H372.22V185.98H340.45V243.9H340.44Z" fill="white"/>
<path d="M168.49 419.4C168.49 421.15 168.31 423.09 167.94 425.21L163.33 451.12H155.77L160.29 425.58C160.57 424.01 160.84 422.35 160.84 420.05C160.84 414.15 157.24 410.46 150.61 410.46C141.58 410.46 135.4 417.28 133.46 427.88L129.31 451.11H121.75L130.05 404.09H136.6L136.51 410.17C139.74 406.76 144.9 403.53 152.37 403.53C161.4 403.53 168.5 408.32 168.5 419.39L168.49 419.4Z" fill="white"/>
<path d="M217.81 444.2L216.61 451.11H212.74C207.85 451.11 205.36 448.9 205.09 446.04C201.49 448.99 196.61 451.66 189.42 451.66C179.92 451.66 173.29 447.14 173.29 438.94C173.29 427.88 182.14 423.27 194.49 423.27H208.5L208.96 420.78C209.05 420.04 209.24 418.66 209.24 417.74C209.24 413.04 205.28 410.27 199.01 410.27C191.36 410.27 187.76 413.4 186.01 418.2H178.27C181.04 408.7 187.86 403.54 199.84 403.54C209.61 403.54 216.9 408.24 216.9 417.28C216.9 418.76 216.72 420.32 216.44 421.98L213.03 440.23C212.85 441.15 212.75 441.61 212.75 442.17C212.75 443.37 213.4 444.2 215.33 444.2H217.82H217.81ZM207.03 431.66L207.4 429.63H193.11C185.92 429.63 181.03 432.3 181.03 438.3C181.03 442.91 184.72 445.21 190.16 445.21C199.84 445.21 205.65 439.49 207.03 431.66Z" fill="white"/>
<path d="M233.12 411.01H224.64L225.84 404.09H234.32L236.62 390.91H244.18L241.88 404.09H253.77L252.57 411.01H240.68L235.7 439.04C235.61 439.78 235.52 440.42 235.52 440.98C235.52 443.38 236.72 444.21 239.76 444.21H247.69L246.49 451.12H238.56C231 451.12 227.87 448.17 227.87 442.36C227.87 441.25 228.15 439.59 228.52 437.29L233.13 411.02L233.12 411.01Z" fill="white"/>
<path d="M293.69 404.09H301.25L292.95 451.11H286.5V445.21C283.18 448.62 278.48 451.66 271.1 451.66C262.25 451.66 255.52 447.14 255.52 436.72C255.52 434.05 255.8 432.02 256.17 429.9L260.69 404.09H268.25L263.73 430C263.45 431.66 263.18 433.41 263.18 435.72C263.18 441.53 266.22 444.76 272.58 444.76C281.34 444.76 287.79 437.94 289.64 427.34L293.7 404.11L293.69 404.09Z" fill="white"/>
<path d="M335.26 404.09L333.97 411.47H330.47C320.61 411.47 316.18 419.95 314.8 427.42L310.65 451.11H303.09L311.39 404.09H317.94L317.76 410.73C320.53 407.32 324.67 404.09 332.88 404.09H335.28H335.26Z" fill="white"/>
<path d="M378.96 421.89C378.96 424.56 378.78 426.96 378.22 429.36H341.9C341.81 430.01 341.81 430.56 341.81 431.11C341.81 438.3 345.77 444.94 355.27 444.94C362.92 444.94 366.52 441.16 369.1 435.35H376.75C373.62 445.95 365.59 451.67 354.99 451.67C341.81 451.67 334.15 443.28 334.15 431.29C334.15 416.54 343.74 403.54 360.06 403.54C371.77 403.54 378.96 410.92 378.96 421.89ZM370.76 422.81C370.85 422.16 370.85 421.8 370.85 421.15C370.85 414.24 366.33 410.18 359.14 410.18C351.3 410.18 345.22 415.43 343.28 422.81H370.75H370.76Z" fill="white"/>
<path d="M394.45 386.58H402.01L390.58 451.12H383.02L394.45 386.58Z" fill="white"/>
<path d="M412.24 386.58H419.8L408.37 451.12H400.81L412.24 386.58Z" fill="white"/>
<path d="M465.89 421.89C465.89 424.56 465.71 426.96 465.15 429.36H428.83C428.74 430.01 428.74 430.56 428.74 431.11C428.74 438.3 432.7 444.94 442.2 444.94C449.85 444.94 453.45 441.16 456.03 435.35H463.68C460.55 445.95 452.52 451.67 441.92 451.67C428.74 451.67 421.08 443.28 421.08 431.29C421.08 416.54 430.67 403.54 446.99 403.54C458.7 403.54 465.89 410.92 465.89 421.89ZM457.69 422.81C457.78 422.16 457.78 421.8 457.78 421.15C457.78 414.24 453.26 410.18 446.07 410.18C438.23 410.18 432.15 415.43 430.21 422.81H457.68H457.69Z" fill="white"/>
<path d="M544.9 418.66C544.9 420.41 544.72 422.16 544.35 424.28L539.65 451.11H532.09L536.88 424.19C537.16 422.53 537.25 421.06 537.25 419.76C537.25 413.58 533.93 410.45 528.31 410.45C520.29 410.45 514.67 416.63 513.01 426.22L508.58 451.11H501.02L505.81 424.19C506.09 422.62 506.18 421.15 506.18 419.86C506.18 413.59 502.77 410.46 497.05 410.46C489.12 410.46 483.5 417.1 481.84 426.59L477.51 451.11H469.95L478.25 404.09H484.8L484.71 410.27C487.66 406.95 491.72 403.54 498.63 403.54C505.54 403.54 510.52 406.67 512.09 412.85C515.5 407.69 521.13 403.54 529.51 403.54C537.89 403.54 544.91 408.06 544.91 418.66H544.9Z" fill="white"/>
<path d="M596.53 421.89C596.53 424.56 596.35 426.96 595.79 429.36H559.47C559.38 430.01 559.38 430.56 559.38 431.11C559.38 438.3 563.34 444.94 572.84 444.94C580.49 444.94 584.09 441.16 586.67 435.35H594.32C591.19 445.95 583.16 451.67 572.56 451.67C559.38 451.67 551.72 443.28 551.72 431.29C551.72 416.54 561.31 403.54 577.63 403.54C589.34 403.54 596.53 410.92 596.53 421.89ZM588.32 422.81C588.41 422.16 588.41 421.8 588.41 421.15C588.41 414.24 583.89 410.18 576.7 410.18C568.86 410.18 562.78 415.43 560.84 422.81H588.31H588.32Z" fill="white"/>
<path d="M647.32 419.4C647.32 421.15 647.14 423.09 646.77 425.21L642.16 451.12H634.6L639.12 425.58C639.4 424.01 639.67 422.35 639.67 420.05C639.67 414.15 636.07 410.46 629.44 410.46C620.41 410.46 614.23 417.28 612.29 427.88L608.14 451.11H600.58L608.88 404.09H615.43L615.34 410.17C618.57 406.76 623.73 403.53 631.2 403.53C640.24 403.53 647.33 408.32 647.33 419.39L647.32 419.4Z" fill="white"/>
<path d="M662.44 411.01H653.96L655.16 404.09H663.64L665.94 390.91H673.5L671.2 404.09H683.09L681.89 411.01H670L665.02 439.04C664.93 439.78 664.84 440.42 664.84 440.98C664.84 443.38 666.04 444.21 669.08 444.21H677.01L675.81 451.12H667.88C660.32 451.12 657.19 448.17 657.19 442.36C657.19 441.25 657.47 439.59 657.84 437.29L662.45 411.02L662.44 411.01Z" fill="white"/>
<path d="M171.72 497.76C171.72 513.89 160.84 525.42 146.46 525.42C137.7 525.42 132.63 521.73 130.51 517.31L126.08 543.31H118.52L130.04 477.85H136.59V484.21C140.09 480.34 145.07 477.3 152.17 477.3C163.88 477.3 171.72 486.15 171.72 497.77V497.76ZM163.98 498.87C163.98 489.19 158.82 484.03 150.98 484.03C139.55 484.03 132.91 494.45 132.91 503.85C132.91 513.25 138.07 518.69 145.82 518.69C157.34 518.69 163.98 508.27 163.98 498.87Z" fill="white"/>
<path d="M220.95 517.95L219.75 524.86H215.88C210.99 524.86 208.5 522.65 208.23 519.79C204.63 522.74 199.75 525.41 192.56 525.41C183.06 525.41 176.43 520.89 176.43 512.69C176.43 501.63 185.28 497.02 197.63 497.02H211.64L212.1 494.53C212.19 493.79 212.38 492.41 212.38 491.49C212.38 486.79 208.42 484.02 202.15 484.02C194.5 484.02 190.9 487.15 189.15 491.95H181.41C184.18 482.45 191 477.29 202.98 477.29C212.75 477.29 220.04 481.99 220.04 491.03C220.04 492.51 219.86 494.07 219.58 495.73L216.17 513.98C215.99 514.9 215.89 515.36 215.89 515.92C215.89 517.12 216.54 517.95 218.47 517.95H220.96H220.95ZM210.16 505.41L210.53 503.38H196.24C189.05 503.38 184.16 506.05 184.16 512.05C184.16 516.66 187.85 518.96 193.29 518.96C202.97 518.96 208.78 513.24 210.16 505.41Z" fill="white"/>
<path d="M257.73 477.85L256.44 485.23H252.94C243.08 485.23 238.65 493.71 237.27 501.18L233.12 524.87H225.56L233.86 477.85H240.41L240.23 484.49C243 481.08 247.14 477.85 255.35 477.85H257.75H257.73Z" fill="white"/>
<path d="M299.03 517.95L297.83 524.86H293.96C289.07 524.86 286.58 522.65 286.31 519.79C282.71 522.74 277.83 525.41 270.64 525.41C261.14 525.41 254.51 520.89 254.51 512.69C254.51 501.63 263.36 497.02 275.71 497.02H289.72L290.18 494.53C290.27 493.79 290.46 492.41 290.46 491.49C290.46 486.79 286.5 484.02 280.23 484.02C272.58 484.02 268.98 487.15 267.23 491.95H259.49C262.26 482.45 269.08 477.29 281.06 477.29C290.83 477.29 298.12 481.99 298.12 491.03C298.12 492.51 297.94 494.07 297.66 495.73L294.25 513.98C294.07 514.9 293.97 515.36 293.97 515.92C293.97 517.12 294.62 517.95 296.55 517.95H299.04H299.03ZM288.25 505.41L288.62 503.38H274.33C267.14 503.38 262.25 506.05 262.25 512.05C262.25 516.66 265.94 518.96 271.38 518.96C281.06 518.96 286.87 513.24 288.25 505.41Z" fill="white"/>
<path d="M353.61 497.76C353.61 513.89 342.73 525.42 328.35 525.42C319.59 525.42 314.52 521.73 312.4 517.31L307.97 543.31H300.41L311.93 477.85H318.48V484.21C321.98 480.34 326.96 477.3 334.06 477.3C345.77 477.3 353.61 486.15 353.61 497.77V497.76ZM345.86 498.87C345.86 489.19 340.7 484.03 332.86 484.03C321.43 484.03 314.79 494.45 314.79 503.85C314.79 513.25 319.95 518.69 327.7 518.69C339.22 518.69 345.86 508.27 345.86 498.87Z" fill="white"/>
<path d="M405.23 495.64C405.23 498.31 405.05 500.71 404.49 503.11H368.17C368.08 503.76 368.08 504.31 368.08 504.86C368.08 512.05 372.04 518.69 381.54 518.69C389.19 518.69 392.79 514.91 395.37 509.1H403.02C399.89 519.7 391.86 525.42 381.26 525.42C368.08 525.42 360.42 517.03 360.42 505.04C360.42 490.29 370.01 477.29 386.33 477.29C398.04 477.29 405.23 484.67 405.23 495.64ZM397.03 496.56C397.12 495.91 397.12 495.55 397.12 494.9C397.12 487.99 392.6 483.93 385.41 483.93C377.57 483.93 371.49 489.18 369.55 496.56H397.02H397.03Z" fill="white"/>
<path d="M456.03 493.15C456.03 494.9 455.85 496.84 455.48 498.96L450.87 524.87H443.31L447.83 499.33C448.11 497.76 448.38 496.1 448.38 493.8C448.38 487.9 444.78 484.21 438.15 484.21C429.12 484.21 422.94 491.03 421 501.63L416.85 524.86H409.29L417.59 477.84H424.14L424.05 483.92C427.28 480.51 432.44 477.28 439.91 477.28C448.94 477.28 456.04 482.07 456.04 493.14L456.03 493.15Z" fill="white"/>
<path d="M471.15 484.76H462.67L463.87 477.84H472.35L474.65 464.66H482.21L479.91 477.84H491.8L490.6 484.76H478.71L473.73 512.79C473.64 513.53 473.55 514.17 473.55 514.73C473.55 517.13 474.75 517.96 477.79 517.96H485.72L484.52 524.87H476.59C469.03 524.87 465.9 521.92 465.9 516.11C465.9 515 466.18 513.34 466.55 511.04L471.16 484.77L471.15 484.76Z" fill="white"/>
<path d="M537.06 495.64C537.06 498.31 536.88 500.71 536.32 503.11H500C499.91 503.76 499.91 504.31 499.91 504.86C499.91 512.05 503.87 518.69 513.37 518.69C521.02 518.69 524.62 514.91 527.2 509.1H534.85C531.72 519.7 523.69 525.42 513.09 525.42C499.91 525.42 492.25 517.03 492.25 505.04C492.25 490.29 501.84 477.29 518.16 477.29C529.87 477.29 537.06 484.67 537.06 495.64ZM528.86 496.56C528.95 495.91 528.95 495.55 528.95 494.9C528.95 487.99 524.43 483.93 517.24 483.93C509.4 483.93 503.32 489.18 501.38 496.56H528.85H528.86Z" fill="white"/>
</svg>
