<svg width="1728" height="210" viewBox="0 0 1728 210" fill="none" xmlns="http://www.w3.org/2000/svg">
<g clip-path="url(#clip0_2_47)">
<g opacity="0.5">
<path opacity="0.3" d="M1728 2.79L1637.36 31.2L1519.52 94.45L1349.28 27.84L1278.12 0L1198.4 26.5L1136.09 18.79L1004.52 55.39L936.85 94.48L863.35 132.81L742.98 76.41L641.69 68.62L520.96 110.08L455.83 99.57L388.15 41.79L307.12 22.34L163.19 48.59L89.59 98.48L0 129.83V324H1728V2.79Z" fill="white"/>
</g>
<path opacity="0.6" d="M1728 88.91L1689.81 81.86L1645.92 48.78L1577.92 41.46L1514.34 21.36L1402.08 47.68L1292.28 106.66L1249.68 129.26L1179.89 136.06L1029.44 175.42L945.23 121.87L884.22 103.27L812.95 67.85L699.27 84.67L557.55 152.46L370.1 116.91L256.72 62.34L105.81 40.08L0 95.56V365.11H1728V88.91Z" fill="white"/>
<path d="M0 390H1728V76.03L1632.59 114.02L1557.31 143.99L1516.64 111.29L1454.46 100.83L1408.73 114.77L1353.86 151.36L1259.83 187.53L1096.25 131.39L1024.64 113.02L933.77 138.71L863.69 132.19L733.83 153.1L572.78 113.71L472.23 132.21L300.37 140.9L138.17 195.11L0 143.99V390Z" fill="white"/>
</g>
<defs>
<clipPath id="clip0_2_47">
<rect width="1728" height="210" fill="white"/>
</clipPath>
</defs>
</svg>
