<?xml version="1.0" encoding="UTF-8" standalone="no"?>
<!-- Created with Inkscape (http://www.inkscape.org/) -->

<svg
   width="1440mm"
   height="600mm"
   viewBox="0 0 1440 600"
   version="1.1"
   id="svg1"
   inkscape:version="1.4.2 (f4327f4, 2025-05-13)"
   sodipodi:docname="gaston.svg"
   xmlns:inkscape="http://www.inkscape.org/namespaces/inkscape"
   xmlns:sodipodi="http://sodipodi.sourceforge.net/DTD/sodipodi-0.dtd"
   xmlns="http://www.w3.org/2000/svg"
   xmlns:svg="http://www.w3.org/2000/svg">
  <sodipodi:namedview
     id="namedview1"
     pagecolor="#ffffff"
     bordercolor="#000000"
     borderopacity="0.25"
     inkscape:showpageshadow="2"
     inkscape:pageopacity="0.0"
     inkscape:pagecheckerboard="0"
     inkscape:deskcolor="#d1d1d1"
     inkscape:document-units="mm"
     inkscape:zoom="0.24346724"
     inkscape:cx="2698.515"
     inkscape:cy="963.16859"
     inkscape:window-width="1920"
     inkscape:window-height="991"
     inkscape:window-x="-9"
     inkscape:window-y="-9"
     inkscape:window-maximized="1"
     inkscape:current-layer="layer2" />
  <defs
     id="defs1" />
  <g
     inkscape:groupmode="layer"
     id="layer2"
     inkscape:label="1">
    <path
       style="fill:#ffffff;stroke-width:0.264583"
       d="m 1.0867307,599.87536 v -38.03557 l 53.2498063,11.95403 120.627113,-34.77537 59.77019,-14.12751 52.16307,21.73462 27.16827,23.90807 52.16307,7.60711 107.58633,-42.38249 39.12233,-34.77538 103.23941,19.56115 33.68865,18.47443 48.90289,9.78056 51.07633,24.99481 66.29058,-21.73462 41.29577,-30.42846 73.89768,-22.82134 105.41288,41.29577 44.556,34.77538 105.4128,-15.21423 56.51,-33.68866 79.3314,-13.04075 72.8109,-29.34174 45.6427,-38.03557 v 154.31576 z"
       id="path4" />
  </g>
  <g
     inkscape:groupmode="layer"
     id="layer3"
     inkscape:label="2"
     style="opacity:0.5">
    <path
       style="fill:#ffffff;stroke-width:0.264583"
       d="M 3.2601921,599.87536 1.0867307,516.1971 44.55596,548.79901 l 98.89249,-21.73462 72.81096,-32.60191 74.98442,32.60191 59.7702,15.21423 32.6019,23.90809 67.37731,-15.21423 49.98963,-14.12751 71.72423,10.86731 51.07633,-21.73462 153.22905,-20.64787 74.98439,28.25499 60.85692,40.20904 61.94367,-29.34173 82.59154,-36.94885 102.1527,-29.34174 32.6019,-23.90806 141.275,51.07635 40.209,51.07633 67.3773,17.3877 -1.0867,26.08154 z"
       id="path3" />
  </g>
  <g
     inkscape:groupmode="layer"
     id="layer4"
     inkscape:label="3"
     style="opacity:0.301">
    <path
       style="fill:#ffffff;stroke-width:0.264583"
       d="m -1.0867307,596.61517 3.2601921,-121.71384 91.2853796,28.25499 84.764999,-30.42846 93.45884,-22.82134 104.32614,18.47442 64.11711,35.8621 70.6375,23.9081 81.50482,-21.73462 39.1223,-31.51519 63.03039,-22.82134 30.42846,-23.90809 81.50478,18.47442 63.03039,49.98961 60.85692,28.25501 101.06601,-22.82134 44.5559,-47.81616 84.765,-26.08154 89.1119,5.43366 110.8466,55.42325 39.1223,35.86213 39.1223,-39.1223 2.1734,116.28017 z"
       id="path2" />
  </g>
</svg>
